<svg width="31" height="30" viewBox="0 0 31 30" fill="none" xmlns="http://www.w3.org/2000/svg">
<path d="M8.25 25C7.20833 25 6.32292 24.6354 5.59375 23.9062C4.86458 23.1771 4.5 22.2917 4.5 21.25H2V5H22V10H25.75L29.5 15V21.25H27C27 22.2917 26.6354 23.1771 25.9062 23.9062C25.1771 24.6354 24.2917 25 23.25 25C22.2083 25 21.3229 24.6354 20.5938 23.9062C19.8646 23.1771 19.5 22.2917 19.5 21.25H12C12 22.2917 11.6354 23.1771 10.9062 23.9062C10.1771 24.6354 9.29167 25 8.25 25ZM8.25 22.5C8.60417 22.5 8.90125 22.38 9.14125 22.14C9.38125 21.9 9.50083 21.6033 9.5 21.25C9.49917 20.8967 9.37917 20.6 9.14 20.36C8.90083 20.12 8.60417 20 8.25 20C7.89583 20 7.59917 20.12 7.36 20.36C7.12083 20.6 7.00083 20.8967 7 21.25C6.99917 21.6033 7.11917 21.9004 7.36 22.1412C7.60083 22.3821 7.8975 22.5017 8.25 22.5ZM23.25 22.5C23.6042 22.5 23.9012 22.38 24.1412 22.14C24.3812 21.9 24.5008 21.6033 24.5 21.25C24.4992 20.8967 24.3792 20.6 24.14 20.36C23.9008 20.12 23.6042 20 23.25 20C22.8958 20 22.5992 20.12 22.36 20.36C22.1208 20.6 22.0008 20.8967 22 21.25C21.9992 21.6033 22.1192 21.9004 22.36 22.1412C22.6008 22.3821 22.8975 22.5017 23.25 22.5ZM22 16.25H27.3125L24.5 12.5H22V16.25Z" fill="white"/>
</svg>
