<svg width="31" height="30" viewBox="0 0 31 30" fill="none" xmlns="http://www.w3.org/2000/svg">
<path d="M23.25 3.75H8.25V8.75H23.25M24.5 15C24.1685 15 23.8505 14.8683 23.6161 14.6339C23.3817 14.3995 23.25 14.0815 23.25 13.75C23.25 13.4185 23.3817 13.1005 23.6161 12.8661C23.8505 12.6317 24.1685 12.5 24.5 12.5C24.8315 12.5 25.1495 12.6317 25.3839 12.8661C25.6183 13.1005 25.75 13.4185 25.75 13.75C25.75 14.0815 25.6183 14.3995 25.3839 14.6339C25.1495 14.8683 24.8315 15 24.5 15ZM20.75 23.75H10.75V17.5H20.75M24.5 10H7C6.00544 10 5.05161 10.3951 4.34835 11.0983C3.64509 11.8016 3.25 12.7554 3.25 13.75V21.25H8.25V26.25H23.25V21.25H28.25V13.75C28.25 12.7554 27.8549 11.8016 27.1517 11.0983C26.4484 10.3951 25.4946 10 24.5 10Z" fill="white"/>
</svg>
