<svg xmlns="http://www.w3.org/2000/svg" xmlns:xlink="http://www.w3.org/1999/xlink" width="500" zoomAndPan="magnify" viewBox="0 0 375 374.999991" height="500" preserveAspectRatio="xMidYMid meet" version="1.0"><defs><clipPath id="005b793312"><path d="M 171.378906 125.597656 L 238 125.597656 L 238 206.597656 L 171.378906 206.597656 Z M 171.378906 125.597656 " clip-rule="nonzero"/></clipPath></defs><g clip-path="url(#005b793312)"><path fill="#000000" d="M 188.054688 155.199219 C 190.277344 150.453125 197.027344 153.363281 197.027344 153.363281 C 197.027344 153.363281 194.761719 153.34375 193.039062 154.621094 C 191.609375 155.683594 189.722656 156.628906 188.054688 155.199219 Z M 171.375 164.5625 C 171.375 164.5625 171.839844 172.433594 179.542969 173.113281 C 183.867188 173.492188 193.21875 169.550781 196.832031 171.59375 C 202.019531 174.527344 186.035156 195.730469 171.375 204.660156 C 171.375 204.660156 195.890625 200.621094 207.660156 184.128906 C 207.660156 184.128906 209.179688 194.386719 203.667969 201.226562 C 203.667969 201.226562 213.167969 197.617188 220.816406 187.167969 C 220.816406 187.167969 229.3125 192.679688 234.824219 206.546875 C 234.824219 206.546875 248.3125 175.390625 218.488281 146.515625 C 218.488281 146.515625 217.726562 152.785156 215.828125 153.546875 C 215.828125 153.546875 220.957031 134.167969 204.429688 125.621094 C 204.429688 125.621094 205.757812 138.917969 196.261719 142.90625 C 186.761719 146.898438 186.570312 152.597656 187.140625 155.824219 C 187.140625 155.824219 177.644531 164.183594 171.375 164.5625 " fill-opacity="1" fill-rule="nonzero"/></g><path fill="#000000" d="M 202.78125 130.28125 C 202.398438 133.382812 201.289062 137.378906 198.253906 139.929688 C 200.234375 134.46875 198.910156 128.417969 198.910156 128.417969 C 200.332031 128.953125 201.613281 129.585938 202.78125 130.28125 " fill-opacity="1" fill-rule="nonzero"/></svg>