<svg xmlns="http://www.w3.org/2000/svg" xmlns:xlink="http://www.w3.org/1999/xlink" width="500" zoomAndPan="magnify" viewBox="0 0 375 374.999991" height="500" preserveAspectRatio="xMidYMid meet" version="1.0"><defs><g/><clipPath id="5df643548d"><path d="M 2.878906 2.878906 L 372.121094 2.878906 L 372.121094 372.121094 L 2.878906 372.121094 Z M 2.878906 2.878906 " clip-rule="nonzero"/></clipPath><clipPath id="6e07d8a59e"><path d="M 187.5 2.878906 C 85.535156 2.878906 2.878906 85.535156 2.878906 187.5 C 2.878906 289.464844 85.535156 372.121094 187.5 372.121094 C 289.464844 372.121094 372.121094 289.464844 372.121094 187.5 C 372.121094 85.535156 289.464844 2.878906 187.5 2.878906 Z M 187.5 2.878906 " clip-rule="nonzero"/></clipPath><clipPath id="1dc171becf"><path d="M 2.878906 2.878906 L 371.878906 2.878906 L 371.878906 371.878906 L 2.878906 371.878906 Z M 2.878906 2.878906 " clip-rule="nonzero"/></clipPath><clipPath id="31ab9e3753"><path d="M 187.496094 2.878906 C 85.535156 2.878906 2.878906 85.535156 2.878906 187.496094 C 2.878906 289.457031 85.535156 372.113281 187.496094 372.113281 C 289.457031 372.113281 372.113281 289.457031 372.113281 187.496094 C 372.113281 85.535156 289.457031 2.878906 187.496094 2.878906 Z M 187.496094 2.878906 " clip-rule="nonzero"/></clipPath><clipPath id="bce084b13f"><path d="M 126.167969 105 L 197 105 L 197 156 L 126.167969 156 Z M 126.167969 105 " clip-rule="nonzero"/></clipPath><clipPath id="208f569abc"><path d="M 126.167969 114 L 149 114 L 149 140 L 126.167969 140 Z M 126.167969 114 " clip-rule="nonzero"/></clipPath><clipPath id="a8766c1337"><path d="M 227 200.25 L 296.417969 200.25 L 296.417969 268.398438 L 227 268.398438 Z M 227 200.25 " clip-rule="nonzero"/></clipPath><clipPath id="1c80f3f040"><path d="M 154.269531 192 L 237.773438 192 L 237.773438 280.738281 L 154.269531 280.738281 Z M 154.269531 192 " clip-rule="nonzero"/></clipPath><clipPath id="1543fffc9a"><path d="M 154.269531 260.570312 L 192.417969 260.570312 L 192.417969 280.738281 L 154.269531 280.738281 Z M 154.269531 260.570312 " clip-rule="nonzero"/></clipPath></defs><g clip-path="url(#5df643548d)"><g clip-path="url(#6e07d8a59e)"><path fill="#fffffe" d="M 2.878906 2.878906 L 372.121094 2.878906 L 372.121094 372.121094 L 2.878906 372.121094 Z M 2.878906 2.878906 " fill-opacity="1" fill-rule="nonzero"/></g></g><g clip-path="url(#1dc171becf)"><g clip-path="url(#31ab9e3753)"><path stroke-linecap="butt" transform="matrix(0.75, 0, 0, 0.75, 2.879551, 2.87956)" fill="none" stroke-linejoin="miter" d="M 246.155406 -0.000872129 C 110.20748 -0.000872129 -0.000860145 110.207468 -0.000860145 246.155394 C -0.000860145 382.10332 110.20748 492.31166 246.155406 492.31166 C 382.103332 492.31166 492.311672 382.10332 492.311672 246.155394 C 492.311672 110.207468 382.103332 -0.000872129 246.155406 -0.000872129 Z M 246.155406 -0.000872129 " stroke="#000000" stroke-width="2" stroke-opacity="1" stroke-miterlimit="4"/></g></g><path fill="#222524" d="M 244.234375 51.246094 C 232.804688 52.519531 213.933594 40.015625 211.324219 39.589844 C 217.082031 47.261719 219.625 56.8125 221.8125 66.148438 C 224 75.484375 226.039062 85.070312 231.019531 93.265625 C 236 101.460938 244.644531 108.15625 254.242188 107.976562 C 256.835938 107.925781 259.773438 107.113281 260.878906 104.769531 C 261.570312 103.296875 261.359375 101.578125 261.128906 99.964844 C 259.875 91.085938 258.617188 82.207031 257.359375 73.328125 C 256.210938 65.21875 252.386719 50.335938 244.234375 51.246094 " fill-opacity="1" fill-rule="nonzero"/><path fill="#443639" d="M 212.511719 204.921875 C 209.304688 196.160156 199.492188 191.71875 190.308594 190.007812 C 181.953125 188.453125 172.957031 188.460938 165.359375 192.269531 C 154.335938 197.796875 148.324219 210.515625 147.785156 222.824219 C 147.25 235.128906 151.324219 247.15625 156.039062 258.539062 C 153.082031 257.136719 150.117188 257.695312 146.847656 257.824219 C 143.578125 257.957031 140.265625 259.292969 138.21875 261.84375 C 136.171875 264.394531 134.613281 272.121094 136.328125 274.90625 C 163.015625 281.601562 185.332031 274.386719 205.707031 271.003906 C 209.730469 270.332031 214.1875 269.527344 216.621094 266.257812 C 218.410156 263.859375 218.675781 260.683594 218.792969 257.691406 C 219.5 239.421875 218.792969 222.097656 212.511719 204.921875 " fill-opacity="1" fill-rule="nonzero"/><g clip-path="url(#bce084b13f)"><path fill="#443639" d="M 134.546875 139.238281 C 131.175781 139.917969 127.519531 137.859375 126.699219 134.382812 C 126.175781 132.175781 126.808594 129.871094 127.527344 127.71875 C 129.28125 122.488281 131.640625 117.371094 135.253906 113.203125 C 138.867188 109.03125 143.855469 105.863281 149.34375 105.242188 C 154.828125 104.621094 161.683594 107.152344 164.21875 112.050781 C 170.433594 124.066406 182.429688 132.933594 195.757812 135.355469 C 196.1875 139.210938 197.320312 142.726562 195.976562 146.363281 C 194.632812 150 191.871094 153.25 188.195312 154.496094 C 185.253906 155.492188 181.988281 155.144531 179.054688 154.125 C 169.992188 150.976562 161.523438 145.191406 156.867188 136.617188 C 155.652344 134.382812 148.738281 121.523438 148.285156 122.980469 C 147.296875 126.164062 144.488281 129.710938 142.539062 132.386719 C 140.734375 134.867188 138.542969 137.847656 135.492188 138.972656 C 135.183594 139.085938 134.867188 139.175781 134.546875 139.238281 " fill-opacity="1" fill-rule="nonzero"/></g><path fill="#494544" d="M 257.449219 222.789062 C 254.589844 199.441406 244.242188 177.792969 236.171875 155.695312 C 229.109375 136.355469 223.714844 115.382812 226.742188 95.261719 C 230.957031 94.796875 240.261719 73.707031 238.472656 63.957031 C 236.464844 53.027344 231.414062 42.230469 222.515625 35.558594 C 212.28125 27.882812 196.152344 26.988281 184.953125 33.175781 C 169.644531 27.269531 154.335938 21.363281 139.027344 15.457031 C 137.195312 14.75 135.171875 14.039062 133.316406 14.675781 C 130.21875 15.738281 129.46875 19.734375 129.496094 23.007812 C 129.621094 37.5 135.070312 51.890625 144.585938 62.832031 C 154.371094 74.085938 173.203125 76.582031 179.632812 90.027344 C 179.890625 90.566406 180.105469 91.113281 180.300781 91.664062 C 180.199219 91.660156 180.097656 91.664062 179.996094 91.660156 C 179.417969 99.664062 175.117188 106.464844 170.464844 113.195312 C 169.058594 114.074219 167.710938 115.046875 166.453125 116.152344 C 155.777344 125.496094 153.957031 140.847656 156.214844 154.351562 C 156.382812 155.34375 156.570312 156.335938 156.769531 157.324219 C 157.382812 161.851562 158.570312 166.296875 160.332031 170.507812 C 167.585938 192.648438 179.78125 213.90625 178.324219 236.855469 C 177.910156 243.363281 176.386719 249.773438 175.832031 256.269531 C 175.273438 262.769531 175.195312 269.179688 178.527344 274.90625 C 182.613281 275.445312 186.722656 275.976562 190.835938 276.253906 C 192.136719 276.402344 193.464844 276.453125 194.796875 276.433594 C 196.578125 276.46875 198.359375 276.433594 200.140625 276.316406 C 201.292969 276.238281 202.441406 276.105469 203.585938 275.945312 C 212.183594 275.324219 220.941406 278.046875 229.101562 275.339844 C 239 272.050781 248.34375 265.929688 253.4375 256.839844 C 258.515625 247.777344 258.710938 233.09375 257.449219 222.789062 " fill-opacity="1" fill-rule="nonzero"/><path fill="#e08742" d="M 196.226562 71.351562 C 194.984375 66.992188 190.867188 64.160156 186.941406 61.882812 C 177.304688 56.292969 167.082031 51.785156 156.777344 47.546875 C 151.828125 45.53125 148.367188 43.148438 144.445312 39.65625 C 141.355469 36.902344 136.023438 38.476562 131.882812 39.308594 C 134.355469 47.941406 138.6875 56.046875 144.585938 62.832031 C 150.238281 69.339844 157.847656 73.222656 164.511719 78.503906 C 171.40625 83.96875 175.226562 93.050781 174.253906 101.796875 C 173.121094 111.984375 165.269531 116.703125 160.101562 124.671875 C 154.609375 133.132812 154.605469 144.726562 156.214844 154.351562 C 156.382812 155.34375 156.570312 156.335938 156.769531 157.324219 C 157.382812 161.851562 158.570312 166.296875 160.332031 170.507812 C 167.585938 192.648438 179.78125 213.90625 178.324219 236.855469 C 178.058594 241.03125 177.339844 245.160156 176.710938 249.300781 C 185.234375 240.285156 188.363281 226.949219 187.851562 214.425781 C 187.296875 200.867188 183.105469 187.765625 179.992188 174.554688 C 176.882812 161.34375 174.859375 147.363281 178.617188 134.320312 C 180.648438 127.265625 185.320312 121.019531 186.539062 113.777344 C 187.503906 108.046875 188.25 104.957031 187.992188 96.839844 C 187.988281 96.789062 187.964844 96.703125 187.953125 96.636719 C 187.832031 93.929688 187.71875 90.570312 187.445312 87.441406 C 190.421875 85.816406 193 83.554688 194.707031 80.628906 C 196.324219 77.84375 197.109375 74.449219 196.226562 71.351562 " fill-opacity="1" fill-rule="nonzero"/><path fill="#e08742" d="M 171.371094 274.011719 C 168.25 270.96875 164.175781 269.152344 160.960938 266.21875 C 158.507812 263.984375 156.785156 260.953125 154.273438 258.808594 C 153.765625 258.375 153.207031 258 152.628906 257.660156 C 150.769531 257.503906 148.867188 257.742188 146.847656 257.824219 C 143.578125 257.957031 140.265625 259.292969 138.21875 261.84375 C 136.171875 264.394531 134.613281 272.121094 136.328125 274.90625 C 149.710938 278.261719 161.996094 278.121094 173.488281 276.71875 C 172.894531 275.726562 172.179688 274.800781 171.371094 274.011719 " fill-opacity="1" fill-rule="nonzero"/><path fill="#000000" d="M 137.726562 275.214844 C 137.738281 275.140625 137.757812 275.078125 137.75 274.996094 C 137.453125 272.042969 138.105469 264.21875 141.914062 263.664062 C 143.058594 263.496094 142.570312 261.757812 141.433594 261.925781 C 139.269531 262.238281 138.101562 263.90625 137.402344 265.847656 C 136.476562 268.417969 135.847656 271.1875 135.921875 273.933594 C 136.03125 274.296875 136.160156 274.628906 136.328125 274.90625 C 136.800781 275.023438 137.257812 275.105469 137.726562 275.214844 " fill-opacity="1" fill-rule="nonzero"/><path fill="#000000" d="M 146.949219 265.925781 C 148.089844 265.792969 148.105469 263.992188 146.949219 264.125 C 141.808594 264.71875 140.089844 271.257812 140.652344 275.863281 C 141.277344 275.988281 141.898438 276.09375 142.523438 276.203125 C 141.933594 272.917969 142.925781 266.390625 146.949219 265.925781 " fill-opacity="1" fill-rule="nonzero"/><path fill="#222524" d="M 155.4375 258.652344 C 159.105469 261.09375 166.144531 262.144531 170.371094 260.820312 C 171.386719 260.503906 171.589844 258.753906 170.371094 258.558594 C 168.078125 258.183594 165.730469 258.386719 163.414062 258.121094 C 160.878906 257.828125 158.480469 256.953125 155.96875 256.695312 C 154.847656 256.578125 154.648438 258.128906 155.4375 258.652344 " fill-opacity="1" fill-rule="nonzero"/><g clip-path="url(#208f569abc)"><path fill="#e08742" d="M 142.539062 132.386719 C 144.484375 129.71875 147.273438 126.1875 148.273438 123.011719 C 147.570312 122.535156 146.480469 122.808594 145.589844 123.03125 C 142.015625 123.925781 137.871094 122.820312 135.644531 119.890625 C 134.597656 118.515625 134.09375 116.757812 134.144531 115.042969 C 134.152344 114.863281 134.179688 114.675781 134.222656 114.484375 C 131.1875 118.398438 129.105469 123.007812 127.527344 127.71875 C 126.808594 129.871094 126.175781 132.175781 126.699219 134.382812 C 127.519531 137.859375 131.175781 139.917969 134.546875 139.238281 C 134.867188 139.175781 135.183594 139.085938 135.492188 138.972656 C 138.542969 137.847656 140.734375 134.867188 142.539062 132.386719 " fill-opacity="1" fill-rule="nonzero"/></g><path fill="#222524" d="M 129.972656 127.351562 C 128.433594 130.207031 126.960938 133.195312 127.378906 136.523438 C 127.496094 137.453125 128.976562 137.464844 128.859375 136.523438 C 128.46875 133.441406 129.824219 130.738281 131.25 128.097656 C 131.699219 127.261719 130.421875 126.515625 129.972656 127.351562 " fill-opacity="1" fill-rule="nonzero"/><path fill="#222524" d="M 134.0625 129.996094 C 133.277344 131.328125 132.652344 132.726562 132.113281 134.171875 C 131.585938 135.585938 130.9375 137.0625 130.898438 138.585938 C 130.878906 139.539062 132.355469 139.539062 132.378906 138.585938 C 132.410156 137.242188 133.078125 135.808594 133.539062 134.5625 C 134.039062 133.234375 134.617188 131.964844 135.339844 130.738281 C 135.820312 129.917969 134.542969 129.175781 134.0625 129.996094 " fill-opacity="1" fill-rule="nonzero"/><g clip-path="url(#a8766c1337)"><path fill="#494544" d="M 227.089844 267.136719 C 245.511719 271.023438 265.710938 265.160156 279.171875 252.019531 C 292.636719 238.875 298.964844 218.84375 295.492188 200.363281 C 294.246094 221.191406 280.203125 240.425781 261.226562 249.160156 C 255.042969 252.003906 247.9375 253.828125 241.4375 251.792969 C 238.519531 257.867188 232.550781 263.179688 227.089844 267.136719 " fill-opacity="1" fill-rule="nonzero"/></g><path fill="#e08742" d="M 209.925781 38.992188 C 209.78125 40.6875 209.675781 43.167969 210.769531 44.617188 C 211.789062 45.964844 213.589844 45.886719 214.707031 44.691406 C 215.996094 43.308594 215.644531 41.214844 215.167969 39.5625 C 214.96875 38.863281 214.621094 38.144531 214.128906 37.601562 C 213.828125 36.867188 213.335938 36.277344 212.496094 36.1875 C 210.847656 36.011719 210.042969 37.597656 209.925781 38.992188 " fill-opacity="1" fill-rule="nonzero"/><path fill="#222524" d="M 247.964844 65.265625 C 236.636719 63.289062 223.566406 46.910156 221.179688 45.769531 C 224.554688 54.746094 220.414062 61.332031 219.894531 70.90625 C 219.375 80.476562 217.699219 87.375 220.175781 96.636719 C 222.65625 105.898438 231.710938 119.078125 240.972656 121.59375 C 243.476562 122.269531 246.523438 122.3125 248.242188 120.375 C 249.320312 119.15625 252.128906 114.3125 252.363281 112.699219 C 253.648438 103.824219 249.773438 93.75 251.058594 84.875 C 252.234375 76.765625 256.046875 66.675781 247.964844 65.265625 " fill-opacity="1" fill-rule="nonzero"/><path fill="#494544" d="M 248.0625 61.46875 C 236.734375 59.492188 222.128906 42.207031 219.746094 41.066406 C 223.117188 50.042969 222.878906 59.921875 222.355469 69.496094 C 221.835938 79.070312 221.101562 88.839844 223.578125 98.105469 C 226.058594 107.367188 232.480469 116.210938 241.742188 118.726562 C 244.246094 119.402344 247.296875 119.449219 249.011719 117.507812 C 250.089844 116.289062 250.371094 114.578125 250.601562 112.96875 C 251.886719 104.089844 253.175781 95.214844 254.460938 86.339844 C 255.636719 78.234375 256.144531 62.875 248.0625 61.46875 " fill-opacity="1" fill-rule="nonzero"/><path fill="#222524" d="M 153.570312 28.707031 C 154.507812 26.421875 154.765625 23.816406 154.351562 21.367188 C 149.242188 19.398438 144.132812 17.429688 139.027344 15.457031 C 137.195312 14.75 135.171875 14.039062 133.316406 14.675781 C 130.21875 15.738281 129.46875 19.734375 129.496094 23.007812 C 129.550781 29.375 130.636719 35.722656 132.640625 41.769531 C 135.617188 42.039062 138.652344 41.128906 141.414062 39.90625 C 146.578125 37.617188 151.4375 33.933594 153.570312 28.707031 " fill-opacity="1" fill-rule="nonzero"/><path fill="#222524" d="M 186.574219 71.917969 C 186.234375 71.3125 185.316406 71.199219 184.761719 71.515625 C 184.246094 71.808594 184.007812 72.332031 184.050781 72.894531 C 164.65625 72.480469 149.488281 63.738281 136.890625 49.148438 C 136.355469 48.527344 135.421875 49.191406 135.855469 49.898438 C 145.746094 66.078125 165.746094 75.492188 184.304688 75.5625 C 184.304688 75.859375 184.304688 76.15625 184.324219 76.453125 C 184.402344 77.585938 185.792969 77.824219 186.480469 77.101562 C 187.839844 75.675781 187.460938 73.5 186.574219 71.917969 " fill-opacity="1" fill-rule="nonzero"/><path fill="#222524" d="M 185.617188 32.957031 C 185.382812 32.753906 184.941406 32.996094 185.019531 33.308594 C 185.59375 35.578125 186.761719 37.597656 187.210938 39.945312 C 187.660156 42.285156 187.265625 44.644531 187.695312 46.964844 C 187.773438 47.378906 188.289062 47.40625 188.472656 47.058594 C 190.519531 43.257812 188.800781 35.769531 185.617188 32.957031 " fill-opacity="1" fill-rule="nonzero"/><path fill="#ffffff" d="M 206.753906 43.488281 C 202.621094 36.449219 193.242188 44.699219 193.101562 50.367188 C 193.027344 53.382812 194.820312 56.09375 197.847656 56.820312 C 202.566406 57.949219 206.59375 54.222656 207.722656 49.875 C 208.226562 47.933594 207.867188 45.386719 206.753906 43.488281 " fill-opacity="1" fill-rule="nonzero"/><path fill="#000000" d="M 207.023438 44.011719 C 206.9375 43.835938 206.851562 43.65625 206.753906 43.488281 C 202.621094 36.449219 193.242188 44.699219 193.101562 50.367188 C 193.066406 51.765625 193.449219 53.089844 194.15625 54.191406 C 199.429688 53.769531 204.683594 49.523438 207.023438 44.011719 " fill-opacity="1" fill-rule="nonzero"/><path fill="#ffffff" d="M 203.488281 46.671875 C 202.253906 46.519531 200.933594 47.457031 200.835938 48.734375 C 200.730469 50.019531 201.578125 51.222656 202.902344 51.386719 C 204.136719 51.539062 205.453125 50.601562 205.554688 49.324219 C 205.65625 48.039062 204.8125 46.835938 203.488281 46.671875 " fill-opacity="1" fill-rule="nonzero"/><g clip-path="url(#1c80f3f040)"><path fill="#494544" d="M 231.238281 208.007812 C 228.035156 199.242188 218.21875 194.800781 209.035156 193.09375 C 200.679688 191.535156 191.6875 191.542969 184.089844 195.351562 C 173.066406 200.878906 167.050781 213.597656 166.515625 225.90625 C 165.980469 238.210938 170.050781 250.238281 174.769531 261.621094 C 171.8125 260.222656 168.84375 260.777344 165.574219 260.90625 C 162.304688 261.039062 158.992188 262.375 156.945312 264.925781 C 154.898438 267.476562 153.339844 275.207031 155.058594 277.988281 C 181.742188 284.683594 204.058594 277.46875 224.4375 274.085938 C 228.457031 273.417969 232.917969 272.609375 235.351562 269.34375 C 237.140625 266.941406 237.40625 263.765625 237.519531 260.773438 C 238.230469 242.503906 237.519531 225.183594 231.238281 208.007812 " fill-opacity="1" fill-rule="nonzero"/></g><g clip-path="url(#1543fffc9a)"><path fill="#e08742" d="M 190.097656 277.097656 C 186.976562 274.050781 182.90625 272.234375 179.6875 269.304688 C 177.238281 267.066406 175.511719 264.035156 173.003906 261.890625 C 172.492188 261.457031 171.9375 261.085938 171.359375 260.742188 C 169.5 260.585938 167.59375 260.828125 165.574219 260.90625 C 162.304688 261.039062 158.992188 262.375 156.945312 264.925781 C 154.898438 267.476562 153.339844 275.207031 155.058594 277.988281 C 168.441406 281.34375 180.722656 281.203125 192.214844 279.800781 C 191.625 278.808594 190.910156 277.882812 190.097656 277.097656 " fill-opacity="1" fill-rule="nonzero"/></g><path fill="#000000" d="M 156.457031 278.296875 C 156.464844 278.226562 156.488281 278.160156 156.480469 278.078125 C 156.183594 275.128906 156.832031 267.300781 160.640625 266.746094 C 161.789062 266.578125 161.300781 264.84375 160.164062 265.007812 C 157.996094 265.320312 156.828125 266.988281 156.128906 268.929688 C 155.203125 271.503906 154.574219 274.269531 154.652344 277.015625 C 154.757812 277.378906 154.886719 277.714844 155.058594 277.988281 C 155.527344 278.109375 155.988281 278.1875 156.457031 278.296875 " fill-opacity="1" fill-rule="nonzero"/><path fill="#000000" d="M 165.679688 269.007812 C 166.820312 268.878906 166.832031 267.074219 165.679688 267.207031 C 160.535156 267.796875 158.820312 274.34375 159.378906 278.945312 C 160.003906 279.070312 160.628906 279.179688 161.25 279.289062 C 160.660156 276.003906 161.652344 269.472656 165.679688 269.007812 " fill-opacity="1" fill-rule="nonzero"/><path fill="#222524" d="M 176.917969 202.449219 C 185.820312 193.144531 198.550781 190.558594 210.910156 192.707031 C 224.324219 195.035156 231.679688 202.6875 237.816406 214.1875 C 238.410156 215.296875 240.214844 214.539062 239.851562 213.332031 C 231.921875 186.894531 193.4375 180.835938 175.628906 201.160156 C 174.863281 202.035156 176.101562 203.304688 176.917969 202.449219 " fill-opacity="1" fill-rule="nonzero"/><path fill="#222524" d="M 174.164062 261.738281 C 177.832031 264.179688 184.871094 265.226562 189.101562 263.90625 C 190.113281 263.585938 190.316406 261.839844 189.101562 261.640625 C 186.804688 261.265625 184.460938 261.46875 182.140625 261.203125 C 179.609375 260.910156 177.210938 260.035156 174.695312 259.777344 C 173.574219 259.660156 173.378906 261.210938 174.164062 261.738281 " fill-opacity="1" fill-rule="nonzero"/><path fill="#494544" d="M 142.042969 159.992188 C 139.027344 161.640625 134.921875 160.753906 133.105469 157.675781 C 131.949219 155.722656 131.871094 153.335938 131.917969 151.066406 C 132.042969 145.550781 132.777344 139.96875 134.992188 134.914062 C 137.207031 129.863281 141.027344 125.359375 146.082031 123.144531 C 151.140625 120.929688 158.390625 121.359375 162.3125 125.246094 C 175.777344 138.585938 184.214844 136.105469 197.660156 134.476562 C 197.132812 133.519531 210.507812 144.082031 210.613281 148.625 C 210.703125 152.503906 208.578125 155.695312 205.4375 157.972656 C 202.925781 159.792969 192.070312 161.144531 188.96875 161.039062 C 179.375 160.714844 169.570312 157.695312 162.582031 150.882812 C 160.761719 149.105469 152.84375 138.90625 152.84375 140.433594 C 152.84375 143.765625 150.851562 147.949219 149.78125 151.085938 C 148.792969 153.984375 145.449219 157.480469 142.867188 159.457031 C 142.605469 159.660156 142.328125 159.835938 142.042969 159.992188 " fill-opacity="1" fill-rule="nonzero"/><path fill="#e08742" d="M 149.78125 151.085938 C 150.992188 147.960938 152.832031 143.761719 152.84375 140.433594 C 151.917969 140.183594 150.832031 140.765625 149.9375 141.246094 C 146.363281 143.15625 141.492188 143.324219 138.085938 141.1875 C 136.488281 140.1875 135.347656 138.65625 134.828125 137 C 134.773438 136.828125 134.742188 136.640625 134.722656 136.445312 C 132.75 141.085938 132.046875 146.101562 131.921875 151.066406 C 131.863281 153.335938 131.957031 155.722656 133.265625 157.675781 C 135.332031 160.753906 139.992188 161.640625 143.421875 159.992188 C 143.746094 159.835938 144.058594 159.660156 144.359375 159.457031 C 147.289062 157.480469 148.660156 153.984375 149.78125 151.085938 " fill-opacity="1" fill-rule="nonzero"/><path fill="#222524" d="M 134.152344 149.964844 C 133.511719 153.246094 133.027344 156.53125 134.457031 159.675781 C 134.851562 160.539062 136.128906 159.789062 135.734375 158.929688 C 134.488281 156.183594 135.023438 153.199219 135.578125 150.355469 C 135.757812 149.425781 134.335938 149.03125 134.152344 149.964844 " fill-opacity="1" fill-rule="nonzero"/><path fill="#222524" d="M 138.839844 151.277344 C 138.203125 154.019531 137.578125 157.683594 138.359375 160.425781 C 138.617188 161.339844 140.046875 160.953125 139.785156 160.035156 C 139.089844 157.589844 139.707031 154.085938 140.265625 151.671875 C 140.484375 150.746094 139.058594 150.351562 138.839844 151.277344 " fill-opacity="1" fill-rule="nonzero"/><path fill="#222524" d="M 177.015625 160.128906 C 188.902344 166.820312 206.425781 165.992188 215.296875 155.003906 C 216.285156 153.785156 214.550781 152.03125 213.554688 153.265625 C 205.5 163.238281 189.140625 164.125 178.261719 158.003906 C 176.878906 157.226562 175.632812 159.351562 177.015625 160.128906 " fill-opacity="1" fill-rule="nonzero"/><path fill="#222524" d="M 178.957031 136.738281 C 188.078125 139.199219 202.128906 137.984375 207.195312 128.855469 C 207.964844 127.46875 205.835938 126.222656 205.066406 127.613281 C 200.664062 135.550781 187.628906 136.527344 179.613281 134.363281 C 178.078125 133.949219 177.425781 136.324219 178.957031 136.738281 " fill-opacity="1" fill-rule="nonzero"/><path fill="#222524" d="M 152.640625 131.804688 C 152.160156 133.464844 151.90625 135.132812 151.808594 136.859375 C 151.726562 138.375 151.527344 140.042969 152.273438 141.40625 C 152.550781 141.921875 153.328125 141.777344 153.488281 141.246094 C 153.898438 139.863281 153.511719 138.300781 153.53125 136.859375 C 153.554688 135.226562 153.734375 133.597656 153.921875 131.976562 C 154.007812 131.230469 152.839844 131.121094 152.640625 131.804688 " fill-opacity="1" fill-rule="nonzero"/><path fill="#000000" d="M 140.960938 44.539062 C 139.738281 44.394531 138.632812 46.066406 139.746094 46.976562 C 139.757812 46.984375 139.769531 46.996094 139.78125 47.007812 C 140.292969 47.425781 140.859375 47.519531 141.457031 47.222656 C 141.46875 47.214844 141.484375 47.207031 141.496094 47.203125 C 142.730469 46.59375 142.222656 44.6875 140.960938 44.539062 " fill-opacity="1" fill-rule="nonzero"/><path fill="#000000" d="M 147.992188 44.714844 C 146.28125 44.714844 146.277344 47.375 147.992188 47.375 C 149.707031 47.375 149.707031 44.714844 147.992188 44.714844 " fill-opacity="1" fill-rule="nonzero"/><path fill="#000000" d="M 142.433594 50.628906 C 140.730469 50.628906 140.726562 53.273438 142.433594 53.273438 C 144.140625 53.273438 144.140625 50.628906 142.433594 50.628906 " fill-opacity="1" fill-rule="nonzero"/><g fill="#000000" fill-opacity="1"><g transform="translate(43.953861, 297.393755)"><g><path d="M 8.734375 -5.875 C 9.484375 -6.582031 10.109375 -7.210938 10.609375 -7.765625 C 11.117188 -8.316406 11.535156 -8.8125 11.859375 -9.25 C 12.191406 -9.695312 12.46875 -10.09375 12.6875 -10.4375 C 12.90625 -10.789062 13.09375 -11.109375 13.25 -11.390625 C 13.414062 -11.679688 13.597656 -11.957031 13.796875 -12.21875 C 13.992188 -12.488281 14.234375 -12.757812 14.515625 -13.03125 C 14.773438 -13.269531 15.03125 -13.390625 15.28125 -13.390625 C 15.53125 -13.390625 15.765625 -13.320312 15.984375 -13.1875 C 16.203125 -13.0625 16.394531 -12.910156 16.5625 -12.734375 C 16.726562 -12.566406 16.863281 -12.425781 16.96875 -12.3125 L 18.625 -10.53125 C 18.738281 -10.40625 18.882812 -10.234375 19.0625 -10.015625 C 19.25 -9.796875 19.394531 -9.550781 19.5 -9.28125 C 19.601562 -9.019531 19.597656 -8.742188 19.484375 -8.453125 L 19.484375 -8.46875 L 15.953125 1.5 C 16.671875 0.820312 17.269531 0.21875 17.75 -0.3125 C 18.238281 -0.851562 18.640625 -1.335938 18.953125 -1.765625 C 19.265625 -2.191406 19.519531 -2.570312 19.71875 -2.90625 C 19.925781 -3.25 20.113281 -3.5625 20.28125 -3.84375 C 20.457031 -4.132812 20.640625 -4.40625 20.828125 -4.65625 C 21.015625 -4.914062 21.25 -5.179688 21.53125 -5.453125 C 21.789062 -5.691406 22.046875 -5.804688 22.296875 -5.796875 C 22.546875 -5.796875 22.78125 -5.734375 23 -5.609375 C 23.21875 -5.484375 23.410156 -5.332031 23.578125 -5.15625 C 23.742188 -4.976562 23.878906 -4.835938 23.984375 -4.734375 L 25.65625 -2.9375 C 25.757812 -2.820312 25.890625 -2.671875 26.046875 -2.484375 C 26.203125 -2.304688 26.335938 -2.101562 26.453125 -1.875 C 26.566406 -1.644531 26.613281 -1.40625 26.59375 -1.15625 C 26.570312 -0.914062 26.429688 -0.675781 26.171875 -0.4375 C 25.890625 -0.164062 25.601562 0.0507812 25.3125 0.21875 C 25.03125 0.394531 24.742188 0.550781 24.453125 0.6875 C 24.160156 0.832031 23.828125 1 23.453125 1.1875 C 23.085938 1.382812 22.671875 1.625 22.203125 1.90625 C 21.734375 2.195312 21.203125 2.570312 20.609375 3.03125 C 20.023438 3.488281 19.359375 4.070312 18.609375 4.78125 C 17.847656 5.476562 17.210938 6.101562 16.703125 6.65625 C 16.203125 7.207031 15.785156 7.707031 15.453125 8.15625 C 15.128906 8.601562 14.859375 9 14.640625 9.34375 C 14.429688 9.6875 14.238281 10.003906 14.0625 10.296875 C 13.894531 10.585938 13.71875 10.863281 13.53125 11.125 C 13.351562 11.382812 13.117188 11.648438 12.828125 11.921875 C 12.566406 12.160156 12.3125 12.28125 12.0625 12.28125 C 11.8125 12.28125 11.578125 12.210938 11.359375 12.078125 C 11.140625 11.953125 10.945312 11.800781 10.78125 11.625 C 10.613281 11.457031 10.476562 11.316406 10.375 11.203125 L 8.703125 9.40625 C 8.617188 9.3125 8.507812 9.1875 8.375 9.03125 C 8.25 8.882812 8.125 8.71875 8 8.53125 C 7.875 8.351562 7.796875 8.15625 7.765625 7.9375 C 7.734375 7.726562 7.757812 7.519531 7.84375 7.3125 L 11.375 -2.625 C 10.65625 -1.945312 10.050781 -1.335938 9.5625 -0.796875 C 9.082031 -0.265625 8.679688 0.210938 8.359375 0.640625 C 8.046875 1.066406 7.785156 1.453125 7.578125 1.796875 C 7.378906 2.140625 7.195312 2.453125 7.03125 2.734375 C 6.863281 3.015625 6.6875 3.285156 6.5 3.546875 C 6.3125 3.804688 6.078125 4.066406 5.796875 4.328125 C 5.535156 4.566406 5.28125 4.6875 5.03125 4.6875 C 4.78125 4.6875 4.546875 4.617188 4.328125 4.484375 C 4.109375 4.359375 3.910156 4.207031 3.734375 4.03125 C 3.566406 3.851562 3.4375 3.710938 3.34375 3.609375 L 1.6875 1.828125 C 1.582031 1.710938 1.453125 1.5625 1.296875 1.375 C 1.140625 1.195312 1.003906 0.992188 0.890625 0.765625 C 0.773438 0.535156 0.726562 0.296875 0.75 0.046875 C 0.769531 -0.191406 0.910156 -0.429688 1.171875 -0.671875 C 1.460938 -0.941406 1.742188 -1.160156 2.015625 -1.328125 C 2.285156 -1.492188 2.570312 -1.648438 2.875 -1.796875 C 3.175781 -1.941406 3.507812 -2.109375 3.875 -2.296875 C 4.238281 -2.484375 4.65625 -2.722656 5.125 -3.015625 C 5.59375 -3.304688 6.117188 -3.679688 6.703125 -4.140625 C 7.296875 -4.597656 7.972656 -5.175781 8.734375 -5.875 Z M 8.734375 -5.875 "/></g></g></g><g fill="#000000" fill-opacity="1"><g transform="translate(56.513438, 310.881687)"><g><path d="M 6.828125 -7.859375 C 7.597656 -8.722656 8.394531 -9.5 9.21875 -10.1875 C 10.050781 -10.882812 10.898438 -11.4375 11.765625 -11.84375 C 12.628906 -12.25 13.515625 -12.484375 14.421875 -12.546875 C 15.335938 -12.609375 16.273438 -12.445312 17.234375 -12.0625 C 18.203125 -11.6875 19.195312 -11.046875 20.21875 -10.140625 C 21.226562 -9.234375 21.972656 -8.328125 22.453125 -7.421875 C 22.929688 -6.515625 23.195312 -5.597656 23.25 -4.671875 C 23.300781 -3.753906 23.171875 -2.84375 22.859375 -1.9375 C 22.546875 -1.039062 22.097656 -0.144531 21.515625 0.75 C 20.929688 1.65625 20.25 2.546875 19.46875 3.421875 C 18.6875 4.296875 17.878906 5.070312 17.046875 5.75 C 16.222656 6.4375 15.378906 6.988281 14.515625 7.40625 C 13.648438 7.820312 12.757812 8.054688 11.84375 8.109375 C 10.925781 8.160156 9.988281 8 9.03125 7.625 C 8.070312 7.25 7.085938 6.609375 6.078125 5.703125 C 5.054688 4.796875 4.300781 3.882812 3.8125 2.96875 C 3.332031 2.0625 3.066406 1.148438 3.015625 0.234375 C 2.972656 -0.671875 3.109375 -1.578125 3.421875 -2.484375 C 3.734375 -3.398438 4.179688 -4.304688 4.765625 -5.203125 C 5.359375 -6.097656 6.046875 -6.984375 6.828125 -7.859375 Z M 11.03125 -4.109375 C 10.457031 -3.472656 9.941406 -2.847656 9.484375 -2.234375 C 9.035156 -1.628906 8.695312 -1.046875 8.46875 -0.484375 C 8.25 0.0664062 8.164062 0.585938 8.21875 1.078125 C 8.28125 1.566406 8.539062 2.015625 9 2.421875 C 9.445312 2.828125 9.914062 3.03125 10.40625 3.03125 C 10.90625 3.039062 11.414062 2.898438 11.9375 2.609375 C 12.46875 2.328125 13.007812 1.925781 13.5625 1.40625 C 14.125 0.882812 14.691406 0.304688 15.265625 -0.328125 C 15.828125 -0.960938 16.332031 -1.582031 16.78125 -2.1875 C 17.238281 -2.800781 17.582031 -3.390625 17.8125 -3.953125 C 18.039062 -4.515625 18.125 -5.035156 18.0625 -5.515625 C 18 -6.003906 17.742188 -6.453125 17.296875 -6.859375 C 16.835938 -7.265625 16.363281 -7.472656 15.875 -7.484375 C 15.382812 -7.492188 14.875 -7.351562 14.34375 -7.0625 C 13.8125 -6.769531 13.265625 -6.363281 12.703125 -5.84375 C 12.148438 -5.320312 11.59375 -4.742188 11.03125 -4.109375 Z M 11.03125 -4.109375 "/></g></g></g><g fill="#000000" fill-opacity="1"><g transform="translate(69.447178, 322.561221)"><g><path d="M 1 -0.890625 C 1.226562 -1.210938 1.460938 -1.484375 1.703125 -1.703125 C 1.941406 -1.929688 2.191406 -2.144531 2.453125 -2.34375 C 2.722656 -2.539062 3.015625 -2.769531 3.328125 -3.03125 C 3.648438 -3.289062 4.007812 -3.609375 4.40625 -3.984375 C 4.8125 -4.367188 5.253906 -4.84375 5.734375 -5.40625 C 6.222656 -5.976562 6.769531 -6.679688 7.375 -7.515625 C 7.976562 -8.359375 8.46875 -9.097656 8.84375 -9.734375 C 9.226562 -10.378906 9.535156 -10.953125 9.765625 -11.453125 C 10.003906 -11.953125 10.191406 -12.394531 10.328125 -12.78125 C 10.472656 -13.164062 10.59375 -13.515625 10.6875 -13.828125 C 10.789062 -14.148438 10.910156 -14.457031 11.046875 -14.75 C 11.191406 -15.050781 11.375 -15.359375 11.59375 -15.671875 C 11.800781 -15.960938 12.023438 -16.128906 12.265625 -16.171875 C 12.503906 -16.222656 12.742188 -16.207031 12.984375 -16.125 C 13.234375 -16.050781 13.457031 -15.945312 13.65625 -15.8125 C 13.851562 -15.675781 14.015625 -15.5625 14.140625 -15.46875 L 16.46875 -13.8125 C 16.625 -13.695312 16.78125 -13.554688 16.9375 -13.390625 C 17.101562 -13.234375 17.226562 -13.054688 17.3125 -12.859375 C 17.40625 -12.660156 17.425781 -12.441406 17.375 -12.203125 L 17.390625 -12.21875 L 16.0625 -5.4375 C 16.007812 -5.132812 16.039062 -4.9375 16.15625 -4.84375 C 16.289062 -4.75 16.488281 -4.773438 16.75 -4.921875 C 17.34375 -5.242188 17.957031 -5.601562 18.59375 -6 C 19.238281 -6.394531 19.894531 -6.789062 20.5625 -7.1875 C 21.238281 -7.582031 21.921875 -7.953125 22.609375 -8.296875 C 22.816406 -8.472656 23.035156 -8.554688 23.265625 -8.546875 C 23.492188 -8.535156 23.71875 -8.476562 23.9375 -8.375 C 24.15625 -8.269531 24.34375 -8.160156 24.5 -8.046875 L 27.890625 -5.625 C 28.015625 -5.53125 28.171875 -5.410156 28.359375 -5.265625 C 28.546875 -5.117188 28.71875 -4.941406 28.875 -4.734375 C 29.039062 -4.523438 29.140625 -4.300781 29.171875 -4.0625 C 29.203125 -3.820312 29.113281 -3.554688 28.90625 -3.265625 C 28.6875 -2.953125 28.453125 -2.679688 28.203125 -2.453125 C 27.960938 -2.234375 27.710938 -2.019531 27.453125 -1.8125 C 27.191406 -1.613281 26.898438 -1.382812 26.578125 -1.125 C 26.253906 -0.875 25.894531 -0.554688 25.5 -0.171875 C 25.101562 0.203125 24.660156 0.671875 24.171875 1.234375 C 23.691406 1.804688 23.148438 2.515625 22.546875 3.359375 C 21.941406 4.191406 21.445312 4.925781 21.0625 5.5625 C 20.6875 6.207031 20.378906 6.78125 20.140625 7.28125 C 19.898438 7.78125 19.710938 8.222656 19.578125 8.609375 C 19.441406 9.003906 19.320312 9.359375 19.21875 9.671875 C 19.113281 9.984375 18.992188 10.285156 18.859375 10.578125 C 18.722656 10.878906 18.539062 11.191406 18.3125 11.515625 C 18.101562 11.796875 17.878906 11.960938 17.640625 12.015625 C 17.398438 12.078125 17.15625 12.0625 16.90625 11.96875 C 16.664062 11.882812 16.445312 11.773438 16.25 11.640625 C 16.050781 11.503906 15.890625 11.390625 15.765625 11.296875 L 12.734375 9.125 C 12.535156 8.988281 12.335938 8.835938 12.140625 8.671875 C 11.953125 8.503906 11.789062 8.320312 11.65625 8.125 C 11.519531 7.9375 11.445312 7.726562 11.4375 7.5 C 11.4375 7.269531 11.53125 7.03125 11.71875 6.78125 C 11.945312 6.457031 12.171875 6.175781 12.390625 5.9375 C 12.617188 5.707031 12.851562 5.488281 13.09375 5.28125 C 13.34375 5.070312 13.613281 4.832031 13.90625 4.5625 C 14.207031 4.289062 14.546875 3.953125 14.921875 3.546875 C 15.304688 3.148438 15.734375 2.660156 16.203125 2.078125 C 16.679688 1.503906 17.222656 0.800781 17.828125 -0.03125 L 10.6875 3.28125 C 10.550781 3.363281 10.410156 3.398438 10.265625 3.390625 C 10.117188 3.378906 9.988281 3.332031 9.875 3.25 C 9.632812 3.082031 9.539062 2.835938 9.59375 2.515625 L 10.625 -4.859375 C 10.039062 -4.035156 9.566406 -3.3125 9.203125 -2.6875 C 8.835938 -2.070312 8.546875 -1.523438 8.328125 -1.046875 C 8.109375 -0.566406 7.925781 -0.140625 7.78125 0.234375 C 7.644531 0.617188 7.523438 0.960938 7.421875 1.265625 C 7.316406 1.578125 7.195312 1.878906 7.0625 2.171875 C 6.9375 2.460938 6.765625 2.765625 6.546875 3.078125 C 6.359375 3.328125 6.15625 3.488281 5.9375 3.5625 C 5.726562 3.632812 5.507812 3.632812 5.28125 3.5625 C 5.0625 3.5 4.84375 3.398438 4.625 3.265625 C 4.40625 3.140625 4.195312 3.007812 4 2.875 L 2.015625 1.453125 C 1.890625 1.359375 1.734375 1.238281 1.546875 1.09375 C 1.359375 0.945312 1.179688 0.773438 1.015625 0.578125 C 0.859375 0.378906 0.765625 0.15625 0.734375 -0.09375 C 0.703125 -0.34375 0.789062 -0.609375 1 -0.890625 Z M 1 -0.890625 "/></g></g></g><g fill="#000000" fill-opacity="1"><g transform="translate(87.952183, 335.59203)"><g><path d="M 0.890625 -0.96875 C 1.140625 -1.40625 1.398438 -1.78125 1.671875 -2.09375 C 1.941406 -2.40625 2.242188 -2.722656 2.578125 -3.046875 C 2.910156 -3.367188 3.28125 -3.753906 3.6875 -4.203125 C 4.101562 -4.660156 4.554688 -5.226562 5.046875 -5.90625 C 5.546875 -6.59375 6.09375 -7.460938 6.6875 -8.515625 C 7.1875 -9.378906 7.582031 -10.140625 7.875 -10.796875 C 8.175781 -11.460938 8.410156 -12.046875 8.578125 -12.546875 C 8.753906 -13.054688 8.882812 -13.503906 8.96875 -13.890625 C 9.0625 -14.273438 9.144531 -14.628906 9.21875 -14.953125 C 9.289062 -15.285156 9.375 -15.601562 9.46875 -15.90625 C 9.570312 -16.207031 9.71875 -16.519531 9.90625 -16.84375 C 10.070312 -17.144531 10.269531 -17.328125 10.5 -17.390625 C 10.726562 -17.460938 10.96875 -17.46875 11.21875 -17.40625 C 11.46875 -17.351562 11.695312 -17.269531 11.90625 -17.15625 C 12.125 -17.039062 12.300781 -16.945312 12.4375 -16.875 L 19.59375 -12.8125 C 20.457031 -12.3125 21.125 -11.695312 21.59375 -10.96875 C 22.0625 -10.25 22.304688 -9.46875 22.328125 -8.625 C 22.347656 -7.78125 22.125 -6.941406 21.65625 -6.109375 C 21.445312 -5.742188 21.1875 -5.398438 20.875 -5.078125 C 20.570312 -4.765625 20.207031 -4.492188 19.78125 -4.265625 C 19.363281 -4.046875 18.894531 -3.898438 18.375 -3.828125 C 17.851562 -3.765625 17.28125 -3.8125 16.65625 -3.96875 C 16.414062 -4.03125 16.269531 -4.015625 16.21875 -3.921875 C 16.175781 -3.847656 16.21875 -3.726562 16.34375 -3.5625 C 16.476562 -3.394531 16.640625 -3.179688 16.828125 -2.921875 C 17.023438 -2.660156 17.210938 -2.335938 17.390625 -1.953125 C 17.578125 -1.578125 17.703125 -1.148438 17.765625 -0.671875 C 17.835938 -0.203125 17.816406 0.320312 17.703125 0.90625 C 17.597656 1.488281 17.34375 2.140625 16.9375 2.859375 C 16.6875 3.296875 16.367188 3.710938 15.984375 4.109375 C 15.597656 4.515625 15.144531 4.863281 14.625 5.15625 C 14.101562 5.445312 13.523438 5.648438 12.890625 5.765625 C 12.253906 5.890625 11.5625 5.875 10.8125 5.71875 C 10.0625 5.570312 9.265625 5.257812 8.421875 4.78125 L 1.953125 1.109375 C 1.828125 1.035156 1.671875 0.941406 1.484375 0.828125 C 1.296875 0.710938 1.125 0.570312 0.96875 0.40625 C 0.8125 0.238281 0.71875 0.0390625 0.6875 -0.1875 C 0.65625 -0.414062 0.722656 -0.675781 0.890625 -0.96875 Z M 8.71875 -1.0625 C 8.519531 -0.707031 8.453125 -0.425781 8.515625 -0.21875 C 8.578125 -0.0195312 8.726562 0.144531 8.96875 0.28125 C 9.375 0.507812 9.753906 0.617188 10.109375 0.609375 C 10.460938 0.597656 10.78125 0.507812 11.0625 0.34375 C 11.34375 0.1875 11.582031 0 11.78125 -0.21875 C 11.988281 -0.445312 12.15625 -0.664062 12.28125 -0.875 C 12.394531 -1.070312 12.492188 -1.320312 12.578125 -1.625 C 12.671875 -1.925781 12.710938 -2.238281 12.703125 -2.5625 C 12.703125 -2.882812 12.613281 -3.195312 12.4375 -3.5 C 12.269531 -3.8125 11.984375 -4.082031 11.578125 -4.3125 C 11.335938 -4.445312 11.113281 -4.492188 10.90625 -4.453125 C 10.707031 -4.410156 10.503906 -4.207031 10.296875 -3.84375 C 10.253906 -3.757812 10.179688 -3.617188 10.078125 -3.421875 C 9.972656 -3.222656 9.867188 -3.03125 9.765625 -2.84375 C 9.671875 -2.664062 9.597656 -2.53125 9.546875 -2.4375 C 9.492188 -2.34375 9.410156 -2.203125 9.296875 -2.015625 C 9.191406 -1.835938 9.082031 -1.65625 8.96875 -1.46875 C 8.851562 -1.289062 8.769531 -1.15625 8.71875 -1.0625 Z M 12.84375 -8.34375 C 12.707031 -8.082031 12.679688 -7.867188 12.765625 -7.703125 C 12.847656 -7.535156 13.007812 -7.382812 13.25 -7.25 C 13.65625 -7.019531 14.019531 -6.882812 14.34375 -6.84375 C 14.664062 -6.8125 14.945312 -6.84375 15.1875 -6.9375 C 15.4375 -7.039062 15.644531 -7.164062 15.8125 -7.3125 C 15.976562 -7.457031 16.101562 -7.609375 16.1875 -7.765625 C 16.257812 -7.898438 16.320312 -8.082031 16.375 -8.3125 C 16.425781 -8.539062 16.425781 -8.78125 16.375 -9.03125 C 16.332031 -9.28125 16.210938 -9.535156 16.015625 -9.796875 C 15.828125 -10.066406 15.53125 -10.316406 15.125 -10.546875 C 14.882812 -10.679688 14.671875 -10.742188 14.484375 -10.734375 C 14.296875 -10.722656 14.128906 -10.585938 13.984375 -10.328125 Z M 12.84375 -8.34375 "/></g></g></g><g fill="#000000" fill-opacity="1"><g transform="translate(102.638598, 343.92944)"><g><path d="M 0.796875 -1.078125 C 0.960938 -1.429688 1.140625 -1.738281 1.328125 -2 C 1.515625 -2.269531 1.71875 -2.53125 1.9375 -2.78125 C 2.164062 -3.03125 2.410156 -3.3125 2.671875 -3.625 C 2.929688 -3.945312 3.21875 -4.332031 3.53125 -4.78125 C 3.851562 -5.238281 4.195312 -5.789062 4.5625 -6.4375 C 4.925781 -7.09375 5.316406 -7.890625 5.734375 -8.828125 C 6.160156 -9.773438 6.492188 -10.597656 6.734375 -11.296875 C 6.984375 -12.003906 7.171875 -12.625 7.296875 -13.15625 C 7.429688 -13.695312 7.53125 -14.164062 7.59375 -14.5625 C 7.65625 -14.96875 7.703125 -15.335938 7.734375 -15.671875 C 7.773438 -16.003906 7.832031 -16.328125 7.90625 -16.640625 C 7.988281 -16.960938 8.109375 -17.300781 8.265625 -17.65625 C 8.410156 -17.976562 8.597656 -18.1875 8.828125 -18.28125 C 9.054688 -18.382812 9.296875 -18.421875 9.546875 -18.390625 C 9.796875 -18.359375 10.03125 -18.296875 10.25 -18.203125 C 10.46875 -18.109375 10.648438 -18.03125 10.796875 -17.96875 L 16.703125 -15.3125 C 18.222656 -14.625 19.410156 -13.8125 20.265625 -12.875 C 21.117188 -11.945312 21.625 -10.929688 21.78125 -9.828125 C 21.9375 -8.722656 21.742188 -7.566406 21.203125 -6.359375 C 20.960938 -5.828125 20.65625 -5.347656 20.28125 -4.921875 C 19.90625 -4.492188 19.488281 -4.144531 19.03125 -3.875 C 18.582031 -3.601562 18.113281 -3.410156 17.625 -3.296875 C 17.132812 -3.191406 16.65625 -3.195312 16.1875 -3.3125 C 15.988281 -3.351562 15.847656 -3.320312 15.765625 -3.21875 C 15.753906 -3.207031 15.796875 -3.132812 15.890625 -3 C 15.984375 -2.875 16.082031 -2.695312 16.1875 -2.46875 C 16.300781 -2.238281 16.375 -1.976562 16.40625 -1.6875 C 16.425781 -1.320312 16.4375 -0.894531 16.4375 -0.40625 C 16.4375 0.0703125 16.425781 0.570312 16.40625 1.09375 C 16.394531 1.613281 16.375 2.113281 16.34375 2.59375 C 16.320312 3.082031 16.300781 3.5 16.28125 3.84375 C 16.238281 4.25 16.234375 4.570312 16.265625 4.8125 C 16.296875 5.050781 16.328125 5.238281 16.359375 5.375 C 16.398438 5.519531 16.421875 5.660156 16.421875 5.796875 C 16.421875 5.929688 16.378906 6.09375 16.296875 6.28125 C 16.179688 6.539062 15.972656 6.695312 15.671875 6.75 C 15.378906 6.8125 15.054688 6.765625 14.703125 6.609375 L 9.78125 4.390625 C 9.5625 4.296875 9.375 4.160156 9.21875 3.984375 C 9.070312 3.816406 9.035156 3.609375 9.109375 3.359375 C 9.160156 3.097656 9.242188 2.882812 9.359375 2.71875 C 9.472656 2.5625 9.597656 2.40625 9.734375 2.25 C 9.878906 2.101562 10.003906 1.910156 10.109375 1.671875 C 10.210938 1.429688 10.316406 1.097656 10.421875 0.671875 C 10.523438 0.242188 10.609375 -0.207031 10.671875 -0.6875 C 10.734375 -1.175781 10.765625 -1.648438 10.765625 -2.109375 C 10.773438 -2.566406 10.738281 -2.957031 10.65625 -3.28125 C 10.570312 -3.613281 10.429688 -3.820312 10.234375 -3.90625 C 10.066406 -3.976562 9.925781 -3.976562 9.8125 -3.90625 C 9.695312 -3.832031 9.613281 -3.738281 9.5625 -3.625 C 9.320312 -3.082031 9.148438 -2.550781 9.046875 -2.03125 C 8.941406 -1.507812 8.863281 -1 8.8125 -0.5 C 8.769531 -0.0078125 8.707031 0.460938 8.625 0.921875 C 8.539062 1.378906 8.398438 1.820312 8.203125 2.25 C 8.066406 2.570312 7.878906 2.78125 7.640625 2.875 C 7.410156 2.976562 7.171875 3.007812 6.921875 2.96875 C 6.671875 2.9375 6.4375 2.875 6.21875 2.78125 C 6 2.6875 5.816406 2.609375 5.671875 2.546875 L 2.265625 1.015625 C 2.117188 0.953125 1.9375 0.867188 1.71875 0.765625 C 1.5 0.660156 1.296875 0.523438 1.109375 0.359375 C 0.921875 0.191406 0.785156 -0.00390625 0.703125 -0.234375 C 0.628906 -0.472656 0.660156 -0.753906 0.796875 -1.078125 Z M 12.1875 -9.421875 C 12.0625 -9.160156 12.09375 -8.929688 12.28125 -8.734375 C 12.46875 -8.546875 12.695312 -8.382812 12.96875 -8.25 C 13.476562 -8.007812 13.914062 -7.878906 14.28125 -7.859375 C 14.644531 -7.835938 14.953125 -7.878906 15.203125 -7.984375 C 15.453125 -8.097656 15.648438 -8.238281 15.796875 -8.40625 C 15.953125 -8.582031 16.066406 -8.753906 16.140625 -8.921875 C 16.203125 -9.066406 16.242188 -9.242188 16.265625 -9.453125 C 16.296875 -9.671875 16.265625 -9.90625 16.171875 -10.15625 C 16.085938 -10.40625 15.914062 -10.660156 15.65625 -10.921875 C 15.40625 -11.191406 15.03125 -11.453125 14.53125 -11.703125 C 14.257812 -11.847656 13.988281 -11.921875 13.71875 -11.921875 C 13.445312 -11.921875 13.25 -11.789062 13.125 -11.53125 Z M 12.1875 -9.421875 "/></g></g></g><g fill="#000000" fill-opacity="1"><g transform="translate(119.300341, 351.348696)"><g><path d="M 4.984375 -9.609375 C 5.304688 -10.554688 5.554688 -11.382812 5.734375 -12.09375 C 5.910156 -12.800781 6.03125 -13.414062 6.09375 -13.9375 C 6.164062 -14.457031 6.210938 -14.914062 6.234375 -15.3125 C 6.253906 -15.71875 6.265625 -16.082031 6.265625 -16.40625 C 6.273438 -16.738281 6.300781 -17.0625 6.34375 -17.375 C 6.394531 -17.695312 6.476562 -18.035156 6.59375 -18.390625 C 6.707031 -18.710938 6.867188 -18.925781 7.078125 -19.03125 C 7.296875 -19.144531 7.535156 -19.195312 7.796875 -19.1875 C 8.054688 -19.175781 8.296875 -19.132812 8.515625 -19.0625 C 8.742188 -18.988281 8.929688 -18.929688 9.078125 -18.890625 L 20.125 -15.109375 C 20.519531 -14.972656 20.796875 -14.734375 20.953125 -14.390625 C 21.117188 -14.054688 21.132812 -13.6875 21 -13.28125 L 19.671875 -9.375 C 19.585938 -9.144531 19.492188 -8.910156 19.390625 -8.671875 C 19.285156 -8.429688 19.132812 -8.253906 18.9375 -8.140625 C 18.738281 -8.035156 18.476562 -8.039062 18.15625 -8.15625 C 17.832031 -8.257812 17.546875 -8.46875 17.296875 -8.78125 C 17.054688 -9.09375 16.816406 -9.457031 16.578125 -9.875 C 16.347656 -10.289062 16.070312 -10.71875 15.75 -11.15625 C 15.4375 -11.59375 15.054688 -12.003906 14.609375 -12.390625 C 14.171875 -12.773438 13.625 -13.078125 12.96875 -13.296875 C 12.707031 -13.390625 12.488281 -13.375 12.3125 -13.25 C 12.144531 -13.132812 12 -12.9375 11.875 -12.65625 C 11.75 -12.382812 11.625 -12.0625 11.5 -11.6875 C 11.332031 -11.1875 11.234375 -10.765625 11.203125 -10.421875 C 11.179688 -10.078125 11.273438 -9.789062 11.484375 -9.5625 C 11.703125 -9.332031 12.085938 -9.144531 12.640625 -9 C 13.054688 -8.875 13.421875 -8.789062 13.734375 -8.75 C 14.046875 -8.707031 14.34375 -8.671875 14.625 -8.640625 C 14.90625 -8.609375 15.179688 -8.546875 15.453125 -8.453125 C 15.816406 -8.328125 16.03125 -8.117188 16.09375 -7.828125 C 16.15625 -7.535156 16.144531 -7.257812 16.0625 -7 L 15.125 -4.25 C 15.03125 -4 14.867188 -3.773438 14.640625 -3.578125 C 14.410156 -3.390625 14.113281 -3.359375 13.75 -3.484375 C 13.476562 -3.578125 13.222656 -3.695312 12.984375 -3.84375 C 12.742188 -3.988281 12.488281 -4.140625 12.21875 -4.296875 C 11.945312 -4.460938 11.609375 -4.628906 11.203125 -4.796875 C 10.691406 -4.992188 10.28125 -5.070312 9.96875 -5.03125 C 9.664062 -4.988281 9.414062 -4.832031 9.21875 -4.5625 C 9.019531 -4.289062 8.835938 -3.90625 8.671875 -3.40625 C 8.546875 -3.039062 8.445312 -2.707031 8.375 -2.40625 C 8.300781 -2.101562 8.289062 -1.851562 8.34375 -1.65625 C 8.40625 -1.46875 8.566406 -1.328125 8.828125 -1.234375 C 9.484375 -1.015625 10.101562 -0.921875 10.6875 -0.953125 C 11.28125 -0.984375 11.835938 -1.078125 12.359375 -1.234375 C 12.878906 -1.390625 13.359375 -1.554688 13.796875 -1.734375 C 14.234375 -1.910156 14.644531 -2.046875 15.03125 -2.140625 C 15.425781 -2.242188 15.785156 -2.242188 16.109375 -2.140625 C 16.429688 -2.023438 16.632812 -1.863281 16.71875 -1.65625 C 16.800781 -1.445312 16.8125 -1.21875 16.75 -0.96875 C 16.6875 -0.71875 16.613281 -0.46875 16.53125 -0.21875 L 15.203125 3.6875 C 15.066406 4.09375 14.828125 4.375 14.484375 4.53125 C 14.148438 4.695312 13.785156 4.710938 13.390625 4.578125 L 2.125 0.734375 C 1.988281 0.679688 1.816406 0.613281 1.609375 0.53125 C 1.398438 0.457031 1.207031 0.351562 1.03125 0.21875 C 0.851562 0.0820312 0.722656 -0.0859375 0.640625 -0.296875 C 0.566406 -0.515625 0.585938 -0.789062 0.703125 -1.125 C 0.859375 -1.59375 1.039062 -2.003906 1.25 -2.359375 C 1.457031 -2.722656 1.695312 -3.09375 1.96875 -3.46875 C 2.238281 -3.851562 2.53125 -4.300781 2.84375 -4.8125 C 3.164062 -5.332031 3.503906 -5.972656 3.859375 -6.734375 C 4.210938 -7.503906 4.585938 -8.460938 4.984375 -9.609375 Z M 4.984375 -9.609375 "/></g></g></g><g fill="#000000" fill-opacity="1"><g transform="translate(134.901159, 356.505587)"><g/></g></g><g fill="#000000" fill-opacity="1"><g transform="translate(140.568173, 358.221823)"><g><path d="M 2.421875 0.515625 C 2.273438 0.484375 2.082031 0.4375 1.84375 0.375 C 1.613281 0.320312 1.382812 0.234375 1.15625 0.109375 C 0.9375 -0.00390625 0.765625 -0.164062 0.640625 -0.375 C 0.515625 -0.59375 0.492188 -0.875 0.578125 -1.21875 C 0.648438 -1.601562 0.75 -1.945312 0.875 -2.25 C 1 -2.550781 1.144531 -2.847656 1.3125 -3.140625 C 1.476562 -3.429688 1.65625 -3.753906 1.84375 -4.109375 C 2.03125 -4.472656 2.234375 -4.910156 2.453125 -5.421875 C 2.671875 -5.929688 2.882812 -6.539062 3.09375 -7.25 C 3.3125 -7.957031 3.53125 -8.816406 3.75 -9.828125 C 3.96875 -10.835938 4.125 -11.710938 4.21875 -12.453125 C 4.3125 -13.203125 4.359375 -13.851562 4.359375 -14.40625 C 4.367188 -14.957031 4.363281 -15.4375 4.34375 -15.84375 C 4.320312 -16.257812 4.296875 -16.632812 4.265625 -16.96875 C 4.234375 -17.300781 4.222656 -17.628906 4.234375 -17.953125 C 4.242188 -18.273438 4.289062 -18.625 4.375 -19 C 4.445312 -19.351562 4.582031 -19.597656 4.78125 -19.734375 C 4.976562 -19.878906 5.203125 -19.960938 5.453125 -19.984375 C 5.710938 -20.015625 5.957031 -20.003906 6.1875 -19.953125 C 6.425781 -19.910156 6.617188 -19.875 6.765625 -19.84375 L 12.09375 -18.703125 C 13.394531 -18.421875 14.492188 -17.925781 15.390625 -17.21875 C 16.296875 -16.519531 16.988281 -15.648438 17.46875 -14.609375 C 17.945312 -13.566406 18.222656 -12.382812 18.296875 -11.0625 C 18.367188 -9.75 18.242188 -8.335938 17.921875 -6.828125 C 17.597656 -5.328125 17.132812 -3.988281 16.53125 -2.8125 C 15.925781 -1.632812 15.191406 -0.664062 14.328125 0.09375 C 13.460938 0.863281 12.472656 1.382812 11.359375 1.65625 C 10.253906 1.9375 9.050781 1.9375 7.75 1.65625 Z M 10.203125 -13.8125 L 8.03125 -3.609375 C 7.96875 -3.316406 7.960938 -3.09375 8.015625 -2.9375 C 8.078125 -2.789062 8.164062 -2.675781 8.28125 -2.59375 C 8.394531 -2.507812 8.507812 -2.457031 8.625 -2.4375 C 8.988281 -2.363281 9.363281 -2.457031 9.75 -2.71875 C 10.132812 -2.988281 10.5 -3.378906 10.84375 -3.890625 C 11.195312 -4.410156 11.515625 -5.019531 11.796875 -5.71875 C 12.078125 -6.425781 12.300781 -7.179688 12.46875 -7.984375 C 12.644531 -8.796875 12.75 -9.578125 12.78125 -10.328125 C 12.8125 -11.078125 12.769531 -11.765625 12.65625 -12.390625 C 12.550781 -13.015625 12.378906 -13.523438 12.140625 -13.921875 C 11.898438 -14.316406 11.597656 -14.550781 11.234375 -14.625 C 11.117188 -14.644531 10.992188 -14.644531 10.859375 -14.625 C 10.722656 -14.613281 10.59375 -14.546875 10.46875 -14.421875 C 10.351562 -14.296875 10.265625 -14.09375 10.203125 -13.8125 Z M 10.203125 -13.8125 "/></g></g></g><g fill="#000000" fill-opacity="1"><g transform="translate(156.811533, 361.662399)"><g><path d="M 2.890625 -10.421875 C 3.015625 -11.410156 3.085938 -12.269531 3.109375 -13 C 3.140625 -13.726562 3.132812 -14.351562 3.09375 -14.875 C 3.050781 -15.40625 3 -15.867188 2.9375 -16.265625 C 2.882812 -16.671875 2.828125 -17.03125 2.765625 -17.34375 C 2.703125 -17.664062 2.65625 -17.988281 2.625 -18.3125 C 2.601562 -18.632812 2.617188 -18.984375 2.671875 -19.359375 C 2.710938 -19.703125 2.828125 -19.945312 3.015625 -20.09375 C 3.203125 -20.25 3.421875 -20.347656 3.671875 -20.390625 C 3.921875 -20.429688 4.164062 -20.441406 4.40625 -20.421875 C 4.644531 -20.398438 4.84375 -20.378906 5 -20.359375 L 16.578125 -18.9375 C 16.992188 -18.882812 17.316406 -18.710938 17.546875 -18.421875 C 17.773438 -18.128906 17.867188 -17.769531 17.828125 -17.34375 L 17.3125 -13.25 C 17.289062 -13 17.25 -12.742188 17.1875 -12.484375 C 17.125 -12.234375 17.007812 -12.035156 16.84375 -11.890625 C 16.6875 -11.742188 16.4375 -11.691406 16.09375 -11.734375 C 15.75 -11.773438 15.425781 -11.921875 15.125 -12.171875 C 14.820312 -12.421875 14.507812 -12.722656 14.1875 -13.078125 C 13.863281 -13.441406 13.503906 -13.800781 13.109375 -14.15625 C 12.710938 -14.519531 12.253906 -14.84375 11.734375 -15.125 C 11.222656 -15.414062 10.617188 -15.601562 9.921875 -15.6875 C 9.648438 -15.71875 9.445312 -15.65625 9.3125 -15.5 C 9.175781 -15.351562 9.070312 -15.132812 9 -14.84375 C 8.9375 -14.550781 8.882812 -14.207031 8.84375 -13.8125 C 8.78125 -13.28125 8.769531 -12.84375 8.8125 -12.5 C 8.863281 -12.164062 9.015625 -11.90625 9.265625 -11.71875 C 9.515625 -11.539062 9.929688 -11.4375 10.515625 -11.40625 C 10.941406 -11.375 11.316406 -11.367188 11.640625 -11.390625 C 11.960938 -11.410156 12.257812 -11.4375 12.53125 -11.46875 C 12.8125 -11.5 13.09375 -11.5 13.375 -11.46875 C 13.757812 -11.414062 14.015625 -11.25 14.140625 -10.96875 C 14.265625 -10.695312 14.3125 -10.425781 14.28125 -10.15625 L 13.921875 -7.28125 C 13.890625 -7.007812 13.78125 -6.753906 13.59375 -6.515625 C 13.40625 -6.285156 13.117188 -6.195312 12.734375 -6.25 C 12.453125 -6.28125 12.179688 -6.335938 11.921875 -6.421875 C 11.660156 -6.515625 11.375 -6.613281 11.0625 -6.71875 C 10.757812 -6.832031 10.394531 -6.925781 9.96875 -7 C 9.425781 -7.082031 9.003906 -7.070312 8.703125 -6.96875 C 8.410156 -6.875 8.195312 -6.675781 8.0625 -6.375 C 7.9375 -6.070312 7.84375 -5.65625 7.78125 -5.125 C 7.726562 -4.738281 7.695312 -4.390625 7.6875 -4.078125 C 7.6875 -3.773438 7.734375 -3.53125 7.828125 -3.34375 C 7.921875 -3.164062 8.101562 -3.0625 8.375 -3.03125 C 9.070312 -2.945312 9.703125 -2.976562 10.265625 -3.125 C 10.835938 -3.28125 11.359375 -3.488281 11.828125 -3.75 C 12.304688 -4.007812 12.742188 -4.273438 13.140625 -4.546875 C 13.535156 -4.816406 13.910156 -5.039062 14.265625 -5.21875 C 14.617188 -5.394531 14.96875 -5.460938 15.3125 -5.421875 C 15.65625 -5.378906 15.890625 -5.265625 16.015625 -5.078125 C 16.140625 -4.890625 16.195312 -4.664062 16.1875 -4.40625 C 16.1875 -4.144531 16.171875 -3.882812 16.140625 -3.625 L 15.640625 0.46875 C 15.585938 0.882812 15.410156 1.207031 15.109375 1.4375 C 14.816406 1.675781 14.460938 1.769531 14.046875 1.71875 L 2.234375 0.265625 C 2.085938 0.253906 1.90625 0.234375 1.6875 0.203125 C 1.46875 0.171875 1.253906 0.101562 1.046875 0 C 0.847656 -0.09375 0.6875 -0.238281 0.5625 -0.4375 C 0.445312 -0.632812 0.410156 -0.898438 0.453125 -1.234375 C 0.515625 -1.734375 0.609375 -2.175781 0.734375 -2.5625 C 0.867188 -2.957031 1.03125 -3.367188 1.21875 -3.796875 C 1.40625 -4.234375 1.597656 -4.738281 1.796875 -5.3125 C 2.003906 -5.882812 2.203125 -6.578125 2.390625 -7.390625 C 2.578125 -8.210938 2.742188 -9.222656 2.890625 -10.421875 Z M 2.890625 -10.421875 "/></g></g></g><g fill="#000000" fill-opacity="1"><g transform="translate(173.140606, 363.489256)"><g/></g></g><g fill="#000000" fill-opacity="1"><g transform="translate(179.051376, 364.01282)"><g><path d="M 0.3125 -14.9375 L 0.3125 -19.34375 C 0.3125 -19.78125 0.441406 -20.132812 0.703125 -20.40625 C 0.972656 -20.675781 1.332031 -20.8125 1.78125 -20.8125 L 14.8125 -20.796875 C 15.257812 -20.796875 15.617188 -20.660156 15.890625 -20.390625 C 16.160156 -20.117188 16.296875 -19.765625 16.296875 -19.328125 L 16.296875 -14.921875 C 16.296875 -14.703125 16.21875 -14.523438 16.0625 -14.390625 C 15.90625 -14.253906 15.722656 -14.1875 15.515625 -14.1875 C 15.210938 -14.1875 14.929688 -14.242188 14.671875 -14.359375 C 14.421875 -14.472656 14.171875 -14.617188 13.921875 -14.796875 C 13.671875 -14.984375 13.410156 -15.160156 13.140625 -15.328125 C 12.878906 -15.503906 12.585938 -15.648438 12.265625 -15.765625 C 11.941406 -15.878906 11.578125 -15.9375 11.171875 -15.9375 L 10.953125 -15.9375 L 10.953125 -10.390625 C 10.953125 -9.359375 10.976562 -8.46875 11.03125 -7.71875 C 11.09375 -6.976562 11.175781 -6.335938 11.28125 -5.796875 C 11.382812 -5.253906 11.488281 -4.785156 11.59375 -4.390625 C 11.707031 -3.992188 11.8125 -3.632812 11.90625 -3.3125 C 12.007812 -3 12.09375 -2.679688 12.15625 -2.359375 C 12.21875 -2.046875 12.25 -1.691406 12.25 -1.296875 C 12.25 -0.941406 12.164062 -0.671875 12 -0.484375 C 11.832031 -0.304688 11.625 -0.179688 11.375 -0.109375 C 11.132812 -0.0351562 10.894531 0 10.65625 0 C 10.414062 0.0078125 10.21875 0.015625 10.0625 0.015625 L 6.328125 0 C 6.171875 0 5.972656 0 5.734375 0 C 5.492188 -0.0078125 5.25 -0.0507812 5 -0.125 C 4.757812 -0.195312 4.554688 -0.320312 4.390625 -0.5 C 4.222656 -0.6875 4.140625 -0.957031 4.140625 -1.3125 C 4.140625 -1.707031 4.171875 -2.0625 4.234375 -2.375 C 4.296875 -2.695312 4.375 -3.015625 4.46875 -3.328125 C 4.570312 -3.648438 4.675781 -4.007812 4.78125 -4.40625 C 4.894531 -4.800781 5.003906 -5.269531 5.109375 -5.8125 C 5.210938 -6.351562 5.296875 -6.992188 5.359375 -7.734375 C 5.429688 -8.484375 5.46875 -9.375 5.46875 -10.40625 L 5.46875 -15.953125 L 5.421875 -15.953125 C 5.015625 -15.953125 4.648438 -15.894531 4.328125 -15.78125 C 4.003906 -15.664062 3.707031 -15.519531 3.4375 -15.34375 C 3.175781 -15.175781 2.921875 -15 2.671875 -14.8125 C 2.421875 -14.632812 2.164062 -14.488281 1.90625 -14.375 C 1.65625 -14.257812 1.378906 -14.203125 1.078125 -14.203125 C 0.867188 -14.203125 0.6875 -14.269531 0.53125 -14.40625 C 0.382812 -14.539062 0.3125 -14.71875 0.3125 -14.9375 Z M 0.3125 -14.9375 "/></g></g></g><g fill="#000000" fill-opacity="1"><g transform="translate(196.308174, 364.03646)"><g><path d="M -1.5625 -19.4375 C -1.59375 -19.789062 -1.535156 -20.066406 -1.390625 -20.265625 C -1.242188 -20.460938 -1.050781 -20.609375 -0.8125 -20.703125 C -0.570312 -20.796875 -0.332031 -20.859375 -0.09375 -20.890625 C 0.132812 -20.921875 0.328125 -20.941406 0.484375 -20.953125 L 4.203125 -21.3125 C 4.359375 -21.320312 4.554688 -21.335938 4.796875 -21.359375 C 5.035156 -21.378906 5.28125 -21.363281 5.53125 -21.3125 C 5.78125 -21.257812 6 -21.148438 6.1875 -20.984375 C 6.375 -20.816406 6.484375 -20.554688 6.515625 -20.203125 C 6.546875 -19.816406 6.546875 -19.460938 6.515625 -19.140625 C 6.484375 -18.816406 6.429688 -18.488281 6.359375 -18.15625 C 6.296875 -17.832031 6.226562 -17.46875 6.15625 -17.0625 C 6.082031 -16.65625 6.019531 -16.175781 5.96875 -15.625 C 5.914062 -15.082031 5.894531 -14.4375 5.90625 -13.6875 C 5.914062 -12.9375 5.96875 -12.050781 6.0625 -11.03125 C 6.082031 -10.875 6.101562 -10.613281 6.125 -10.25 C 6.144531 -9.882812 6.175781 -9.46875 6.21875 -9 C 6.269531 -8.539062 6.347656 -8.070312 6.453125 -7.59375 C 6.554688 -7.113281 6.703125 -6.671875 6.890625 -6.265625 C 7.085938 -5.867188 7.332031 -5.554688 7.625 -5.328125 C 7.914062 -5.097656 8.269531 -5.003906 8.6875 -5.046875 C 9.113281 -5.085938 9.445312 -5.25 9.6875 -5.53125 C 9.9375 -5.8125 10.113281 -6.164062 10.21875 -6.59375 C 10.332031 -7.019531 10.394531 -7.476562 10.40625 -7.96875 C 10.414062 -8.457031 10.398438 -8.9375 10.359375 -9.40625 C 10.328125 -9.875 10.285156 -10.285156 10.234375 -10.640625 C 10.179688 -11.003906 10.144531 -11.265625 10.125 -11.421875 C 10.03125 -12.441406 9.914062 -13.320312 9.78125 -14.0625 C 9.644531 -14.800781 9.5 -15.429688 9.34375 -15.953125 C 9.195312 -16.484375 9.046875 -16.941406 8.890625 -17.328125 C 8.742188 -17.710938 8.601562 -18.054688 8.46875 -18.359375 C 8.34375 -18.671875 8.234375 -18.984375 8.140625 -19.296875 C 8.046875 -19.609375 7.984375 -19.957031 7.953125 -20.34375 C 7.921875 -20.695312 7.976562 -20.972656 8.125 -21.171875 C 8.269531 -21.367188 8.460938 -21.515625 8.703125 -21.609375 C 8.941406 -21.710938 9.179688 -21.773438 9.421875 -21.796875 C 9.671875 -21.828125 9.863281 -21.851562 10 -21.875 L 13.71875 -22.21875 C 13.875 -22.238281 14.070312 -22.253906 14.3125 -22.265625 C 14.550781 -22.285156 14.796875 -22.269531 15.046875 -22.21875 C 15.296875 -22.175781 15.515625 -22.070312 15.703125 -21.90625 C 15.898438 -21.738281 16.015625 -21.476562 16.046875 -21.125 C 16.078125 -20.738281 16.078125 -20.382812 16.046875 -20.0625 C 16.015625 -19.738281 15.960938 -19.410156 15.890625 -19.078125 C 15.816406 -18.753906 15.742188 -18.390625 15.671875 -17.984375 C 15.597656 -17.578125 15.535156 -17.097656 15.484375 -16.546875 C 15.441406 -16.003906 15.425781 -15.359375 15.4375 -14.609375 C 15.445312 -13.859375 15.5 -12.972656 15.59375 -11.953125 C 15.644531 -11.421875 15.695312 -10.882812 15.75 -10.34375 C 15.800781 -9.8125 15.851562 -9.296875 15.90625 -8.796875 C 16 -7.765625 15.96875 -6.785156 15.8125 -5.859375 C 15.664062 -4.941406 15.34375 -4.117188 14.84375 -3.390625 C 14.34375 -2.660156 13.625 -2.054688 12.6875 -1.578125 C 11.757812 -1.097656 10.566406 -0.789062 9.109375 -0.65625 C 7.648438 -0.507812 6.414062 -0.582031 5.40625 -0.875 C 4.40625 -1.175781 3.585938 -1.632812 2.953125 -2.25 C 2.328125 -2.875 1.851562 -3.625 1.53125 -4.5 C 1.207031 -5.375 1 -6.328125 0.90625 -7.359375 C 0.851562 -7.859375 0.800781 -8.375 0.75 -8.90625 C 0.707031 -9.445312 0.660156 -9.984375 0.609375 -10.515625 C 0.515625 -11.535156 0.398438 -12.414062 0.265625 -13.15625 C 0.128906 -13.894531 -0.015625 -14.523438 -0.171875 -15.046875 C -0.328125 -15.578125 -0.476562 -16.035156 -0.625 -16.421875 C -0.769531 -16.804688 -0.90625 -17.148438 -1.03125 -17.453125 C -1.164062 -17.765625 -1.28125 -18.078125 -1.375 -18.390625 C -1.46875 -18.703125 -1.53125 -19.050781 -1.5625 -19.4375 Z M -1.5625 -19.4375 "/></g></g></g><g fill="#000000" fill-opacity="1"><g transform="translate(214.928195, 362.023455)"><g/></g></g><g fill="#000000" fill-opacity="1"><g transform="translate(220.941879, 361.337181)"><g><path d="M -0.03125 -1.34375 C -0.125 -1.726562 -0.175781 -2.082031 -0.1875 -2.40625 C -0.195312 -2.726562 -0.1875 -3.054688 -0.15625 -3.390625 C -0.132812 -3.722656 -0.117188 -4.09375 -0.109375 -4.5 C -0.0976562 -4.914062 -0.109375 -5.394531 -0.140625 -5.9375 C -0.171875 -6.488281 -0.238281 -7.132812 -0.34375 -7.875 C -0.457031 -8.613281 -0.640625 -9.484375 -0.890625 -10.484375 C -1.128906 -11.492188 -1.367188 -12.351562 -1.609375 -13.0625 C -1.847656 -13.769531 -2.078125 -14.375 -2.296875 -14.875 C -2.523438 -15.382812 -2.738281 -15.816406 -2.9375 -16.171875 C -3.132812 -16.523438 -3.316406 -16.84375 -3.484375 -17.125 C -3.660156 -17.414062 -3.816406 -17.707031 -3.953125 -18 C -4.097656 -18.300781 -4.21875 -18.640625 -4.3125 -19.015625 C -4.394531 -19.359375 -4.375 -19.640625 -4.25 -19.859375 C -4.125 -20.078125 -3.953125 -20.25 -3.734375 -20.375 C -3.515625 -20.507812 -3.285156 -20.609375 -3.046875 -20.671875 C -2.816406 -20.734375 -2.625 -20.78125 -2.46875 -20.8125 L 0.296875 -21.484375 C 0.492188 -21.535156 0.703125 -21.566406 0.921875 -21.578125 C 1.140625 -21.597656 1.351562 -21.570312 1.5625 -21.5 C 1.769531 -21.4375 1.945312 -21.316406 2.09375 -21.140625 L 2.09375 -21.15625 L 6.375 -15.71875 C 6.570312 -15.476562 6.738281 -15.375 6.875 -15.40625 C 7.039062 -15.445312 7.15625 -15.613281 7.21875 -15.90625 C 7.351562 -16.5625 7.476562 -17.257812 7.59375 -18 C 7.707031 -18.738281 7.832031 -19.492188 7.96875 -20.265625 C 8.113281 -21.046875 8.28125 -21.804688 8.46875 -22.546875 C 8.476562 -22.816406 8.5625 -23.035156 8.71875 -23.203125 C 8.875 -23.367188 9.0625 -23.5 9.28125 -23.59375 C 9.507812 -23.695312 9.722656 -23.769531 9.921875 -23.8125 L 13.953125 -24.796875 C 14.109375 -24.828125 14.300781 -24.867188 14.53125 -24.921875 C 14.757812 -24.972656 15.003906 -24.988281 15.265625 -24.96875 C 15.523438 -24.957031 15.753906 -24.882812 15.953125 -24.75 C 16.160156 -24.613281 16.304688 -24.375 16.390625 -24.03125 C 16.484375 -23.65625 16.539062 -23.300781 16.5625 -22.96875 C 16.582031 -22.644531 16.578125 -22.316406 16.546875 -21.984375 C 16.523438 -21.648438 16.503906 -21.28125 16.484375 -20.875 C 16.472656 -20.46875 16.476562 -19.988281 16.5 -19.4375 C 16.53125 -18.882812 16.601562 -18.238281 16.71875 -17.5 C 16.84375 -16.757812 17.023438 -15.882812 17.265625 -14.875 C 17.515625 -13.875 17.753906 -13.019531 17.984375 -12.3125 C 18.210938 -11.601562 18.441406 -11 18.671875 -10.5 C 18.898438 -10 19.113281 -9.566406 19.3125 -9.203125 C 19.519531 -8.847656 19.707031 -8.523438 19.875 -8.234375 C 20.050781 -7.953125 20.203125 -7.664062 20.328125 -7.375 C 20.460938 -7.082031 20.578125 -6.742188 20.671875 -6.359375 C 20.753906 -6.015625 20.734375 -5.734375 20.609375 -5.515625 C 20.492188 -5.296875 20.320312 -5.117188 20.09375 -4.984375 C 19.875 -4.859375 19.648438 -4.765625 19.421875 -4.703125 C 19.191406 -4.640625 19 -4.59375 18.84375 -4.5625 L 15.234375 -3.6875 C 15.003906 -3.625 14.757812 -3.570312 14.5 -3.53125 C 14.25 -3.5 14.003906 -3.492188 13.765625 -3.515625 C 13.535156 -3.535156 13.332031 -3.617188 13.15625 -3.765625 C 12.976562 -3.910156 12.851562 -4.140625 12.78125 -4.453125 C 12.6875 -4.835938 12.625 -5.1875 12.59375 -5.5 C 12.570312 -5.820312 12.5625 -6.144531 12.5625 -6.46875 C 12.5625 -6.789062 12.554688 -7.15625 12.546875 -7.5625 C 12.535156 -7.96875 12.5 -8.441406 12.4375 -8.984375 C 12.382812 -9.535156 12.296875 -10.175781 12.171875 -10.90625 C 12.046875 -11.644531 11.859375 -12.515625 11.609375 -13.515625 L 9.453125 -5.953125 C 9.429688 -5.796875 9.367188 -5.660156 9.265625 -5.546875 C 9.160156 -5.441406 9.039062 -5.375 8.90625 -5.34375 C 8.625 -5.28125 8.378906 -5.375 8.171875 -5.625 L 3.265625 -11.203125 C 3.503906 -10.234375 3.734375 -9.40625 3.953125 -8.71875 C 4.179688 -8.039062 4.40625 -7.460938 4.625 -6.984375 C 4.851562 -6.503906 5.066406 -6.085938 5.265625 -5.734375 C 5.460938 -5.390625 5.644531 -5.078125 5.8125 -4.796875 C 5.976562 -4.515625 6.128906 -4.226562 6.265625 -3.9375 C 6.398438 -3.65625 6.507812 -3.328125 6.59375 -2.953125 C 6.664062 -2.640625 6.660156 -2.378906 6.578125 -2.171875 C 6.492188 -1.960938 6.351562 -1.796875 6.15625 -1.671875 C 5.957031 -1.546875 5.738281 -1.441406 5.5 -1.359375 C 5.257812 -1.273438 5.019531 -1.207031 4.78125 -1.15625 L 2.421875 -0.578125 C 2.265625 -0.546875 2.066406 -0.503906 1.828125 -0.453125 C 1.597656 -0.398438 1.351562 -0.378906 1.09375 -0.390625 C 0.84375 -0.410156 0.613281 -0.488281 0.40625 -0.625 C 0.195312 -0.757812 0.0507812 -1 -0.03125 -1.34375 Z M -0.03125 -1.34375 "/></g></g></g><g fill="#000000" fill-opacity="1"><g transform="translate(242.976475, 355.880525)"><g><path d="M 1.96875 -0.71875 C 1.675781 -0.613281 1.390625 -0.535156 1.109375 -0.484375 C 0.835938 -0.429688 0.597656 -0.445312 0.390625 -0.53125 C 0.179688 -0.613281 0.03125 -0.78125 -0.0625 -1.03125 C -0.15625 -1.289062 -0.195312 -1.515625 -0.1875 -1.703125 C -0.1875 -1.898438 -0.15625 -2.109375 -0.09375 -2.328125 C -0.03125 -2.546875 0.0390625 -2.796875 0.125 -3.078125 C 0.207031 -3.359375 0.269531 -3.6875 0.3125 -4.0625 C 0.351562 -4.445312 0.359375 -4.921875 0.328125 -5.484375 C 0.285156 -6.335938 0.242188 -7.066406 0.203125 -7.671875 C 0.171875 -8.273438 0.132812 -8.804688 0.09375 -9.265625 C 0.0625 -9.734375 0.03125 -10.164062 0 -10.5625 C -0.03125 -10.96875 -0.0625 -11.363281 -0.09375 -11.75 C -0.132812 -12.144531 -0.171875 -12.578125 -0.203125 -13.046875 C -0.242188 -13.515625 -0.289062 -14.050781 -0.34375 -14.65625 C -0.40625 -15.269531 -0.472656 -16 -0.546875 -16.84375 C -0.585938 -17.425781 -0.628906 -17.875 -0.671875 -18.1875 C -0.722656 -18.507812 -0.78125 -18.769531 -0.84375 -18.96875 C -0.914062 -19.164062 -0.992188 -19.359375 -1.078125 -19.546875 C -1.171875 -19.734375 -1.28125 -19.988281 -1.40625 -20.3125 C -1.425781 -20.382812 -1.457031 -20.484375 -1.5 -20.609375 C -1.539062 -20.734375 -1.554688 -20.878906 -1.546875 -21.046875 C -1.535156 -21.210938 -1.46875 -21.367188 -1.34375 -21.515625 C -1.226562 -21.671875 -1.03125 -21.800781 -0.75 -21.90625 L 2.90625 -23.25 C 3.175781 -23.34375 3.414062 -23.421875 3.625 -23.484375 C 3.84375 -23.554688 4.046875 -23.578125 4.234375 -23.546875 C 4.429688 -23.515625 4.644531 -23.40625 4.875 -23.21875 C 5.113281 -23.039062 5.394531 -22.757812 5.71875 -22.375 C 6.039062 -21.988281 6.4375 -21.472656 6.90625 -20.828125 C 7.476562 -20.023438 7.976562 -19.316406 8.40625 -18.703125 C 8.832031 -18.097656 9.21875 -17.554688 9.5625 -17.078125 C 9.90625 -16.597656 10.234375 -16.128906 10.546875 -15.671875 C 10.859375 -15.222656 11.191406 -14.753906 11.546875 -14.265625 C 11.898438 -13.785156 12.296875 -13.253906 12.734375 -12.671875 C 13.179688 -12.085938 13.695312 -11.394531 14.28125 -10.59375 C 14.625 -10.144531 14.9375 -9.789062 15.21875 -9.53125 C 15.5 -9.269531 15.757812 -9.054688 16 -8.890625 C 16.238281 -8.734375 16.453125 -8.59375 16.640625 -8.46875 C 16.835938 -8.34375 17.003906 -8.207031 17.140625 -8.0625 C 17.273438 -7.914062 17.390625 -7.710938 17.484375 -7.453125 C 17.578125 -7.203125 17.566406 -6.976562 17.453125 -6.78125 C 17.347656 -6.582031 17.175781 -6.414062 16.9375 -6.28125 C 16.695312 -6.144531 16.425781 -6.019531 16.125 -5.90625 L 11.140625 -4.078125 C 10.921875 -4.003906 10.695312 -3.957031 10.46875 -3.9375 C 10.25 -3.925781 10.050781 -3.960938 9.875 -4.046875 C 9.695312 -4.128906 9.566406 -4.28125 9.484375 -4.5 C 9.367188 -4.800781 9.300781 -5.050781 9.28125 -5.25 C 9.269531 -5.445312 9.269531 -5.632812 9.28125 -5.8125 C 9.289062 -5.988281 9.273438 -6.203125 9.234375 -6.453125 C 9.191406 -6.703125 9.097656 -7.035156 8.953125 -7.453125 C 8.867188 -7.671875 8.765625 -7.90625 8.640625 -8.15625 L 5.1875 -6.875 C 5.226562 -6.75 5.273438 -6.632812 5.328125 -6.53125 C 5.390625 -6.425781 5.453125 -6.3125 5.515625 -6.1875 C 5.722656 -5.789062 5.90625 -5.488281 6.0625 -5.28125 C 6.226562 -5.082031 6.375 -4.914062 6.5 -4.78125 C 6.625 -4.65625 6.742188 -4.515625 6.859375 -4.359375 C 6.972656 -4.203125 7.085938 -3.972656 7.203125 -3.671875 C 7.285156 -3.453125 7.285156 -3.25 7.203125 -3.0625 C 7.117188 -2.882812 6.984375 -2.726562 6.796875 -2.59375 C 6.617188 -2.457031 6.425781 -2.351562 6.21875 -2.28125 Z M 3.5 -11.515625 L 5.921875 -12.40625 C 5.640625 -12.78125 5.351562 -13.175781 5.0625 -13.59375 C 4.769531 -14.007812 4.445312 -14.457031 4.09375 -14.9375 C 3.882812 -15.207031 3.695312 -15.429688 3.53125 -15.609375 C 3.375 -15.785156 3.242188 -15.84375 3.140625 -15.78125 C 3.066406 -15.738281 3.03125 -15.582031 3.03125 -15.3125 C 3.03125 -15.039062 3.046875 -14.710938 3.078125 -14.328125 C 3.109375 -13.953125 3.148438 -13.566406 3.203125 -13.171875 C 3.265625 -12.773438 3.328125 -12.425781 3.390625 -12.125 C 3.453125 -11.820312 3.488281 -11.617188 3.5 -11.515625 Z M 3.5 -11.515625 "/></g></g></g><g fill="#000000" fill-opacity="1"><g transform="translate(261.672545, 348.898849)"><g><path d="M -2.140625 -4.140625 C -2.441406 -4.753906 -2.578125 -5.351562 -2.546875 -5.9375 C -2.515625 -6.53125 -2.351562 -7.0625 -2.0625 -7.53125 C -1.78125 -8 -1.414062 -8.34375 -0.96875 -8.5625 C -0.601562 -8.75 -0.222656 -8.835938 0.171875 -8.828125 C 0.566406 -8.816406 0.972656 -8.742188 1.390625 -8.609375 C 1.816406 -8.484375 2.242188 -8.332031 2.671875 -8.15625 C 3.097656 -7.988281 3.519531 -7.832031 3.9375 -7.6875 C 4.351562 -7.550781 4.753906 -7.46875 5.140625 -7.4375 C 5.523438 -7.40625 5.882812 -7.46875 6.21875 -7.625 C 6.632812 -7.832031 6.878906 -8.09375 6.953125 -8.40625 C 7.023438 -8.71875 6.988281 -9.03125 6.84375 -9.34375 C 6.664062 -9.71875 6.390625 -9.960938 6.015625 -10.078125 C 5.648438 -10.203125 5.207031 -10.253906 4.6875 -10.234375 C 4.164062 -10.222656 3.59375 -10.175781 2.96875 -10.09375 C 2.34375 -10.007812 1.695312 -9.925781 1.03125 -9.84375 C 0.375 -9.769531 -0.289062 -9.75 -0.96875 -9.78125 C -1.65625 -9.820312 -2.3125 -9.945312 -2.9375 -10.15625 C -3.570312 -10.375 -4.15625 -10.71875 -4.6875 -11.1875 C -5.21875 -11.65625 -5.6875 -12.300781 -6.09375 -13.125 C -6.675781 -14.34375 -6.878906 -15.53125 -6.703125 -16.6875 C -6.523438 -17.851562 -5.988281 -18.953125 -5.09375 -19.984375 C -4.195312 -21.023438 -2.953125 -21.925781 -1.359375 -22.6875 C -0.609375 -23.050781 0.15625 -23.328125 0.9375 -23.515625 C 1.726562 -23.710938 2.5 -23.796875 3.25 -23.765625 C 4.007812 -23.734375 4.6875 -23.550781 5.28125 -23.21875 C 5.875 -22.894531 6.335938 -22.382812 6.671875 -21.6875 C 6.910156 -21.175781 7.019531 -20.660156 7 -20.140625 C 6.988281 -19.628906 6.851562 -19.15625 6.59375 -18.71875 C 6.332031 -18.28125 5.972656 -17.921875 5.515625 -17.640625 C 5.117188 -17.429688 4.703125 -17.328125 4.265625 -17.328125 C 3.828125 -17.335938 3.378906 -17.40625 2.921875 -17.53125 C 2.460938 -17.664062 2.003906 -17.800781 1.546875 -17.9375 C 1.085938 -18.070312 0.640625 -18.160156 0.203125 -18.203125 C -0.222656 -18.242188 -0.625 -18.175781 -1 -18 C -1.300781 -17.84375 -1.519531 -17.660156 -1.65625 -17.453125 C -1.789062 -17.253906 -1.851562 -17.054688 -1.84375 -16.859375 C -1.832031 -16.660156 -1.789062 -16.488281 -1.71875 -16.34375 C -1.550781 -15.988281 -1.273438 -15.75 -0.890625 -15.625 C -0.503906 -15.5 -0.046875 -15.445312 0.484375 -15.46875 C 1.023438 -15.488281 1.613281 -15.539062 2.25 -15.625 C 2.882812 -15.71875 3.550781 -15.796875 4.25 -15.859375 C 4.957031 -15.921875 5.660156 -15.929688 6.359375 -15.890625 C 7.066406 -15.859375 7.742188 -15.726562 8.390625 -15.5 C 9.046875 -15.28125 9.648438 -14.929688 10.203125 -14.453125 C 10.765625 -13.972656 11.25 -13.3125 11.65625 -12.46875 C 12.082031 -11.570312 12.304688 -10.726562 12.328125 -9.9375 C 12.347656 -9.144531 12.21875 -8.40625 11.9375 -7.71875 C 11.664062 -7.039062 11.289062 -6.421875 10.8125 -5.859375 C 10.34375 -5.304688 9.804688 -4.816406 9.203125 -4.390625 C 8.597656 -3.960938 8.003906 -3.609375 7.421875 -3.328125 C 6.734375 -2.992188 6.015625 -2.703125 5.265625 -2.453125 C 4.523438 -2.210938 3.78125 -2.035156 3.03125 -1.921875 C 2.289062 -1.804688 1.585938 -1.796875 0.921875 -1.890625 C 0.265625 -1.984375 -0.328125 -2.210938 -0.859375 -2.578125 C -1.390625 -2.941406 -1.816406 -3.460938 -2.140625 -4.140625 Z M -2.140625 -4.140625 "/></g></g></g><g fill="#000000" fill-opacity="1"><g transform="translate(276.44356, 341.767389)"><g><path d="M 7.515625 -4.234375 C 6.359375 -3.535156 5.257812 -3.085938 4.21875 -2.890625 C 3.1875 -2.691406 2.210938 -2.703125 1.296875 -2.921875 C 0.390625 -3.140625 -0.460938 -3.523438 -1.265625 -4.078125 C -2.066406 -4.628906 -2.816406 -5.3125 -3.515625 -6.125 C -4.210938 -6.945312 -4.859375 -7.859375 -5.453125 -8.859375 C -6.046875 -9.859375 -6.539062 -10.863281 -6.9375 -11.875 C -7.332031 -12.882812 -7.582031 -13.875 -7.6875 -14.84375 C -7.789062 -15.8125 -7.71875 -16.742188 -7.46875 -17.640625 C -7.226562 -18.546875 -6.769531 -19.40625 -6.09375 -20.21875 C -5.425781 -21.03125 -4.515625 -21.785156 -3.359375 -22.484375 C -2.191406 -23.171875 -1.128906 -23.609375 -0.171875 -23.796875 C 0.773438 -23.992188 1.617188 -24.003906 2.359375 -23.828125 C 3.109375 -23.648438 3.75 -23.351562 4.28125 -22.9375 C 4.8125 -22.53125 5.234375 -22.066406 5.546875 -21.546875 C 5.816406 -21.097656 5.972656 -20.632812 6.015625 -20.15625 C 6.054688 -19.675781 6.015625 -19.210938 5.890625 -18.765625 C 5.765625 -18.316406 5.566406 -17.910156 5.296875 -17.546875 C 5.035156 -17.179688 4.734375 -16.894531 4.390625 -16.6875 C 3.941406 -16.425781 3.460938 -16.34375 2.953125 -16.4375 C 2.453125 -16.539062 2.003906 -16.921875 1.609375 -17.578125 C 1.328125 -18.066406 1.0625 -18.4375 0.8125 -18.6875 C 0.5625 -18.9375 0.285156 -19.066406 -0.015625 -19.078125 C -0.316406 -19.085938 -0.679688 -18.96875 -1.109375 -18.71875 C -1.628906 -18.40625 -1.976562 -18.003906 -2.15625 -17.515625 C -2.332031 -17.035156 -2.375 -16.488281 -2.28125 -15.875 C -2.1875 -15.269531 -1.988281 -14.617188 -1.6875 -13.921875 C -1.394531 -13.222656 -1.03125 -12.503906 -0.59375 -11.765625 C -0.15625 -11.035156 0.296875 -10.367188 0.765625 -9.765625 C 1.242188 -9.171875 1.726562 -8.6875 2.21875 -8.3125 C 2.71875 -7.9375 3.21875 -7.710938 3.71875 -7.640625 C 4.226562 -7.566406 4.742188 -7.6875 5.265625 -8 C 5.691406 -8.25 5.972656 -8.507812 6.109375 -8.78125 C 6.242188 -9.050781 6.257812 -9.351562 6.15625 -9.6875 C 6.0625 -10.03125 5.867188 -10.441406 5.578125 -10.921875 C 5.179688 -11.585938 5.054688 -12.164062 5.203125 -12.65625 C 5.359375 -13.144531 5.660156 -13.519531 6.109375 -13.78125 C 6.453125 -13.988281 6.847656 -14.125 7.296875 -14.1875 C 7.753906 -14.25 8.207031 -14.226562 8.65625 -14.125 C 9.101562 -14.03125 9.53125 -13.847656 9.9375 -13.578125 C 10.34375 -13.304688 10.679688 -12.941406 10.953125 -12.484375 C 11.265625 -11.960938 11.472656 -11.367188 11.578125 -10.703125 C 11.679688 -10.046875 11.628906 -9.347656 11.421875 -8.609375 C 11.222656 -7.867188 10.8125 -7.125 10.1875 -6.375 C 9.570312 -5.632812 8.679688 -4.921875 7.515625 -4.234375 Z M 7.515625 -4.234375 "/></g></g></g><g fill="#000000" fill-opacity="1"><g transform="translate(290.936857, 333.109272)"><g><path d="M -6.234375 -8.34375 C -6.910156 -9.28125 -7.5 -10.222656 -8 -11.171875 C -8.5 -12.117188 -8.859375 -13.0625 -9.078125 -14 C -9.296875 -14.945312 -9.335938 -15.867188 -9.203125 -16.765625 C -9.066406 -17.671875 -8.710938 -18.550781 -8.140625 -19.40625 C -7.566406 -20.269531 -6.726562 -21.101562 -5.625 -21.90625 C -4.53125 -22.707031 -3.484375 -23.242188 -2.484375 -23.515625 C -1.492188 -23.796875 -0.546875 -23.863281 0.359375 -23.71875 C 1.265625 -23.570312 2.125 -23.25 2.9375 -22.75 C 3.757812 -22.25 4.546875 -21.617188 5.296875 -20.859375 C 6.054688 -20.097656 6.78125 -19.242188 7.46875 -18.296875 C 8.15625 -17.347656 8.742188 -16.394531 9.234375 -15.4375 C 9.722656 -14.488281 10.078125 -13.546875 10.296875 -12.609375 C 10.523438 -11.679688 10.570312 -10.757812 10.4375 -9.84375 C 10.300781 -8.9375 9.941406 -8.054688 9.359375 -7.203125 C 8.785156 -6.347656 7.953125 -5.519531 6.859375 -4.71875 C 5.753906 -3.914062 4.707031 -3.375 3.71875 -3.09375 C 2.726562 -2.8125 1.78125 -2.75 0.875 -2.90625 C -0.03125 -3.0625 -0.894531 -3.382812 -1.71875 -3.875 C -2.539062 -4.363281 -3.328125 -4.992188 -4.078125 -5.765625 C -4.828125 -6.535156 -5.546875 -7.394531 -6.234375 -8.34375 Z M -1.6875 -11.640625 C -1.175781 -10.941406 -0.671875 -10.304688 -0.171875 -9.734375 C 0.316406 -9.171875 0.8125 -8.71875 1.3125 -8.375 C 1.8125 -8.039062 2.304688 -7.851562 2.796875 -7.8125 C 3.285156 -7.769531 3.773438 -7.925781 4.265625 -8.28125 C 4.753906 -8.632812 5.050781 -9.050781 5.15625 -9.53125 C 5.269531 -10.007812 5.242188 -10.535156 5.078125 -11.109375 C 4.910156 -11.691406 4.632812 -12.304688 4.25 -12.953125 C 3.863281 -13.609375 3.414062 -14.285156 2.90625 -14.984375 C 2.40625 -15.671875 1.90625 -16.296875 1.40625 -16.859375 C 0.90625 -17.429688 0.40625 -17.890625 -0.09375 -18.234375 C -0.601562 -18.578125 -1.097656 -18.769531 -1.578125 -18.8125 C -2.066406 -18.851562 -2.554688 -18.695312 -3.046875 -18.34375 C -3.535156 -17.988281 -3.835938 -17.570312 -3.953125 -17.09375 C -4.066406 -16.613281 -4.035156 -16.082031 -3.859375 -15.5 C -3.691406 -14.914062 -3.410156 -14.296875 -3.015625 -13.640625 C -2.628906 -12.992188 -2.1875 -12.328125 -1.6875 -11.640625 Z M -1.6875 -11.640625 "/></g></g></g><g fill="#000000" fill-opacity="1"><g transform="translate(304.918997, 322.908674)"><g><path d="M -9.640625 -11.421875 L -12.546875 -14.734375 C -12.835938 -15.066406 -12.96875 -15.421875 -12.9375 -15.796875 C -12.914062 -16.171875 -12.738281 -16.507812 -12.40625 -16.8125 L -2.609375 -25.40625 C -2.273438 -25.695312 -1.914062 -25.832031 -1.53125 -25.8125 C -1.15625 -25.789062 -0.820312 -25.613281 -0.53125 -25.28125 L 2.375 -21.96875 C 2.519531 -21.8125 2.578125 -21.628906 2.546875 -21.421875 C 2.515625 -21.210938 2.421875 -21.039062 2.265625 -20.90625 C 2.046875 -20.695312 1.800781 -20.550781 1.53125 -20.46875 C 1.269531 -20.394531 0.984375 -20.34375 0.671875 -20.3125 C 0.367188 -20.28125 0.0625 -20.242188 -0.25 -20.203125 C -0.570312 -20.160156 -0.890625 -20.070312 -1.203125 -19.9375 C -1.523438 -19.8125 -1.835938 -19.613281 -2.140625 -19.34375 L -2.3125 -19.203125 L 1.359375 -15.03125 C 2.035156 -14.257812 2.640625 -13.613281 3.171875 -13.09375 C 3.710938 -12.582031 4.203125 -12.15625 4.640625 -11.8125 C 5.078125 -11.46875 5.46875 -11.179688 5.8125 -10.953125 C 6.15625 -10.734375 6.46875 -10.535156 6.75 -10.359375 C 7.03125 -10.191406 7.300781 -10.007812 7.5625 -9.8125 C 7.820312 -9.613281 8.082031 -9.363281 8.34375 -9.0625 C 8.570312 -8.800781 8.679688 -8.546875 8.671875 -8.296875 C 8.671875 -8.046875 8.601562 -7.8125 8.46875 -7.59375 C 8.332031 -7.382812 8.175781 -7.195312 8 -7.03125 C 7.820312 -6.875 7.675781 -6.742188 7.5625 -6.640625 L 4.75 -4.171875 C 4.632812 -4.066406 4.484375 -3.9375 4.296875 -3.78125 C 4.109375 -3.632812 3.898438 -3.503906 3.671875 -3.390625 C 3.441406 -3.285156 3.203125 -3.25 2.953125 -3.28125 C 2.710938 -3.3125 2.476562 -3.457031 2.25 -3.71875 C 1.988281 -4.019531 1.773438 -4.3125 1.609375 -4.59375 C 1.441406 -4.875 1.289062 -5.160156 1.15625 -5.453125 C 1.019531 -5.753906 0.863281 -6.085938 0.6875 -6.453125 C 0.507812 -6.828125 0.28125 -7.253906 0 -7.734375 C -0.28125 -8.210938 -0.640625 -8.75 -1.078125 -9.34375 C -1.523438 -9.945312 -2.085938 -10.632812 -2.765625 -11.40625 L -6.4375 -15.578125 L -6.46875 -15.546875 C -6.769531 -15.285156 -7.003906 -15.003906 -7.171875 -14.703125 C -7.335938 -14.410156 -7.460938 -14.109375 -7.546875 -13.796875 C -7.628906 -13.492188 -7.703125 -13.191406 -7.765625 -12.890625 C -7.835938 -12.585938 -7.929688 -12.304688 -8.046875 -12.046875 C -8.171875 -11.796875 -8.347656 -11.570312 -8.578125 -11.375 C -8.734375 -11.238281 -8.910156 -11.171875 -9.109375 -11.171875 C -9.316406 -11.179688 -9.492188 -11.265625 -9.640625 -11.421875 Z M -9.640625 -11.421875 "/></g></g></g><g fill="#000000" fill-opacity="1"><g transform="translate(317.922588, 311.529114)"><g><path d="M 1.421875 -1.53125 C 1.210938 -1.300781 0.992188 -1.097656 0.765625 -0.921875 C 0.546875 -0.753906 0.328125 -0.660156 0.109375 -0.640625 C -0.109375 -0.617188 -0.316406 -0.703125 -0.515625 -0.890625 C -0.710938 -1.078125 -0.851562 -1.257812 -0.9375 -1.4375 C -1.019531 -1.613281 -1.082031 -1.8125 -1.125 -2.03125 C -1.175781 -2.257812 -1.222656 -2.515625 -1.265625 -2.796875 C -1.316406 -3.078125 -1.410156 -3.398438 -1.546875 -3.765625 C -1.691406 -4.128906 -1.898438 -4.554688 -2.171875 -5.046875 C -2.585938 -5.785156 -2.953125 -6.414062 -3.265625 -6.9375 C -3.578125 -7.457031 -3.851562 -7.914062 -4.09375 -8.3125 C -4.332031 -8.71875 -4.554688 -9.085938 -4.765625 -9.421875 C -4.972656 -9.765625 -5.179688 -10.101562 -5.390625 -10.4375 C -5.609375 -10.769531 -5.835938 -11.140625 -6.078125 -11.546875 C -6.316406 -11.953125 -6.601562 -12.410156 -6.9375 -12.921875 C -7.269531 -13.441406 -7.65625 -14.066406 -8.09375 -14.796875 C -8.382812 -15.285156 -8.625 -15.660156 -8.8125 -15.921875 C -9.007812 -16.191406 -9.175781 -16.398438 -9.3125 -16.546875 C -9.457031 -16.691406 -9.613281 -16.828125 -9.78125 -16.953125 C -9.957031 -17.085938 -10.171875 -17.265625 -10.421875 -17.484375 C -10.472656 -17.535156 -10.546875 -17.609375 -10.640625 -17.703125 C -10.742188 -17.804688 -10.828125 -17.929688 -10.890625 -18.078125 C -10.953125 -18.234375 -10.960938 -18.40625 -10.921875 -18.59375 C -10.878906 -18.78125 -10.753906 -18.984375 -10.546875 -19.203125 L -7.890625 -22.046875 C -7.691406 -22.265625 -7.515625 -22.445312 -7.359375 -22.59375 C -7.203125 -22.738281 -7.03125 -22.84375 -6.84375 -22.90625 C -6.65625 -22.976562 -6.414062 -22.984375 -6.125 -22.921875 C -5.84375 -22.859375 -5.46875 -22.726562 -5 -22.53125 C -4.539062 -22.34375 -3.953125 -22.0625 -3.234375 -21.6875 C -2.367188 -21.238281 -1.601562 -20.835938 -0.9375 -20.484375 C -0.28125 -20.140625 0.304688 -19.828125 0.828125 -19.546875 C 1.347656 -19.273438 1.847656 -19.007812 2.328125 -18.75 C 2.816406 -18.488281 3.328125 -18.222656 3.859375 -17.953125 C 4.390625 -17.679688 4.984375 -17.382812 5.640625 -17.0625 C 6.304688 -16.738281 7.082031 -16.351562 7.96875 -15.90625 C 8.46875 -15.664062 8.898438 -15.488281 9.265625 -15.375 C 9.640625 -15.257812 9.96875 -15.1875 10.25 -15.15625 C 10.539062 -15.125 10.800781 -15.09375 11.03125 -15.0625 C 11.257812 -15.039062 11.46875 -14.992188 11.65625 -14.921875 C 11.84375 -14.859375 12.035156 -14.734375 12.234375 -14.546875 C 12.429688 -14.359375 12.519531 -14.148438 12.5 -13.921875 C 12.488281 -13.703125 12.410156 -13.476562 12.265625 -13.25 C 12.117188 -13.019531 11.9375 -12.785156 11.71875 -12.546875 L 8.09375 -8.671875 C 7.9375 -8.503906 7.757812 -8.363281 7.5625 -8.25 C 7.375 -8.132812 7.175781 -8.070312 6.96875 -8.0625 C 6.769531 -8.0625 6.585938 -8.140625 6.421875 -8.296875 C 6.179688 -8.515625 6.007812 -8.707031 5.90625 -8.875 C 5.8125 -9.039062 5.722656 -9.207031 5.640625 -9.375 C 5.566406 -9.539062 5.457031 -9.722656 5.3125 -9.921875 C 5.175781 -10.128906 4.945312 -10.382812 4.625 -10.6875 C 4.445312 -10.84375 4.25 -11.003906 4.03125 -11.171875 L 1.515625 -8.46875 C 1.609375 -8.382812 1.707031 -8.304688 1.8125 -8.234375 C 1.925781 -8.160156 2.03125 -8.085938 2.125 -8.015625 C 2.488281 -7.765625 2.785156 -7.582031 3.015625 -7.46875 C 3.253906 -7.363281 3.457031 -7.28125 3.625 -7.21875 C 3.800781 -7.15625 3.972656 -7.078125 4.140625 -6.984375 C 4.316406 -6.890625 4.523438 -6.734375 4.765625 -6.515625 C 4.929688 -6.359375 5.019531 -6.179688 5.03125 -5.984375 C 5.039062 -5.785156 4.992188 -5.582031 4.890625 -5.375 C 4.796875 -5.175781 4.671875 -5 4.515625 -4.84375 Z M -2.078125 -11.859375 L -0.328125 -13.75 C -0.734375 -13.957031 -1.164062 -14.179688 -1.625 -14.421875 C -2.082031 -14.660156 -2.570312 -14.910156 -3.09375 -15.171875 C -3.394531 -15.328125 -3.65625 -15.445312 -3.875 -15.53125 C -4.101562 -15.613281 -4.253906 -15.609375 -4.328125 -15.515625 C -4.378906 -15.429688 -4.34375 -15.269531 -4.21875 -15.03125 C -4.09375 -14.789062 -3.925781 -14.503906 -3.71875 -14.171875 C -3.519531 -13.847656 -3.304688 -13.519531 -3.078125 -13.1875 C -2.847656 -12.863281 -2.640625 -12.582031 -2.453125 -12.34375 C -2.265625 -12.101562 -2.140625 -11.941406 -2.078125 -11.859375 Z M -2.078125 -11.859375 "/></g></g></g></svg>