<svg xmlns="http://www.w3.org/2000/svg" xmlns:xlink="http://www.w3.org/1999/xlink" width="500" zoomAndPan="magnify" viewBox="0 0 375 374.999991" height="500" preserveAspectRatio="xMidYMid meet" version="1.0"><defs><g/><clipPath id="55ff53f2ca"><path d="M 2.878906 2.878906 L 372.121094 2.878906 L 372.121094 372.121094 L 2.878906 372.121094 Z M 2.878906 2.878906 " clip-rule="nonzero"/></clipPath><clipPath id="c839b949ac"><path d="M 187.5 2.878906 C 85.535156 2.878906 2.878906 85.535156 2.878906 187.5 C 2.878906 289.464844 85.535156 372.121094 187.5 372.121094 C 289.464844 372.121094 372.121094 289.464844 372.121094 187.5 C 372.121094 85.535156 289.464844 2.878906 187.5 2.878906 Z M 187.5 2.878906 " clip-rule="nonzero"/></clipPath><clipPath id="a20dc3fda5"><path d="M 2.878906 2.878906 L 371.878906 2.878906 L 371.878906 371.878906 L 2.878906 371.878906 Z M 2.878906 2.878906 " clip-rule="nonzero"/></clipPath><clipPath id="35c62a56fd"><path d="M 187.496094 2.878906 C 85.535156 2.878906 2.878906 85.535156 2.878906 187.496094 C 2.878906 289.457031 85.535156 372.113281 187.496094 372.113281 C 289.457031 372.113281 372.113281 289.457031 372.113281 187.496094 C 372.113281 85.535156 289.457031 2.878906 187.496094 2.878906 Z M 187.496094 2.878906 " clip-rule="nonzero"/></clipPath><clipPath id="b30ec01d64"><path d="M 0 47 L 375 47 L 375 187.660156 L 0 187.660156 Z M 0 47 " clip-rule="nonzero"/></clipPath></defs><g clip-path="url(#55ff53f2ca)"><g clip-path="url(#c839b949ac)"><path fill="#fffffe" d="M 2.878906 2.878906 L 372.121094 2.878906 L 372.121094 372.121094 L 2.878906 372.121094 Z M 2.878906 2.878906 " fill-opacity="1" fill-rule="nonzero"/></g></g><g clip-path="url(#a20dc3fda5)"><g clip-path="url(#35c62a56fd)"><path stroke-linecap="butt" transform="matrix(0.75, 0, 0, 0.75, 2.879551, 2.879531)" fill="none" stroke-linejoin="miter" d="M 246.155406 -0.000833089 C 110.20748 -0.000833089 -0.000860145 110.207507 -0.000860145 246.155433 C -0.000860145 382.103359 110.20748 492.311699 246.155406 492.311699 C 382.103332 492.311699 492.311672 382.103359 492.311672 246.155433 C 492.311672 110.207507 382.103332 -0.000833089 246.155406 -0.000833089 Z M 246.155406 -0.000833089 " stroke="#000000" stroke-width="2" stroke-opacity="1" stroke-miterlimit="4"/></g></g><g clip-path="url(#b30ec01d64)"><path fill="#000000" d="M 378.476562 176.792969 C 375.050781 176.792969 371.628906 176.753906 368.203125 176.753906 C 362.863281 176.753906 357.566406 176.710938 352.226562 176.671875 C 352.839844 175.324219 353.285156 173.894531 353.53125 172.503906 C 355.363281 161.804688 348.4375 151.835938 339.304688 146.894531 C 337.429688 145.875 335.394531 145.015625 333.273438 144.363281 C 324.59375 97.761719 301.238281 89.101562 288.847656 87.917969 C 281.304688 79.054688 271.320312 71.660156 260.316406 68.148438 C 261.78125 67.820312 263.207031 67.535156 264.675781 67.210938 C 266.226562 66.882812 266.226562 64.882812 265.082031 64.105469 C 255.058594 57.242188 242.339844 53.484375 229.828125 53.484375 C 230.601562 52.585938 230.519531 51.035156 229.09375 50.707031 C 219.1875 48.664062 209.039062 49.195312 199.664062 53.199219 C 196.933594 54.382812 194.285156 55.8125 191.878906 57.527344 C 191.675781 57.691406 191.390625 57.855469 191.105469 58.058594 C 190.699219 57.691406 190.25 57.367188 189.84375 57.039062 C 187.4375 55.121094 184.828125 53.527344 182.058594 52.179688 C 172.886719 47.765625 162.820312 46.789062 152.792969 48.339844 C 151.324219 48.585938 151.324219 50.136719 152.058594 51.035156 C 139.546875 50.464844 126.585938 53.648438 116.191406 60.019531 C 114.96875 60.753906 115.171875 62.757812 116.597656 63.125 C 118.023438 63.492188 119.453125 63.859375 120.878906 64.269531 C 112.03125 66.679688 103.71875 71.457031 96.667969 77.582031 C 84.644531 75.378906 57.945312 78.5625 38.460938 140.035156 C 46.53125 132.640625 50.730469 130.109375 50.730469 130.109375 C 50.730469 130.109375 48.40625 135.011719 45.882812 142.566406 C 40.460938 143.054688 35.203125 144.691406 30.839844 147.671875 C 23.179688 152.816406 18.285156 162.128906 19.222656 171.441406 C 19.347656 172.832031 19.671875 174.136719 20.160156 175.40625 C 17.308594 175.40625 14.496094 175.40625 11.644531 175.363281 C 6.710938 175.363281 1.738281 175.242188 -3.191406 175.324219 C -3.398438 175.324219 -3.640625 175.324219 -3.84375 175.324219 C -5.433594 175.324219 -5.433594 177.773438 -3.84375 177.773438 C -0.421875 177.773438 3.003906 177.8125 6.425781 177.8125 C 11.398438 177.8125 16.371094 177.855469 21.304688 177.855469 C 24.5625 183.53125 31.085938 186.839844 37.730469 184.390625 C 38.382812 184.960938 39.113281 185.410156 39.929688 185.820312 C 43.394531 187.453125 48 187.453125 51.425781 187.332031 C 54.847656 187.167969 58.882812 186.800781 62.308594 185.371094 C 62.347656 185.371094 62.347656 185.371094 62.347656 185.328125 C 63.203125 184.960938 63.976562 184.554688 64.710938 184.0625 C 66.667969 185.453125 69.847656 185.65625 71.804688 184.960938 C 75.796875 183.53125 78.039062 180.632812 78.039062 180.671875 C 78.691406 179.898438 79.261719 179.039062 79.75 178.140625 C 94.953125 178.183594 110.199219 178.261719 125.441406 178.304688 C 143.824219 178.386719 162.207031 178.425781 180.628906 178.507812 C 199.054688 178.589844 217.519531 178.632812 235.941406 178.710938 C 253.261719 178.792969 270.546875 178.835938 287.867188 178.917969 C 289.824219 178.917969 291.738281 178.917969 293.65625 178.917969 C 294.0625 179.53125 294.550781 180.140625 295.042969 180.714844 C 295.9375 181.695312 297 182.550781 298.097656 183.289062 C 301.359375 185.328125 305.355469 185.941406 309.429688 184.429688 C 312.894531 187.453125 318.886719 187.535156 323.125 187.332031 C 325.976562 187.207031 329.320312 186.921875 332.335938 185.984375 C 332.90625 185.820312 333.4375 185.617188 333.964844 185.410156 C 333.964844 185.410156 334.007812 185.410156 334.007812 185.371094 C 334.863281 185.003906 335.636719 184.59375 336.371094 184.105469 C 338.328125 185.492188 341.464844 185.574219 343.464844 185.003906 C 346.519531 184.105469 349.046875 181.859375 350.839844 179.160156 C 354.875 179.160156 358.910156 179.203125 362.945312 179.203125 C 367.878906 179.203125 372.851562 179.324219 377.78125 179.242188 C 377.988281 179.242188 378.230469 179.242188 378.433594 179.242188 C 380.066406 179.242188 380.066406 176.792969 378.476562 176.792969 Z M 77.429688 175.199219 C 76.941406 176.304688 76.246094 177.363281 75.429688 178.34375 C 73.84375 180.183594 71.640625 182.0625 69.074219 181.941406 C 66.75 181.859375 65.566406 181.285156 65.078125 180.671875 C 65.648438 176.546875 64.058594 171.074219 63.246094 167.601562 C 62.753906 165.480469 59.496094 166.378906 59.984375 168.5 C 60.390625 170.300781 60.71875 172.179688 60.960938 174.015625 C 61.246094 176.304688 62.023438 180.46875 60.433594 182.46875 C 57.539062 183.53125 54.03125 183.777344 51.34375 183.898438 C 48.40625 184.023438 44.128906 184.1875 41.195312 182.675781 C 41.070312 182.511719 40.949219 182.347656 40.746094 182.183594 C 40.09375 181.695312 39.6875 180.878906 39.441406 179.980469 C 38.910156 177.894531 39.195312 175.078125 39.605469 172.75 C 39.808594 171.566406 40.050781 170.503906 40.214844 169.769531 C 40.335938 169.238281 40.214844 168.789062 39.972656 168.460938 C 39.238281 167.398438 37.28125 167.234375 36.914062 168.871094 C 36.140625 172.339844 35.242188 177.363281 36.464844 181.246094 C 30.269531 183.65625 23.832031 178.753906 22.6875 172.339844 C 21.464844 165.355469 24.484375 157.921875 29.496094 153.105469 C 33.492188 149.265625 38.910156 146.976562 44.699219 146.160156 C 55.539062 144.648438 67.605469 148.324219 74.085938 156.617188 C 74.738281 157.472656 75.351562 158.371094 75.878906 159.3125 C 76.574219 160.496094 77.144531 161.804688 77.589844 163.152344 C 77.671875 163.394531 77.753906 163.601562 77.835938 163.84375 C 79.058594 167.5625 79.058594 171.6875 77.429688 175.199219 Z M 102.167969 175.730469 C 104.941406 171.808594 108.8125 168.542969 113.335938 166.09375 C 115.007812 165.195312 113.867188 162.292969 112.03125 162.988281 C 112.15625 162.945312 112.113281 162.90625 112.074219 162.90625 C 114.355469 161.679688 116.71875 160.578125 119.164062 159.640625 C 125.726562 157.066406 132.820312 155.636719 139.707031 155.71875 C 140.851562 155.71875 141.582031 154.613281 141.339844 153.554688 C 141.136719 152.734375 140.726562 152.125 140.117188 151.59375 C 144.558594 151.0625 149 150.9375 153.402344 151.265625 C 160.78125 151.835938 168.035156 153.796875 174.597656 157.679688 C 175.496094 158.210938 176.433594 158.820312 177.328125 159.433594 C 174.027344 161.886719 172.03125 165.195312 172.152344 168.828125 C 172.234375 171.523438 173.496094 173.976562 175.496094 175.976562 C 163.226562 175.933594 151 175.894531 138.730469 175.855469 C 126.503906 175.8125 114.316406 175.773438 102.167969 175.730469 Z M 153.363281 137.5 C 151.894531 132.476562 147.941406 125.984375 142.316406 125.777344 C 136 125.535156 133.71875 132.683594 133.511719 138.15625 C 133.433594 140.15625 129.4375 140.726562 129.519531 138.480469 C 129.761719 131.660156 133.308594 123.082031 140.851562 122.59375 C 149.042969 122.0625 155.035156 128.597656 157.277344 136.359375 C 157.847656 138.359375 153.972656 139.542969 153.363281 137.5 Z M 200.5625 164.824219 C 200.5625 167.847656 196.324219 170.300781 191.066406 170.300781 C 185.808594 170.300781 181.566406 167.847656 181.566406 164.824219 C 181.566406 161.804688 185.808594 159.351562 191.066406 159.351562 C 196.324219 159.351562 200.5625 161.804688 200.5625 164.824219 Z M 249.148438 176.304688 C 233.902344 176.261719 218.660156 176.179688 203.414062 176.140625 C 205.941406 173.851562 207.410156 170.910156 207.328125 167.765625 C 207.207031 164.375 205.289062 161.355469 202.234375 159.1875 C 202.476562 159.066406 202.761719 158.902344 203.007812 158.78125 C 209.9375 155.472656 217.3125 154.003906 224.8125 153.878906 C 229.417969 153.796875 234.066406 154.246094 238.632812 155.0625 C 237.980469 155.554688 237.488281 156.207031 237.246094 157.023438 C 237.082031 157.554688 237.246094 158.085938 237.53125 158.496094 C 238.589844 158.738281 239.609375 158.984375 240.628906 159.1875 C 244.664062 159.230469 248.78125 159.71875 252.773438 160.660156 C 258.601562 162.007812 264.308594 164.335938 269.242188 167.480469 C 268.140625 167.398438 267.121094 167.152344 266.226562 166.621094 C 264.308594 165.519531 262.71875 168.339844 264.511719 169.5625 C 267.164062 171.359375 269.730469 173.648438 271.972656 176.304688 L 276.292969 176.304688 C 274.824219 174.34375 273.195312 172.503906 271.441406 170.828125 C 272.5 170.75 273.519531 170.625 274.5 170.460938 C 275.722656 170.257812 276.210938 168.378906 275.234375 167.601562 C 274.785156 167.234375 274.335938 166.910156 273.847656 166.542969 C 273.722656 166.867188 273.5625 167.113281 273.359375 167.359375 C 273.5625 167.113281 273.722656 166.828125 273.847656 166.542969 C 275.722656 161.925781 270.421875 149.835938 270.421875 149.835938 C 270.421875 149.835938 272.054688 153.347656 274.703125 155.269531 C 275.84375 148.242188 270.546875 142.648438 269.039062 141.21875 C 269.894531 142.035156 272.214844 144.242188 275.761719 148.160156 C 275.355469 140.933594 267.527344 131.824219 267.527344 131.824219 C 267.527344 131.824219 269.160156 133.007812 274.089844 134.929688 C 269.242188 124.636719 257.460938 117.160156 257.460938 117.160156 C 257.460938 117.160156 262.964844 118.183594 266.347656 117.488281 C 254.445312 108.09375 246.128906 108.582031 243.074219 109.277344 C 244.785156 108.746094 247.964844 107.847656 251.0625 107.03125 C 235.453125 100.414062 226.160156 109.972656 226.160156 109.972656 C 226.160156 109.972656 226.566406 108.664062 231.578125 103.398438 C 216.171875 110.339844 212.503906 120.144531 212.503906 120.144531 C 212.503906 120.144531 212.910156 118.835938 212.910156 112.585938 C 204.761719 125.820312 207.125 131.578125 208.917969 133.703125 C 207.859375 132.804688 206.226562 131.332031 204.351562 129.699219 C 207.164062 139.460938 212.832031 146.160156 219.554688 150.777344 C 213.484375 151.386719 207.492188 152.898438 201.785156 155.511719 C 200.726562 156.003906 199.664062 156.535156 198.566406 157.148438 C 195.832031 156.003906 192.613281 155.433594 189.191406 155.511719 C 185.929688 155.59375 182.914062 156.332031 180.34375 157.515625 C 178.796875 156.371094 177.207031 155.308594 175.617188 154.410156 C 169.953125 151.144531 163.839844 149.183594 157.5625 148.285156 C 163.472656 143.75 168.363281 137.378906 170.890625 128.554688 C 169.015625 130.230469 167.382812 131.660156 166.324219 132.558594 C 168.117188 130.433594 170.480469 124.636719 162.328125 111.441406 C 162.328125 117.691406 162.738281 119 162.738281 119 C 162.738281 119 159.070312 109.195312 143.664062 102.253906 C 148.675781 107.523438 149.082031 108.828125 149.082031 108.828125 C 149.082031 108.828125 139.789062 99.273438 124.179688 105.886719 C 127.277344 106.664062 130.457031 107.605469 132.167969 108.132812 C 129.070312 107.441406 120.796875 106.949219 108.894531 116.34375 C 112.316406 117.039062 117.78125 116.015625 117.78125 116.015625 C 117.78125 116.015625 106.164062 123.574219 101.3125 133.867188 C 106.246094 131.945312 107.875 130.761719 107.875 130.761719 C 107.875 130.761719 100.050781 139.828125 99.683594 147.101562 C 103.230469 143.179688 105.511719 140.972656 106.410156 140.15625 C 104.898438 141.585938 99.601562 147.179688 100.742188 154.207031 C 103.390625 152.246094 105.023438 148.773438 105.023438 148.773438 C 105.023438 148.773438 100.335938 162.496094 103.433594 166.253906 C 103.636719 165.886719 103.882812 165.519531 104.125 165.234375 C 104.207031 166.011719 104.738281 166.664062 105.714844 166.582031 C 105.960938 166.542969 106.246094 166.542969 106.488281 166.5 C 103.105469 169.074219 100.253906 172.179688 98.132812 175.730469 C 94.34375 175.730469 90.59375 175.691406 86.804688 175.691406 C 84.847656 175.691406 82.929688 175.691406 80.976562 175.691406 C 81.382812 174.667969 81.667969 173.605469 81.832031 172.546875 C 82.402344 169.15625 82.117188 165.886719 81.136719 162.785156 C 81.75 157.472656 82.890625 152.246094 84.359375 147.425781 C 84.96875 145.507812 82.277344 144.566406 81.261719 146.121094 C 79.792969 148.285156 78.40625 150.488281 77.0625 152.734375 C 75.921875 141.789062 78.367188 130.191406 84.96875 121.328125 C 86.109375 119.773438 83.5 117.734375 82.320312 119.285156 C 82.238281 119.40625 82.15625 119.488281 82.074219 119.652344 C 80.976562 121.082031 79.546875 123.125 78 124.554688 C 78.8125 113.894531 80.445312 100.457031 88.515625 93.105469 C 89.046875 92.613281 89.085938 91.878906 88.839844 91.265625 C 92.183594 86.734375 96.300781 82.484375 100.863281 78.769531 C 109.058594 72.070312 118.839844 67.289062 128.582031 66.269531 C 130.375 66.066406 131.027344 63.453125 129.03125 62.921875 C 126.542969 62.265625 124.058594 61.613281 121.570312 60.960938 C 134.734375 54.222656 151.160156 52.421875 165.304688 56.753906 C 167.464844 57.40625 168.160156 54.261719 166.203125 53.484375 C 164.203125 52.667969 162.207031 51.851562 160.25 51.035156 C 167.261719 50.832031 174.273438 52.136719 180.628906 55.28125 C 182.914062 56.386719 185.113281 57.734375 187.152344 59.246094 C 187.722656 59.652344 188.335938 60.101562 188.78125 60.59375 C 189.351562 61.203125 189.148438 61.203125 189.109375 61.082031 C 189.351562 62.511719 191.390625 62.675781 192.125 61.613281 C 192.042969 61.777344 192.125 61.816406 192.289062 61.410156 C 192.246094 61.449219 192.207031 61.492188 192.207031 61.53125 C 192.289062 61.410156 192.371094 61.246094 192.410156 61.082031 C 192.371094 61.246094 192.328125 61.328125 192.328125 61.449219 C 192.410156 61.410156 192.449219 61.328125 192.574219 61.285156 C 193.144531 61 193.714844 60.429688 194.246094 60.019531 C 196.363281 58.550781 198.6875 57.285156 201.09375 56.261719 C 207.613281 53.484375 214.582031 52.503906 221.554688 53.035156 C 219.515625 53.773438 217.476562 54.464844 215.4375 55.199219 C 213.402344 55.9375 214.214844 59.039062 216.335938 58.46875 C 230.640625 54.832031 246.945312 57.40625 259.746094 64.757812 C 257.21875 65.289062 254.648438 65.820312 252.121094 66.390625 C 250.53125 66.71875 250.449219 69.414062 252.121094 69.660156 C 264.308594 71.539062 275.597656 78.605469 284.160156 87.753906 C 286.726562 90.488281 289.050781 93.429688 291.089844 96.496094 C 290.761719 97.066406 290.761719 97.800781 291.414062 98.414062 C 299.117188 106.09375 300.054688 119.570312 300.382812 130.273438 C 298.832031 128.71875 297.488281 126.515625 296.46875 125.085938 C 295.203125 123.328125 292.3125 124.960938 293.535156 126.800781 C 298.015625 133.417969 300.175781 141.339844 300.460938 149.304688 C 299.160156 150.40625 297.933594 151.632812 296.835938 152.980469 C 296.550781 152.53125 296.304688 152.042969 296.019531 151.59375 C 295 149.957031 292.433594 151.019531 292.921875 152.898438 C 293.289062 154.328125 293.65625 155.839844 293.941406 157.351562 C 291.660156 161.640625 290.515625 166.542969 291.007812 171.484375 C 291.167969 173.238281 291.660156 174.914062 292.351562 176.464844 C 277.921875 176.425781 263.535156 176.34375 249.148438 176.304688 Z M 247.925781 140.6875 C 247.351562 135.460938 244.621094 128.394531 239.121094 127.128906 C 232.925781 125.738281 229.417969 132.355469 228.238281 137.707031 C 227.828125 139.667969 223.753906 139.503906 224.242188 137.296875 C 225.710938 130.640625 230.722656 122.839844 238.183594 123.738281 C 246.335938 124.71875 251.101562 132.234375 251.917969 140.277344 C 252.164062 142.320312 248.128906 142.769531 247.925781 140.6875 Z M 340.8125 181.941406 C 338.492188 181.859375 337.308594 181.285156 336.820312 180.671875 C 337.390625 176.546875 335.800781 171.074219 334.984375 167.601562 C 334.496094 165.480469 331.234375 166.378906 331.726562 168.5 C 332.132812 170.300781 332.457031 172.179688 332.703125 174.015625 C 332.988281 176.261719 333.722656 180.386719 332.253906 182.390625 C 332.253906 182.429688 332.214844 182.429688 332.214844 182.46875 C 329.320312 183.53125 325.816406 183.777344 323.125 183.898438 C 320.191406 184.023438 315.910156 184.1875 312.976562 182.675781 C 312.851562 182.511719 312.730469 182.347656 312.566406 182.183594 C 309.714844 180.019531 311.34375 172.707031 311.996094 169.769531 C 312.488281 167.644531 309.183594 166.703125 308.738281 168.871094 C 307.960938 172.339844 307.066406 177.363281 308.246094 181.246094 C 304.78125 182.59375 301.238281 181.652344 298.585938 179.449219 C 297.285156 178.34375 296.222656 176.957031 295.449219 175.40625 C 295 174.464844 294.632812 173.402344 294.472656 172.339844 C 293.980469 169.523438 294.1875 166.621094 294.917969 163.84375 C 295.652344 161.109375 296.917969 158.453125 298.585938 156.167969 C 299.117188 155.433594 299.730469 154.695312 300.339844 154.003906 C 300.625 153.675781 300.953125 153.390625 301.238281 153.0625 C 302.050781 152.285156 302.90625 151.59375 303.804688 150.9375 C 309.429688 146.9375 316.96875 145.300781 324.308594 145.914062 C 325.976562 146.039062 327.648438 146.324219 329.28125 146.691406 C 330.867188 147.058594 332.417969 147.507812 333.886719 148.078125 C 341.222656 150.855469 347.335938 156.167969 349.617188 163.765625 C 351.085938 168.707031 350.636719 174.300781 347.132812 178.304688 C 345.582031 180.183594 343.382812 182.0625 340.8125 181.941406 Z M 340.8125 181.941406 " fill-opacity="1" fill-rule="nonzero"/></g><path fill="#000000" d="M 238.917969 159.1875 C 239.488281 159.1875 240.097656 159.1875 240.667969 159.1875 C 239.648438 158.984375 238.589844 158.78125 237.570312 158.496094 C 237.855469 158.902344 238.347656 159.1875 238.917969 159.1875 Z M 238.917969 159.1875 " fill-opacity="1" fill-rule="nonzero"/><g fill="#000000" fill-opacity="1"><g transform="translate(43.953861, 298.509731)"><g><path d="M 8.734375 -5.875 C 9.484375 -6.582031 10.109375 -7.210938 10.609375 -7.765625 C 11.117188 -8.316406 11.535156 -8.8125 11.859375 -9.25 C 12.191406 -9.695312 12.46875 -10.09375 12.6875 -10.4375 C 12.90625 -10.789062 13.09375 -11.109375 13.25 -11.390625 C 13.414062 -11.679688 13.597656 -11.957031 13.796875 -12.21875 C 13.992188 -12.488281 14.234375 -12.757812 14.515625 -13.03125 C 14.773438 -13.269531 15.03125 -13.390625 15.28125 -13.390625 C 15.53125 -13.390625 15.765625 -13.320312 15.984375 -13.1875 C 16.203125 -13.0625 16.394531 -12.910156 16.5625 -12.734375 C 16.726562 -12.566406 16.863281 -12.425781 16.96875 -12.3125 L 18.625 -10.53125 C 18.738281 -10.40625 18.882812 -10.234375 19.0625 -10.015625 C 19.25 -9.796875 19.394531 -9.550781 19.5 -9.28125 C 19.601562 -9.019531 19.597656 -8.742188 19.484375 -8.453125 L 19.484375 -8.46875 L 15.953125 1.5 C 16.671875 0.820312 17.269531 0.21875 17.75 -0.3125 C 18.238281 -0.851562 18.640625 -1.335938 18.953125 -1.765625 C 19.265625 -2.191406 19.519531 -2.570312 19.71875 -2.90625 C 19.925781 -3.25 20.113281 -3.5625 20.28125 -3.84375 C 20.457031 -4.132812 20.640625 -4.40625 20.828125 -4.65625 C 21.015625 -4.914062 21.25 -5.179688 21.53125 -5.453125 C 21.789062 -5.691406 22.046875 -5.804688 22.296875 -5.796875 C 22.546875 -5.796875 22.78125 -5.734375 23 -5.609375 C 23.21875 -5.484375 23.410156 -5.332031 23.578125 -5.15625 C 23.742188 -4.976562 23.878906 -4.835938 23.984375 -4.734375 L 25.65625 -2.9375 C 25.757812 -2.820312 25.890625 -2.671875 26.046875 -2.484375 C 26.203125 -2.304688 26.335938 -2.101562 26.453125 -1.875 C 26.566406 -1.644531 26.613281 -1.40625 26.59375 -1.15625 C 26.570312 -0.914062 26.429688 -0.675781 26.171875 -0.4375 C 25.890625 -0.164062 25.601562 0.0507812 25.3125 0.21875 C 25.03125 0.394531 24.742188 0.550781 24.453125 0.6875 C 24.160156 0.832031 23.828125 1 23.453125 1.1875 C 23.085938 1.382812 22.671875 1.625 22.203125 1.90625 C 21.734375 2.195312 21.203125 2.570312 20.609375 3.03125 C 20.023438 3.488281 19.359375 4.070312 18.609375 4.78125 C 17.847656 5.476562 17.210938 6.101562 16.703125 6.65625 C 16.203125 7.207031 15.785156 7.707031 15.453125 8.15625 C 15.128906 8.601562 14.859375 9 14.640625 9.34375 C 14.429688 9.6875 14.238281 10.003906 14.0625 10.296875 C 13.894531 10.585938 13.71875 10.863281 13.53125 11.125 C 13.351562 11.382812 13.117188 11.648438 12.828125 11.921875 C 12.566406 12.160156 12.3125 12.28125 12.0625 12.28125 C 11.8125 12.28125 11.578125 12.210938 11.359375 12.078125 C 11.140625 11.953125 10.945312 11.800781 10.78125 11.625 C 10.613281 11.457031 10.476562 11.316406 10.375 11.203125 L 8.703125 9.40625 C 8.617188 9.3125 8.507812 9.1875 8.375 9.03125 C 8.25 8.882812 8.125 8.71875 8 8.53125 C 7.875 8.351562 7.796875 8.15625 7.765625 7.9375 C 7.734375 7.726562 7.757812 7.519531 7.84375 7.3125 L 11.375 -2.625 C 10.65625 -1.945312 10.050781 -1.335938 9.5625 -0.796875 C 9.082031 -0.265625 8.679688 0.210938 8.359375 0.640625 C 8.046875 1.066406 7.785156 1.453125 7.578125 1.796875 C 7.378906 2.140625 7.195312 2.453125 7.03125 2.734375 C 6.863281 3.015625 6.6875 3.285156 6.5 3.546875 C 6.3125 3.804688 6.078125 4.066406 5.796875 4.328125 C 5.535156 4.566406 5.28125 4.6875 5.03125 4.6875 C 4.78125 4.6875 4.546875 4.617188 4.328125 4.484375 C 4.109375 4.359375 3.910156 4.207031 3.734375 4.03125 C 3.566406 3.851562 3.4375 3.710938 3.34375 3.609375 L 1.6875 1.828125 C 1.582031 1.710938 1.453125 1.5625 1.296875 1.375 C 1.140625 1.195312 1.003906 0.992188 0.890625 0.765625 C 0.773438 0.535156 0.726562 0.296875 0.75 0.046875 C 0.769531 -0.191406 0.910156 -0.429688 1.171875 -0.671875 C 1.460938 -0.941406 1.742188 -1.160156 2.015625 -1.328125 C 2.285156 -1.492188 2.570312 -1.648438 2.875 -1.796875 C 3.175781 -1.941406 3.507812 -2.109375 3.875 -2.296875 C 4.238281 -2.484375 4.65625 -2.722656 5.125 -3.015625 C 5.59375 -3.304688 6.117188 -3.679688 6.703125 -4.140625 C 7.296875 -4.597656 7.972656 -5.175781 8.734375 -5.875 Z M 8.734375 -5.875 "/></g></g></g><g fill="#000000" fill-opacity="1"><g transform="translate(56.513438, 311.997841)"><g><path d="M 6.828125 -7.859375 C 7.597656 -8.722656 8.394531 -9.5 9.21875 -10.1875 C 10.050781 -10.882812 10.898438 -11.4375 11.765625 -11.84375 C 12.628906 -12.25 13.515625 -12.484375 14.421875 -12.546875 C 15.335938 -12.609375 16.273438 -12.445312 17.234375 -12.0625 C 18.203125 -11.6875 19.195312 -11.046875 20.21875 -10.140625 C 21.226562 -9.234375 21.972656 -8.328125 22.453125 -7.421875 C 22.929688 -6.515625 23.195312 -5.597656 23.25 -4.671875 C 23.300781 -3.753906 23.171875 -2.84375 22.859375 -1.9375 C 22.546875 -1.039062 22.097656 -0.144531 21.515625 0.75 C 20.929688 1.65625 20.25 2.546875 19.46875 3.421875 C 18.6875 4.296875 17.878906 5.070312 17.046875 5.75 C 16.222656 6.4375 15.378906 6.988281 14.515625 7.40625 C 13.648438 7.820312 12.757812 8.054688 11.84375 8.109375 C 10.925781 8.160156 9.988281 8 9.03125 7.625 C 8.070312 7.25 7.085938 6.609375 6.078125 5.703125 C 5.054688 4.796875 4.300781 3.882812 3.8125 2.96875 C 3.332031 2.0625 3.066406 1.148438 3.015625 0.234375 C 2.972656 -0.671875 3.109375 -1.578125 3.421875 -2.484375 C 3.734375 -3.398438 4.179688 -4.304688 4.765625 -5.203125 C 5.359375 -6.097656 6.046875 -6.984375 6.828125 -7.859375 Z M 11.03125 -4.109375 C 10.457031 -3.472656 9.941406 -2.847656 9.484375 -2.234375 C 9.035156 -1.628906 8.695312 -1.046875 8.46875 -0.484375 C 8.25 0.0664062 8.164062 0.585938 8.21875 1.078125 C 8.28125 1.566406 8.539062 2.015625 9 2.421875 C 9.445312 2.828125 9.914062 3.03125 10.40625 3.03125 C 10.90625 3.039062 11.414062 2.898438 11.9375 2.609375 C 12.46875 2.328125 13.007812 1.925781 13.5625 1.40625 C 14.125 0.882812 14.691406 0.304688 15.265625 -0.328125 C 15.828125 -0.960938 16.332031 -1.582031 16.78125 -2.1875 C 17.238281 -2.800781 17.582031 -3.390625 17.8125 -3.953125 C 18.039062 -4.515625 18.125 -5.035156 18.0625 -5.515625 C 18 -6.003906 17.742188 -6.453125 17.296875 -6.859375 C 16.835938 -7.265625 16.363281 -7.472656 15.875 -7.484375 C 15.382812 -7.492188 14.875 -7.351562 14.34375 -7.0625 C 13.8125 -6.769531 13.265625 -6.363281 12.703125 -5.84375 C 12.148438 -5.320312 11.59375 -4.742188 11.03125 -4.109375 Z M 11.03125 -4.109375 "/></g></g></g><g fill="#000000" fill-opacity="1"><g transform="translate(69.447178, 323.677197)"><g><path d="M 1 -0.890625 C 1.226562 -1.210938 1.460938 -1.484375 1.703125 -1.703125 C 1.941406 -1.929688 2.191406 -2.144531 2.453125 -2.34375 C 2.722656 -2.539062 3.015625 -2.769531 3.328125 -3.03125 C 3.648438 -3.289062 4.007812 -3.609375 4.40625 -3.984375 C 4.8125 -4.367188 5.253906 -4.84375 5.734375 -5.40625 C 6.222656 -5.976562 6.769531 -6.679688 7.375 -7.515625 C 7.976562 -8.359375 8.46875 -9.097656 8.84375 -9.734375 C 9.226562 -10.378906 9.535156 -10.953125 9.765625 -11.453125 C 10.003906 -11.953125 10.191406 -12.394531 10.328125 -12.78125 C 10.472656 -13.164062 10.59375 -13.515625 10.6875 -13.828125 C 10.789062 -14.148438 10.910156 -14.457031 11.046875 -14.75 C 11.191406 -15.050781 11.375 -15.359375 11.59375 -15.671875 C 11.800781 -15.960938 12.023438 -16.128906 12.265625 -16.171875 C 12.503906 -16.222656 12.742188 -16.207031 12.984375 -16.125 C 13.234375 -16.050781 13.457031 -15.945312 13.65625 -15.8125 C 13.851562 -15.675781 14.015625 -15.5625 14.140625 -15.46875 L 16.46875 -13.8125 C 16.625 -13.695312 16.78125 -13.554688 16.9375 -13.390625 C 17.101562 -13.234375 17.226562 -13.054688 17.3125 -12.859375 C 17.40625 -12.660156 17.425781 -12.441406 17.375 -12.203125 L 17.390625 -12.21875 L 16.0625 -5.4375 C 16.007812 -5.132812 16.039062 -4.9375 16.15625 -4.84375 C 16.289062 -4.75 16.488281 -4.773438 16.75 -4.921875 C 17.34375 -5.242188 17.957031 -5.601562 18.59375 -6 C 19.238281 -6.394531 19.894531 -6.789062 20.5625 -7.1875 C 21.238281 -7.582031 21.921875 -7.953125 22.609375 -8.296875 C 22.816406 -8.472656 23.035156 -8.554688 23.265625 -8.546875 C 23.492188 -8.535156 23.71875 -8.476562 23.9375 -8.375 C 24.15625 -8.269531 24.34375 -8.160156 24.5 -8.046875 L 27.890625 -5.625 C 28.015625 -5.53125 28.171875 -5.410156 28.359375 -5.265625 C 28.546875 -5.117188 28.71875 -4.941406 28.875 -4.734375 C 29.039062 -4.523438 29.140625 -4.300781 29.171875 -4.0625 C 29.203125 -3.820312 29.113281 -3.554688 28.90625 -3.265625 C 28.6875 -2.953125 28.453125 -2.679688 28.203125 -2.453125 C 27.960938 -2.234375 27.710938 -2.019531 27.453125 -1.8125 C 27.191406 -1.613281 26.898438 -1.382812 26.578125 -1.125 C 26.253906 -0.875 25.894531 -0.554688 25.5 -0.171875 C 25.101562 0.203125 24.660156 0.671875 24.171875 1.234375 C 23.691406 1.804688 23.148438 2.515625 22.546875 3.359375 C 21.941406 4.191406 21.445312 4.925781 21.0625 5.5625 C 20.6875 6.207031 20.378906 6.78125 20.140625 7.28125 C 19.898438 7.78125 19.710938 8.222656 19.578125 8.609375 C 19.441406 9.003906 19.320312 9.359375 19.21875 9.671875 C 19.113281 9.984375 18.992188 10.285156 18.859375 10.578125 C 18.722656 10.878906 18.539062 11.191406 18.3125 11.515625 C 18.101562 11.796875 17.878906 11.960938 17.640625 12.015625 C 17.398438 12.078125 17.15625 12.0625 16.90625 11.96875 C 16.664062 11.882812 16.445312 11.773438 16.25 11.640625 C 16.050781 11.503906 15.890625 11.390625 15.765625 11.296875 L 12.734375 9.125 C 12.535156 8.988281 12.335938 8.835938 12.140625 8.671875 C 11.953125 8.503906 11.789062 8.320312 11.65625 8.125 C 11.519531 7.9375 11.445312 7.726562 11.4375 7.5 C 11.4375 7.269531 11.53125 7.03125 11.71875 6.78125 C 11.945312 6.457031 12.171875 6.175781 12.390625 5.9375 C 12.617188 5.707031 12.851562 5.488281 13.09375 5.28125 C 13.34375 5.070312 13.613281 4.832031 13.90625 4.5625 C 14.207031 4.289062 14.546875 3.953125 14.921875 3.546875 C 15.304688 3.148438 15.734375 2.660156 16.203125 2.078125 C 16.679688 1.503906 17.222656 0.800781 17.828125 -0.03125 L 10.6875 3.28125 C 10.550781 3.363281 10.410156 3.398438 10.265625 3.390625 C 10.117188 3.378906 9.988281 3.332031 9.875 3.25 C 9.632812 3.082031 9.539062 2.835938 9.59375 2.515625 L 10.625 -4.859375 C 10.039062 -4.035156 9.566406 -3.3125 9.203125 -2.6875 C 8.835938 -2.070312 8.546875 -1.523438 8.328125 -1.046875 C 8.109375 -0.566406 7.925781 -0.140625 7.78125 0.234375 C 7.644531 0.617188 7.523438 0.960938 7.421875 1.265625 C 7.316406 1.578125 7.195312 1.878906 7.0625 2.171875 C 6.9375 2.460938 6.765625 2.765625 6.546875 3.078125 C 6.359375 3.328125 6.15625 3.488281 5.9375 3.5625 C 5.726562 3.632812 5.507812 3.632812 5.28125 3.5625 C 5.0625 3.5 4.84375 3.398438 4.625 3.265625 C 4.40625 3.140625 4.195312 3.007812 4 2.875 L 2.015625 1.453125 C 1.890625 1.359375 1.734375 1.238281 1.546875 1.09375 C 1.359375 0.945312 1.179688 0.773438 1.015625 0.578125 C 0.859375 0.378906 0.765625 0.15625 0.734375 -0.09375 C 0.703125 -0.34375 0.789062 -0.609375 1 -0.890625 Z M 1 -0.890625 "/></g></g></g><g fill="#000000" fill-opacity="1"><g transform="translate(87.952183, 336.708064)"><g><path d="M 0.890625 -0.96875 C 1.140625 -1.40625 1.398438 -1.78125 1.671875 -2.09375 C 1.941406 -2.40625 2.242188 -2.722656 2.578125 -3.046875 C 2.910156 -3.367188 3.28125 -3.753906 3.6875 -4.203125 C 4.101562 -4.660156 4.554688 -5.226562 5.046875 -5.90625 C 5.546875 -6.59375 6.09375 -7.460938 6.6875 -8.515625 C 7.1875 -9.378906 7.582031 -10.140625 7.875 -10.796875 C 8.175781 -11.460938 8.410156 -12.046875 8.578125 -12.546875 C 8.753906 -13.054688 8.882812 -13.503906 8.96875 -13.890625 C 9.0625 -14.273438 9.144531 -14.628906 9.21875 -14.953125 C 9.289062 -15.285156 9.375 -15.601562 9.46875 -15.90625 C 9.570312 -16.207031 9.71875 -16.519531 9.90625 -16.84375 C 10.070312 -17.144531 10.269531 -17.328125 10.5 -17.390625 C 10.726562 -17.460938 10.96875 -17.46875 11.21875 -17.40625 C 11.46875 -17.351562 11.695312 -17.269531 11.90625 -17.15625 C 12.125 -17.039062 12.300781 -16.945312 12.4375 -16.875 L 19.59375 -12.8125 C 20.457031 -12.3125 21.125 -11.695312 21.59375 -10.96875 C 22.0625 -10.25 22.304688 -9.46875 22.328125 -8.625 C 22.347656 -7.78125 22.125 -6.941406 21.65625 -6.109375 C 21.445312 -5.742188 21.1875 -5.398438 20.875 -5.078125 C 20.570312 -4.765625 20.207031 -4.492188 19.78125 -4.265625 C 19.363281 -4.046875 18.894531 -3.898438 18.375 -3.828125 C 17.851562 -3.765625 17.28125 -3.8125 16.65625 -3.96875 C 16.414062 -4.03125 16.269531 -4.015625 16.21875 -3.921875 C 16.175781 -3.847656 16.21875 -3.726562 16.34375 -3.5625 C 16.476562 -3.394531 16.640625 -3.179688 16.828125 -2.921875 C 17.023438 -2.660156 17.210938 -2.335938 17.390625 -1.953125 C 17.578125 -1.578125 17.703125 -1.148438 17.765625 -0.671875 C 17.835938 -0.203125 17.816406 0.320312 17.703125 0.90625 C 17.597656 1.488281 17.34375 2.140625 16.9375 2.859375 C 16.6875 3.296875 16.367188 3.710938 15.984375 4.109375 C 15.597656 4.515625 15.144531 4.863281 14.625 5.15625 C 14.101562 5.445312 13.523438 5.648438 12.890625 5.765625 C 12.253906 5.890625 11.5625 5.875 10.8125 5.71875 C 10.0625 5.570312 9.265625 5.257812 8.421875 4.78125 L 1.953125 1.109375 C 1.828125 1.035156 1.671875 0.941406 1.484375 0.828125 C 1.296875 0.710938 1.125 0.570312 0.96875 0.40625 C 0.8125 0.238281 0.71875 0.0390625 0.6875 -0.1875 C 0.65625 -0.414062 0.722656 -0.675781 0.890625 -0.96875 Z M 8.71875 -1.0625 C 8.519531 -0.707031 8.453125 -0.425781 8.515625 -0.21875 C 8.578125 -0.0195312 8.726562 0.144531 8.96875 0.28125 C 9.375 0.507812 9.753906 0.617188 10.109375 0.609375 C 10.460938 0.597656 10.78125 0.507812 11.0625 0.34375 C 11.34375 0.1875 11.582031 0 11.78125 -0.21875 C 11.988281 -0.445312 12.15625 -0.664062 12.28125 -0.875 C 12.394531 -1.070312 12.492188 -1.320312 12.578125 -1.625 C 12.671875 -1.925781 12.710938 -2.238281 12.703125 -2.5625 C 12.703125 -2.882812 12.613281 -3.195312 12.4375 -3.5 C 12.269531 -3.8125 11.984375 -4.082031 11.578125 -4.3125 C 11.335938 -4.445312 11.113281 -4.492188 10.90625 -4.453125 C 10.707031 -4.410156 10.503906 -4.207031 10.296875 -3.84375 C 10.253906 -3.757812 10.179688 -3.617188 10.078125 -3.421875 C 9.972656 -3.222656 9.867188 -3.03125 9.765625 -2.84375 C 9.671875 -2.664062 9.597656 -2.53125 9.546875 -2.4375 C 9.492188 -2.34375 9.410156 -2.203125 9.296875 -2.015625 C 9.191406 -1.835938 9.082031 -1.65625 8.96875 -1.46875 C 8.851562 -1.289062 8.769531 -1.15625 8.71875 -1.0625 Z M 12.84375 -8.34375 C 12.707031 -8.082031 12.679688 -7.867188 12.765625 -7.703125 C 12.847656 -7.535156 13.007812 -7.382812 13.25 -7.25 C 13.65625 -7.019531 14.019531 -6.882812 14.34375 -6.84375 C 14.664062 -6.8125 14.945312 -6.84375 15.1875 -6.9375 C 15.4375 -7.039062 15.644531 -7.164062 15.8125 -7.3125 C 15.976562 -7.457031 16.101562 -7.609375 16.1875 -7.765625 C 16.257812 -7.898438 16.320312 -8.082031 16.375 -8.3125 C 16.425781 -8.539062 16.425781 -8.78125 16.375 -9.03125 C 16.332031 -9.28125 16.210938 -9.535156 16.015625 -9.796875 C 15.828125 -10.066406 15.53125 -10.316406 15.125 -10.546875 C 14.882812 -10.679688 14.671875 -10.742188 14.484375 -10.734375 C 14.296875 -10.722656 14.128906 -10.585938 13.984375 -10.328125 Z M 12.84375 -8.34375 "/></g></g></g><g fill="#000000" fill-opacity="1"><g transform="translate(102.638598, 345.045534)"><g><path d="M 0.796875 -1.078125 C 0.960938 -1.429688 1.140625 -1.738281 1.328125 -2 C 1.515625 -2.269531 1.71875 -2.53125 1.9375 -2.78125 C 2.164062 -3.03125 2.410156 -3.3125 2.671875 -3.625 C 2.929688 -3.945312 3.21875 -4.332031 3.53125 -4.78125 C 3.851562 -5.238281 4.195312 -5.789062 4.5625 -6.4375 C 4.925781 -7.09375 5.316406 -7.890625 5.734375 -8.828125 C 6.160156 -9.773438 6.492188 -10.597656 6.734375 -11.296875 C 6.984375 -12.003906 7.171875 -12.625 7.296875 -13.15625 C 7.429688 -13.695312 7.53125 -14.164062 7.59375 -14.5625 C 7.65625 -14.96875 7.703125 -15.335938 7.734375 -15.671875 C 7.773438 -16.003906 7.832031 -16.328125 7.90625 -16.640625 C 7.988281 -16.960938 8.109375 -17.300781 8.265625 -17.65625 C 8.410156 -17.976562 8.597656 -18.1875 8.828125 -18.28125 C 9.054688 -18.382812 9.296875 -18.421875 9.546875 -18.390625 C 9.796875 -18.359375 10.03125 -18.296875 10.25 -18.203125 C 10.46875 -18.109375 10.648438 -18.03125 10.796875 -17.96875 L 16.703125 -15.3125 C 18.222656 -14.625 19.410156 -13.8125 20.265625 -12.875 C 21.117188 -11.945312 21.625 -10.929688 21.78125 -9.828125 C 21.9375 -8.722656 21.742188 -7.566406 21.203125 -6.359375 C 20.960938 -5.828125 20.65625 -5.347656 20.28125 -4.921875 C 19.90625 -4.492188 19.488281 -4.144531 19.03125 -3.875 C 18.582031 -3.601562 18.113281 -3.410156 17.625 -3.296875 C 17.132812 -3.191406 16.65625 -3.195312 16.1875 -3.3125 C 15.988281 -3.351562 15.847656 -3.320312 15.765625 -3.21875 C 15.753906 -3.207031 15.796875 -3.132812 15.890625 -3 C 15.984375 -2.875 16.082031 -2.695312 16.1875 -2.46875 C 16.300781 -2.238281 16.375 -1.976562 16.40625 -1.6875 C 16.425781 -1.320312 16.4375 -0.894531 16.4375 -0.40625 C 16.4375 0.0703125 16.425781 0.570312 16.40625 1.09375 C 16.394531 1.613281 16.375 2.113281 16.34375 2.59375 C 16.320312 3.082031 16.300781 3.5 16.28125 3.84375 C 16.238281 4.25 16.234375 4.570312 16.265625 4.8125 C 16.296875 5.050781 16.328125 5.238281 16.359375 5.375 C 16.398438 5.519531 16.421875 5.660156 16.421875 5.796875 C 16.421875 5.929688 16.378906 6.09375 16.296875 6.28125 C 16.179688 6.539062 15.972656 6.695312 15.671875 6.75 C 15.378906 6.8125 15.054688 6.765625 14.703125 6.609375 L 9.78125 4.390625 C 9.5625 4.296875 9.375 4.160156 9.21875 3.984375 C 9.070312 3.816406 9.035156 3.609375 9.109375 3.359375 C 9.160156 3.097656 9.242188 2.882812 9.359375 2.71875 C 9.472656 2.5625 9.597656 2.40625 9.734375 2.25 C 9.878906 2.101562 10.003906 1.910156 10.109375 1.671875 C 10.210938 1.429688 10.316406 1.097656 10.421875 0.671875 C 10.523438 0.242188 10.609375 -0.207031 10.671875 -0.6875 C 10.734375 -1.175781 10.765625 -1.648438 10.765625 -2.109375 C 10.773438 -2.566406 10.738281 -2.957031 10.65625 -3.28125 C 10.570312 -3.613281 10.429688 -3.820312 10.234375 -3.90625 C 10.066406 -3.976562 9.925781 -3.976562 9.8125 -3.90625 C 9.695312 -3.832031 9.613281 -3.738281 9.5625 -3.625 C 9.320312 -3.082031 9.148438 -2.550781 9.046875 -2.03125 C 8.941406 -1.507812 8.863281 -1 8.8125 -0.5 C 8.769531 -0.0078125 8.707031 0.460938 8.625 0.921875 C 8.539062 1.378906 8.398438 1.820312 8.203125 2.25 C 8.066406 2.570312 7.878906 2.78125 7.640625 2.875 C 7.410156 2.976562 7.171875 3.007812 6.921875 2.96875 C 6.671875 2.9375 6.4375 2.875 6.21875 2.78125 C 6 2.6875 5.816406 2.609375 5.671875 2.546875 L 2.265625 1.015625 C 2.117188 0.953125 1.9375 0.867188 1.71875 0.765625 C 1.5 0.660156 1.296875 0.523438 1.109375 0.359375 C 0.921875 0.191406 0.785156 -0.00390625 0.703125 -0.234375 C 0.628906 -0.472656 0.660156 -0.753906 0.796875 -1.078125 Z M 12.1875 -9.421875 C 12.0625 -9.160156 12.09375 -8.929688 12.28125 -8.734375 C 12.46875 -8.546875 12.695312 -8.382812 12.96875 -8.25 C 13.476562 -8.007812 13.914062 -7.878906 14.28125 -7.859375 C 14.644531 -7.835938 14.953125 -7.878906 15.203125 -7.984375 C 15.453125 -8.097656 15.648438 -8.238281 15.796875 -8.40625 C 15.953125 -8.582031 16.066406 -8.753906 16.140625 -8.921875 C 16.203125 -9.066406 16.242188 -9.242188 16.265625 -9.453125 C 16.296875 -9.671875 16.265625 -9.90625 16.171875 -10.15625 C 16.085938 -10.40625 15.914062 -10.660156 15.65625 -10.921875 C 15.40625 -11.191406 15.03125 -11.453125 14.53125 -11.703125 C 14.257812 -11.847656 13.988281 -11.921875 13.71875 -11.921875 C 13.445312 -11.921875 13.25 -11.789062 13.125 -11.53125 Z M 12.1875 -9.421875 "/></g></g></g><g fill="#000000" fill-opacity="1"><g transform="translate(119.300341, 352.46479)"><g><path d="M 4.984375 -9.609375 C 5.304688 -10.554688 5.554688 -11.382812 5.734375 -12.09375 C 5.910156 -12.800781 6.03125 -13.414062 6.09375 -13.9375 C 6.164062 -14.457031 6.210938 -14.914062 6.234375 -15.3125 C 6.253906 -15.71875 6.265625 -16.082031 6.265625 -16.40625 C 6.273438 -16.738281 6.300781 -17.0625 6.34375 -17.375 C 6.394531 -17.695312 6.476562 -18.035156 6.59375 -18.390625 C 6.707031 -18.710938 6.867188 -18.925781 7.078125 -19.03125 C 7.296875 -19.144531 7.535156 -19.195312 7.796875 -19.1875 C 8.054688 -19.175781 8.296875 -19.132812 8.515625 -19.0625 C 8.742188 -18.988281 8.929688 -18.929688 9.078125 -18.890625 L 20.125 -15.109375 C 20.519531 -14.972656 20.796875 -14.734375 20.953125 -14.390625 C 21.117188 -14.054688 21.132812 -13.6875 21 -13.28125 L 19.671875 -9.375 C 19.585938 -9.144531 19.492188 -8.910156 19.390625 -8.671875 C 19.285156 -8.429688 19.132812 -8.253906 18.9375 -8.140625 C 18.738281 -8.035156 18.476562 -8.039062 18.15625 -8.15625 C 17.832031 -8.257812 17.546875 -8.46875 17.296875 -8.78125 C 17.054688 -9.09375 16.816406 -9.457031 16.578125 -9.875 C 16.347656 -10.289062 16.070312 -10.71875 15.75 -11.15625 C 15.4375 -11.59375 15.054688 -12.003906 14.609375 -12.390625 C 14.171875 -12.773438 13.625 -13.078125 12.96875 -13.296875 C 12.707031 -13.390625 12.488281 -13.375 12.3125 -13.25 C 12.144531 -13.132812 12 -12.9375 11.875 -12.65625 C 11.75 -12.382812 11.625 -12.0625 11.5 -11.6875 C 11.332031 -11.1875 11.234375 -10.765625 11.203125 -10.421875 C 11.179688 -10.078125 11.273438 -9.789062 11.484375 -9.5625 C 11.703125 -9.332031 12.085938 -9.144531 12.640625 -9 C 13.054688 -8.875 13.421875 -8.789062 13.734375 -8.75 C 14.046875 -8.707031 14.34375 -8.671875 14.625 -8.640625 C 14.90625 -8.609375 15.179688 -8.546875 15.453125 -8.453125 C 15.816406 -8.328125 16.03125 -8.117188 16.09375 -7.828125 C 16.15625 -7.535156 16.144531 -7.257812 16.0625 -7 L 15.125 -4.25 C 15.03125 -4 14.867188 -3.773438 14.640625 -3.578125 C 14.410156 -3.390625 14.113281 -3.359375 13.75 -3.484375 C 13.476562 -3.578125 13.222656 -3.695312 12.984375 -3.84375 C 12.742188 -3.988281 12.488281 -4.140625 12.21875 -4.296875 C 11.945312 -4.460938 11.609375 -4.628906 11.203125 -4.796875 C 10.691406 -4.992188 10.28125 -5.070312 9.96875 -5.03125 C 9.664062 -4.988281 9.414062 -4.832031 9.21875 -4.5625 C 9.019531 -4.289062 8.835938 -3.90625 8.671875 -3.40625 C 8.546875 -3.039062 8.445312 -2.707031 8.375 -2.40625 C 8.300781 -2.101562 8.289062 -1.851562 8.34375 -1.65625 C 8.40625 -1.46875 8.566406 -1.328125 8.828125 -1.234375 C 9.484375 -1.015625 10.101562 -0.921875 10.6875 -0.953125 C 11.28125 -0.984375 11.835938 -1.078125 12.359375 -1.234375 C 12.878906 -1.390625 13.359375 -1.554688 13.796875 -1.734375 C 14.234375 -1.910156 14.644531 -2.046875 15.03125 -2.140625 C 15.425781 -2.242188 15.785156 -2.242188 16.109375 -2.140625 C 16.429688 -2.023438 16.632812 -1.863281 16.71875 -1.65625 C 16.800781 -1.445312 16.8125 -1.21875 16.75 -0.96875 C 16.6875 -0.71875 16.613281 -0.46875 16.53125 -0.21875 L 15.203125 3.6875 C 15.066406 4.09375 14.828125 4.375 14.484375 4.53125 C 14.148438 4.695312 13.785156 4.710938 13.390625 4.578125 L 2.125 0.734375 C 1.988281 0.679688 1.816406 0.613281 1.609375 0.53125 C 1.398438 0.457031 1.207031 0.351562 1.03125 0.21875 C 0.851562 0.0820312 0.722656 -0.0859375 0.640625 -0.296875 C 0.566406 -0.515625 0.585938 -0.789062 0.703125 -1.125 C 0.859375 -1.59375 1.039062 -2.003906 1.25 -2.359375 C 1.457031 -2.722656 1.695312 -3.09375 1.96875 -3.46875 C 2.238281 -3.851562 2.53125 -4.300781 2.84375 -4.8125 C 3.164062 -5.332031 3.503906 -5.972656 3.859375 -6.734375 C 4.210938 -7.503906 4.585938 -8.460938 4.984375 -9.609375 Z M 4.984375 -9.609375 "/></g></g></g><g fill="#000000" fill-opacity="1"><g transform="translate(134.901159, 357.621681)"><g/></g></g><g fill="#000000" fill-opacity="1"><g transform="translate(140.568173, 359.337742)"><g><path d="M 2.421875 0.515625 C 2.273438 0.484375 2.082031 0.4375 1.84375 0.375 C 1.613281 0.320312 1.382812 0.234375 1.15625 0.109375 C 0.9375 -0.00390625 0.765625 -0.164062 0.640625 -0.375 C 0.515625 -0.59375 0.492188 -0.875 0.578125 -1.21875 C 0.648438 -1.601562 0.75 -1.945312 0.875 -2.25 C 1 -2.550781 1.144531 -2.847656 1.3125 -3.140625 C 1.476562 -3.429688 1.65625 -3.753906 1.84375 -4.109375 C 2.03125 -4.472656 2.234375 -4.910156 2.453125 -5.421875 C 2.671875 -5.929688 2.882812 -6.539062 3.09375 -7.25 C 3.3125 -7.957031 3.53125 -8.816406 3.75 -9.828125 C 3.96875 -10.835938 4.125 -11.710938 4.21875 -12.453125 C 4.3125 -13.203125 4.359375 -13.851562 4.359375 -14.40625 C 4.367188 -14.957031 4.363281 -15.4375 4.34375 -15.84375 C 4.320312 -16.257812 4.296875 -16.632812 4.265625 -16.96875 C 4.234375 -17.300781 4.222656 -17.628906 4.234375 -17.953125 C 4.242188 -18.273438 4.289062 -18.625 4.375 -19 C 4.445312 -19.351562 4.582031 -19.597656 4.78125 -19.734375 C 4.976562 -19.878906 5.203125 -19.960938 5.453125 -19.984375 C 5.710938 -20.015625 5.957031 -20.003906 6.1875 -19.953125 C 6.425781 -19.910156 6.617188 -19.875 6.765625 -19.84375 L 12.09375 -18.703125 C 13.394531 -18.421875 14.492188 -17.925781 15.390625 -17.21875 C 16.296875 -16.519531 16.988281 -15.648438 17.46875 -14.609375 C 17.945312 -13.566406 18.222656 -12.382812 18.296875 -11.0625 C 18.367188 -9.75 18.242188 -8.335938 17.921875 -6.828125 C 17.597656 -5.328125 17.132812 -3.988281 16.53125 -2.8125 C 15.925781 -1.632812 15.191406 -0.664062 14.328125 0.09375 C 13.460938 0.863281 12.472656 1.382812 11.359375 1.65625 C 10.253906 1.9375 9.050781 1.9375 7.75 1.65625 Z M 10.203125 -13.8125 L 8.03125 -3.609375 C 7.96875 -3.316406 7.960938 -3.09375 8.015625 -2.9375 C 8.078125 -2.789062 8.164062 -2.675781 8.28125 -2.59375 C 8.394531 -2.507812 8.507812 -2.457031 8.625 -2.4375 C 8.988281 -2.363281 9.363281 -2.457031 9.75 -2.71875 C 10.132812 -2.988281 10.5 -3.378906 10.84375 -3.890625 C 11.195312 -4.410156 11.515625 -5.019531 11.796875 -5.71875 C 12.078125 -6.425781 12.300781 -7.179688 12.46875 -7.984375 C 12.644531 -8.796875 12.75 -9.578125 12.78125 -10.328125 C 12.8125 -11.078125 12.769531 -11.765625 12.65625 -12.390625 C 12.550781 -13.015625 12.378906 -13.523438 12.140625 -13.921875 C 11.898438 -14.316406 11.597656 -14.550781 11.234375 -14.625 C 11.117188 -14.644531 10.992188 -14.644531 10.859375 -14.625 C 10.722656 -14.613281 10.59375 -14.546875 10.46875 -14.421875 C 10.351562 -14.296875 10.265625 -14.09375 10.203125 -13.8125 Z M 10.203125 -13.8125 "/></g></g></g><g fill="#000000" fill-opacity="1"><g transform="translate(156.811533, 362.77861)"><g><path d="M 2.890625 -10.421875 C 3.015625 -11.410156 3.085938 -12.269531 3.109375 -13 C 3.140625 -13.726562 3.132812 -14.351562 3.09375 -14.875 C 3.050781 -15.40625 3 -15.867188 2.9375 -16.265625 C 2.882812 -16.671875 2.828125 -17.03125 2.765625 -17.34375 C 2.703125 -17.664062 2.65625 -17.988281 2.625 -18.3125 C 2.601562 -18.632812 2.617188 -18.984375 2.671875 -19.359375 C 2.710938 -19.703125 2.828125 -19.945312 3.015625 -20.09375 C 3.203125 -20.25 3.421875 -20.347656 3.671875 -20.390625 C 3.921875 -20.429688 4.164062 -20.441406 4.40625 -20.421875 C 4.644531 -20.398438 4.84375 -20.378906 5 -20.359375 L 16.578125 -18.9375 C 16.992188 -18.882812 17.316406 -18.710938 17.546875 -18.421875 C 17.773438 -18.128906 17.867188 -17.769531 17.828125 -17.34375 L 17.3125 -13.25 C 17.289062 -13 17.25 -12.742188 17.1875 -12.484375 C 17.125 -12.234375 17.007812 -12.035156 16.84375 -11.890625 C 16.6875 -11.742188 16.4375 -11.691406 16.09375 -11.734375 C 15.75 -11.773438 15.425781 -11.921875 15.125 -12.171875 C 14.820312 -12.421875 14.507812 -12.722656 14.1875 -13.078125 C 13.863281 -13.441406 13.503906 -13.800781 13.109375 -14.15625 C 12.710938 -14.519531 12.253906 -14.84375 11.734375 -15.125 C 11.222656 -15.414062 10.617188 -15.601562 9.921875 -15.6875 C 9.648438 -15.71875 9.445312 -15.65625 9.3125 -15.5 C 9.175781 -15.351562 9.070312 -15.132812 9 -14.84375 C 8.9375 -14.550781 8.882812 -14.207031 8.84375 -13.8125 C 8.78125 -13.28125 8.769531 -12.84375 8.8125 -12.5 C 8.863281 -12.164062 9.015625 -11.90625 9.265625 -11.71875 C 9.515625 -11.539062 9.929688 -11.4375 10.515625 -11.40625 C 10.941406 -11.375 11.316406 -11.367188 11.640625 -11.390625 C 11.960938 -11.410156 12.257812 -11.4375 12.53125 -11.46875 C 12.8125 -11.5 13.09375 -11.5 13.375 -11.46875 C 13.757812 -11.414062 14.015625 -11.25 14.140625 -10.96875 C 14.265625 -10.695312 14.3125 -10.425781 14.28125 -10.15625 L 13.921875 -7.28125 C 13.890625 -7.007812 13.78125 -6.753906 13.59375 -6.515625 C 13.40625 -6.285156 13.117188 -6.195312 12.734375 -6.25 C 12.453125 -6.28125 12.179688 -6.335938 11.921875 -6.421875 C 11.660156 -6.515625 11.375 -6.613281 11.0625 -6.71875 C 10.757812 -6.832031 10.394531 -6.925781 9.96875 -7 C 9.425781 -7.082031 9.003906 -7.070312 8.703125 -6.96875 C 8.410156 -6.875 8.195312 -6.675781 8.0625 -6.375 C 7.9375 -6.070312 7.84375 -5.65625 7.78125 -5.125 C 7.726562 -4.738281 7.695312 -4.390625 7.6875 -4.078125 C 7.6875 -3.773438 7.734375 -3.53125 7.828125 -3.34375 C 7.921875 -3.164062 8.101562 -3.0625 8.375 -3.03125 C 9.070312 -2.945312 9.703125 -2.976562 10.265625 -3.125 C 10.835938 -3.28125 11.359375 -3.488281 11.828125 -3.75 C 12.304688 -4.007812 12.742188 -4.273438 13.140625 -4.546875 C 13.535156 -4.816406 13.910156 -5.039062 14.265625 -5.21875 C 14.617188 -5.394531 14.96875 -5.460938 15.3125 -5.421875 C 15.65625 -5.378906 15.890625 -5.265625 16.015625 -5.078125 C 16.140625 -4.890625 16.195312 -4.664062 16.1875 -4.40625 C 16.1875 -4.144531 16.171875 -3.882812 16.140625 -3.625 L 15.640625 0.46875 C 15.585938 0.882812 15.410156 1.207031 15.109375 1.4375 C 14.816406 1.675781 14.460938 1.769531 14.046875 1.71875 L 2.234375 0.265625 C 2.085938 0.253906 1.90625 0.234375 1.6875 0.203125 C 1.46875 0.171875 1.253906 0.101562 1.046875 0 C 0.847656 -0.09375 0.6875 -0.238281 0.5625 -0.4375 C 0.445312 -0.632812 0.410156 -0.898438 0.453125 -1.234375 C 0.515625 -1.734375 0.609375 -2.175781 0.734375 -2.5625 C 0.867188 -2.957031 1.03125 -3.367188 1.21875 -3.796875 C 1.40625 -4.234375 1.597656 -4.738281 1.796875 -5.3125 C 2.003906 -5.882812 2.203125 -6.578125 2.390625 -7.390625 C 2.578125 -8.210938 2.742188 -9.222656 2.890625 -10.421875 Z M 2.890625 -10.421875 "/></g></g></g><g fill="#000000" fill-opacity="1"><g transform="translate(173.140606, 364.605349)"><g/></g></g><g fill="#000000" fill-opacity="1"><g transform="translate(179.051376, 365.128916)"><g><path d="M 0.3125 -14.9375 L 0.3125 -19.34375 C 0.3125 -19.78125 0.441406 -20.132812 0.703125 -20.40625 C 0.972656 -20.675781 1.332031 -20.8125 1.78125 -20.8125 L 14.8125 -20.796875 C 15.257812 -20.796875 15.617188 -20.660156 15.890625 -20.390625 C 16.160156 -20.117188 16.296875 -19.765625 16.296875 -19.328125 L 16.296875 -14.921875 C 16.296875 -14.703125 16.21875 -14.523438 16.0625 -14.390625 C 15.90625 -14.253906 15.722656 -14.1875 15.515625 -14.1875 C 15.210938 -14.1875 14.929688 -14.242188 14.671875 -14.359375 C 14.421875 -14.472656 14.171875 -14.617188 13.921875 -14.796875 C 13.671875 -14.984375 13.410156 -15.160156 13.140625 -15.328125 C 12.878906 -15.503906 12.585938 -15.648438 12.265625 -15.765625 C 11.941406 -15.878906 11.578125 -15.9375 11.171875 -15.9375 L 10.953125 -15.9375 L 10.953125 -10.390625 C 10.953125 -9.359375 10.976562 -8.46875 11.03125 -7.71875 C 11.09375 -6.976562 11.175781 -6.335938 11.28125 -5.796875 C 11.382812 -5.253906 11.488281 -4.785156 11.59375 -4.390625 C 11.707031 -3.992188 11.8125 -3.632812 11.90625 -3.3125 C 12.007812 -3 12.09375 -2.679688 12.15625 -2.359375 C 12.21875 -2.046875 12.25 -1.691406 12.25 -1.296875 C 12.25 -0.941406 12.164062 -0.671875 12 -0.484375 C 11.832031 -0.304688 11.625 -0.179688 11.375 -0.109375 C 11.132812 -0.0351562 10.894531 0 10.65625 0 C 10.414062 0.0078125 10.21875 0.015625 10.0625 0.015625 L 6.328125 0 C 6.171875 0 5.972656 0 5.734375 0 C 5.492188 -0.0078125 5.25 -0.0507812 5 -0.125 C 4.757812 -0.195312 4.554688 -0.320312 4.390625 -0.5 C 4.222656 -0.6875 4.140625 -0.957031 4.140625 -1.3125 C 4.140625 -1.707031 4.171875 -2.0625 4.234375 -2.375 C 4.296875 -2.695312 4.375 -3.015625 4.46875 -3.328125 C 4.570312 -3.648438 4.675781 -4.007812 4.78125 -4.40625 C 4.894531 -4.800781 5.003906 -5.269531 5.109375 -5.8125 C 5.210938 -6.351562 5.296875 -6.992188 5.359375 -7.734375 C 5.429688 -8.484375 5.46875 -9.375 5.46875 -10.40625 L 5.46875 -15.953125 L 5.421875 -15.953125 C 5.015625 -15.953125 4.648438 -15.894531 4.328125 -15.78125 C 4.003906 -15.664062 3.707031 -15.519531 3.4375 -15.34375 C 3.175781 -15.175781 2.921875 -15 2.671875 -14.8125 C 2.421875 -14.632812 2.164062 -14.488281 1.90625 -14.375 C 1.65625 -14.257812 1.378906 -14.203125 1.078125 -14.203125 C 0.867188 -14.203125 0.6875 -14.269531 0.53125 -14.40625 C 0.382812 -14.539062 0.3125 -14.71875 0.3125 -14.9375 Z M 0.3125 -14.9375 "/></g></g></g><g fill="#000000" fill-opacity="1"><g transform="translate(196.308174, 365.152554)"><g><path d="M -1.5625 -19.4375 C -1.59375 -19.789062 -1.535156 -20.066406 -1.390625 -20.265625 C -1.242188 -20.460938 -1.050781 -20.609375 -0.8125 -20.703125 C -0.570312 -20.796875 -0.332031 -20.859375 -0.09375 -20.890625 C 0.132812 -20.921875 0.328125 -20.941406 0.484375 -20.953125 L 4.203125 -21.3125 C 4.359375 -21.320312 4.554688 -21.335938 4.796875 -21.359375 C 5.035156 -21.378906 5.28125 -21.363281 5.53125 -21.3125 C 5.78125 -21.257812 6 -21.148438 6.1875 -20.984375 C 6.375 -20.816406 6.484375 -20.554688 6.515625 -20.203125 C 6.546875 -19.816406 6.546875 -19.460938 6.515625 -19.140625 C 6.484375 -18.816406 6.429688 -18.488281 6.359375 -18.15625 C 6.296875 -17.832031 6.226562 -17.46875 6.15625 -17.0625 C 6.082031 -16.65625 6.019531 -16.175781 5.96875 -15.625 C 5.914062 -15.082031 5.894531 -14.4375 5.90625 -13.6875 C 5.914062 -12.9375 5.96875 -12.050781 6.0625 -11.03125 C 6.082031 -10.875 6.101562 -10.613281 6.125 -10.25 C 6.144531 -9.882812 6.175781 -9.46875 6.21875 -9 C 6.269531 -8.539062 6.347656 -8.070312 6.453125 -7.59375 C 6.554688 -7.113281 6.703125 -6.671875 6.890625 -6.265625 C 7.085938 -5.867188 7.332031 -5.554688 7.625 -5.328125 C 7.914062 -5.097656 8.269531 -5.003906 8.6875 -5.046875 C 9.113281 -5.085938 9.445312 -5.25 9.6875 -5.53125 C 9.9375 -5.8125 10.113281 -6.164062 10.21875 -6.59375 C 10.332031 -7.019531 10.394531 -7.476562 10.40625 -7.96875 C 10.414062 -8.457031 10.398438 -8.9375 10.359375 -9.40625 C 10.328125 -9.875 10.285156 -10.285156 10.234375 -10.640625 C 10.179688 -11.003906 10.144531 -11.265625 10.125 -11.421875 C 10.03125 -12.441406 9.914062 -13.320312 9.78125 -14.0625 C 9.644531 -14.800781 9.5 -15.429688 9.34375 -15.953125 C 9.195312 -16.484375 9.046875 -16.941406 8.890625 -17.328125 C 8.742188 -17.710938 8.601562 -18.054688 8.46875 -18.359375 C 8.34375 -18.671875 8.234375 -18.984375 8.140625 -19.296875 C 8.046875 -19.609375 7.984375 -19.957031 7.953125 -20.34375 C 7.921875 -20.695312 7.976562 -20.972656 8.125 -21.171875 C 8.269531 -21.367188 8.460938 -21.515625 8.703125 -21.609375 C 8.941406 -21.710938 9.179688 -21.773438 9.421875 -21.796875 C 9.671875 -21.828125 9.863281 -21.851562 10 -21.875 L 13.71875 -22.21875 C 13.875 -22.238281 14.070312 -22.253906 14.3125 -22.265625 C 14.550781 -22.285156 14.796875 -22.269531 15.046875 -22.21875 C 15.296875 -22.175781 15.515625 -22.070312 15.703125 -21.90625 C 15.898438 -21.738281 16.015625 -21.476562 16.046875 -21.125 C 16.078125 -20.738281 16.078125 -20.382812 16.046875 -20.0625 C 16.015625 -19.738281 15.960938 -19.410156 15.890625 -19.078125 C 15.816406 -18.753906 15.742188 -18.390625 15.671875 -17.984375 C 15.597656 -17.578125 15.535156 -17.097656 15.484375 -16.546875 C 15.441406 -16.003906 15.425781 -15.359375 15.4375 -14.609375 C 15.445312 -13.859375 15.5 -12.972656 15.59375 -11.953125 C 15.644531 -11.421875 15.695312 -10.882812 15.75 -10.34375 C 15.800781 -9.8125 15.851562 -9.296875 15.90625 -8.796875 C 16 -7.765625 15.96875 -6.785156 15.8125 -5.859375 C 15.664062 -4.941406 15.34375 -4.117188 14.84375 -3.390625 C 14.34375 -2.660156 13.625 -2.054688 12.6875 -1.578125 C 11.757812 -1.097656 10.566406 -0.789062 9.109375 -0.65625 C 7.648438 -0.507812 6.414062 -0.582031 5.40625 -0.875 C 4.40625 -1.175781 3.585938 -1.632812 2.953125 -2.25 C 2.328125 -2.875 1.851562 -3.625 1.53125 -4.5 C 1.207031 -5.375 1 -6.328125 0.90625 -7.359375 C 0.851562 -7.859375 0.800781 -8.375 0.75 -8.90625 C 0.707031 -9.445312 0.660156 -9.984375 0.609375 -10.515625 C 0.515625 -11.535156 0.398438 -12.414062 0.265625 -13.15625 C 0.128906 -13.894531 -0.015625 -14.523438 -0.171875 -15.046875 C -0.328125 -15.578125 -0.476562 -16.035156 -0.625 -16.421875 C -0.769531 -16.804688 -0.90625 -17.148438 -1.03125 -17.453125 C -1.164062 -17.765625 -1.28125 -18.078125 -1.375 -18.390625 C -1.46875 -18.703125 -1.53125 -19.050781 -1.5625 -19.4375 Z M -1.5625 -19.4375 "/></g></g></g><g fill="#000000" fill-opacity="1"><g transform="translate(214.928195, 363.139609)"><g/></g></g><g fill="#000000" fill-opacity="1"><g transform="translate(220.941879, 362.453275)"><g><path d="M -0.03125 -1.34375 C -0.125 -1.726562 -0.175781 -2.082031 -0.1875 -2.40625 C -0.195312 -2.726562 -0.1875 -3.054688 -0.15625 -3.390625 C -0.132812 -3.722656 -0.117188 -4.09375 -0.109375 -4.5 C -0.0976562 -4.914062 -0.109375 -5.394531 -0.140625 -5.9375 C -0.171875 -6.488281 -0.238281 -7.132812 -0.34375 -7.875 C -0.457031 -8.613281 -0.640625 -9.484375 -0.890625 -10.484375 C -1.128906 -11.492188 -1.367188 -12.351562 -1.609375 -13.0625 C -1.847656 -13.769531 -2.078125 -14.375 -2.296875 -14.875 C -2.523438 -15.382812 -2.738281 -15.816406 -2.9375 -16.171875 C -3.132812 -16.523438 -3.316406 -16.84375 -3.484375 -17.125 C -3.660156 -17.414062 -3.816406 -17.707031 -3.953125 -18 C -4.097656 -18.300781 -4.21875 -18.640625 -4.3125 -19.015625 C -4.394531 -19.359375 -4.375 -19.640625 -4.25 -19.859375 C -4.125 -20.078125 -3.953125 -20.25 -3.734375 -20.375 C -3.515625 -20.507812 -3.285156 -20.609375 -3.046875 -20.671875 C -2.816406 -20.734375 -2.625 -20.78125 -2.46875 -20.8125 L 0.296875 -21.484375 C 0.492188 -21.535156 0.703125 -21.566406 0.921875 -21.578125 C 1.140625 -21.597656 1.351562 -21.570312 1.5625 -21.5 C 1.769531 -21.4375 1.945312 -21.316406 2.09375 -21.140625 L 2.09375 -21.15625 L 6.375 -15.71875 C 6.570312 -15.476562 6.738281 -15.375 6.875 -15.40625 C 7.039062 -15.445312 7.15625 -15.613281 7.21875 -15.90625 C 7.351562 -16.5625 7.476562 -17.257812 7.59375 -18 C 7.707031 -18.738281 7.832031 -19.492188 7.96875 -20.265625 C 8.113281 -21.046875 8.28125 -21.804688 8.46875 -22.546875 C 8.476562 -22.816406 8.5625 -23.035156 8.71875 -23.203125 C 8.875 -23.367188 9.0625 -23.5 9.28125 -23.59375 C 9.507812 -23.695312 9.722656 -23.769531 9.921875 -23.8125 L 13.953125 -24.796875 C 14.109375 -24.828125 14.300781 -24.867188 14.53125 -24.921875 C 14.757812 -24.972656 15.003906 -24.988281 15.265625 -24.96875 C 15.523438 -24.957031 15.753906 -24.882812 15.953125 -24.75 C 16.160156 -24.613281 16.304688 -24.375 16.390625 -24.03125 C 16.484375 -23.65625 16.539062 -23.300781 16.5625 -22.96875 C 16.582031 -22.644531 16.578125 -22.316406 16.546875 -21.984375 C 16.523438 -21.648438 16.503906 -21.28125 16.484375 -20.875 C 16.472656 -20.46875 16.476562 -19.988281 16.5 -19.4375 C 16.53125 -18.882812 16.601562 -18.238281 16.71875 -17.5 C 16.84375 -16.757812 17.023438 -15.882812 17.265625 -14.875 C 17.515625 -13.875 17.753906 -13.019531 17.984375 -12.3125 C 18.210938 -11.601562 18.441406 -11 18.671875 -10.5 C 18.898438 -10 19.113281 -9.566406 19.3125 -9.203125 C 19.519531 -8.847656 19.707031 -8.523438 19.875 -8.234375 C 20.050781 -7.953125 20.203125 -7.664062 20.328125 -7.375 C 20.460938 -7.082031 20.578125 -6.742188 20.671875 -6.359375 C 20.753906 -6.015625 20.734375 -5.734375 20.609375 -5.515625 C 20.492188 -5.296875 20.320312 -5.117188 20.09375 -4.984375 C 19.875 -4.859375 19.648438 -4.765625 19.421875 -4.703125 C 19.191406 -4.640625 19 -4.59375 18.84375 -4.5625 L 15.234375 -3.6875 C 15.003906 -3.625 14.757812 -3.570312 14.5 -3.53125 C 14.25 -3.5 14.003906 -3.492188 13.765625 -3.515625 C 13.535156 -3.535156 13.332031 -3.617188 13.15625 -3.765625 C 12.976562 -3.910156 12.851562 -4.140625 12.78125 -4.453125 C 12.6875 -4.835938 12.625 -5.1875 12.59375 -5.5 C 12.570312 -5.820312 12.5625 -6.144531 12.5625 -6.46875 C 12.5625 -6.789062 12.554688 -7.15625 12.546875 -7.5625 C 12.535156 -7.96875 12.5 -8.441406 12.4375 -8.984375 C 12.382812 -9.535156 12.296875 -10.175781 12.171875 -10.90625 C 12.046875 -11.644531 11.859375 -12.515625 11.609375 -13.515625 L 9.453125 -5.953125 C 9.429688 -5.796875 9.367188 -5.660156 9.265625 -5.546875 C 9.160156 -5.441406 9.039062 -5.375 8.90625 -5.34375 C 8.625 -5.28125 8.378906 -5.375 8.171875 -5.625 L 3.265625 -11.203125 C 3.503906 -10.234375 3.734375 -9.40625 3.953125 -8.71875 C 4.179688 -8.039062 4.40625 -7.460938 4.625 -6.984375 C 4.851562 -6.503906 5.066406 -6.085938 5.265625 -5.734375 C 5.460938 -5.390625 5.644531 -5.078125 5.8125 -4.796875 C 5.976562 -4.515625 6.128906 -4.226562 6.265625 -3.9375 C 6.398438 -3.65625 6.507812 -3.328125 6.59375 -2.953125 C 6.664062 -2.640625 6.660156 -2.378906 6.578125 -2.171875 C 6.492188 -1.960938 6.351562 -1.796875 6.15625 -1.671875 C 5.957031 -1.546875 5.738281 -1.441406 5.5 -1.359375 C 5.257812 -1.273438 5.019531 -1.207031 4.78125 -1.15625 L 2.421875 -0.578125 C 2.265625 -0.546875 2.066406 -0.503906 1.828125 -0.453125 C 1.597656 -0.398438 1.351562 -0.378906 1.09375 -0.390625 C 0.84375 -0.410156 0.613281 -0.488281 0.40625 -0.625 C 0.195312 -0.757812 0.0507812 -1 -0.03125 -1.34375 Z M -0.03125 -1.34375 "/></g></g></g><g fill="#000000" fill-opacity="1"><g transform="translate(242.976475, 356.996621)"><g><path d="M 1.96875 -0.71875 C 1.675781 -0.613281 1.390625 -0.535156 1.109375 -0.484375 C 0.835938 -0.429688 0.597656 -0.445312 0.390625 -0.53125 C 0.179688 -0.613281 0.03125 -0.78125 -0.0625 -1.03125 C -0.15625 -1.289062 -0.195312 -1.515625 -0.1875 -1.703125 C -0.1875 -1.898438 -0.15625 -2.109375 -0.09375 -2.328125 C -0.03125 -2.546875 0.0390625 -2.796875 0.125 -3.078125 C 0.207031 -3.359375 0.269531 -3.6875 0.3125 -4.0625 C 0.351562 -4.445312 0.359375 -4.921875 0.328125 -5.484375 C 0.285156 -6.335938 0.242188 -7.066406 0.203125 -7.671875 C 0.171875 -8.273438 0.132812 -8.804688 0.09375 -9.265625 C 0.0625 -9.734375 0.03125 -10.164062 0 -10.5625 C -0.03125 -10.96875 -0.0625 -11.363281 -0.09375 -11.75 C -0.132812 -12.144531 -0.171875 -12.578125 -0.203125 -13.046875 C -0.242188 -13.515625 -0.289062 -14.050781 -0.34375 -14.65625 C -0.40625 -15.269531 -0.472656 -16 -0.546875 -16.84375 C -0.585938 -17.425781 -0.628906 -17.875 -0.671875 -18.1875 C -0.722656 -18.507812 -0.78125 -18.769531 -0.84375 -18.96875 C -0.914062 -19.164062 -0.992188 -19.359375 -1.078125 -19.546875 C -1.171875 -19.734375 -1.28125 -19.988281 -1.40625 -20.3125 C -1.425781 -20.382812 -1.457031 -20.484375 -1.5 -20.609375 C -1.539062 -20.734375 -1.554688 -20.878906 -1.546875 -21.046875 C -1.535156 -21.210938 -1.46875 -21.367188 -1.34375 -21.515625 C -1.226562 -21.671875 -1.03125 -21.800781 -0.75 -21.90625 L 2.90625 -23.25 C 3.175781 -23.34375 3.414062 -23.421875 3.625 -23.484375 C 3.84375 -23.554688 4.046875 -23.578125 4.234375 -23.546875 C 4.429688 -23.515625 4.644531 -23.40625 4.875 -23.21875 C 5.113281 -23.039062 5.394531 -22.757812 5.71875 -22.375 C 6.039062 -21.988281 6.4375 -21.472656 6.90625 -20.828125 C 7.476562 -20.023438 7.976562 -19.316406 8.40625 -18.703125 C 8.832031 -18.097656 9.21875 -17.554688 9.5625 -17.078125 C 9.90625 -16.597656 10.234375 -16.128906 10.546875 -15.671875 C 10.859375 -15.222656 11.191406 -14.753906 11.546875 -14.265625 C 11.898438 -13.785156 12.296875 -13.253906 12.734375 -12.671875 C 13.179688 -12.085938 13.695312 -11.394531 14.28125 -10.59375 C 14.625 -10.144531 14.9375 -9.789062 15.21875 -9.53125 C 15.5 -9.269531 15.757812 -9.054688 16 -8.890625 C 16.238281 -8.734375 16.453125 -8.59375 16.640625 -8.46875 C 16.835938 -8.34375 17.003906 -8.207031 17.140625 -8.0625 C 17.273438 -7.914062 17.390625 -7.710938 17.484375 -7.453125 C 17.578125 -7.203125 17.566406 -6.976562 17.453125 -6.78125 C 17.347656 -6.582031 17.175781 -6.414062 16.9375 -6.28125 C 16.695312 -6.144531 16.425781 -6.019531 16.125 -5.90625 L 11.140625 -4.078125 C 10.921875 -4.003906 10.695312 -3.957031 10.46875 -3.9375 C 10.25 -3.925781 10.050781 -3.960938 9.875 -4.046875 C 9.695312 -4.128906 9.566406 -4.28125 9.484375 -4.5 C 9.367188 -4.800781 9.300781 -5.050781 9.28125 -5.25 C 9.269531 -5.445312 9.269531 -5.632812 9.28125 -5.8125 C 9.289062 -5.988281 9.273438 -6.203125 9.234375 -6.453125 C 9.191406 -6.703125 9.097656 -7.035156 8.953125 -7.453125 C 8.867188 -7.671875 8.765625 -7.90625 8.640625 -8.15625 L 5.1875 -6.875 C 5.226562 -6.75 5.273438 -6.632812 5.328125 -6.53125 C 5.390625 -6.425781 5.453125 -6.3125 5.515625 -6.1875 C 5.722656 -5.789062 5.90625 -5.488281 6.0625 -5.28125 C 6.226562 -5.082031 6.375 -4.914062 6.5 -4.78125 C 6.625 -4.65625 6.742188 -4.515625 6.859375 -4.359375 C 6.972656 -4.203125 7.085938 -3.972656 7.203125 -3.671875 C 7.285156 -3.453125 7.285156 -3.25 7.203125 -3.0625 C 7.117188 -2.882812 6.984375 -2.726562 6.796875 -2.59375 C 6.617188 -2.457031 6.425781 -2.351562 6.21875 -2.28125 Z M 3.5 -11.515625 L 5.921875 -12.40625 C 5.640625 -12.78125 5.351562 -13.175781 5.0625 -13.59375 C 4.769531 -14.007812 4.445312 -14.457031 4.09375 -14.9375 C 3.882812 -15.207031 3.695312 -15.429688 3.53125 -15.609375 C 3.375 -15.785156 3.242188 -15.84375 3.140625 -15.78125 C 3.066406 -15.738281 3.03125 -15.582031 3.03125 -15.3125 C 3.03125 -15.039062 3.046875 -14.710938 3.078125 -14.328125 C 3.109375 -13.953125 3.148438 -13.566406 3.203125 -13.171875 C 3.265625 -12.773438 3.328125 -12.425781 3.390625 -12.125 C 3.453125 -11.820312 3.488281 -11.617188 3.5 -11.515625 Z M 3.5 -11.515625 "/></g></g></g><g fill="#000000" fill-opacity="1"><g transform="translate(261.672545, 350.014885)"><g><path d="M -2.140625 -4.140625 C -2.441406 -4.753906 -2.578125 -5.351562 -2.546875 -5.9375 C -2.515625 -6.53125 -2.351562 -7.0625 -2.0625 -7.53125 C -1.78125 -8 -1.414062 -8.34375 -0.96875 -8.5625 C -0.601562 -8.75 -0.222656 -8.835938 0.171875 -8.828125 C 0.566406 -8.816406 0.972656 -8.742188 1.390625 -8.609375 C 1.816406 -8.484375 2.242188 -8.332031 2.671875 -8.15625 C 3.097656 -7.988281 3.519531 -7.832031 3.9375 -7.6875 C 4.351562 -7.550781 4.753906 -7.46875 5.140625 -7.4375 C 5.523438 -7.40625 5.882812 -7.46875 6.21875 -7.625 C 6.632812 -7.832031 6.878906 -8.09375 6.953125 -8.40625 C 7.023438 -8.71875 6.988281 -9.03125 6.84375 -9.34375 C 6.664062 -9.71875 6.390625 -9.960938 6.015625 -10.078125 C 5.648438 -10.203125 5.207031 -10.253906 4.6875 -10.234375 C 4.164062 -10.222656 3.59375 -10.175781 2.96875 -10.09375 C 2.34375 -10.007812 1.695312 -9.925781 1.03125 -9.84375 C 0.375 -9.769531 -0.289062 -9.75 -0.96875 -9.78125 C -1.65625 -9.820312 -2.3125 -9.945312 -2.9375 -10.15625 C -3.570312 -10.375 -4.15625 -10.71875 -4.6875 -11.1875 C -5.21875 -11.65625 -5.6875 -12.300781 -6.09375 -13.125 C -6.675781 -14.34375 -6.878906 -15.53125 -6.703125 -16.6875 C -6.523438 -17.851562 -5.988281 -18.953125 -5.09375 -19.984375 C -4.195312 -21.023438 -2.953125 -21.925781 -1.359375 -22.6875 C -0.609375 -23.050781 0.15625 -23.328125 0.9375 -23.515625 C 1.726562 -23.710938 2.5 -23.796875 3.25 -23.765625 C 4.007812 -23.734375 4.6875 -23.550781 5.28125 -23.21875 C 5.875 -22.894531 6.335938 -22.382812 6.671875 -21.6875 C 6.910156 -21.175781 7.019531 -20.660156 7 -20.140625 C 6.988281 -19.628906 6.851562 -19.15625 6.59375 -18.71875 C 6.332031 -18.28125 5.972656 -17.921875 5.515625 -17.640625 C 5.117188 -17.429688 4.703125 -17.328125 4.265625 -17.328125 C 3.828125 -17.335938 3.378906 -17.40625 2.921875 -17.53125 C 2.460938 -17.664062 2.003906 -17.800781 1.546875 -17.9375 C 1.085938 -18.070312 0.640625 -18.160156 0.203125 -18.203125 C -0.222656 -18.242188 -0.625 -18.175781 -1 -18 C -1.300781 -17.84375 -1.519531 -17.660156 -1.65625 -17.453125 C -1.789062 -17.253906 -1.851562 -17.054688 -1.84375 -16.859375 C -1.832031 -16.660156 -1.789062 -16.488281 -1.71875 -16.34375 C -1.550781 -15.988281 -1.273438 -15.75 -0.890625 -15.625 C -0.503906 -15.5 -0.046875 -15.445312 0.484375 -15.46875 C 1.023438 -15.488281 1.613281 -15.539062 2.25 -15.625 C 2.882812 -15.71875 3.550781 -15.796875 4.25 -15.859375 C 4.957031 -15.921875 5.660156 -15.929688 6.359375 -15.890625 C 7.066406 -15.859375 7.742188 -15.726562 8.390625 -15.5 C 9.046875 -15.28125 9.648438 -14.929688 10.203125 -14.453125 C 10.765625 -13.972656 11.25 -13.3125 11.65625 -12.46875 C 12.082031 -11.570312 12.304688 -10.726562 12.328125 -9.9375 C 12.347656 -9.144531 12.21875 -8.40625 11.9375 -7.71875 C 11.664062 -7.039062 11.289062 -6.421875 10.8125 -5.859375 C 10.34375 -5.304688 9.804688 -4.816406 9.203125 -4.390625 C 8.597656 -3.960938 8.003906 -3.609375 7.421875 -3.328125 C 6.734375 -2.992188 6.015625 -2.703125 5.265625 -2.453125 C 4.523438 -2.210938 3.78125 -2.035156 3.03125 -1.921875 C 2.289062 -1.804688 1.585938 -1.796875 0.921875 -1.890625 C 0.265625 -1.984375 -0.328125 -2.210938 -0.859375 -2.578125 C -1.390625 -2.941406 -1.816406 -3.460938 -2.140625 -4.140625 Z M -2.140625 -4.140625 "/></g></g></g><g fill="#000000" fill-opacity="1"><g transform="translate(276.44356, 342.883425)"><g><path d="M 7.515625 -4.234375 C 6.359375 -3.535156 5.257812 -3.085938 4.21875 -2.890625 C 3.1875 -2.691406 2.210938 -2.703125 1.296875 -2.921875 C 0.390625 -3.140625 -0.460938 -3.523438 -1.265625 -4.078125 C -2.066406 -4.628906 -2.816406 -5.3125 -3.515625 -6.125 C -4.210938 -6.945312 -4.859375 -7.859375 -5.453125 -8.859375 C -6.046875 -9.859375 -6.539062 -10.863281 -6.9375 -11.875 C -7.332031 -12.882812 -7.582031 -13.875 -7.6875 -14.84375 C -7.789062 -15.8125 -7.71875 -16.742188 -7.46875 -17.640625 C -7.226562 -18.546875 -6.769531 -19.40625 -6.09375 -20.21875 C -5.425781 -21.03125 -4.515625 -21.785156 -3.359375 -22.484375 C -2.191406 -23.171875 -1.128906 -23.609375 -0.171875 -23.796875 C 0.773438 -23.992188 1.617188 -24.003906 2.359375 -23.828125 C 3.109375 -23.648438 3.75 -23.351562 4.28125 -22.9375 C 4.8125 -22.53125 5.234375 -22.066406 5.546875 -21.546875 C 5.816406 -21.097656 5.972656 -20.632812 6.015625 -20.15625 C 6.054688 -19.675781 6.015625 -19.210938 5.890625 -18.765625 C 5.765625 -18.316406 5.566406 -17.910156 5.296875 -17.546875 C 5.035156 -17.179688 4.734375 -16.894531 4.390625 -16.6875 C 3.941406 -16.425781 3.460938 -16.34375 2.953125 -16.4375 C 2.453125 -16.539062 2.003906 -16.921875 1.609375 -17.578125 C 1.328125 -18.066406 1.0625 -18.4375 0.8125 -18.6875 C 0.5625 -18.9375 0.285156 -19.066406 -0.015625 -19.078125 C -0.316406 -19.085938 -0.679688 -18.96875 -1.109375 -18.71875 C -1.628906 -18.40625 -1.976562 -18.003906 -2.15625 -17.515625 C -2.332031 -17.035156 -2.375 -16.488281 -2.28125 -15.875 C -2.1875 -15.269531 -1.988281 -14.617188 -1.6875 -13.921875 C -1.394531 -13.222656 -1.03125 -12.503906 -0.59375 -11.765625 C -0.15625 -11.035156 0.296875 -10.367188 0.765625 -9.765625 C 1.242188 -9.171875 1.726562 -8.6875 2.21875 -8.3125 C 2.71875 -7.9375 3.21875 -7.710938 3.71875 -7.640625 C 4.226562 -7.566406 4.742188 -7.6875 5.265625 -8 C 5.691406 -8.25 5.972656 -8.507812 6.109375 -8.78125 C 6.242188 -9.050781 6.257812 -9.351562 6.15625 -9.6875 C 6.0625 -10.03125 5.867188 -10.441406 5.578125 -10.921875 C 5.179688 -11.585938 5.054688 -12.164062 5.203125 -12.65625 C 5.359375 -13.144531 5.660156 -13.519531 6.109375 -13.78125 C 6.453125 -13.988281 6.847656 -14.125 7.296875 -14.1875 C 7.753906 -14.25 8.207031 -14.226562 8.65625 -14.125 C 9.101562 -14.03125 9.53125 -13.847656 9.9375 -13.578125 C 10.34375 -13.304688 10.679688 -12.941406 10.953125 -12.484375 C 11.265625 -11.960938 11.472656 -11.367188 11.578125 -10.703125 C 11.679688 -10.046875 11.628906 -9.347656 11.421875 -8.609375 C 11.222656 -7.867188 10.8125 -7.125 10.1875 -6.375 C 9.570312 -5.632812 8.679688 -4.921875 7.515625 -4.234375 Z M 7.515625 -4.234375 "/></g></g></g><g fill="#000000" fill-opacity="1"><g transform="translate(290.936857, 334.225483)"><g><path d="M -6.234375 -8.34375 C -6.910156 -9.28125 -7.5 -10.222656 -8 -11.171875 C -8.5 -12.117188 -8.859375 -13.0625 -9.078125 -14 C -9.296875 -14.945312 -9.335938 -15.867188 -9.203125 -16.765625 C -9.066406 -17.671875 -8.710938 -18.550781 -8.140625 -19.40625 C -7.566406 -20.269531 -6.726562 -21.101562 -5.625 -21.90625 C -4.53125 -22.707031 -3.484375 -23.242188 -2.484375 -23.515625 C -1.492188 -23.796875 -0.546875 -23.863281 0.359375 -23.71875 C 1.265625 -23.570312 2.125 -23.25 2.9375 -22.75 C 3.757812 -22.25 4.546875 -21.617188 5.296875 -20.859375 C 6.054688 -20.097656 6.78125 -19.242188 7.46875 -18.296875 C 8.15625 -17.347656 8.742188 -16.394531 9.234375 -15.4375 C 9.722656 -14.488281 10.078125 -13.546875 10.296875 -12.609375 C 10.523438 -11.679688 10.570312 -10.757812 10.4375 -9.84375 C 10.300781 -8.9375 9.941406 -8.054688 9.359375 -7.203125 C 8.785156 -6.347656 7.953125 -5.519531 6.859375 -4.71875 C 5.753906 -3.914062 4.707031 -3.375 3.71875 -3.09375 C 2.726562 -2.8125 1.78125 -2.75 0.875 -2.90625 C -0.03125 -3.0625 -0.894531 -3.382812 -1.71875 -3.875 C -2.539062 -4.363281 -3.328125 -4.992188 -4.078125 -5.765625 C -4.828125 -6.535156 -5.546875 -7.394531 -6.234375 -8.34375 Z M -1.6875 -11.640625 C -1.175781 -10.941406 -0.671875 -10.304688 -0.171875 -9.734375 C 0.316406 -9.171875 0.8125 -8.71875 1.3125 -8.375 C 1.8125 -8.039062 2.304688 -7.851562 2.796875 -7.8125 C 3.285156 -7.769531 3.773438 -7.925781 4.265625 -8.28125 C 4.753906 -8.632812 5.050781 -9.050781 5.15625 -9.53125 C 5.269531 -10.007812 5.242188 -10.535156 5.078125 -11.109375 C 4.910156 -11.691406 4.632812 -12.304688 4.25 -12.953125 C 3.863281 -13.609375 3.414062 -14.285156 2.90625 -14.984375 C 2.40625 -15.671875 1.90625 -16.296875 1.40625 -16.859375 C 0.90625 -17.429688 0.40625 -17.890625 -0.09375 -18.234375 C -0.601562 -18.578125 -1.097656 -18.769531 -1.578125 -18.8125 C -2.066406 -18.851562 -2.554688 -18.695312 -3.046875 -18.34375 C -3.535156 -17.988281 -3.835938 -17.570312 -3.953125 -17.09375 C -4.066406 -16.613281 -4.035156 -16.082031 -3.859375 -15.5 C -3.691406 -14.914062 -3.410156 -14.296875 -3.015625 -13.640625 C -2.628906 -12.992188 -2.1875 -12.328125 -1.6875 -11.640625 Z M -1.6875 -11.640625 "/></g></g></g><g fill="#000000" fill-opacity="1"><g transform="translate(304.918997, 324.024825)"><g><path d="M -9.640625 -11.421875 L -12.546875 -14.734375 C -12.835938 -15.066406 -12.96875 -15.421875 -12.9375 -15.796875 C -12.914062 -16.171875 -12.738281 -16.507812 -12.40625 -16.8125 L -2.609375 -25.40625 C -2.273438 -25.695312 -1.914062 -25.832031 -1.53125 -25.8125 C -1.15625 -25.789062 -0.820312 -25.613281 -0.53125 -25.28125 L 2.375 -21.96875 C 2.519531 -21.8125 2.578125 -21.628906 2.546875 -21.421875 C 2.515625 -21.210938 2.421875 -21.039062 2.265625 -20.90625 C 2.046875 -20.695312 1.800781 -20.550781 1.53125 -20.46875 C 1.269531 -20.394531 0.984375 -20.34375 0.671875 -20.3125 C 0.367188 -20.28125 0.0625 -20.242188 -0.25 -20.203125 C -0.570312 -20.160156 -0.890625 -20.070312 -1.203125 -19.9375 C -1.523438 -19.8125 -1.835938 -19.613281 -2.140625 -19.34375 L -2.3125 -19.203125 L 1.359375 -15.03125 C 2.035156 -14.257812 2.640625 -13.613281 3.171875 -13.09375 C 3.710938 -12.582031 4.203125 -12.15625 4.640625 -11.8125 C 5.078125 -11.46875 5.46875 -11.179688 5.8125 -10.953125 C 6.15625 -10.734375 6.46875 -10.535156 6.75 -10.359375 C 7.03125 -10.191406 7.300781 -10.007812 7.5625 -9.8125 C 7.820312 -9.613281 8.082031 -9.363281 8.34375 -9.0625 C 8.570312 -8.800781 8.679688 -8.546875 8.671875 -8.296875 C 8.671875 -8.046875 8.601562 -7.8125 8.46875 -7.59375 C 8.332031 -7.382812 8.175781 -7.195312 8 -7.03125 C 7.820312 -6.875 7.675781 -6.742188 7.5625 -6.640625 L 4.75 -4.171875 C 4.632812 -4.066406 4.484375 -3.9375 4.296875 -3.78125 C 4.109375 -3.632812 3.898438 -3.503906 3.671875 -3.390625 C 3.441406 -3.285156 3.203125 -3.25 2.953125 -3.28125 C 2.710938 -3.3125 2.476562 -3.457031 2.25 -3.71875 C 1.988281 -4.019531 1.773438 -4.3125 1.609375 -4.59375 C 1.441406 -4.875 1.289062 -5.160156 1.15625 -5.453125 C 1.019531 -5.753906 0.863281 -6.085938 0.6875 -6.453125 C 0.507812 -6.828125 0.28125 -7.253906 0 -7.734375 C -0.28125 -8.210938 -0.640625 -8.75 -1.078125 -9.34375 C -1.523438 -9.945312 -2.085938 -10.632812 -2.765625 -11.40625 L -6.4375 -15.578125 L -6.46875 -15.546875 C -6.769531 -15.285156 -7.003906 -15.003906 -7.171875 -14.703125 C -7.335938 -14.410156 -7.460938 -14.109375 -7.546875 -13.796875 C -7.628906 -13.492188 -7.703125 -13.191406 -7.765625 -12.890625 C -7.835938 -12.585938 -7.929688 -12.304688 -8.046875 -12.046875 C -8.171875 -11.796875 -8.347656 -11.570312 -8.578125 -11.375 C -8.734375 -11.238281 -8.910156 -11.171875 -9.109375 -11.171875 C -9.316406 -11.179688 -9.492188 -11.265625 -9.640625 -11.421875 Z M -9.640625 -11.421875 "/></g></g></g><g fill="#000000" fill-opacity="1"><g transform="translate(317.922588, 312.645148)"><g><path d="M 1.421875 -1.53125 C 1.210938 -1.300781 0.992188 -1.097656 0.765625 -0.921875 C 0.546875 -0.753906 0.328125 -0.660156 0.109375 -0.640625 C -0.109375 -0.617188 -0.316406 -0.703125 -0.515625 -0.890625 C -0.710938 -1.078125 -0.851562 -1.257812 -0.9375 -1.4375 C -1.019531 -1.613281 -1.082031 -1.8125 -1.125 -2.03125 C -1.175781 -2.257812 -1.222656 -2.515625 -1.265625 -2.796875 C -1.316406 -3.078125 -1.410156 -3.398438 -1.546875 -3.765625 C -1.691406 -4.128906 -1.898438 -4.554688 -2.171875 -5.046875 C -2.585938 -5.785156 -2.953125 -6.414062 -3.265625 -6.9375 C -3.578125 -7.457031 -3.851562 -7.914062 -4.09375 -8.3125 C -4.332031 -8.71875 -4.554688 -9.085938 -4.765625 -9.421875 C -4.972656 -9.765625 -5.179688 -10.101562 -5.390625 -10.4375 C -5.609375 -10.769531 -5.835938 -11.140625 -6.078125 -11.546875 C -6.316406 -11.953125 -6.601562 -12.410156 -6.9375 -12.921875 C -7.269531 -13.441406 -7.65625 -14.066406 -8.09375 -14.796875 C -8.382812 -15.285156 -8.625 -15.660156 -8.8125 -15.921875 C -9.007812 -16.191406 -9.175781 -16.398438 -9.3125 -16.546875 C -9.457031 -16.691406 -9.613281 -16.828125 -9.78125 -16.953125 C -9.957031 -17.085938 -10.171875 -17.265625 -10.421875 -17.484375 C -10.472656 -17.535156 -10.546875 -17.609375 -10.640625 -17.703125 C -10.742188 -17.804688 -10.828125 -17.929688 -10.890625 -18.078125 C -10.953125 -18.234375 -10.960938 -18.40625 -10.921875 -18.59375 C -10.878906 -18.78125 -10.753906 -18.984375 -10.546875 -19.203125 L -7.890625 -22.046875 C -7.691406 -22.265625 -7.515625 -22.445312 -7.359375 -22.59375 C -7.203125 -22.738281 -7.03125 -22.84375 -6.84375 -22.90625 C -6.65625 -22.976562 -6.414062 -22.984375 -6.125 -22.921875 C -5.84375 -22.859375 -5.46875 -22.726562 -5 -22.53125 C -4.539062 -22.34375 -3.953125 -22.0625 -3.234375 -21.6875 C -2.367188 -21.238281 -1.601562 -20.835938 -0.9375 -20.484375 C -0.28125 -20.140625 0.304688 -19.828125 0.828125 -19.546875 C 1.347656 -19.273438 1.847656 -19.007812 2.328125 -18.75 C 2.816406 -18.488281 3.328125 -18.222656 3.859375 -17.953125 C 4.390625 -17.679688 4.984375 -17.382812 5.640625 -17.0625 C 6.304688 -16.738281 7.082031 -16.351562 7.96875 -15.90625 C 8.46875 -15.664062 8.898438 -15.488281 9.265625 -15.375 C 9.640625 -15.257812 9.96875 -15.1875 10.25 -15.15625 C 10.539062 -15.125 10.800781 -15.09375 11.03125 -15.0625 C 11.257812 -15.039062 11.46875 -14.992188 11.65625 -14.921875 C 11.84375 -14.859375 12.035156 -14.734375 12.234375 -14.546875 C 12.429688 -14.359375 12.519531 -14.148438 12.5 -13.921875 C 12.488281 -13.703125 12.410156 -13.476562 12.265625 -13.25 C 12.117188 -13.019531 11.9375 -12.785156 11.71875 -12.546875 L 8.09375 -8.671875 C 7.9375 -8.503906 7.757812 -8.363281 7.5625 -8.25 C 7.375 -8.132812 7.175781 -8.070312 6.96875 -8.0625 C 6.769531 -8.0625 6.585938 -8.140625 6.421875 -8.296875 C 6.179688 -8.515625 6.007812 -8.707031 5.90625 -8.875 C 5.8125 -9.039062 5.722656 -9.207031 5.640625 -9.375 C 5.566406 -9.539062 5.457031 -9.722656 5.3125 -9.921875 C 5.175781 -10.128906 4.945312 -10.382812 4.625 -10.6875 C 4.445312 -10.84375 4.25 -11.003906 4.03125 -11.171875 L 1.515625 -8.46875 C 1.609375 -8.382812 1.707031 -8.304688 1.8125 -8.234375 C 1.925781 -8.160156 2.03125 -8.085938 2.125 -8.015625 C 2.488281 -7.765625 2.785156 -7.582031 3.015625 -7.46875 C 3.253906 -7.363281 3.457031 -7.28125 3.625 -7.21875 C 3.800781 -7.15625 3.972656 -7.078125 4.140625 -6.984375 C 4.316406 -6.890625 4.523438 -6.734375 4.765625 -6.515625 C 4.929688 -6.359375 5.019531 -6.179688 5.03125 -5.984375 C 5.039062 -5.785156 4.992188 -5.582031 4.890625 -5.375 C 4.796875 -5.175781 4.671875 -5 4.515625 -4.84375 Z M -2.078125 -11.859375 L -0.328125 -13.75 C -0.734375 -13.957031 -1.164062 -14.179688 -1.625 -14.421875 C -2.082031 -14.660156 -2.570312 -14.910156 -3.09375 -15.171875 C -3.394531 -15.328125 -3.65625 -15.445312 -3.875 -15.53125 C -4.101562 -15.613281 -4.253906 -15.609375 -4.328125 -15.515625 C -4.378906 -15.429688 -4.34375 -15.269531 -4.21875 -15.03125 C -4.09375 -14.789062 -3.925781 -14.503906 -3.71875 -14.171875 C -3.519531 -13.847656 -3.304688 -13.519531 -3.078125 -13.1875 C -2.847656 -12.863281 -2.640625 -12.582031 -2.453125 -12.34375 C -2.265625 -12.101562 -2.140625 -11.941406 -2.078125 -11.859375 Z M -2.078125 -11.859375 "/></g></g></g></svg>