<svg xmlns="http://www.w3.org/2000/svg" xmlns:xlink="http://www.w3.org/1999/xlink" width="500" zoomAndPan="magnify" viewBox="0 0 375 374.999991" height="500" preserveAspectRatio="xMidYMid meet" version="1.0"><defs><g/><clipPath id="d9366c1517"><path d="M 2.878906 2.878906 L 372.121094 2.878906 L 372.121094 372.121094 L 2.878906 372.121094 Z M 2.878906 2.878906 " clip-rule="nonzero"/></clipPath><clipPath id="007c14d713"><path d="M 187.5 2.878906 C 85.535156 2.878906 2.878906 85.535156 2.878906 187.5 C 2.878906 289.464844 85.535156 372.121094 187.5 372.121094 C 289.464844 372.121094 372.121094 289.464844 372.121094 187.5 C 372.121094 85.535156 289.464844 2.878906 187.5 2.878906 Z M 187.5 2.878906 " clip-rule="nonzero"/></clipPath><clipPath id="cddbc71519"><path d="M 2.878906 2.878906 L 371.878906 2.878906 L 371.878906 371.878906 L 2.878906 371.878906 Z M 2.878906 2.878906 " clip-rule="nonzero"/></clipPath><clipPath id="e6e85509f7"><path d="M 187.496094 2.878906 C 85.535156 2.878906 2.878906 85.535156 2.878906 187.496094 C 2.878906 289.457031 85.535156 372.113281 187.496094 372.113281 C 289.457031 372.113281 372.113281 289.457031 372.113281 187.496094 C 372.113281 85.535156 289.457031 2.878906 187.496094 2.878906 Z M 187.496094 2.878906 " clip-rule="nonzero"/></clipPath><clipPath id="ab794706f2"><path d="M 180 24.285156 L 301 24.285156 L 301 110 L 180 110 Z M 180 24.285156 " clip-rule="nonzero"/></clipPath></defs><g clip-path="url(#d9366c1517)"><g clip-path="url(#007c14d713)"><path fill="#fffffe" d="M 2.878906 2.878906 L 372.121094 2.878906 L 372.121094 372.121094 L 2.878906 372.121094 Z M 2.878906 2.878906 " fill-opacity="1" fill-rule="nonzero"/></g></g><g clip-path="url(#cddbc71519)"><g clip-path="url(#e6e85509f7)"><path stroke-linecap="butt" transform="matrix(0.75, 0, 0, 0.75, 2.879551, 2.87956)" fill="none" stroke-linejoin="miter" d="M 246.155406 -0.000872129 C 110.20748 -0.000872129 -0.000860145 110.207468 -0.000860145 246.155394 C -0.000860145 382.10332 110.20748 492.31166 246.155406 492.31166 C 382.103332 492.31166 492.311672 382.10332 492.311672 246.155394 C 492.311672 110.207468 382.103332 -0.000872129 246.155406 -0.000872129 Z M 246.155406 -0.000872129 " stroke="#000000" stroke-width="2" stroke-opacity="1" stroke-miterlimit="4"/></g></g><path fill="#d4a573" d="M 58.5625 262.816406 C 55.273438 263.253906 51.828125 263.484375 48.960938 265.15625 C 46.09375 266.824219 44.050781 270.507812 45.457031 273.515625 C 46.691406 276.152344 49.078125 277.230469 51.824219 276.269531 C 49.941406 281.019531 58.269531 282.710938 60.453125 279.84375 C 59.632812 282.902344 62.535156 285.230469 64.710938 285.414062 C 82.769531 286.933594 129.234375 268.238281 151.488281 252.265625 C 156.265625 248.835938 153.277344 239.664062 152.851562 233.800781 C 152.640625 230.855469 150.945312 228.1875 148.835938 226.121094 C 143.125 220.550781 134.546875 218.929688 126.582031 219.4375 C 122.605469 219.695312 118.707031 220.402344 114.890625 221.5625 C 111.078125 222.71875 107.445312 224.296875 103.992188 226.296875 C 96.714844 230.53125 97.5625 233.621094 95.105469 240.503906 C 90.355469 253.800781 71.226562 261.140625 58.5625 262.816406 Z M 58.5625 262.816406 " fill-opacity="1" fill-rule="nonzero"/><path fill="#e4b27c" d="M 145.621094 182.871094 C 158.015625 170.835938 166.796875 154.761719 176.457031 139.78125 C 183.933594 128.175781 197.660156 111.433594 208.34375 103.539062 C 223.644531 92.230469 249.238281 95.734375 260.867188 100.523438 C 292.496094 113.550781 298.484375 150.683594 294.167969 162.960938 C 290.28125 174.03125 275.730469 164.269531 271.0625 174.707031 C 261.496094 196.097656 246.390625 213.890625 228.941406 227.191406 C 211.492188 240.488281 191.726562 249.445312 171.453125 255.488281 C 158.640625 259.300781 145.125 261.988281 132.242188 258.523438 C 119.359375 255.058594 107.246094 244.144531 104.683594 229.238281 C 102.660156 217.472656 108.375 204.464844 117.679688 198.914062 C 127.257812 193.203125 137.03125 191.207031 145.621094 182.871094 Z M 145.621094 182.871094 " fill-opacity="1" fill-rule="nonzero"/><path fill="#ffdbb3" d="M 229.582031 219.347656 C 241.773438 212.941406 251.691406 200.464844 259.441406 182.574219 C 257.632812 190.792969 259.496094 192.511719 256.738281 200.464844 C 251.019531 216.945312 232.488281 235.742188 217.628906 243.445312 C 202.769531 251.152344 184.503906 253.34375 168.207031 257.140625 C 154.417969 260.355469 140.054688 262.296875 125.992188 260.636719 C 122.082031 260.175781 117.757812 259.0625 115.742188 255.679688 C 115.324219 254.980469 115.023438 254.179688 115.105469 253.375 C 115.300781 251.363281 117.546875 250.335938 119.460938 249.699219 C 129.429688 246.40625 139.5 243.160156 148.667969 238.042969 C 153.390625 235.40625 157.851562 232.253906 161.746094 228.496094 C 165.011719 225.34375 160.5625 227.980469 161.453125 223.410156 C 190.566406 242.554688 217.394531 225.753906 229.582031 219.347656 Z M 229.582031 219.347656 " fill-opacity="1" fill-rule="nonzero"/><path fill="#e4b27c" d="M 136.550781 278.808594 C 133.351562 279.703125 129.976562 280.417969 127.371094 282.472656 C 124.769531 284.53125 123.261719 288.464844 125.078125 291.242188 C 126.667969 293.675781 129.957031 294.097656 131.78125 292.558594 C 130.066406 296.472656 137.792969 300.347656 140.5 296.167969 C 140.589844 298.351562 143.023438 299.183594 144.964844 300.1875 C 147.917969 301.714844 154.140625 299.292969 156.144531 298.425781 C 181.277344 287.527344 218.285156 258.835938 222.585938 231.777344 C 225.671875 212.347656 210.035156 217.726562 202.222656 219.347656 C 194.460938 220.960938 198.574219 209.960938 192.347656 214.875 C 185.738281 220.097656 164.8125 243.742188 163.34375 250.902344 C 160.515625 264.738281 148.855469 275.371094 136.550781 278.808594 Z M 136.550781 278.808594 " fill-opacity="1" fill-rule="nonzero"/><path fill="#e4b27c" d="M 246.304688 190.628906 C 243.804688 184.734375 242.570312 178.355469 242.132812 171.96875 C 241.355469 160.652344 243.144531 148.941406 248.753906 139.082031 C 254.363281 129.222656 264.085938 121.429688 275.285156 119.609375 C 278.929688 119.015625 274.226562 110.40625 277.710938 111.625 C 286.683594 114.769531 292.074219 125.027344 293.652344 128.042969 C 301.507812 143.023438 302.335938 161.191406 301.117188 178.066406 C 299.898438 194.941406 295.644531 211.425781 291.589844 227.84375 C 291.089844 229.863281 290.515625 232.015625 288.949219 233.390625 C 287.136719 234.988281 284.488281 235.105469 282.074219 235.085938 C 274.027344 235.039062 269.886719 231.726562 266.90625 224.699219 C 263.574219 216.851562 258.28125 210.160156 253.5 203.175781 C 250.777344 199.195312 248.195312 195.082031 246.304688 190.628906 Z M 246.304688 190.628906 " fill-opacity="1" fill-rule="nonzero"/><path fill="#e4b27c" d="M 295.28125 226.84375 C 294.960938 221.660156 296.023438 213.996094 296.121094 209.082031 C 295.773438 209.332031 294.195312 212.523438 294.078125 212.957031 C 293.296875 215.9375 291.929688 218.621094 289.976562 221.003906 C 288.632812 222.648438 286.847656 224.167969 284.726562 224.238281 C 282.257812 224.316406 280.230469 222.457031 278.1875 221.058594 C 275.777344 219.414062 272.832031 218.289062 269.953125 218.785156 C 267.972656 219.125 266.417969 219.816406 265.476562 221.625 C 267.554688 225.84375 268.644531 230.195312 268.769531 232.871094 C 268.890625 235.496094 265.027344 238.480469 264.84375 242.679688 C 264.730469 245.304688 267.738281 250.734375 273.019531 248.246094 C 272.390625 252.15625 280.351562 254.179688 281.878906 251.46875 C 286.875 253.136719 290.515625 250.246094 291.96875 249.128906 C 295.832031 246.164062 295.527344 230.878906 295.28125 226.84375 Z M 295.28125 226.84375 " fill-opacity="1" fill-rule="nonzero"/><path fill="#d6a064" d="M 191.125 182.492188 C 192.878906 189.460938 193.183594 204.214844 190.765625 210.984375 C 188.859375 216.328125 186.425781 221.535156 183 226.054688 C 179.570312 230.578125 175.097656 234.402344 169.824219 236.496094 C 169.363281 236.679688 168.796875 236.839844 168.402344 236.539062 C 168.179688 236.375 168.070312 236.101562 167.976562 235.839844 C 166.722656 232.328125 166.882812 228.496094 166.957031 224.769531 C 167.238281 211.125 166.234375 197.484375 166.414062 183.835938 C 166.445312 181.425781 165.28125 165.601562 169.738281 171.417969 C 173.164062 175.894531 179.503906 176.582031 184.589844 179.308594 C 187.367188 180.800781 191.039062 182.15625 191.125 182.492188 Z M 191.125 182.492188 " fill-opacity="1" fill-rule="nonzero"/><path fill="#cc9b66" d="M 274.15625 239.464844 C 270.820312 243.300781 271.925781 246.105469 273.027344 248.191406 C 273.113281 248.355469 273.429688 248.683594 272.953125 248.703125 C 271.070312 248.785156 269.410156 242.859375 274.15625 239.464844 Z M 274.15625 239.464844 " fill-opacity="1" fill-rule="nonzero"/><path fill="#cc9b66" d="M 281.921875 240.929688 C 280.652344 243.597656 280.28125 246.191406 280.609375 248.03125 C 281.0625 250.566406 282.582031 251.886719 282.515625 251.980469 C 282.398438 252.140625 281.855469 251.921875 281.457031 251.59375 C 280.640625 250.917969 279.90625 249.253906 279.738281 248.269531 C 279.300781 245.71875 280.242188 242.914062 281.921875 240.929688 Z M 281.921875 240.929688 " fill-opacity="1" fill-rule="nonzero"/><path fill="#cc9b66" d="M 149.285156 291.066406 C 143.824219 291.207031 142.0625 294.0625 140.929688 296.40625 C 140.839844 296.585938 140.75 297.066406 140.433594 296.710938 C 139.171875 295.304688 143.320312 289.796875 149.285156 291.066406 Z M 149.285156 291.066406 " fill-opacity="1" fill-rule="nonzero"/><path fill="#cc9b66" d="M 139.714844 284.976562 C 136.714844 286.273438 134.421875 288.128906 133.214844 289.859375 C 131.5625 292.234375 131.628906 294.363281 131.503906 294.390625 C 131.292969 294.4375 131.070312 293.886719 131.039062 293.339844 C 130.976562 292.226562 131.746094 290.359375 132.398438 289.441406 C 134.078125 287.066406 136.949219 285.429688 139.714844 284.976562 Z M 139.714844 284.976562 " fill-opacity="1" fill-rule="nonzero"/><path fill="#b38859" d="M 69.050781 274.390625 C 63.589844 274.535156 61.828125 277.390625 60.695312 279.730469 C 60.605469 279.914062 60.515625 280.394531 60.199219 280.039062 C 58.9375 278.628906 63.085938 273.125 69.050781 274.390625 Z M 69.050781 274.390625 " fill-opacity="1" fill-rule="nonzero"/><path fill="#b38859" d="M 60.027344 267.761719 C 57.027344 269.0625 54.734375 270.917969 53.53125 272.640625 C 51.875 275.023438 51.941406 277.148438 51.816406 277.175781 C 51.605469 277.226562 51.382812 276.671875 51.351562 276.125 C 51.289062 275.011719 52.058594 273.144531 52.710938 272.226562 C 54.390625 269.855469 57.261719 268.222656 60.027344 267.761719 Z M 60.027344 267.761719 " fill-opacity="1" fill-rule="nonzero"/><path stroke-linecap="butt" transform="matrix(0.105893, 0, 0, 0.105907, 45.002315, 24.917631)" fill="none" stroke-linejoin="miter" d="M 2036.121243 1723.663533 C 2033.72348 1723.958604 2031.620827 1724.364328 2029.112398 1724.585631 C 2032.432377 1724.253676 2034.535031 1723.995488 2036.121243 1723.663533 Z M 2036.121243 1723.663533 " stroke="#f2d2b3" stroke-width="25.139999" stroke-opacity="1" stroke-miterlimit="10"/><path stroke-linecap="butt" transform="matrix(0.105893, 0, 0, 0.105907, 45.002315, 24.917631)" fill="none" stroke-linejoin="miter" d="M 1853.301067 1701.201212 C 1852.784626 1701.053677 1852.305074 1700.869257 1851.714855 1700.758605 C 1852.231296 1700.943025 1852.784626 1701.090561 1853.301067 1701.201212 Z M 1853.301067 1701.201212 " stroke="#f2d2b3" stroke-width="25.139999" stroke-opacity="1" stroke-miterlimit="10"/><path fill="#f2d2b3" d="M 305.90625 142.285156 C 304.039062 137.769531 304.496094 140.90625 301.921875 136.949219 C 299.1875 132.75 299.902344 134.050781 299.316406 130.152344 C 298.042969 121.734375 293.125 115.648438 282.175781 113.914062 C 284.578125 118.167969 283.269531 121.402344 282.9375 122.414062 C 281.390625 127.171875 280.964844 129.492188 276.234375 132.015625 C 276.085938 132.09375 276 132.226562 275.875 132.328125 C 279.019531 137.941406 278.9375 147.339844 272.074219 150.148438 C 269.214844 151.3125 265.53125 151.492188 262.832031 150.3125 C 262.894531 150.523438 262.984375 150.726562 263.105469 150.910156 C 265.410156 154.378906 265.320312 157.65625 262.894531 160.742188 C 262.929688 160.792969 262.972656 160.832031 263 160.886719 C 265.097656 164.296875 263.890625 168.691406 260.265625 170.449219 C 257.574219 171.757812 254.71875 171.289062 252.734375 169.546875 C 253.316406 173.03125 252.3125 176.703125 249.457031 179.132812 C 245.195312 182.765625 239.625 180.914062 237.347656 176.472656 C 237.03125 185.472656 234.304688 195.402344 224.335938 197.695312 C 218.058594 199.136719 211.546875 197.011719 206.664062 193.003906 C 209.117188 197.925781 208.046875 204.980469 203.78125 208.382812 C 198.429688 212.652344 190.847656 211.523438 185.425781 207.992188 C 185.070312 207.757812 184.757812 207.476562 184.488281 207.144531 C 183.785156 207.625 183.199219 208.375 183.085938 209.203125 C 182.796875 209.503906 182.613281 209.859375 182.535156 210.273438 C 182.234375 211.976562 182.714844 213.050781 181.703125 214.53125 C 180.695312 216.015625 179.019531 216.167969 178.082031 217.742188 C 177.34375 218.988281 177.554688 220.730469 177.171875 222.148438 C 176.726562 222.484375 176.308594 222.847656 175.914062 223.242188 C 175.519531 223.632812 175.015625 224.40625 174.46875 225.273438 C 173.039062 225.980469 171.316406 226.21875 169.726562 226.171875 C 168.214844 226.128906 167.390625 227.144531 167.21875 228.296875 C 166.894531 228.332031 166.59375 228.433594 166.316406 228.597656 C 161.6875 231.496094 159.171875 235.015625 158.519531 240.335938 C 158.511719 240.382812 158.535156 240.417969 158.53125 240.464844 C 158.109375 240.933594 157.902344 241.484375 157.910156 242.113281 C 157.910156 248.933594 164.839844 252.03125 170.191406 249.179688 C 174.097656 255.847656 182.300781 255.410156 187.542969 249.457031 C 192.632812 254.414062 200.886719 253.453125 203.542969 247.085938 C 203.609375 247.125 203.65625 247.167969 203.722656 247.210938 C 207.730469 249.453125 212.195312 248.925781 216.59375 247.121094 C 218.78125 248.019531 221.441406 248.152344 223.375 247.566406 C 227.589844 246.285156 228.9375 243.351562 229.390625 239.894531 C 231.390625 240.558594 233.625 240.285156 236.1875 238.789062 C 240.425781 236.316406 241.96875 231.53125 242.175781 226.753906 C 242.175781 226.753906 242.183594 226.742188 242.1875 226.738281 C 244.136719 227.429688 246.125 227.339844 248.53125 225.503906 C 249.90625 224.445312 250.738281 223.324219 251.320312 221.625 C 251.640625 220.695312 251.871094 219.652344 251.863281 218.667969 C 251.859375 218.539062 251.832031 218.417969 251.785156 218.300781 C 254.75 217.695312 256.398438 217.558594 257.785156 213.84375 C 258.503906 211.910156 258.714844 209.441406 258.433594 207.089844 C 260.074219 207.191406 261.445312 207.3125 260.609375 207.46875 C 263.292969 207.132812 265.023438 206.433594 266.101562 204.871094 C 269.574219 207.515625 273.65625 209 278.382812 208.136719 C 284.84375 206.960938 285.046875 202.1875 289.292969 198.890625 C 293.582031 195.5625 297.433594 196.492188 300.78125 190.246094 C 302.882812 186.328125 303.496094 181.515625 301.875 177.140625 C 301.832031 177.039062 301.785156 176.945312 301.734375 176.847656 C 301.773438 176.402344 301.84375 175.960938 301.9375 175.523438 C 303.238281 169.914062 307.292969 170.9375 306.050781 163.210938 C 305.695312 161.011719 303.605469 158.097656 303.820312 155.871094 C 304.042969 153.53125 305.9375 152.648438 306.4375 150.578125 C 307.121094 147.800781 307.019531 144.980469 305.90625 142.285156 Z M 305.90625 142.285156 " fill-opacity="1" fill-rule="nonzero"/><path fill="#e4b27c" d="M 169.617188 164.066406 C 169.617188 164.066406 146.179688 163.324219 137.425781 153.363281 C 137.425781 153.363281 147.015625 141.210938 153.078125 137.929688 C 154.773438 137.015625 156.878906 137.769531 157.71875 139.5 Z M 169.617188 164.066406 " fill-opacity="1" fill-rule="nonzero"/><path fill="#de6743" d="M 162.65625 163.226562 C 162.65625 163.226562 148.148438 164.339844 142.246094 157.621094 C 142.246094 157.621094 147.527344 151.027344 151.460938 147.792969 C 153.105469 146.4375 155.609375 147.105469 156.464844 149.0625 Z M 162.65625 163.226562 " fill-opacity="1" fill-rule="nonzero"/><path fill="#e4b27c" d="M 85.15625 184.835938 C 85.15625 184.835938 106.132812 174.152344 106.882812 160.910156 C 106.882812 160.910156 92.046875 157.007812 84.351562 156.941406 C 81.859375 156.921875 80.023438 159.289062 80.511719 161.734375 Z M 85.15625 184.835938 " fill-opacity="1" fill-rule="nonzero"/><path fill="#de6743" d="M 90.066406 182.960938 C 90.066406 182.960938 102.171875 174.894531 102.679688 165.960938 C 102.679688 165.960938 91.941406 163.4375 87.414062 163.972656 C 86.25 164.109375 85.523438 165.324219 85.816406 166.457031 Z M 90.066406 182.960938 " fill-opacity="1" fill-rule="nonzero"/><path fill="#e4b27c" d="M 125.945312 157.53125 C 123.011719 159.285156 119.601562 160.027344 116.195312 159.777344 C 112.164062 159.484375 106.617188 159.433594 105.179688 161.195312 C 97.425781 170.726562 81.425781 180.152344 83.144531 191.167969 C 83.144531 191.167969 72.175781 201.8125 77.398438 212.109375 C 77.398438 212.109375 70.660156 224.882812 87.445312 236.035156 C 87.445312 236.035156 86.265625 244.257812 99.964844 250.6875 C 99.964844 250.6875 101.378906 260.59375 118.035156 260.226562 C 118.035156 260.226562 122.921875 268.234375 131.695312 263.757812 C 131.695312 263.757812 137.882812 267.257812 139.53125 272.636719 C 139.53125 272.636719 150.015625 269.027344 150.800781 261.269531 C 150.800781 261.269531 160.597656 258.875 161.078125 250.035156 C 161.078125 250.035156 169.183594 250.578125 172.488281 239.351562 C 172.488281 239.351562 183.765625 238.589844 182.796875 225.363281 C 182.796875 225.363281 193.914062 222.730469 189.890625 207.488281 C 189.890625 207.488281 199.183594 201.820312 192.085938 188.046875 C 192.085938 188.046875 194.265625 177.515625 182.90625 173.53125 C 182.90625 173.53125 184.238281 165.550781 166.859375 163.542969 C 166.859375 163.542969 141.714844 152.082031 137.332031 153.066406 C 134.6875 153.65625 129.03125 155.691406 125.945312 157.53125 Z M 125.945312 157.53125 " fill-opacity="1" fill-rule="nonzero"/><path fill="#d6a064" d="M 138.199219 245.109375 C 152.671875 236.421875 182.570312 223.570312 168.097656 204.257812 C 161.828125 195.894531 146.421875 205.839844 138.164062 205.570312 C 135.773438 205.492188 133.65625 204.65625 131.730469 203.453125 C 128.519531 206.949219 124.09375 209.84375 119.023438 212.230469 C 115.171875 214.042969 110.960938 215.386719 107.269531 217.507812 C 91.453125 226.589844 109.019531 237.550781 117.664062 238.984375 C 125.417969 240.265625 131.894531 241.65625 138.199219 245.109375 Z M 138.199219 245.109375 " fill-opacity="1" fill-rule="nonzero"/><path fill="#eabe92" d="M 153.589844 200.269531 C 145.832031 206.160156 138.203125 202.292969 131.671875 196.804688 C 129.515625 202.691406 125.777344 207.90625 120.578125 209.558594 C 117.9375 210.40625 115.277344 210.453125 112.605469 209.695312 C 110.089844 208.996094 105.933594 213.339844 105.789062 217.992188 C 105.546875 225.566406 112.15625 228.957031 116.195312 227.371094 C 133.527344 220.578125 133.632812 218.769531 133.234375 213.800781 C 134.730469 218.566406 131.582031 220.074219 151.679688 218.65625 C 160.488281 218.035156 165.839844 211.625 161.878906 204.148438 C 160.273438 201.113281 155.410156 198.890625 153.589844 200.269531 Z M 153.589844 200.269531 " fill-opacity="1" fill-rule="nonzero"/><path fill="#f2d2b3" d="M 133.140625 209.617188 C 133.140625 209.617188 115.035156 214.066406 118.375 222.316406 C 121.71875 230.566406 146.359375 234.792969 152.050781 216.011719 C 156.144531 202.511719 133.140625 209.617188 133.140625 209.617188 Z M 133.140625 209.617188 " fill-opacity="1" fill-rule="nonzero"/><path fill="#d6a064" d="M 115.976562 188.839844 C 115.976562 188.839844 121.894531 189.175781 124.964844 193.050781 C 128.03125 196.925781 134.757812 196.015625 136.476562 191.003906 C 138.191406 185.992188 142.398438 182.710938 143.828125 181.671875 C 143.828125 181.671875 124.941406 176.183594 115.976562 188.839844 Z M 115.976562 188.839844 " fill-opacity="1" fill-rule="nonzero"/><path fill="#080d0f" d="M 155.519531 193.871094 C 155.628906 194.296875 155.699219 194.734375 155.722656 195.175781 C 155.75 195.617188 155.730469 196.058594 155.671875 196.496094 C 155.609375 196.933594 155.507812 197.363281 155.359375 197.78125 C 155.214844 198.199219 155.03125 198.601562 154.808594 198.980469 C 154.582031 199.363281 154.324219 199.71875 154.027344 200.050781 C 153.734375 200.382812 153.410156 200.679688 153.058594 200.945312 C 152.703125 201.214844 152.328125 201.445312 151.929688 201.636719 C 151.53125 201.828125 151.117188 201.980469 150.6875 202.09375 C 150.261719 202.203125 149.824219 202.273438 149.382812 202.296875 C 148.941406 202.324219 148.5 202.304688 148.0625 202.246094 C 147.625 202.183594 147.195312 202.082031 146.777344 201.9375 C 146.359375 201.789062 145.960938 201.605469 145.578125 201.382812 C 145.195312 201.15625 144.839844 200.898438 144.507812 200.601562 C 144.179688 200.308594 143.878906 199.984375 143.613281 199.632812 C 143.34375 199.277344 143.117188 198.902344 142.921875 198.503906 C 142.730469 198.105469 142.578125 197.691406 142.464844 197.261719 C 142.355469 196.835938 142.285156 196.398438 142.261719 195.957031 C 142.234375 195.515625 142.253906 195.074219 142.3125 194.636719 C 142.375 194.199219 142.476562 193.769531 142.621094 193.351562 C 142.769531 192.933594 142.953125 192.53125 143.175781 192.152344 C 143.402344 191.769531 143.660156 191.414062 143.957031 191.082031 C 144.25 190.75 144.574219 190.453125 144.925781 190.183594 C 145.28125 189.917969 145.65625 189.6875 146.054688 189.496094 C 146.453125 189.300781 146.867188 189.148438 147.296875 189.039062 C 147.722656 188.925781 148.160156 188.859375 148.601562 188.832031 C 149.042969 188.808594 149.484375 188.824219 149.921875 188.886719 C 150.359375 188.945312 150.789062 189.050781 151.207031 189.195312 C 151.625 189.339844 152.023438 189.527344 152.40625 189.75 C 152.789062 189.976562 153.144531 190.234375 153.476562 190.527344 C 153.808594 190.824219 154.105469 191.148438 154.371094 191.5 C 154.640625 191.855469 154.871094 192.230469 155.0625 192.628906 C 155.253906 193.027344 155.40625 193.441406 155.519531 193.871094 Z M 155.519531 193.871094 " fill-opacity="1" fill-rule="nonzero"/><path fill="#ffffff" d="M 153.105469 192.445312 C 153.171875 192.703125 153.1875 192.957031 153.148438 193.21875 C 153.113281 193.480469 153.027344 193.722656 152.894531 193.949219 C 152.761719 194.175781 152.589844 194.371094 152.382812 194.527344 C 152.171875 194.6875 151.941406 194.800781 151.683594 194.867188 C 151.429688 194.929688 151.171875 194.945312 150.914062 194.910156 C 150.652344 194.875 150.410156 194.789062 150.183594 194.65625 C 149.957031 194.523438 149.761719 194.351562 149.605469 194.144531 C 149.445312 193.933594 149.332031 193.703125 149.265625 193.445312 C 149.199219 193.191406 149.183594 192.933594 149.222656 192.675781 C 149.257812 192.414062 149.339844 192.171875 149.472656 191.945312 C 149.605469 191.714844 149.777344 191.523438 149.988281 191.363281 C 150.195312 191.207031 150.429688 191.09375 150.683594 191.027344 C 150.9375 190.960938 151.195312 190.945312 151.457031 190.980469 C 151.71875 191.015625 151.960938 191.101562 152.1875 191.234375 C 152.417969 191.367188 152.609375 191.539062 152.769531 191.75 C 152.925781 191.960938 153.039062 192.191406 153.105469 192.445312 Z M 153.105469 192.445312 " fill-opacity="1" fill-rule="nonzero"/><path fill="#080d0f" d="M 121.351562 201.835938 C 121.460938 202.265625 121.53125 202.699219 121.558594 203.140625 C 121.582031 203.582031 121.566406 204.023438 121.503906 204.460938 C 121.441406 204.902344 121.339844 205.328125 121.195312 205.746094 C 121.046875 206.164062 120.863281 206.566406 120.640625 206.949219 C 120.414062 207.328125 120.15625 207.6875 119.859375 208.015625 C 119.566406 208.347656 119.242188 208.644531 118.890625 208.914062 C 118.535156 209.179688 118.160156 209.410156 117.761719 209.601562 C 117.363281 209.796875 116.949219 209.949219 116.519531 210.058594 C 116.09375 210.171875 115.65625 210.238281 115.214844 210.265625 C 114.773438 210.289062 114.332031 210.273438 113.894531 210.210938 C 113.457031 210.152344 113.027344 210.046875 112.609375 209.902344 C 112.191406 209.757812 111.792969 209.570312 111.410156 209.347656 C 111.027344 209.125 110.671875 208.863281 110.339844 208.570312 C 110.011719 208.273438 109.710938 207.953125 109.445312 207.597656 C 109.179688 207.246094 108.949219 206.867188 108.753906 206.46875 C 108.5625 206.070312 108.410156 205.65625 108.296875 205.230469 C 108.1875 204.800781 108.117188 204.367188 108.09375 203.921875 C 108.066406 203.480469 108.085938 203.042969 108.144531 202.601562 C 108.207031 202.164062 108.308594 201.734375 108.457031 201.316406 C 108.601562 200.898438 108.785156 200.5 109.011719 200.117188 C 109.234375 199.734375 109.492188 199.378906 109.789062 199.046875 C 110.082031 198.71875 110.40625 198.417969 110.757812 198.152344 C 111.113281 197.882812 111.488281 197.65625 111.886719 197.460938 C 112.285156 197.269531 112.699219 197.117188 113.128906 197.003906 C 113.554688 196.894531 113.992188 196.824219 114.433594 196.800781 C 114.875 196.773438 115.316406 196.792969 115.753906 196.851562 C 116.191406 196.914062 116.621094 197.015625 117.039062 197.160156 C 117.457031 197.308594 117.859375 197.492188 118.238281 197.714844 C 118.621094 197.941406 118.976562 198.199219 119.308594 198.496094 C 119.640625 198.789062 119.9375 199.113281 120.207031 199.464844 C 120.472656 199.820312 120.703125 200.195312 120.894531 200.59375 C 121.085938 200.992188 121.238281 201.40625 121.351562 201.835938 Z M 121.351562 201.835938 " fill-opacity="1" fill-rule="nonzero"/><path fill="#ffffff" d="M 118.933594 200.414062 C 119 200.667969 119.015625 200.925781 118.980469 201.1875 C 118.945312 201.445312 118.859375 201.691406 118.726562 201.917969 C 118.59375 202.144531 118.421875 202.335938 118.210938 202.496094 C 118 202.652344 117.769531 202.765625 117.515625 202.832031 C 117.261719 202.898438 117.003906 202.914062 116.742188 202.878906 C 116.480469 202.839844 116.238281 202.757812 116.011719 202.625 C 115.785156 202.488281 115.589844 202.320312 115.433594 202.109375 C 115.273438 201.898438 115.160156 201.667969 115.097656 201.414062 C 115.03125 201.15625 115.015625 200.898438 115.050781 200.640625 C 115.085938 200.378906 115.171875 200.136719 115.304688 199.910156 C 115.4375 199.679688 115.609375 199.488281 115.820312 199.332031 C 116.03125 199.171875 116.261719 199.058594 116.515625 198.992188 C 116.769531 198.925781 117.027344 198.910156 117.289062 198.949219 C 117.550781 198.984375 117.792969 199.070312 118.019531 199.203125 C 118.246094 199.335938 118.4375 199.507812 118.597656 199.714844 C 118.757812 199.925781 118.867188 200.160156 118.933594 200.414062 Z M 118.933594 200.414062 " fill-opacity="1" fill-rule="nonzero"/><path fill="#70512e" d="M 142.847656 221.730469 C 142.722656 221.644531 142.617188 221.667969 142.535156 221.792969 C 142.261719 222.242188 141.867188 222.53125 141.351562 222.660156 C 140.839844 222.792969 140.324219 222.804688 139.804688 222.695312 C 139.253906 222.574219 138.734375 222.378906 138.242188 222.105469 C 137.785156 221.847656 137.34375 221.570312 136.917969 221.269531 L 135.296875 216.027344 C 135.25 215.882812 135.160156 215.777344 135.027344 215.707031 C 134.894531 215.636719 134.753906 215.621094 134.609375 215.667969 C 134.464844 215.714844 134.359375 215.804688 134.289062 215.9375 C 134.21875 216.070312 134.207031 216.210938 134.246094 216.355469 L 135.886719 221.648438 C 135.488281 222.796875 134.921875 223.914062 134.082031 224.753906 C 133.644531 225.1875 133.109375 225.527344 132.558594 225.578125 C 132.007812 225.628906 131.5 225.265625 131.195312 224.730469 C 131.128906 224.589844 131.023438 224.550781 130.882812 224.617188 C 130.742188 224.683594 130.703125 224.785156 130.769531 224.925781 L 130.777344 224.945312 C 130.902344 225.285156 131.054688 225.664062 131.386719 225.929688 C 131.683594 226.238281 132.140625 226.382812 132.570312 226.398438 C 133.457031 226.417969 134.160156 225.945312 134.714844 225.472656 C 135.257812 224.980469 135.71875 224.425781 136.097656 223.800781 C 136.34375 223.414062 136.546875 223.007812 136.703125 222.574219 C 136.992188 222.824219 137.304688 223.042969 137.640625 223.222656 C 138.246094 223.574219 138.890625 223.804688 139.574219 223.921875 C 140.265625 224.027344 141.027344 224.046875 141.742188 223.722656 C 142.464844 223.449219 143.042969 222.625 142.933594 221.886719 C 142.929688 221.820312 142.898438 221.769531 142.847656 221.730469 Z M 142.847656 221.730469 " fill-opacity="1" fill-rule="nonzero"/><path fill="#753f23" d="M 135.988281 219.171875 C 135.617188 219.417969 135.207031 219.519531 134.761719 219.476562 C 132.496094 219.273438 125.433594 218.195312 124.960938 212.511719 C 124.398438 205.734375 141.441406 203.355469 142.433594 209.359375 C 143.257812 214.355469 138.65625 217.4375 135.988281 219.171875 Z M 135.988281 219.171875 " fill-opacity="1" fill-rule="nonzero"/><path fill="#f5e1df" d="M 140.296875 208.15625 C 140.058594 207.960938 139.785156 207.832031 139.480469 207.777344 C 139.175781 207.71875 138.875 207.742188 138.582031 207.839844 C 137.910156 208.050781 138.351562 209.058594 139.015625 208.84375 C 139.21875 208.777344 139.671875 208.929688 139.773438 209.140625 C 139.839844 209.28125 139.746094 209.570312 139.773438 209.730469 C 139.859375 210.433594 140.9375 210.265625 140.855469 209.566406 C 140.824219 209.328125 140.898438 209.097656 140.832031 208.855469 C 140.746094 208.558594 140.535156 208.347656 140.296875 208.15625 Z M 140.296875 208.15625 " fill-opacity="0.3" fill-rule="nonzero"/><path fill="#d6a064" d="M 194.660156 192.855469 C 194.394531 191.980469 194.066406 191.121094 193.761719 190.257812 L 192.675781 187.925781 C 192.898438 186.367188 192.863281 184.8125 192.570312 183.265625 C 192.265625 181.636719 191.652344 180.132812 190.738281 178.753906 C 189.820312 177.414062 188.703125 176.175781 187.339844 175.296875 C 186.097656 174.394531 184.699219 173.789062 183.289062 173.25 C 183.304688 171.4375 182.425781 169.871094 181.289062 168.664062 C 180.042969 167.386719 178.5 166.496094 176.917969 165.796875 C 173.703125 164.464844 170.273438 163.890625 166.867188 163.539062 C 170.253906 164.042969 173.644531 164.769531 176.730469 166.210938 C 178.25 166.953125 179.683594 167.894531 180.792969 169.121094 C 181.898438 170.304688 182.675781 171.953125 182.519531 173.464844 C 182.496094 173.675781 182.585938 173.824219 182.78125 173.90625 C 184.203125 174.484375 185.601562 175.121094 186.808594 176.046875 C 188.0625 176.890625 189.054688 178.066406 189.867188 179.3125 C 191.46875 181.832031 191.964844 185.039062 191.519531 187.929688 C 191.496094 188.0625 191.515625 188.191406 191.570312 188.316406 L 192.660156 190.707031 C 192.945312 191.53125 193.25 192.351562 193.496094 193.183594 C 193.898438 194.867188 194.226562 196.585938 194.105469 198.296875 C 194.019531 200.015625 193.585938 201.636719 192.796875 203.167969 C 192.015625 204.679688 190.933594 205.929688 189.554688 206.921875 L 189.542969 206.929688 C 189.289062 207.109375 189.195312 207.347656 189.261719 207.652344 L 189.824219 210.21875 C 189.929688 211.078125 190.042969 211.945312 190.113281 212.808594 C 190.136719 214.53125 190.078125 216.28125 189.53125 217.902344 C 189.023438 219.546875 188.164062 220.984375 186.953125 222.214844 C 185.742188 223.4375 184.316406 224.296875 182.671875 224.800781 C 182.542969 224.839844 182.433594 224.917969 182.355469 225.027344 C 182.273438 225.140625 182.234375 225.261719 182.234375 225.402344 L 182.28125 227.765625 C 182.183594 228.539062 182.199219 229.335938 182.015625 230.09375 C 181.742188 231.644531 181.175781 233.074219 180.308594 234.390625 C 178.589844 236.980469 175.542969 238.589844 172.472656 238.996094 L 172.453125 238.996094 C 172.300781 239.015625 172.203125 239.101562 172.160156 239.246094 C 171.753906 240.566406 171.3125 241.871094 170.695312 243.105469 C 170.078125 244.34375 169.328125 245.507812 168.386719 246.519531 C 166.527344 248.53125 163.902344 249.976562 161.082031 250.03125 C 163.898438 250.101562 166.644531 248.757812 168.644531 246.773438 C 169.660156 245.773438 170.46875 244.59375 171.175781 243.363281 C 171.523438 242.742188 171.796875 242.085938 172.109375 241.449219 L 172.757812 239.648438 C 175.996094 239.242188 179.136719 237.660156 181.074219 234.929688 C 182.050781 233.523438 182.710938 231.980469 183.050781 230.304688 C 183.261719 229.488281 183.273438 228.644531 183.394531 227.8125 L 183.371094 225.757812 C 186.867188 224.605469 189.609375 221.730469 190.699219 218.273438 C 191.3125 216.480469 191.390625 214.59375 191.378906 212.75 C 191.3125 211.832031 191.203125 210.914062 191.09375 210.003906 L 190.609375 207.707031 C 193.574219 205.464844 195.199219 201.921875 195.351562 198.355469 C 195.46875 196.476562 195.105469 194.640625 194.660156 192.855469 Z M 194.660156 192.855469 " fill-opacity="1" fill-rule="nonzero"/><path fill="#d6a064" d="M 247.871094 143.066406 C 245.238281 149.285156 244.714844 157.320312 244.445312 163.988281 C 244.160156 171.242188 244.714844 178.429688 246.105469 185.554688 C 246.886719 189.578125 247.996094 193.503906 249.195312 197.425781 C 245.980469 191.507812 244.238281 183.667969 243.371094 177.015625 C 242.410156 169.617188 242.679688 162.261719 244.183594 154.949219 C 245.023438 150.871094 246.253906 146.910156 247.871094 143.066406 Z M 247.871094 143.066406 " fill-opacity="1" fill-rule="nonzero"/><path fill="#d6a064" d="M 220.199219 210.085938 C 218.636719 206.421875 216.085938 203.066406 212.574219 201.167969 C 213.4375 201.015625 214.3125 201.335938 215.101562 201.71875 C 217.019531 202.664062 218.679688 203.9375 220.089844 205.542969 C 221.496094 207.152344 222.542969 208.964844 223.226562 210.992188 C 224.496094 214.820312 224.410156 219.9375 222.144531 223.40625 C 222.191406 221.894531 222.625 220.425781 222.492188 218.871094 C 222.242188 215.917969 221.359375 212.804688 220.199219 210.085938 Z M 220.199219 210.085938 " fill-opacity="1" fill-rule="nonzero"/><g clip-path="url(#ab794706f2)"><path fill="#f2d2b3" d="M 300.246094 63.679688 C 300.226562 62.226562 297.933594 61.808594 297.632812 63.324219 C 297.011719 66.398438 296.519531 69.484375 295.921875 72.558594 C 295.96875 69.96875 295.789062 67.398438 295.375 64.839844 C 295.5 55.226562 294.289062 44.390625 285.851562 39.347656 C 284.636719 38.621094 283.480469 40.023438 284.027344 41.167969 C 284.707031 42.582031 285.316406 43.980469 285.902344 45.378906 C 279.882812 35.285156 268.011719 25.785156 264.03125 24.917969 C 264.179688 27.929688 267.140625 30.953125 268.714844 33.378906 C 268.972656 33.773438 269.199219 34.183594 269.445312 34.582031 C 269.738281 35.175781 270.042969 35.761719 270.351562 36.34375 C 269.4375 35.796875 268.492188 35.285156 267.519531 34.824219 C 260.546875 29.667969 250.828125 24.339844 242.082031 26.367188 C 241.097656 26.597656 240.804688 27.910156 241.496094 28.589844 C 241.855469 28.933594 242.25 29.230469 242.679688 29.480469 C 235.421875 28.796875 227.78125 29.609375 220.898438 30.832031 C 212.535156 32.324219 199.738281 35.976562 194.003906 42.609375 C 193.199219 43.542969 193.789062 44.742188 194.945312 44.882812 C 196.585938 45.082031 198.226562 44.929688 199.878906 44.847656 C 199.246094 45.164062 198.609375 45.46875 197.964844 45.789062 C 193.359375 48.066406 188.070312 50.367188 184.863281 54.546875 C 184.070312 55.574219 185.375 56.671875 186.363281 56.5 C 188.425781 56.152344 190.46875 56.25 192.507812 56.175781 C 192.359375 56.484375 192.175781 56.769531 192.035156 57.082031 C 191.015625 58.304688 190.078125 59.625 189.023438 60.75 C 187.070312 62.847656 185.207031 64.53125 183.933594 67.148438 C 181.207031 72.75 180.4375 79.847656 180.902344 86 C 181.035156 87.742188 183.355469 87.679688 183.566406 86 C 184.015625 82.398438 184.71875 78.019531 186.347656 74.464844 C 184.703125 90.855469 197.957031 107.855469 215.308594 107.851562 C 218.214844 107.851562 218.632812 104.039062 216.601562 102.882812 C 216.445312 102.171875 216.054688 101.632812 215.429688 101.261719 C 205.535156 95.121094 206.808594 86.914062 212.632812 79.785156 C 213.148438 79.148438 213.679688 78.609375 214.214844 78.070312 C 214.0625 79.351562 214.09375 80.617188 214.609375 81.789062 C 215 82.671875 216.515625 82.648438 216.910156 81.789062 C 218.464844 78.425781 219.664062 75.527344 222.253906 72.941406 C 222.78125 72.75 223.339844 72.59375 223.890625 72.429688 C 222.652344 74.601562 222.050781 77.351562 221.316406 79.644531 C 220.929688 81.316406 223.359375 81.988281 223.882812 80.351562 C 224.703125 76.800781 230.917969 73.382812 234.0625 72.535156 C 236.605469 71.851562 239.40625 71.828125 242.175781 71.902344 C 239.6875 72.015625 237.375 72.800781 235.773438 75.125 C 235.285156 75.835938 235.785156 76.878906 236.570312 77.082031 C 239.683594 77.882812 243.789062 76.480469 247.097656 76.601562 C 248.496094 76.652344 249.8125 77.027344 251.054688 77.582031 C 250.472656 77.507812 249.886719 77.484375 249.300781 77.507812 C 248.109375 77.566406 247.328125 79.414062 248.628906 79.988281 C 254.421875 82.53125 256.960938 86.929688 258.183594 92.925781 C 258.246094 93.324219 258.464844 93.609375 258.835938 93.773438 C 259.324219 96.402344 259.597656 99.054688 259.652344 101.726562 C 259.648438 102.179688 259.761719 102.601562 259.992188 102.988281 C 260.226562 103.375 260.539062 103.675781 260.9375 103.890625 C 267.078125 116.492188 282.539062 103.425781 289.625 93.363281 C 299.105469 89.734375 300.363281 72.050781 300.246094 63.679688 Z M 300.246094 63.679688 " fill-opacity="1" fill-rule="nonzero"/></g><g fill="#000000" fill-opacity="1"><g transform="translate(43.953861, 298.509849)"><g><path d="M 8.734375 -5.875 C 9.484375 -6.582031 10.109375 -7.210938 10.609375 -7.765625 C 11.117188 -8.316406 11.535156 -8.8125 11.859375 -9.25 C 12.191406 -9.695312 12.46875 -10.09375 12.6875 -10.4375 C 12.90625 -10.789062 13.09375 -11.109375 13.25 -11.390625 C 13.414062 -11.679688 13.597656 -11.957031 13.796875 -12.21875 C 13.992188 -12.488281 14.234375 -12.757812 14.515625 -13.03125 C 14.773438 -13.269531 15.03125 -13.390625 15.28125 -13.390625 C 15.53125 -13.390625 15.765625 -13.320312 15.984375 -13.1875 C 16.203125 -13.0625 16.394531 -12.910156 16.5625 -12.734375 C 16.726562 -12.566406 16.863281 -12.425781 16.96875 -12.3125 L 18.625 -10.53125 C 18.738281 -10.40625 18.882812 -10.234375 19.0625 -10.015625 C 19.25 -9.796875 19.394531 -9.550781 19.5 -9.28125 C 19.601562 -9.019531 19.597656 -8.742188 19.484375 -8.453125 L 19.484375 -8.46875 L 15.953125 1.5 C 16.671875 0.820312 17.269531 0.21875 17.75 -0.3125 C 18.238281 -0.851562 18.640625 -1.335938 18.953125 -1.765625 C 19.265625 -2.191406 19.519531 -2.570312 19.71875 -2.90625 C 19.925781 -3.25 20.113281 -3.5625 20.28125 -3.84375 C 20.457031 -4.132812 20.640625 -4.40625 20.828125 -4.65625 C 21.015625 -4.914062 21.25 -5.179688 21.53125 -5.453125 C 21.789062 -5.691406 22.046875 -5.804688 22.296875 -5.796875 C 22.546875 -5.796875 22.78125 -5.734375 23 -5.609375 C 23.21875 -5.484375 23.410156 -5.332031 23.578125 -5.15625 C 23.742188 -4.976562 23.878906 -4.835938 23.984375 -4.734375 L 25.65625 -2.9375 C 25.757812 -2.820312 25.890625 -2.671875 26.046875 -2.484375 C 26.203125 -2.304688 26.335938 -2.101562 26.453125 -1.875 C 26.566406 -1.644531 26.613281 -1.40625 26.59375 -1.15625 C 26.570312 -0.914062 26.429688 -0.675781 26.171875 -0.4375 C 25.890625 -0.164062 25.601562 0.0507812 25.3125 0.21875 C 25.03125 0.394531 24.742188 0.550781 24.453125 0.6875 C 24.160156 0.832031 23.828125 1 23.453125 1.1875 C 23.085938 1.382812 22.671875 1.625 22.203125 1.90625 C 21.734375 2.195312 21.203125 2.570312 20.609375 3.03125 C 20.023438 3.488281 19.359375 4.070312 18.609375 4.78125 C 17.847656 5.476562 17.210938 6.101562 16.703125 6.65625 C 16.203125 7.207031 15.785156 7.707031 15.453125 8.15625 C 15.128906 8.601562 14.859375 9 14.640625 9.34375 C 14.429688 9.6875 14.238281 10.003906 14.0625 10.296875 C 13.894531 10.585938 13.71875 10.863281 13.53125 11.125 C 13.351562 11.382812 13.117188 11.648438 12.828125 11.921875 C 12.566406 12.160156 12.3125 12.28125 12.0625 12.28125 C 11.8125 12.28125 11.578125 12.210938 11.359375 12.078125 C 11.140625 11.953125 10.945312 11.800781 10.78125 11.625 C 10.613281 11.457031 10.476562 11.316406 10.375 11.203125 L 8.703125 9.40625 C 8.617188 9.3125 8.507812 9.1875 8.375 9.03125 C 8.25 8.882812 8.125 8.71875 8 8.53125 C 7.875 8.351562 7.796875 8.15625 7.765625 7.9375 C 7.734375 7.726562 7.757812 7.519531 7.84375 7.3125 L 11.375 -2.625 C 10.65625 -1.945312 10.050781 -1.335938 9.5625 -0.796875 C 9.082031 -0.265625 8.679688 0.210938 8.359375 0.640625 C 8.046875 1.066406 7.785156 1.453125 7.578125 1.796875 C 7.378906 2.140625 7.195312 2.453125 7.03125 2.734375 C 6.863281 3.015625 6.6875 3.285156 6.5 3.546875 C 6.3125 3.804688 6.078125 4.066406 5.796875 4.328125 C 5.535156 4.566406 5.28125 4.6875 5.03125 4.6875 C 4.78125 4.6875 4.546875 4.617188 4.328125 4.484375 C 4.109375 4.359375 3.910156 4.207031 3.734375 4.03125 C 3.566406 3.851562 3.4375 3.710938 3.34375 3.609375 L 1.6875 1.828125 C 1.582031 1.710938 1.453125 1.5625 1.296875 1.375 C 1.140625 1.195312 1.003906 0.992188 0.890625 0.765625 C 0.773438 0.535156 0.726562 0.296875 0.75 0.046875 C 0.769531 -0.191406 0.910156 -0.429688 1.171875 -0.671875 C 1.460938 -0.941406 1.742188 -1.160156 2.015625 -1.328125 C 2.285156 -1.492188 2.570312 -1.648438 2.875 -1.796875 C 3.175781 -1.941406 3.507812 -2.109375 3.875 -2.296875 C 4.238281 -2.484375 4.65625 -2.722656 5.125 -3.015625 C 5.59375 -3.304688 6.117188 -3.679688 6.703125 -4.140625 C 7.296875 -4.597656 7.972656 -5.175781 8.734375 -5.875 Z M 8.734375 -5.875 "/></g></g></g><g fill="#000000" fill-opacity="1"><g transform="translate(56.513438, 311.997781)"><g><path d="M 6.828125 -7.859375 C 7.597656 -8.722656 8.394531 -9.5 9.21875 -10.1875 C 10.050781 -10.882812 10.898438 -11.4375 11.765625 -11.84375 C 12.628906 -12.25 13.515625 -12.484375 14.421875 -12.546875 C 15.335938 -12.609375 16.273438 -12.445312 17.234375 -12.0625 C 18.203125 -11.6875 19.195312 -11.046875 20.21875 -10.140625 C 21.226562 -9.234375 21.972656 -8.328125 22.453125 -7.421875 C 22.929688 -6.515625 23.195312 -5.597656 23.25 -4.671875 C 23.300781 -3.753906 23.171875 -2.84375 22.859375 -1.9375 C 22.546875 -1.039062 22.097656 -0.144531 21.515625 0.75 C 20.929688 1.65625 20.25 2.546875 19.46875 3.421875 C 18.6875 4.296875 17.878906 5.070312 17.046875 5.75 C 16.222656 6.4375 15.378906 6.988281 14.515625 7.40625 C 13.648438 7.820312 12.757812 8.054688 11.84375 8.109375 C 10.925781 8.160156 9.988281 8 9.03125 7.625 C 8.070312 7.25 7.085938 6.609375 6.078125 5.703125 C 5.054688 4.796875 4.300781 3.882812 3.8125 2.96875 C 3.332031 2.0625 3.066406 1.148438 3.015625 0.234375 C 2.972656 -0.671875 3.109375 -1.578125 3.421875 -2.484375 C 3.734375 -3.398438 4.179688 -4.304688 4.765625 -5.203125 C 5.359375 -6.097656 6.046875 -6.984375 6.828125 -7.859375 Z M 11.03125 -4.109375 C 10.457031 -3.472656 9.941406 -2.847656 9.484375 -2.234375 C 9.035156 -1.628906 8.695312 -1.046875 8.46875 -0.484375 C 8.25 0.0664062 8.164062 0.585938 8.21875 1.078125 C 8.28125 1.566406 8.539062 2.015625 9 2.421875 C 9.445312 2.828125 9.914062 3.03125 10.40625 3.03125 C 10.90625 3.039062 11.414062 2.898438 11.9375 2.609375 C 12.46875 2.328125 13.007812 1.925781 13.5625 1.40625 C 14.125 0.882812 14.691406 0.304688 15.265625 -0.328125 C 15.828125 -0.960938 16.332031 -1.582031 16.78125 -2.1875 C 17.238281 -2.800781 17.582031 -3.390625 17.8125 -3.953125 C 18.039062 -4.515625 18.125 -5.035156 18.0625 -5.515625 C 18 -6.003906 17.742188 -6.453125 17.296875 -6.859375 C 16.835938 -7.265625 16.363281 -7.472656 15.875 -7.484375 C 15.382812 -7.492188 14.875 -7.351562 14.34375 -7.0625 C 13.8125 -6.769531 13.265625 -6.363281 12.703125 -5.84375 C 12.148438 -5.320312 11.59375 -4.742188 11.03125 -4.109375 Z M 11.03125 -4.109375 "/></g></g></g><g fill="#000000" fill-opacity="1"><g transform="translate(69.447178, 323.677314)"><g><path d="M 1 -0.890625 C 1.226562 -1.210938 1.460938 -1.484375 1.703125 -1.703125 C 1.941406 -1.929688 2.191406 -2.144531 2.453125 -2.34375 C 2.722656 -2.539062 3.015625 -2.769531 3.328125 -3.03125 C 3.648438 -3.289062 4.007812 -3.609375 4.40625 -3.984375 C 4.8125 -4.367188 5.253906 -4.84375 5.734375 -5.40625 C 6.222656 -5.976562 6.769531 -6.679688 7.375 -7.515625 C 7.976562 -8.359375 8.46875 -9.097656 8.84375 -9.734375 C 9.226562 -10.378906 9.535156 -10.953125 9.765625 -11.453125 C 10.003906 -11.953125 10.191406 -12.394531 10.328125 -12.78125 C 10.472656 -13.164062 10.59375 -13.515625 10.6875 -13.828125 C 10.789062 -14.148438 10.910156 -14.457031 11.046875 -14.75 C 11.191406 -15.050781 11.375 -15.359375 11.59375 -15.671875 C 11.800781 -15.960938 12.023438 -16.128906 12.265625 -16.171875 C 12.503906 -16.222656 12.742188 -16.207031 12.984375 -16.125 C 13.234375 -16.050781 13.457031 -15.945312 13.65625 -15.8125 C 13.851562 -15.675781 14.015625 -15.5625 14.140625 -15.46875 L 16.46875 -13.8125 C 16.625 -13.695312 16.78125 -13.554688 16.9375 -13.390625 C 17.101562 -13.234375 17.226562 -13.054688 17.3125 -12.859375 C 17.40625 -12.660156 17.425781 -12.441406 17.375 -12.203125 L 17.390625 -12.21875 L 16.0625 -5.4375 C 16.007812 -5.132812 16.039062 -4.9375 16.15625 -4.84375 C 16.289062 -4.75 16.488281 -4.773438 16.75 -4.921875 C 17.34375 -5.242188 17.957031 -5.601562 18.59375 -6 C 19.238281 -6.394531 19.894531 -6.789062 20.5625 -7.1875 C 21.238281 -7.582031 21.921875 -7.953125 22.609375 -8.296875 C 22.816406 -8.472656 23.035156 -8.554688 23.265625 -8.546875 C 23.492188 -8.535156 23.71875 -8.476562 23.9375 -8.375 C 24.15625 -8.269531 24.34375 -8.160156 24.5 -8.046875 L 27.890625 -5.625 C 28.015625 -5.53125 28.171875 -5.410156 28.359375 -5.265625 C 28.546875 -5.117188 28.71875 -4.941406 28.875 -4.734375 C 29.039062 -4.523438 29.140625 -4.300781 29.171875 -4.0625 C 29.203125 -3.820312 29.113281 -3.554688 28.90625 -3.265625 C 28.6875 -2.953125 28.453125 -2.679688 28.203125 -2.453125 C 27.960938 -2.234375 27.710938 -2.019531 27.453125 -1.8125 C 27.191406 -1.613281 26.898438 -1.382812 26.578125 -1.125 C 26.253906 -0.875 25.894531 -0.554688 25.5 -0.171875 C 25.101562 0.203125 24.660156 0.671875 24.171875 1.234375 C 23.691406 1.804688 23.148438 2.515625 22.546875 3.359375 C 21.941406 4.191406 21.445312 4.925781 21.0625 5.5625 C 20.6875 6.207031 20.378906 6.78125 20.140625 7.28125 C 19.898438 7.78125 19.710938 8.222656 19.578125 8.609375 C 19.441406 9.003906 19.320312 9.359375 19.21875 9.671875 C 19.113281 9.984375 18.992188 10.285156 18.859375 10.578125 C 18.722656 10.878906 18.539062 11.191406 18.3125 11.515625 C 18.101562 11.796875 17.878906 11.960938 17.640625 12.015625 C 17.398438 12.078125 17.15625 12.0625 16.90625 11.96875 C 16.664062 11.882812 16.445312 11.773438 16.25 11.640625 C 16.050781 11.503906 15.890625 11.390625 15.765625 11.296875 L 12.734375 9.125 C 12.535156 8.988281 12.335938 8.835938 12.140625 8.671875 C 11.953125 8.503906 11.789062 8.320312 11.65625 8.125 C 11.519531 7.9375 11.445312 7.726562 11.4375 7.5 C 11.4375 7.269531 11.53125 7.03125 11.71875 6.78125 C 11.945312 6.457031 12.171875 6.175781 12.390625 5.9375 C 12.617188 5.707031 12.851562 5.488281 13.09375 5.28125 C 13.34375 5.070312 13.613281 4.832031 13.90625 4.5625 C 14.207031 4.289062 14.546875 3.953125 14.921875 3.546875 C 15.304688 3.148438 15.734375 2.660156 16.203125 2.078125 C 16.679688 1.503906 17.222656 0.800781 17.828125 -0.03125 L 10.6875 3.28125 C 10.550781 3.363281 10.410156 3.398438 10.265625 3.390625 C 10.117188 3.378906 9.988281 3.332031 9.875 3.25 C 9.632812 3.082031 9.539062 2.835938 9.59375 2.515625 L 10.625 -4.859375 C 10.039062 -4.035156 9.566406 -3.3125 9.203125 -2.6875 C 8.835938 -2.070312 8.546875 -1.523438 8.328125 -1.046875 C 8.109375 -0.566406 7.925781 -0.140625 7.78125 0.234375 C 7.644531 0.617188 7.523438 0.960938 7.421875 1.265625 C 7.316406 1.578125 7.195312 1.878906 7.0625 2.171875 C 6.9375 2.460938 6.765625 2.765625 6.546875 3.078125 C 6.359375 3.328125 6.15625 3.488281 5.9375 3.5625 C 5.726562 3.632812 5.507812 3.632812 5.28125 3.5625 C 5.0625 3.5 4.84375 3.398438 4.625 3.265625 C 4.40625 3.140625 4.195312 3.007812 4 2.875 L 2.015625 1.453125 C 1.890625 1.359375 1.734375 1.238281 1.546875 1.09375 C 1.359375 0.945312 1.179688 0.773438 1.015625 0.578125 C 0.859375 0.378906 0.765625 0.15625 0.734375 -0.09375 C 0.703125 -0.34375 0.789062 -0.609375 1 -0.890625 Z M 1 -0.890625 "/></g></g></g><g fill="#000000" fill-opacity="1"><g transform="translate(87.952183, 336.708064)"><g><path d="M 0.890625 -0.96875 C 1.140625 -1.40625 1.398438 -1.78125 1.671875 -2.09375 C 1.941406 -2.40625 2.242188 -2.722656 2.578125 -3.046875 C 2.910156 -3.367188 3.28125 -3.753906 3.6875 -4.203125 C 4.101562 -4.660156 4.554688 -5.226562 5.046875 -5.90625 C 5.546875 -6.59375 6.09375 -7.460938 6.6875 -8.515625 C 7.1875 -9.378906 7.582031 -10.140625 7.875 -10.796875 C 8.175781 -11.460938 8.410156 -12.046875 8.578125 -12.546875 C 8.753906 -13.054688 8.882812 -13.503906 8.96875 -13.890625 C 9.0625 -14.273438 9.144531 -14.628906 9.21875 -14.953125 C 9.289062 -15.285156 9.375 -15.601562 9.46875 -15.90625 C 9.570312 -16.207031 9.71875 -16.519531 9.90625 -16.84375 C 10.070312 -17.144531 10.269531 -17.328125 10.5 -17.390625 C 10.726562 -17.460938 10.96875 -17.46875 11.21875 -17.40625 C 11.46875 -17.351562 11.695312 -17.269531 11.90625 -17.15625 C 12.125 -17.039062 12.300781 -16.945312 12.4375 -16.875 L 19.59375 -12.8125 C 20.457031 -12.3125 21.125 -11.695312 21.59375 -10.96875 C 22.0625 -10.25 22.304688 -9.46875 22.328125 -8.625 C 22.347656 -7.78125 22.125 -6.941406 21.65625 -6.109375 C 21.445312 -5.742188 21.1875 -5.398438 20.875 -5.078125 C 20.570312 -4.765625 20.207031 -4.492188 19.78125 -4.265625 C 19.363281 -4.046875 18.894531 -3.898438 18.375 -3.828125 C 17.851562 -3.765625 17.28125 -3.8125 16.65625 -3.96875 C 16.414062 -4.03125 16.269531 -4.015625 16.21875 -3.921875 C 16.175781 -3.847656 16.21875 -3.726562 16.34375 -3.5625 C 16.476562 -3.394531 16.640625 -3.179688 16.828125 -2.921875 C 17.023438 -2.660156 17.210938 -2.335938 17.390625 -1.953125 C 17.578125 -1.578125 17.703125 -1.148438 17.765625 -0.671875 C 17.835938 -0.203125 17.816406 0.320312 17.703125 0.90625 C 17.597656 1.488281 17.34375 2.140625 16.9375 2.859375 C 16.6875 3.296875 16.367188 3.710938 15.984375 4.109375 C 15.597656 4.515625 15.144531 4.863281 14.625 5.15625 C 14.101562 5.445312 13.523438 5.648438 12.890625 5.765625 C 12.253906 5.890625 11.5625 5.875 10.8125 5.71875 C 10.0625 5.570312 9.265625 5.257812 8.421875 4.78125 L 1.953125 1.109375 C 1.828125 1.035156 1.671875 0.941406 1.484375 0.828125 C 1.296875 0.710938 1.125 0.570312 0.96875 0.40625 C 0.8125 0.238281 0.71875 0.0390625 0.6875 -0.1875 C 0.65625 -0.414062 0.722656 -0.675781 0.890625 -0.96875 Z M 8.71875 -1.0625 C 8.519531 -0.707031 8.453125 -0.425781 8.515625 -0.21875 C 8.578125 -0.0195312 8.726562 0.144531 8.96875 0.28125 C 9.375 0.507812 9.753906 0.617188 10.109375 0.609375 C 10.460938 0.597656 10.78125 0.507812 11.0625 0.34375 C 11.34375 0.1875 11.582031 0 11.78125 -0.21875 C 11.988281 -0.445312 12.15625 -0.664062 12.28125 -0.875 C 12.394531 -1.070312 12.492188 -1.320312 12.578125 -1.625 C 12.671875 -1.925781 12.710938 -2.238281 12.703125 -2.5625 C 12.703125 -2.882812 12.613281 -3.195312 12.4375 -3.5 C 12.269531 -3.8125 11.984375 -4.082031 11.578125 -4.3125 C 11.335938 -4.445312 11.113281 -4.492188 10.90625 -4.453125 C 10.707031 -4.410156 10.503906 -4.207031 10.296875 -3.84375 C 10.253906 -3.757812 10.179688 -3.617188 10.078125 -3.421875 C 9.972656 -3.222656 9.867188 -3.03125 9.765625 -2.84375 C 9.671875 -2.664062 9.597656 -2.53125 9.546875 -2.4375 C 9.492188 -2.34375 9.410156 -2.203125 9.296875 -2.015625 C 9.191406 -1.835938 9.082031 -1.65625 8.96875 -1.46875 C 8.851562 -1.289062 8.769531 -1.15625 8.71875 -1.0625 Z M 12.84375 -8.34375 C 12.707031 -8.082031 12.679688 -7.867188 12.765625 -7.703125 C 12.847656 -7.535156 13.007812 -7.382812 13.25 -7.25 C 13.65625 -7.019531 14.019531 -6.882812 14.34375 -6.84375 C 14.664062 -6.8125 14.945312 -6.84375 15.1875 -6.9375 C 15.4375 -7.039062 15.644531 -7.164062 15.8125 -7.3125 C 15.976562 -7.457031 16.101562 -7.609375 16.1875 -7.765625 C 16.257812 -7.898438 16.320312 -8.082031 16.375 -8.3125 C 16.425781 -8.539062 16.425781 -8.78125 16.375 -9.03125 C 16.332031 -9.28125 16.210938 -9.535156 16.015625 -9.796875 C 15.828125 -10.066406 15.53125 -10.316406 15.125 -10.546875 C 14.882812 -10.679688 14.671875 -10.742188 14.484375 -10.734375 C 14.296875 -10.722656 14.128906 -10.585938 13.984375 -10.328125 Z M 12.84375 -8.34375 "/></g></g></g><g fill="#000000" fill-opacity="1"><g transform="translate(102.638598, 345.045474)"><g><path d="M 0.796875 -1.078125 C 0.960938 -1.429688 1.140625 -1.738281 1.328125 -2 C 1.515625 -2.269531 1.71875 -2.53125 1.9375 -2.78125 C 2.164062 -3.03125 2.410156 -3.3125 2.671875 -3.625 C 2.929688 -3.945312 3.21875 -4.332031 3.53125 -4.78125 C 3.851562 -5.238281 4.195312 -5.789062 4.5625 -6.4375 C 4.925781 -7.09375 5.316406 -7.890625 5.734375 -8.828125 C 6.160156 -9.773438 6.492188 -10.597656 6.734375 -11.296875 C 6.984375 -12.003906 7.171875 -12.625 7.296875 -13.15625 C 7.429688 -13.695312 7.53125 -14.164062 7.59375 -14.5625 C 7.65625 -14.96875 7.703125 -15.335938 7.734375 -15.671875 C 7.773438 -16.003906 7.832031 -16.328125 7.90625 -16.640625 C 7.988281 -16.960938 8.109375 -17.300781 8.265625 -17.65625 C 8.410156 -17.976562 8.597656 -18.1875 8.828125 -18.28125 C 9.054688 -18.382812 9.296875 -18.421875 9.546875 -18.390625 C 9.796875 -18.359375 10.03125 -18.296875 10.25 -18.203125 C 10.46875 -18.109375 10.648438 -18.03125 10.796875 -17.96875 L 16.703125 -15.3125 C 18.222656 -14.625 19.410156 -13.8125 20.265625 -12.875 C 21.117188 -11.945312 21.625 -10.929688 21.78125 -9.828125 C 21.9375 -8.722656 21.742188 -7.566406 21.203125 -6.359375 C 20.960938 -5.828125 20.65625 -5.347656 20.28125 -4.921875 C 19.90625 -4.492188 19.488281 -4.144531 19.03125 -3.875 C 18.582031 -3.601562 18.113281 -3.410156 17.625 -3.296875 C 17.132812 -3.191406 16.65625 -3.195312 16.1875 -3.3125 C 15.988281 -3.351562 15.847656 -3.320312 15.765625 -3.21875 C 15.753906 -3.207031 15.796875 -3.132812 15.890625 -3 C 15.984375 -2.875 16.082031 -2.695312 16.1875 -2.46875 C 16.300781 -2.238281 16.375 -1.976562 16.40625 -1.6875 C 16.425781 -1.320312 16.4375 -0.894531 16.4375 -0.40625 C 16.4375 0.0703125 16.425781 0.570312 16.40625 1.09375 C 16.394531 1.613281 16.375 2.113281 16.34375 2.59375 C 16.320312 3.082031 16.300781 3.5 16.28125 3.84375 C 16.238281 4.25 16.234375 4.570312 16.265625 4.8125 C 16.296875 5.050781 16.328125 5.238281 16.359375 5.375 C 16.398438 5.519531 16.421875 5.660156 16.421875 5.796875 C 16.421875 5.929688 16.378906 6.09375 16.296875 6.28125 C 16.179688 6.539062 15.972656 6.695312 15.671875 6.75 C 15.378906 6.8125 15.054688 6.765625 14.703125 6.609375 L 9.78125 4.390625 C 9.5625 4.296875 9.375 4.160156 9.21875 3.984375 C 9.070312 3.816406 9.035156 3.609375 9.109375 3.359375 C 9.160156 3.097656 9.242188 2.882812 9.359375 2.71875 C 9.472656 2.5625 9.597656 2.40625 9.734375 2.25 C 9.878906 2.101562 10.003906 1.910156 10.109375 1.671875 C 10.210938 1.429688 10.316406 1.097656 10.421875 0.671875 C 10.523438 0.242188 10.609375 -0.207031 10.671875 -0.6875 C 10.734375 -1.175781 10.765625 -1.648438 10.765625 -2.109375 C 10.773438 -2.566406 10.738281 -2.957031 10.65625 -3.28125 C 10.570312 -3.613281 10.429688 -3.820312 10.234375 -3.90625 C 10.066406 -3.976562 9.925781 -3.976562 9.8125 -3.90625 C 9.695312 -3.832031 9.613281 -3.738281 9.5625 -3.625 C 9.320312 -3.082031 9.148438 -2.550781 9.046875 -2.03125 C 8.941406 -1.507812 8.863281 -1 8.8125 -0.5 C 8.769531 -0.0078125 8.707031 0.460938 8.625 0.921875 C 8.539062 1.378906 8.398438 1.820312 8.203125 2.25 C 8.066406 2.570312 7.878906 2.78125 7.640625 2.875 C 7.410156 2.976562 7.171875 3.007812 6.921875 2.96875 C 6.671875 2.9375 6.4375 2.875 6.21875 2.78125 C 6 2.6875 5.816406 2.609375 5.671875 2.546875 L 2.265625 1.015625 C 2.117188 0.953125 1.9375 0.867188 1.71875 0.765625 C 1.5 0.660156 1.296875 0.523438 1.109375 0.359375 C 0.921875 0.191406 0.785156 -0.00390625 0.703125 -0.234375 C 0.628906 -0.472656 0.660156 -0.753906 0.796875 -1.078125 Z M 12.1875 -9.421875 C 12.0625 -9.160156 12.09375 -8.929688 12.28125 -8.734375 C 12.46875 -8.546875 12.695312 -8.382812 12.96875 -8.25 C 13.476562 -8.007812 13.914062 -7.878906 14.28125 -7.859375 C 14.644531 -7.835938 14.953125 -7.878906 15.203125 -7.984375 C 15.453125 -8.097656 15.648438 -8.238281 15.796875 -8.40625 C 15.953125 -8.582031 16.066406 -8.753906 16.140625 -8.921875 C 16.203125 -9.066406 16.242188 -9.242188 16.265625 -9.453125 C 16.296875 -9.671875 16.265625 -9.90625 16.171875 -10.15625 C 16.085938 -10.40625 15.914062 -10.660156 15.65625 -10.921875 C 15.40625 -11.191406 15.03125 -11.453125 14.53125 -11.703125 C 14.257812 -11.847656 13.988281 -11.921875 13.71875 -11.921875 C 13.445312 -11.921875 13.25 -11.789062 13.125 -11.53125 Z M 12.1875 -9.421875 "/></g></g></g><g fill="#000000" fill-opacity="1"><g transform="translate(119.300341, 352.46473)"><g><path d="M 4.984375 -9.609375 C 5.304688 -10.554688 5.554688 -11.382812 5.734375 -12.09375 C 5.910156 -12.800781 6.03125 -13.414062 6.09375 -13.9375 C 6.164062 -14.457031 6.210938 -14.914062 6.234375 -15.3125 C 6.253906 -15.71875 6.265625 -16.082031 6.265625 -16.40625 C 6.273438 -16.738281 6.300781 -17.0625 6.34375 -17.375 C 6.394531 -17.695312 6.476562 -18.035156 6.59375 -18.390625 C 6.707031 -18.710938 6.867188 -18.925781 7.078125 -19.03125 C 7.296875 -19.144531 7.535156 -19.195312 7.796875 -19.1875 C 8.054688 -19.175781 8.296875 -19.132812 8.515625 -19.0625 C 8.742188 -18.988281 8.929688 -18.929688 9.078125 -18.890625 L 20.125 -15.109375 C 20.519531 -14.972656 20.796875 -14.734375 20.953125 -14.390625 C 21.117188 -14.054688 21.132812 -13.6875 21 -13.28125 L 19.671875 -9.375 C 19.585938 -9.144531 19.492188 -8.910156 19.390625 -8.671875 C 19.285156 -8.429688 19.132812 -8.253906 18.9375 -8.140625 C 18.738281 -8.035156 18.476562 -8.039062 18.15625 -8.15625 C 17.832031 -8.257812 17.546875 -8.46875 17.296875 -8.78125 C 17.054688 -9.09375 16.816406 -9.457031 16.578125 -9.875 C 16.347656 -10.289062 16.070312 -10.71875 15.75 -11.15625 C 15.4375 -11.59375 15.054688 -12.003906 14.609375 -12.390625 C 14.171875 -12.773438 13.625 -13.078125 12.96875 -13.296875 C 12.707031 -13.390625 12.488281 -13.375 12.3125 -13.25 C 12.144531 -13.132812 12 -12.9375 11.875 -12.65625 C 11.75 -12.382812 11.625 -12.0625 11.5 -11.6875 C 11.332031 -11.1875 11.234375 -10.765625 11.203125 -10.421875 C 11.179688 -10.078125 11.273438 -9.789062 11.484375 -9.5625 C 11.703125 -9.332031 12.085938 -9.144531 12.640625 -9 C 13.054688 -8.875 13.421875 -8.789062 13.734375 -8.75 C 14.046875 -8.707031 14.34375 -8.671875 14.625 -8.640625 C 14.90625 -8.609375 15.179688 -8.546875 15.453125 -8.453125 C 15.816406 -8.328125 16.03125 -8.117188 16.09375 -7.828125 C 16.15625 -7.535156 16.144531 -7.257812 16.0625 -7 L 15.125 -4.25 C 15.03125 -4 14.867188 -3.773438 14.640625 -3.578125 C 14.410156 -3.390625 14.113281 -3.359375 13.75 -3.484375 C 13.476562 -3.578125 13.222656 -3.695312 12.984375 -3.84375 C 12.742188 -3.988281 12.488281 -4.140625 12.21875 -4.296875 C 11.945312 -4.460938 11.609375 -4.628906 11.203125 -4.796875 C 10.691406 -4.992188 10.28125 -5.070312 9.96875 -5.03125 C 9.664062 -4.988281 9.414062 -4.832031 9.21875 -4.5625 C 9.019531 -4.289062 8.835938 -3.90625 8.671875 -3.40625 C 8.546875 -3.039062 8.445312 -2.707031 8.375 -2.40625 C 8.300781 -2.101562 8.289062 -1.851562 8.34375 -1.65625 C 8.40625 -1.46875 8.566406 -1.328125 8.828125 -1.234375 C 9.484375 -1.015625 10.101562 -0.921875 10.6875 -0.953125 C 11.28125 -0.984375 11.835938 -1.078125 12.359375 -1.234375 C 12.878906 -1.390625 13.359375 -1.554688 13.796875 -1.734375 C 14.234375 -1.910156 14.644531 -2.046875 15.03125 -2.140625 C 15.425781 -2.242188 15.785156 -2.242188 16.109375 -2.140625 C 16.429688 -2.023438 16.632812 -1.863281 16.71875 -1.65625 C 16.800781 -1.445312 16.8125 -1.21875 16.75 -0.96875 C 16.6875 -0.71875 16.613281 -0.46875 16.53125 -0.21875 L 15.203125 3.6875 C 15.066406 4.09375 14.828125 4.375 14.484375 4.53125 C 14.148438 4.695312 13.785156 4.710938 13.390625 4.578125 L 2.125 0.734375 C 1.988281 0.679688 1.816406 0.613281 1.609375 0.53125 C 1.398438 0.457031 1.207031 0.351562 1.03125 0.21875 C 0.851562 0.0820312 0.722656 -0.0859375 0.640625 -0.296875 C 0.566406 -0.515625 0.585938 -0.789062 0.703125 -1.125 C 0.859375 -1.59375 1.039062 -2.003906 1.25 -2.359375 C 1.457031 -2.722656 1.695312 -3.09375 1.96875 -3.46875 C 2.238281 -3.851562 2.53125 -4.300781 2.84375 -4.8125 C 3.164062 -5.332031 3.503906 -5.972656 3.859375 -6.734375 C 4.210938 -7.503906 4.585938 -8.460938 4.984375 -9.609375 Z M 4.984375 -9.609375 "/></g></g></g><g fill="#000000" fill-opacity="1"><g transform="translate(134.901159, 357.621681)"><g/></g></g><g fill="#000000" fill-opacity="1"><g transform="translate(140.568173, 359.337917)"><g><path d="M 2.421875 0.515625 C 2.273438 0.484375 2.082031 0.4375 1.84375 0.375 C 1.613281 0.320312 1.382812 0.234375 1.15625 0.109375 C 0.9375 -0.00390625 0.765625 -0.164062 0.640625 -0.375 C 0.515625 -0.59375 0.492188 -0.875 0.578125 -1.21875 C 0.648438 -1.601562 0.75 -1.945312 0.875 -2.25 C 1 -2.550781 1.144531 -2.847656 1.3125 -3.140625 C 1.476562 -3.429688 1.65625 -3.753906 1.84375 -4.109375 C 2.03125 -4.472656 2.234375 -4.910156 2.453125 -5.421875 C 2.671875 -5.929688 2.882812 -6.539062 3.09375 -7.25 C 3.3125 -7.957031 3.53125 -8.816406 3.75 -9.828125 C 3.96875 -10.835938 4.125 -11.710938 4.21875 -12.453125 C 4.3125 -13.203125 4.359375 -13.851562 4.359375 -14.40625 C 4.367188 -14.957031 4.363281 -15.4375 4.34375 -15.84375 C 4.320312 -16.257812 4.296875 -16.632812 4.265625 -16.96875 C 4.234375 -17.300781 4.222656 -17.628906 4.234375 -17.953125 C 4.242188 -18.273438 4.289062 -18.625 4.375 -19 C 4.445312 -19.351562 4.582031 -19.597656 4.78125 -19.734375 C 4.976562 -19.878906 5.203125 -19.960938 5.453125 -19.984375 C 5.710938 -20.015625 5.957031 -20.003906 6.1875 -19.953125 C 6.425781 -19.910156 6.617188 -19.875 6.765625 -19.84375 L 12.09375 -18.703125 C 13.394531 -18.421875 14.492188 -17.925781 15.390625 -17.21875 C 16.296875 -16.519531 16.988281 -15.648438 17.46875 -14.609375 C 17.945312 -13.566406 18.222656 -12.382812 18.296875 -11.0625 C 18.367188 -9.75 18.242188 -8.335938 17.921875 -6.828125 C 17.597656 -5.328125 17.132812 -3.988281 16.53125 -2.8125 C 15.925781 -1.632812 15.191406 -0.664062 14.328125 0.09375 C 13.460938 0.863281 12.472656 1.382812 11.359375 1.65625 C 10.253906 1.9375 9.050781 1.9375 7.75 1.65625 Z M 10.203125 -13.8125 L 8.03125 -3.609375 C 7.96875 -3.316406 7.960938 -3.09375 8.015625 -2.9375 C 8.078125 -2.789062 8.164062 -2.675781 8.28125 -2.59375 C 8.394531 -2.507812 8.507812 -2.457031 8.625 -2.4375 C 8.988281 -2.363281 9.363281 -2.457031 9.75 -2.71875 C 10.132812 -2.988281 10.5 -3.378906 10.84375 -3.890625 C 11.195312 -4.410156 11.515625 -5.019531 11.796875 -5.71875 C 12.078125 -6.425781 12.300781 -7.179688 12.46875 -7.984375 C 12.644531 -8.796875 12.75 -9.578125 12.78125 -10.328125 C 12.8125 -11.078125 12.769531 -11.765625 12.65625 -12.390625 C 12.550781 -13.015625 12.378906 -13.523438 12.140625 -13.921875 C 11.898438 -14.316406 11.597656 -14.550781 11.234375 -14.625 C 11.117188 -14.644531 10.992188 -14.644531 10.859375 -14.625 C 10.722656 -14.613281 10.59375 -14.546875 10.46875 -14.421875 C 10.351562 -14.296875 10.265625 -14.09375 10.203125 -13.8125 Z M 10.203125 -13.8125 "/></g></g></g><g fill="#000000" fill-opacity="1"><g transform="translate(156.811533, 362.778493)"><g><path d="M 2.890625 -10.421875 C 3.015625 -11.410156 3.085938 -12.269531 3.109375 -13 C 3.140625 -13.726562 3.132812 -14.351562 3.09375 -14.875 C 3.050781 -15.40625 3 -15.867188 2.9375 -16.265625 C 2.882812 -16.671875 2.828125 -17.03125 2.765625 -17.34375 C 2.703125 -17.664062 2.65625 -17.988281 2.625 -18.3125 C 2.601562 -18.632812 2.617188 -18.984375 2.671875 -19.359375 C 2.710938 -19.703125 2.828125 -19.945312 3.015625 -20.09375 C 3.203125 -20.25 3.421875 -20.347656 3.671875 -20.390625 C 3.921875 -20.429688 4.164062 -20.441406 4.40625 -20.421875 C 4.644531 -20.398438 4.84375 -20.378906 5 -20.359375 L 16.578125 -18.9375 C 16.992188 -18.882812 17.316406 -18.710938 17.546875 -18.421875 C 17.773438 -18.128906 17.867188 -17.769531 17.828125 -17.34375 L 17.3125 -13.25 C 17.289062 -13 17.25 -12.742188 17.1875 -12.484375 C 17.125 -12.234375 17.007812 -12.035156 16.84375 -11.890625 C 16.6875 -11.742188 16.4375 -11.691406 16.09375 -11.734375 C 15.75 -11.773438 15.425781 -11.921875 15.125 -12.171875 C 14.820312 -12.421875 14.507812 -12.722656 14.1875 -13.078125 C 13.863281 -13.441406 13.503906 -13.800781 13.109375 -14.15625 C 12.710938 -14.519531 12.253906 -14.84375 11.734375 -15.125 C 11.222656 -15.414062 10.617188 -15.601562 9.921875 -15.6875 C 9.648438 -15.71875 9.445312 -15.65625 9.3125 -15.5 C 9.175781 -15.351562 9.070312 -15.132812 9 -14.84375 C 8.9375 -14.550781 8.882812 -14.207031 8.84375 -13.8125 C 8.78125 -13.28125 8.769531 -12.84375 8.8125 -12.5 C 8.863281 -12.164062 9.015625 -11.90625 9.265625 -11.71875 C 9.515625 -11.539062 9.929688 -11.4375 10.515625 -11.40625 C 10.941406 -11.375 11.316406 -11.367188 11.640625 -11.390625 C 11.960938 -11.410156 12.257812 -11.4375 12.53125 -11.46875 C 12.8125 -11.5 13.09375 -11.5 13.375 -11.46875 C 13.757812 -11.414062 14.015625 -11.25 14.140625 -10.96875 C 14.265625 -10.695312 14.3125 -10.425781 14.28125 -10.15625 L 13.921875 -7.28125 C 13.890625 -7.007812 13.78125 -6.753906 13.59375 -6.515625 C 13.40625 -6.285156 13.117188 -6.195312 12.734375 -6.25 C 12.453125 -6.28125 12.179688 -6.335938 11.921875 -6.421875 C 11.660156 -6.515625 11.375 -6.613281 11.0625 -6.71875 C 10.757812 -6.832031 10.394531 -6.925781 9.96875 -7 C 9.425781 -7.082031 9.003906 -7.070312 8.703125 -6.96875 C 8.410156 -6.875 8.195312 -6.675781 8.0625 -6.375 C 7.9375 -6.070312 7.84375 -5.65625 7.78125 -5.125 C 7.726562 -4.738281 7.695312 -4.390625 7.6875 -4.078125 C 7.6875 -3.773438 7.734375 -3.53125 7.828125 -3.34375 C 7.921875 -3.164062 8.101562 -3.0625 8.375 -3.03125 C 9.070312 -2.945312 9.703125 -2.976562 10.265625 -3.125 C 10.835938 -3.28125 11.359375 -3.488281 11.828125 -3.75 C 12.304688 -4.007812 12.742188 -4.273438 13.140625 -4.546875 C 13.535156 -4.816406 13.910156 -5.039062 14.265625 -5.21875 C 14.617188 -5.394531 14.96875 -5.460938 15.3125 -5.421875 C 15.65625 -5.378906 15.890625 -5.265625 16.015625 -5.078125 C 16.140625 -4.890625 16.195312 -4.664062 16.1875 -4.40625 C 16.1875 -4.144531 16.171875 -3.882812 16.140625 -3.625 L 15.640625 0.46875 C 15.585938 0.882812 15.410156 1.207031 15.109375 1.4375 C 14.816406 1.675781 14.460938 1.769531 14.046875 1.71875 L 2.234375 0.265625 C 2.085938 0.253906 1.90625 0.234375 1.6875 0.203125 C 1.46875 0.171875 1.253906 0.101562 1.046875 0 C 0.847656 -0.09375 0.6875 -0.238281 0.5625 -0.4375 C 0.445312 -0.632812 0.410156 -0.898438 0.453125 -1.234375 C 0.515625 -1.734375 0.609375 -2.175781 0.734375 -2.5625 C 0.867188 -2.957031 1.03125 -3.367188 1.21875 -3.796875 C 1.40625 -4.234375 1.597656 -4.738281 1.796875 -5.3125 C 2.003906 -5.882812 2.203125 -6.578125 2.390625 -7.390625 C 2.578125 -8.210938 2.742188 -9.222656 2.890625 -10.421875 Z M 2.890625 -10.421875 "/></g></g></g><g fill="#000000" fill-opacity="1"><g transform="translate(173.140606, 364.605349)"><g/></g></g><g fill="#000000" fill-opacity="1"><g transform="translate(179.051376, 365.128916)"><g><path d="M 0.3125 -14.9375 L 0.3125 -19.34375 C 0.3125 -19.78125 0.441406 -20.132812 0.703125 -20.40625 C 0.972656 -20.675781 1.332031 -20.8125 1.78125 -20.8125 L 14.8125 -20.796875 C 15.257812 -20.796875 15.617188 -20.660156 15.890625 -20.390625 C 16.160156 -20.117188 16.296875 -19.765625 16.296875 -19.328125 L 16.296875 -14.921875 C 16.296875 -14.703125 16.21875 -14.523438 16.0625 -14.390625 C 15.90625 -14.253906 15.722656 -14.1875 15.515625 -14.1875 C 15.210938 -14.1875 14.929688 -14.242188 14.671875 -14.359375 C 14.421875 -14.472656 14.171875 -14.617188 13.921875 -14.796875 C 13.671875 -14.984375 13.410156 -15.160156 13.140625 -15.328125 C 12.878906 -15.503906 12.585938 -15.648438 12.265625 -15.765625 C 11.941406 -15.878906 11.578125 -15.9375 11.171875 -15.9375 L 10.953125 -15.9375 L 10.953125 -10.390625 C 10.953125 -9.359375 10.976562 -8.46875 11.03125 -7.71875 C 11.09375 -6.976562 11.175781 -6.335938 11.28125 -5.796875 C 11.382812 -5.253906 11.488281 -4.785156 11.59375 -4.390625 C 11.707031 -3.992188 11.8125 -3.632812 11.90625 -3.3125 C 12.007812 -3 12.09375 -2.679688 12.15625 -2.359375 C 12.21875 -2.046875 12.25 -1.691406 12.25 -1.296875 C 12.25 -0.941406 12.164062 -0.671875 12 -0.484375 C 11.832031 -0.304688 11.625 -0.179688 11.375 -0.109375 C 11.132812 -0.0351562 10.894531 0 10.65625 0 C 10.414062 0.0078125 10.21875 0.015625 10.0625 0.015625 L 6.328125 0 C 6.171875 0 5.972656 0 5.734375 0 C 5.492188 -0.0078125 5.25 -0.0507812 5 -0.125 C 4.757812 -0.195312 4.554688 -0.320312 4.390625 -0.5 C 4.222656 -0.6875 4.140625 -0.957031 4.140625 -1.3125 C 4.140625 -1.707031 4.171875 -2.0625 4.234375 -2.375 C 4.296875 -2.695312 4.375 -3.015625 4.46875 -3.328125 C 4.570312 -3.648438 4.675781 -4.007812 4.78125 -4.40625 C 4.894531 -4.800781 5.003906 -5.269531 5.109375 -5.8125 C 5.210938 -6.351562 5.296875 -6.992188 5.359375 -7.734375 C 5.429688 -8.484375 5.46875 -9.375 5.46875 -10.40625 L 5.46875 -15.953125 L 5.421875 -15.953125 C 5.015625 -15.953125 4.648438 -15.894531 4.328125 -15.78125 C 4.003906 -15.664062 3.707031 -15.519531 3.4375 -15.34375 C 3.175781 -15.175781 2.921875 -15 2.671875 -14.8125 C 2.421875 -14.632812 2.164062 -14.488281 1.90625 -14.375 C 1.65625 -14.257812 1.378906 -14.203125 1.078125 -14.203125 C 0.867188 -14.203125 0.6875 -14.269531 0.53125 -14.40625 C 0.382812 -14.539062 0.3125 -14.71875 0.3125 -14.9375 Z M 0.3125 -14.9375 "/></g></g></g><g fill="#000000" fill-opacity="1"><g transform="translate(196.308174, 365.152554)"><g><path d="M -1.5625 -19.4375 C -1.59375 -19.789062 -1.535156 -20.066406 -1.390625 -20.265625 C -1.242188 -20.460938 -1.050781 -20.609375 -0.8125 -20.703125 C -0.570312 -20.796875 -0.332031 -20.859375 -0.09375 -20.890625 C 0.132812 -20.921875 0.328125 -20.941406 0.484375 -20.953125 L 4.203125 -21.3125 C 4.359375 -21.320312 4.554688 -21.335938 4.796875 -21.359375 C 5.035156 -21.378906 5.28125 -21.363281 5.53125 -21.3125 C 5.78125 -21.257812 6 -21.148438 6.1875 -20.984375 C 6.375 -20.816406 6.484375 -20.554688 6.515625 -20.203125 C 6.546875 -19.816406 6.546875 -19.460938 6.515625 -19.140625 C 6.484375 -18.816406 6.429688 -18.488281 6.359375 -18.15625 C 6.296875 -17.832031 6.226562 -17.46875 6.15625 -17.0625 C 6.082031 -16.65625 6.019531 -16.175781 5.96875 -15.625 C 5.914062 -15.082031 5.894531 -14.4375 5.90625 -13.6875 C 5.914062 -12.9375 5.96875 -12.050781 6.0625 -11.03125 C 6.082031 -10.875 6.101562 -10.613281 6.125 -10.25 C 6.144531 -9.882812 6.175781 -9.46875 6.21875 -9 C 6.269531 -8.539062 6.347656 -8.070312 6.453125 -7.59375 C 6.554688 -7.113281 6.703125 -6.671875 6.890625 -6.265625 C 7.085938 -5.867188 7.332031 -5.554688 7.625 -5.328125 C 7.914062 -5.097656 8.269531 -5.003906 8.6875 -5.046875 C 9.113281 -5.085938 9.445312 -5.25 9.6875 -5.53125 C 9.9375 -5.8125 10.113281 -6.164062 10.21875 -6.59375 C 10.332031 -7.019531 10.394531 -7.476562 10.40625 -7.96875 C 10.414062 -8.457031 10.398438 -8.9375 10.359375 -9.40625 C 10.328125 -9.875 10.285156 -10.285156 10.234375 -10.640625 C 10.179688 -11.003906 10.144531 -11.265625 10.125 -11.421875 C 10.03125 -12.441406 9.914062 -13.320312 9.78125 -14.0625 C 9.644531 -14.800781 9.5 -15.429688 9.34375 -15.953125 C 9.195312 -16.484375 9.046875 -16.941406 8.890625 -17.328125 C 8.742188 -17.710938 8.601562 -18.054688 8.46875 -18.359375 C 8.34375 -18.671875 8.234375 -18.984375 8.140625 -19.296875 C 8.046875 -19.609375 7.984375 -19.957031 7.953125 -20.34375 C 7.921875 -20.695312 7.976562 -20.972656 8.125 -21.171875 C 8.269531 -21.367188 8.460938 -21.515625 8.703125 -21.609375 C 8.941406 -21.710938 9.179688 -21.773438 9.421875 -21.796875 C 9.671875 -21.828125 9.863281 -21.851562 10 -21.875 L 13.71875 -22.21875 C 13.875 -22.238281 14.070312 -22.253906 14.3125 -22.265625 C 14.550781 -22.285156 14.796875 -22.269531 15.046875 -22.21875 C 15.296875 -22.175781 15.515625 -22.070312 15.703125 -21.90625 C 15.898438 -21.738281 16.015625 -21.476562 16.046875 -21.125 C 16.078125 -20.738281 16.078125 -20.382812 16.046875 -20.0625 C 16.015625 -19.738281 15.960938 -19.410156 15.890625 -19.078125 C 15.816406 -18.753906 15.742188 -18.390625 15.671875 -17.984375 C 15.597656 -17.578125 15.535156 -17.097656 15.484375 -16.546875 C 15.441406 -16.003906 15.425781 -15.359375 15.4375 -14.609375 C 15.445312 -13.859375 15.5 -12.972656 15.59375 -11.953125 C 15.644531 -11.421875 15.695312 -10.882812 15.75 -10.34375 C 15.800781 -9.8125 15.851562 -9.296875 15.90625 -8.796875 C 16 -7.765625 15.96875 -6.785156 15.8125 -5.859375 C 15.664062 -4.941406 15.34375 -4.117188 14.84375 -3.390625 C 14.34375 -2.660156 13.625 -2.054688 12.6875 -1.578125 C 11.757812 -1.097656 10.566406 -0.789062 9.109375 -0.65625 C 7.648438 -0.507812 6.414062 -0.582031 5.40625 -0.875 C 4.40625 -1.175781 3.585938 -1.632812 2.953125 -2.25 C 2.328125 -2.875 1.851562 -3.625 1.53125 -4.5 C 1.207031 -5.375 1 -6.328125 0.90625 -7.359375 C 0.851562 -7.859375 0.800781 -8.375 0.75 -8.90625 C 0.707031 -9.445312 0.660156 -9.984375 0.609375 -10.515625 C 0.515625 -11.535156 0.398438 -12.414062 0.265625 -13.15625 C 0.128906 -13.894531 -0.015625 -14.523438 -0.171875 -15.046875 C -0.328125 -15.578125 -0.476562 -16.035156 -0.625 -16.421875 C -0.769531 -16.804688 -0.90625 -17.148438 -1.03125 -17.453125 C -1.164062 -17.765625 -1.28125 -18.078125 -1.375 -18.390625 C -1.46875 -18.703125 -1.53125 -19.050781 -1.5625 -19.4375 Z M -1.5625 -19.4375 "/></g></g></g><g fill="#000000" fill-opacity="1"><g transform="translate(214.928195, 363.139491)"><g/></g></g><g fill="#000000" fill-opacity="1"><g transform="translate(220.941879, 362.453275)"><g><path d="M -0.03125 -1.34375 C -0.125 -1.726562 -0.175781 -2.082031 -0.1875 -2.40625 C -0.195312 -2.726562 -0.1875 -3.054688 -0.15625 -3.390625 C -0.132812 -3.722656 -0.117188 -4.09375 -0.109375 -4.5 C -0.0976562 -4.914062 -0.109375 -5.394531 -0.140625 -5.9375 C -0.171875 -6.488281 -0.238281 -7.132812 -0.34375 -7.875 C -0.457031 -8.613281 -0.640625 -9.484375 -0.890625 -10.484375 C -1.128906 -11.492188 -1.367188 -12.351562 -1.609375 -13.0625 C -1.847656 -13.769531 -2.078125 -14.375 -2.296875 -14.875 C -2.523438 -15.382812 -2.738281 -15.816406 -2.9375 -16.171875 C -3.132812 -16.523438 -3.316406 -16.84375 -3.484375 -17.125 C -3.660156 -17.414062 -3.816406 -17.707031 -3.953125 -18 C -4.097656 -18.300781 -4.21875 -18.640625 -4.3125 -19.015625 C -4.394531 -19.359375 -4.375 -19.640625 -4.25 -19.859375 C -4.125 -20.078125 -3.953125 -20.25 -3.734375 -20.375 C -3.515625 -20.507812 -3.285156 -20.609375 -3.046875 -20.671875 C -2.816406 -20.734375 -2.625 -20.78125 -2.46875 -20.8125 L 0.296875 -21.484375 C 0.492188 -21.535156 0.703125 -21.566406 0.921875 -21.578125 C 1.140625 -21.597656 1.351562 -21.570312 1.5625 -21.5 C 1.769531 -21.4375 1.945312 -21.316406 2.09375 -21.140625 L 2.09375 -21.15625 L 6.375 -15.71875 C 6.570312 -15.476562 6.738281 -15.375 6.875 -15.40625 C 7.039062 -15.445312 7.15625 -15.613281 7.21875 -15.90625 C 7.351562 -16.5625 7.476562 -17.257812 7.59375 -18 C 7.707031 -18.738281 7.832031 -19.492188 7.96875 -20.265625 C 8.113281 -21.046875 8.28125 -21.804688 8.46875 -22.546875 C 8.476562 -22.816406 8.5625 -23.035156 8.71875 -23.203125 C 8.875 -23.367188 9.0625 -23.5 9.28125 -23.59375 C 9.507812 -23.695312 9.722656 -23.769531 9.921875 -23.8125 L 13.953125 -24.796875 C 14.109375 -24.828125 14.300781 -24.867188 14.53125 -24.921875 C 14.757812 -24.972656 15.003906 -24.988281 15.265625 -24.96875 C 15.523438 -24.957031 15.753906 -24.882812 15.953125 -24.75 C 16.160156 -24.613281 16.304688 -24.375 16.390625 -24.03125 C 16.484375 -23.65625 16.539062 -23.300781 16.5625 -22.96875 C 16.582031 -22.644531 16.578125 -22.316406 16.546875 -21.984375 C 16.523438 -21.648438 16.503906 -21.28125 16.484375 -20.875 C 16.472656 -20.46875 16.476562 -19.988281 16.5 -19.4375 C 16.53125 -18.882812 16.601562 -18.238281 16.71875 -17.5 C 16.84375 -16.757812 17.023438 -15.882812 17.265625 -14.875 C 17.515625 -13.875 17.753906 -13.019531 17.984375 -12.3125 C 18.210938 -11.601562 18.441406 -11 18.671875 -10.5 C 18.898438 -10 19.113281 -9.566406 19.3125 -9.203125 C 19.519531 -8.847656 19.707031 -8.523438 19.875 -8.234375 C 20.050781 -7.953125 20.203125 -7.664062 20.328125 -7.375 C 20.460938 -7.082031 20.578125 -6.742188 20.671875 -6.359375 C 20.753906 -6.015625 20.734375 -5.734375 20.609375 -5.515625 C 20.492188 -5.296875 20.320312 -5.117188 20.09375 -4.984375 C 19.875 -4.859375 19.648438 -4.765625 19.421875 -4.703125 C 19.191406 -4.640625 19 -4.59375 18.84375 -4.5625 L 15.234375 -3.6875 C 15.003906 -3.625 14.757812 -3.570312 14.5 -3.53125 C 14.25 -3.5 14.003906 -3.492188 13.765625 -3.515625 C 13.535156 -3.535156 13.332031 -3.617188 13.15625 -3.765625 C 12.976562 -3.910156 12.851562 -4.140625 12.78125 -4.453125 C 12.6875 -4.835938 12.625 -5.1875 12.59375 -5.5 C 12.570312 -5.820312 12.5625 -6.144531 12.5625 -6.46875 C 12.5625 -6.789062 12.554688 -7.15625 12.546875 -7.5625 C 12.535156 -7.96875 12.5 -8.441406 12.4375 -8.984375 C 12.382812 -9.535156 12.296875 -10.175781 12.171875 -10.90625 C 12.046875 -11.644531 11.859375 -12.515625 11.609375 -13.515625 L 9.453125 -5.953125 C 9.429688 -5.796875 9.367188 -5.660156 9.265625 -5.546875 C 9.160156 -5.441406 9.039062 -5.375 8.90625 -5.34375 C 8.625 -5.28125 8.378906 -5.375 8.171875 -5.625 L 3.265625 -11.203125 C 3.503906 -10.234375 3.734375 -9.40625 3.953125 -8.71875 C 4.179688 -8.039062 4.40625 -7.460938 4.625 -6.984375 C 4.851562 -6.503906 5.066406 -6.085938 5.265625 -5.734375 C 5.460938 -5.390625 5.644531 -5.078125 5.8125 -4.796875 C 5.976562 -4.515625 6.128906 -4.226562 6.265625 -3.9375 C 6.398438 -3.65625 6.507812 -3.328125 6.59375 -2.953125 C 6.664062 -2.640625 6.660156 -2.378906 6.578125 -2.171875 C 6.492188 -1.960938 6.351562 -1.796875 6.15625 -1.671875 C 5.957031 -1.546875 5.738281 -1.441406 5.5 -1.359375 C 5.257812 -1.273438 5.019531 -1.207031 4.78125 -1.15625 L 2.421875 -0.578125 C 2.265625 -0.546875 2.066406 -0.503906 1.828125 -0.453125 C 1.597656 -0.398438 1.351562 -0.378906 1.09375 -0.390625 C 0.84375 -0.410156 0.613281 -0.488281 0.40625 -0.625 C 0.195312 -0.757812 0.0507812 -1 -0.03125 -1.34375 Z M -0.03125 -1.34375 "/></g></g></g><g fill="#000000" fill-opacity="1"><g transform="translate(242.976475, 356.996561)"><g><path d="M 1.96875 -0.71875 C 1.675781 -0.613281 1.390625 -0.535156 1.109375 -0.484375 C 0.835938 -0.429688 0.597656 -0.445312 0.390625 -0.53125 C 0.179688 -0.613281 0.03125 -0.78125 -0.0625 -1.03125 C -0.15625 -1.289062 -0.195312 -1.515625 -0.1875 -1.703125 C -0.1875 -1.898438 -0.15625 -2.109375 -0.09375 -2.328125 C -0.03125 -2.546875 0.0390625 -2.796875 0.125 -3.078125 C 0.207031 -3.359375 0.269531 -3.6875 0.3125 -4.0625 C 0.351562 -4.445312 0.359375 -4.921875 0.328125 -5.484375 C 0.285156 -6.335938 0.242188 -7.066406 0.203125 -7.671875 C 0.171875 -8.273438 0.132812 -8.804688 0.09375 -9.265625 C 0.0625 -9.734375 0.03125 -10.164062 0 -10.5625 C -0.03125 -10.96875 -0.0625 -11.363281 -0.09375 -11.75 C -0.132812 -12.144531 -0.171875 -12.578125 -0.203125 -13.046875 C -0.242188 -13.515625 -0.289062 -14.050781 -0.34375 -14.65625 C -0.40625 -15.269531 -0.472656 -16 -0.546875 -16.84375 C -0.585938 -17.425781 -0.628906 -17.875 -0.671875 -18.1875 C -0.722656 -18.507812 -0.78125 -18.769531 -0.84375 -18.96875 C -0.914062 -19.164062 -0.992188 -19.359375 -1.078125 -19.546875 C -1.171875 -19.734375 -1.28125 -19.988281 -1.40625 -20.3125 C -1.425781 -20.382812 -1.457031 -20.484375 -1.5 -20.609375 C -1.539062 -20.734375 -1.554688 -20.878906 -1.546875 -21.046875 C -1.535156 -21.210938 -1.46875 -21.367188 -1.34375 -21.515625 C -1.226562 -21.671875 -1.03125 -21.800781 -0.75 -21.90625 L 2.90625 -23.25 C 3.175781 -23.34375 3.414062 -23.421875 3.625 -23.484375 C 3.84375 -23.554688 4.046875 -23.578125 4.234375 -23.546875 C 4.429688 -23.515625 4.644531 -23.40625 4.875 -23.21875 C 5.113281 -23.039062 5.394531 -22.757812 5.71875 -22.375 C 6.039062 -21.988281 6.4375 -21.472656 6.90625 -20.828125 C 7.476562 -20.023438 7.976562 -19.316406 8.40625 -18.703125 C 8.832031 -18.097656 9.21875 -17.554688 9.5625 -17.078125 C 9.90625 -16.597656 10.234375 -16.128906 10.546875 -15.671875 C 10.859375 -15.222656 11.191406 -14.753906 11.546875 -14.265625 C 11.898438 -13.785156 12.296875 -13.253906 12.734375 -12.671875 C 13.179688 -12.085938 13.695312 -11.394531 14.28125 -10.59375 C 14.625 -10.144531 14.9375 -9.789062 15.21875 -9.53125 C 15.5 -9.269531 15.757812 -9.054688 16 -8.890625 C 16.238281 -8.734375 16.453125 -8.59375 16.640625 -8.46875 C 16.835938 -8.34375 17.003906 -8.207031 17.140625 -8.0625 C 17.273438 -7.914062 17.390625 -7.710938 17.484375 -7.453125 C 17.578125 -7.203125 17.566406 -6.976562 17.453125 -6.78125 C 17.347656 -6.582031 17.175781 -6.414062 16.9375 -6.28125 C 16.695312 -6.144531 16.425781 -6.019531 16.125 -5.90625 L 11.140625 -4.078125 C 10.921875 -4.003906 10.695312 -3.957031 10.46875 -3.9375 C 10.25 -3.925781 10.050781 -3.960938 9.875 -4.046875 C 9.695312 -4.128906 9.566406 -4.28125 9.484375 -4.5 C 9.367188 -4.800781 9.300781 -5.050781 9.28125 -5.25 C 9.269531 -5.445312 9.269531 -5.632812 9.28125 -5.8125 C 9.289062 -5.988281 9.273438 -6.203125 9.234375 -6.453125 C 9.191406 -6.703125 9.097656 -7.035156 8.953125 -7.453125 C 8.867188 -7.671875 8.765625 -7.90625 8.640625 -8.15625 L 5.1875 -6.875 C 5.226562 -6.75 5.273438 -6.632812 5.328125 -6.53125 C 5.390625 -6.425781 5.453125 -6.3125 5.515625 -6.1875 C 5.722656 -5.789062 5.90625 -5.488281 6.0625 -5.28125 C 6.226562 -5.082031 6.375 -4.914062 6.5 -4.78125 C 6.625 -4.65625 6.742188 -4.515625 6.859375 -4.359375 C 6.972656 -4.203125 7.085938 -3.972656 7.203125 -3.671875 C 7.285156 -3.453125 7.285156 -3.25 7.203125 -3.0625 C 7.117188 -2.882812 6.984375 -2.726562 6.796875 -2.59375 C 6.617188 -2.457031 6.425781 -2.351562 6.21875 -2.28125 Z M 3.5 -11.515625 L 5.921875 -12.40625 C 5.640625 -12.78125 5.351562 -13.175781 5.0625 -13.59375 C 4.769531 -14.007812 4.445312 -14.457031 4.09375 -14.9375 C 3.882812 -15.207031 3.695312 -15.429688 3.53125 -15.609375 C 3.375 -15.785156 3.242188 -15.84375 3.140625 -15.78125 C 3.066406 -15.738281 3.03125 -15.582031 3.03125 -15.3125 C 3.03125 -15.039062 3.046875 -14.710938 3.078125 -14.328125 C 3.109375 -13.953125 3.148438 -13.566406 3.203125 -13.171875 C 3.265625 -12.773438 3.328125 -12.425781 3.390625 -12.125 C 3.453125 -11.820312 3.488281 -11.617188 3.5 -11.515625 Z M 3.5 -11.515625 "/></g></g></g><g fill="#000000" fill-opacity="1"><g transform="translate(261.672545, 350.014942)"><g><path d="M -2.140625 -4.140625 C -2.441406 -4.753906 -2.578125 -5.351562 -2.546875 -5.9375 C -2.515625 -6.53125 -2.351562 -7.0625 -2.0625 -7.53125 C -1.78125 -8 -1.414062 -8.34375 -0.96875 -8.5625 C -0.601562 -8.75 -0.222656 -8.835938 0.171875 -8.828125 C 0.566406 -8.816406 0.972656 -8.742188 1.390625 -8.609375 C 1.816406 -8.484375 2.242188 -8.332031 2.671875 -8.15625 C 3.097656 -7.988281 3.519531 -7.832031 3.9375 -7.6875 C 4.351562 -7.550781 4.753906 -7.46875 5.140625 -7.4375 C 5.523438 -7.40625 5.882812 -7.46875 6.21875 -7.625 C 6.632812 -7.832031 6.878906 -8.09375 6.953125 -8.40625 C 7.023438 -8.71875 6.988281 -9.03125 6.84375 -9.34375 C 6.664062 -9.71875 6.390625 -9.960938 6.015625 -10.078125 C 5.648438 -10.203125 5.207031 -10.253906 4.6875 -10.234375 C 4.164062 -10.222656 3.59375 -10.175781 2.96875 -10.09375 C 2.34375 -10.007812 1.695312 -9.925781 1.03125 -9.84375 C 0.375 -9.769531 -0.289062 -9.75 -0.96875 -9.78125 C -1.65625 -9.820312 -2.3125 -9.945312 -2.9375 -10.15625 C -3.570312 -10.375 -4.15625 -10.71875 -4.6875 -11.1875 C -5.21875 -11.65625 -5.6875 -12.300781 -6.09375 -13.125 C -6.675781 -14.34375 -6.878906 -15.53125 -6.703125 -16.6875 C -6.523438 -17.851562 -5.988281 -18.953125 -5.09375 -19.984375 C -4.195312 -21.023438 -2.953125 -21.925781 -1.359375 -22.6875 C -0.609375 -23.050781 0.15625 -23.328125 0.9375 -23.515625 C 1.726562 -23.710938 2.5 -23.796875 3.25 -23.765625 C 4.007812 -23.734375 4.6875 -23.550781 5.28125 -23.21875 C 5.875 -22.894531 6.335938 -22.382812 6.671875 -21.6875 C 6.910156 -21.175781 7.019531 -20.660156 7 -20.140625 C 6.988281 -19.628906 6.851562 -19.15625 6.59375 -18.71875 C 6.332031 -18.28125 5.972656 -17.921875 5.515625 -17.640625 C 5.117188 -17.429688 4.703125 -17.328125 4.265625 -17.328125 C 3.828125 -17.335938 3.378906 -17.40625 2.921875 -17.53125 C 2.460938 -17.664062 2.003906 -17.800781 1.546875 -17.9375 C 1.085938 -18.070312 0.640625 -18.160156 0.203125 -18.203125 C -0.222656 -18.242188 -0.625 -18.175781 -1 -18 C -1.300781 -17.84375 -1.519531 -17.660156 -1.65625 -17.453125 C -1.789062 -17.253906 -1.851562 -17.054688 -1.84375 -16.859375 C -1.832031 -16.660156 -1.789062 -16.488281 -1.71875 -16.34375 C -1.550781 -15.988281 -1.273438 -15.75 -0.890625 -15.625 C -0.503906 -15.5 -0.046875 -15.445312 0.484375 -15.46875 C 1.023438 -15.488281 1.613281 -15.539062 2.25 -15.625 C 2.882812 -15.71875 3.550781 -15.796875 4.25 -15.859375 C 4.957031 -15.921875 5.660156 -15.929688 6.359375 -15.890625 C 7.066406 -15.859375 7.742188 -15.726562 8.390625 -15.5 C 9.046875 -15.28125 9.648438 -14.929688 10.203125 -14.453125 C 10.765625 -13.972656 11.25 -13.3125 11.65625 -12.46875 C 12.082031 -11.570312 12.304688 -10.726562 12.328125 -9.9375 C 12.347656 -9.144531 12.21875 -8.40625 11.9375 -7.71875 C 11.664062 -7.039062 11.289062 -6.421875 10.8125 -5.859375 C 10.34375 -5.304688 9.804688 -4.816406 9.203125 -4.390625 C 8.597656 -3.960938 8.003906 -3.609375 7.421875 -3.328125 C 6.734375 -2.992188 6.015625 -2.703125 5.265625 -2.453125 C 4.523438 -2.210938 3.78125 -2.035156 3.03125 -1.921875 C 2.289062 -1.804688 1.585938 -1.796875 0.921875 -1.890625 C 0.265625 -1.984375 -0.328125 -2.210938 -0.859375 -2.578125 C -1.390625 -2.941406 -1.816406 -3.460938 -2.140625 -4.140625 Z M -2.140625 -4.140625 "/></g></g></g><g fill="#000000" fill-opacity="1"><g transform="translate(276.44356, 342.883483)"><g><path d="M 7.515625 -4.234375 C 6.359375 -3.535156 5.257812 -3.085938 4.21875 -2.890625 C 3.1875 -2.691406 2.210938 -2.703125 1.296875 -2.921875 C 0.390625 -3.140625 -0.460938 -3.523438 -1.265625 -4.078125 C -2.066406 -4.628906 -2.816406 -5.3125 -3.515625 -6.125 C -4.210938 -6.945312 -4.859375 -7.859375 -5.453125 -8.859375 C -6.046875 -9.859375 -6.539062 -10.863281 -6.9375 -11.875 C -7.332031 -12.882812 -7.582031 -13.875 -7.6875 -14.84375 C -7.789062 -15.8125 -7.71875 -16.742188 -7.46875 -17.640625 C -7.226562 -18.546875 -6.769531 -19.40625 -6.09375 -20.21875 C -5.425781 -21.03125 -4.515625 -21.785156 -3.359375 -22.484375 C -2.191406 -23.171875 -1.128906 -23.609375 -0.171875 -23.796875 C 0.773438 -23.992188 1.617188 -24.003906 2.359375 -23.828125 C 3.109375 -23.648438 3.75 -23.351562 4.28125 -22.9375 C 4.8125 -22.53125 5.234375 -22.066406 5.546875 -21.546875 C 5.816406 -21.097656 5.972656 -20.632812 6.015625 -20.15625 C 6.054688 -19.675781 6.015625 -19.210938 5.890625 -18.765625 C 5.765625 -18.316406 5.566406 -17.910156 5.296875 -17.546875 C 5.035156 -17.179688 4.734375 -16.894531 4.390625 -16.6875 C 3.941406 -16.425781 3.460938 -16.34375 2.953125 -16.4375 C 2.453125 -16.539062 2.003906 -16.921875 1.609375 -17.578125 C 1.328125 -18.066406 1.0625 -18.4375 0.8125 -18.6875 C 0.5625 -18.9375 0.285156 -19.066406 -0.015625 -19.078125 C -0.316406 -19.085938 -0.679688 -18.96875 -1.109375 -18.71875 C -1.628906 -18.40625 -1.976562 -18.003906 -2.15625 -17.515625 C -2.332031 -17.035156 -2.375 -16.488281 -2.28125 -15.875 C -2.1875 -15.269531 -1.988281 -14.617188 -1.6875 -13.921875 C -1.394531 -13.222656 -1.03125 -12.503906 -0.59375 -11.765625 C -0.15625 -11.035156 0.296875 -10.367188 0.765625 -9.765625 C 1.242188 -9.171875 1.726562 -8.6875 2.21875 -8.3125 C 2.71875 -7.9375 3.21875 -7.710938 3.71875 -7.640625 C 4.226562 -7.566406 4.742188 -7.6875 5.265625 -8 C 5.691406 -8.25 5.972656 -8.507812 6.109375 -8.78125 C 6.242188 -9.050781 6.257812 -9.351562 6.15625 -9.6875 C 6.0625 -10.03125 5.867188 -10.441406 5.578125 -10.921875 C 5.179688 -11.585938 5.054688 -12.164062 5.203125 -12.65625 C 5.359375 -13.144531 5.660156 -13.519531 6.109375 -13.78125 C 6.453125 -13.988281 6.847656 -14.125 7.296875 -14.1875 C 7.753906 -14.25 8.207031 -14.226562 8.65625 -14.125 C 9.101562 -14.03125 9.53125 -13.847656 9.9375 -13.578125 C 10.34375 -13.304688 10.679688 -12.941406 10.953125 -12.484375 C 11.265625 -11.960938 11.472656 -11.367188 11.578125 -10.703125 C 11.679688 -10.046875 11.628906 -9.347656 11.421875 -8.609375 C 11.222656 -7.867188 10.8125 -7.125 10.1875 -6.375 C 9.570312 -5.632812 8.679688 -4.921875 7.515625 -4.234375 Z M 7.515625 -4.234375 "/></g></g></g><g fill="#000000" fill-opacity="1"><g transform="translate(290.936857, 334.225366)"><g><path d="M -6.234375 -8.34375 C -6.910156 -9.28125 -7.5 -10.222656 -8 -11.171875 C -8.5 -12.117188 -8.859375 -13.0625 -9.078125 -14 C -9.296875 -14.945312 -9.335938 -15.867188 -9.203125 -16.765625 C -9.066406 -17.671875 -8.710938 -18.550781 -8.140625 -19.40625 C -7.566406 -20.269531 -6.726562 -21.101562 -5.625 -21.90625 C -4.53125 -22.707031 -3.484375 -23.242188 -2.484375 -23.515625 C -1.492188 -23.796875 -0.546875 -23.863281 0.359375 -23.71875 C 1.265625 -23.570312 2.125 -23.25 2.9375 -22.75 C 3.757812 -22.25 4.546875 -21.617188 5.296875 -20.859375 C 6.054688 -20.097656 6.78125 -19.242188 7.46875 -18.296875 C 8.15625 -17.347656 8.742188 -16.394531 9.234375 -15.4375 C 9.722656 -14.488281 10.078125 -13.546875 10.296875 -12.609375 C 10.523438 -11.679688 10.570312 -10.757812 10.4375 -9.84375 C 10.300781 -8.9375 9.941406 -8.054688 9.359375 -7.203125 C 8.785156 -6.347656 7.953125 -5.519531 6.859375 -4.71875 C 5.753906 -3.914062 4.707031 -3.375 3.71875 -3.09375 C 2.726562 -2.8125 1.78125 -2.75 0.875 -2.90625 C -0.03125 -3.0625 -0.894531 -3.382812 -1.71875 -3.875 C -2.539062 -4.363281 -3.328125 -4.992188 -4.078125 -5.765625 C -4.828125 -6.535156 -5.546875 -7.394531 -6.234375 -8.34375 Z M -1.6875 -11.640625 C -1.175781 -10.941406 -0.671875 -10.304688 -0.171875 -9.734375 C 0.316406 -9.171875 0.8125 -8.71875 1.3125 -8.375 C 1.8125 -8.039062 2.304688 -7.851562 2.796875 -7.8125 C 3.285156 -7.769531 3.773438 -7.925781 4.265625 -8.28125 C 4.753906 -8.632812 5.050781 -9.050781 5.15625 -9.53125 C 5.269531 -10.007812 5.242188 -10.535156 5.078125 -11.109375 C 4.910156 -11.691406 4.632812 -12.304688 4.25 -12.953125 C 3.863281 -13.609375 3.414062 -14.285156 2.90625 -14.984375 C 2.40625 -15.671875 1.90625 -16.296875 1.40625 -16.859375 C 0.90625 -17.429688 0.40625 -17.890625 -0.09375 -18.234375 C -0.601562 -18.578125 -1.097656 -18.769531 -1.578125 -18.8125 C -2.066406 -18.851562 -2.554688 -18.695312 -3.046875 -18.34375 C -3.535156 -17.988281 -3.835938 -17.570312 -3.953125 -17.09375 C -4.066406 -16.613281 -4.035156 -16.082031 -3.859375 -15.5 C -3.691406 -14.914062 -3.410156 -14.296875 -3.015625 -13.640625 C -2.628906 -12.992188 -2.1875 -12.328125 -1.6875 -11.640625 Z M -1.6875 -11.640625 "/></g></g></g><g fill="#000000" fill-opacity="1"><g transform="translate(304.918997, 324.024767)"><g><path d="M -9.640625 -11.421875 L -12.546875 -14.734375 C -12.835938 -15.066406 -12.96875 -15.421875 -12.9375 -15.796875 C -12.914062 -16.171875 -12.738281 -16.507812 -12.40625 -16.8125 L -2.609375 -25.40625 C -2.273438 -25.695312 -1.914062 -25.832031 -1.53125 -25.8125 C -1.15625 -25.789062 -0.820312 -25.613281 -0.53125 -25.28125 L 2.375 -21.96875 C 2.519531 -21.8125 2.578125 -21.628906 2.546875 -21.421875 C 2.515625 -21.210938 2.421875 -21.039062 2.265625 -20.90625 C 2.046875 -20.695312 1.800781 -20.550781 1.53125 -20.46875 C 1.269531 -20.394531 0.984375 -20.34375 0.671875 -20.3125 C 0.367188 -20.28125 0.0625 -20.242188 -0.25 -20.203125 C -0.570312 -20.160156 -0.890625 -20.070312 -1.203125 -19.9375 C -1.523438 -19.8125 -1.835938 -19.613281 -2.140625 -19.34375 L -2.3125 -19.203125 L 1.359375 -15.03125 C 2.035156 -14.257812 2.640625 -13.613281 3.171875 -13.09375 C 3.710938 -12.582031 4.203125 -12.15625 4.640625 -11.8125 C 5.078125 -11.46875 5.46875 -11.179688 5.8125 -10.953125 C 6.15625 -10.734375 6.46875 -10.535156 6.75 -10.359375 C 7.03125 -10.191406 7.300781 -10.007812 7.5625 -9.8125 C 7.820312 -9.613281 8.082031 -9.363281 8.34375 -9.0625 C 8.570312 -8.800781 8.679688 -8.546875 8.671875 -8.296875 C 8.671875 -8.046875 8.601562 -7.8125 8.46875 -7.59375 C 8.332031 -7.382812 8.175781 -7.195312 8 -7.03125 C 7.820312 -6.875 7.675781 -6.742188 7.5625 -6.640625 L 4.75 -4.171875 C 4.632812 -4.066406 4.484375 -3.9375 4.296875 -3.78125 C 4.109375 -3.632812 3.898438 -3.503906 3.671875 -3.390625 C 3.441406 -3.285156 3.203125 -3.25 2.953125 -3.28125 C 2.710938 -3.3125 2.476562 -3.457031 2.25 -3.71875 C 1.988281 -4.019531 1.773438 -4.3125 1.609375 -4.59375 C 1.441406 -4.875 1.289062 -5.160156 1.15625 -5.453125 C 1.019531 -5.753906 0.863281 -6.085938 0.6875 -6.453125 C 0.507812 -6.828125 0.28125 -7.253906 0 -7.734375 C -0.28125 -8.210938 -0.640625 -8.75 -1.078125 -9.34375 C -1.523438 -9.945312 -2.085938 -10.632812 -2.765625 -11.40625 L -6.4375 -15.578125 L -6.46875 -15.546875 C -6.769531 -15.285156 -7.003906 -15.003906 -7.171875 -14.703125 C -7.335938 -14.410156 -7.460938 -14.109375 -7.546875 -13.796875 C -7.628906 -13.492188 -7.703125 -13.191406 -7.765625 -12.890625 C -7.835938 -12.585938 -7.929688 -12.304688 -8.046875 -12.046875 C -8.171875 -11.796875 -8.347656 -11.570312 -8.578125 -11.375 C -8.734375 -11.238281 -8.910156 -11.171875 -9.109375 -11.171875 C -9.316406 -11.179688 -9.492188 -11.265625 -9.640625 -11.421875 Z M -9.640625 -11.421875 "/></g></g></g><g fill="#000000" fill-opacity="1"><g transform="translate(317.922588, 312.645148)"><g><path d="M 1.421875 -1.53125 C 1.210938 -1.300781 0.992188 -1.097656 0.765625 -0.921875 C 0.546875 -0.753906 0.328125 -0.660156 0.109375 -0.640625 C -0.109375 -0.617188 -0.316406 -0.703125 -0.515625 -0.890625 C -0.710938 -1.078125 -0.851562 -1.257812 -0.9375 -1.4375 C -1.019531 -1.613281 -1.082031 -1.8125 -1.125 -2.03125 C -1.175781 -2.257812 -1.222656 -2.515625 -1.265625 -2.796875 C -1.316406 -3.078125 -1.410156 -3.398438 -1.546875 -3.765625 C -1.691406 -4.128906 -1.898438 -4.554688 -2.171875 -5.046875 C -2.585938 -5.785156 -2.953125 -6.414062 -3.265625 -6.9375 C -3.578125 -7.457031 -3.851562 -7.914062 -4.09375 -8.3125 C -4.332031 -8.71875 -4.554688 -9.085938 -4.765625 -9.421875 C -4.972656 -9.765625 -5.179688 -10.101562 -5.390625 -10.4375 C -5.609375 -10.769531 -5.835938 -11.140625 -6.078125 -11.546875 C -6.316406 -11.953125 -6.601562 -12.410156 -6.9375 -12.921875 C -7.269531 -13.441406 -7.65625 -14.066406 -8.09375 -14.796875 C -8.382812 -15.285156 -8.625 -15.660156 -8.8125 -15.921875 C -9.007812 -16.191406 -9.175781 -16.398438 -9.3125 -16.546875 C -9.457031 -16.691406 -9.613281 -16.828125 -9.78125 -16.953125 C -9.957031 -17.085938 -10.171875 -17.265625 -10.421875 -17.484375 C -10.472656 -17.535156 -10.546875 -17.609375 -10.640625 -17.703125 C -10.742188 -17.804688 -10.828125 -17.929688 -10.890625 -18.078125 C -10.953125 -18.234375 -10.960938 -18.40625 -10.921875 -18.59375 C -10.878906 -18.78125 -10.753906 -18.984375 -10.546875 -19.203125 L -7.890625 -22.046875 C -7.691406 -22.265625 -7.515625 -22.445312 -7.359375 -22.59375 C -7.203125 -22.738281 -7.03125 -22.84375 -6.84375 -22.90625 C -6.65625 -22.976562 -6.414062 -22.984375 -6.125 -22.921875 C -5.84375 -22.859375 -5.46875 -22.726562 -5 -22.53125 C -4.539062 -22.34375 -3.953125 -22.0625 -3.234375 -21.6875 C -2.367188 -21.238281 -1.601562 -20.835938 -0.9375 -20.484375 C -0.28125 -20.140625 0.304688 -19.828125 0.828125 -19.546875 C 1.347656 -19.273438 1.847656 -19.007812 2.328125 -18.75 C 2.816406 -18.488281 3.328125 -18.222656 3.859375 -17.953125 C 4.390625 -17.679688 4.984375 -17.382812 5.640625 -17.0625 C 6.304688 -16.738281 7.082031 -16.351562 7.96875 -15.90625 C 8.46875 -15.664062 8.898438 -15.488281 9.265625 -15.375 C 9.640625 -15.257812 9.96875 -15.1875 10.25 -15.15625 C 10.539062 -15.125 10.800781 -15.09375 11.03125 -15.0625 C 11.257812 -15.039062 11.46875 -14.992188 11.65625 -14.921875 C 11.84375 -14.859375 12.035156 -14.734375 12.234375 -14.546875 C 12.429688 -14.359375 12.519531 -14.148438 12.5 -13.921875 C 12.488281 -13.703125 12.410156 -13.476562 12.265625 -13.25 C 12.117188 -13.019531 11.9375 -12.785156 11.71875 -12.546875 L 8.09375 -8.671875 C 7.9375 -8.503906 7.757812 -8.363281 7.5625 -8.25 C 7.375 -8.132812 7.175781 -8.070312 6.96875 -8.0625 C 6.769531 -8.0625 6.585938 -8.140625 6.421875 -8.296875 C 6.179688 -8.515625 6.007812 -8.707031 5.90625 -8.875 C 5.8125 -9.039062 5.722656 -9.207031 5.640625 -9.375 C 5.566406 -9.539062 5.457031 -9.722656 5.3125 -9.921875 C 5.175781 -10.128906 4.945312 -10.382812 4.625 -10.6875 C 4.445312 -10.84375 4.25 -11.003906 4.03125 -11.171875 L 1.515625 -8.46875 C 1.609375 -8.382812 1.707031 -8.304688 1.8125 -8.234375 C 1.925781 -8.160156 2.03125 -8.085938 2.125 -8.015625 C 2.488281 -7.765625 2.785156 -7.582031 3.015625 -7.46875 C 3.253906 -7.363281 3.457031 -7.28125 3.625 -7.21875 C 3.800781 -7.15625 3.972656 -7.078125 4.140625 -6.984375 C 4.316406 -6.890625 4.523438 -6.734375 4.765625 -6.515625 C 4.929688 -6.359375 5.019531 -6.179688 5.03125 -5.984375 C 5.039062 -5.785156 4.992188 -5.582031 4.890625 -5.375 C 4.796875 -5.175781 4.671875 -5 4.515625 -4.84375 Z M -2.078125 -11.859375 L -0.328125 -13.75 C -0.734375 -13.957031 -1.164062 -14.179688 -1.625 -14.421875 C -2.082031 -14.660156 -2.570312 -14.910156 -3.09375 -15.171875 C -3.394531 -15.328125 -3.65625 -15.445312 -3.875 -15.53125 C -4.101562 -15.613281 -4.253906 -15.609375 -4.328125 -15.515625 C -4.378906 -15.429688 -4.34375 -15.269531 -4.21875 -15.03125 C -4.09375 -14.789062 -3.925781 -14.503906 -3.71875 -14.171875 C -3.519531 -13.847656 -3.304688 -13.519531 -3.078125 -13.1875 C -2.847656 -12.863281 -2.640625 -12.582031 -2.453125 -12.34375 C -2.265625 -12.101562 -2.140625 -11.941406 -2.078125 -11.859375 Z M -2.078125 -11.859375 "/></g></g></g></svg>