<svg xmlns="http://www.w3.org/2000/svg" xmlns:xlink="http://www.w3.org/1999/xlink" width="500" zoomAndPan="magnify" viewBox="0 0 375 374.999991" height="500" preserveAspectRatio="xMidYMid meet" version="1.0"><defs><g/><clipPath id="dfb3143f6b"><path d="M 0 2.878906 L 369.242188 2.878906 L 369.242188 372.121094 L 0 372.121094 Z M 0 2.878906 " clip-rule="nonzero"/></clipPath><clipPath id="8cfb0c9e92"><path d="M 184.621094 2.878906 C 82.65625 2.878906 0 85.535156 0 187.5 C 0 289.464844 82.65625 372.121094 184.621094 372.121094 C 286.582031 372.121094 369.242188 289.464844 369.242188 187.5 C 369.242188 85.535156 286.582031 2.878906 184.621094 2.878906 Z M 184.621094 2.878906 " clip-rule="nonzero"/></clipPath><clipPath id="65c4f5c648"><path d="M 0 2.878906 L 369 2.878906 L 369 371.878906 L 0 371.878906 Z M 0 2.878906 " clip-rule="nonzero"/></clipPath><clipPath id="6fd180a47c"><path d="M 184.617188 2.878906 C 82.65625 2.878906 0 85.535156 0 187.496094 C 0 289.457031 82.65625 372.113281 184.617188 372.113281 C 286.578125 372.113281 369.234375 289.457031 369.234375 187.496094 C 369.234375 85.535156 286.578125 2.878906 184.617188 2.878906 Z M 184.617188 2.878906 " clip-rule="nonzero"/></clipPath><clipPath id="c2906ed844"><path d="M 49 45 L 320 45 L 320 277.5 L 49 277.5 Z M 49 45 " clip-rule="nonzero"/></clipPath></defs><g clip-path="url(#dfb3143f6b)"><g clip-path="url(#8cfb0c9e92)"><path fill="#fffffe" d="M 0 2.878906 L 369.242188 2.878906 L 369.242188 372.121094 L 0 372.121094 Z M 0 2.878906 " fill-opacity="1" fill-rule="nonzero"/></g></g><g clip-path="url(#65c4f5c648)"><g clip-path="url(#6fd180a47c)"><path stroke-linecap="butt" transform="matrix(0.75, 0, 0, 0.75, 0.0000045, 2.879547)" fill="none" stroke-linejoin="miter" d="M 246.15626 -0.000854145 C 110.208335 -0.000854145 -0.000006 110.207486 -0.000006 246.155412 C -0.000006 382.103338 110.208335 492.311678 246.15626 492.311678 C 382.104186 492.311678 492.312526 382.103338 492.312526 246.155412 C 492.312526 110.207486 382.104186 -0.000854145 246.15626 -0.000854145 Z M 246.15626 -0.000854145 " stroke="#000000" stroke-width="2" stroke-opacity="1" stroke-miterlimit="4"/></g></g><g clip-path="url(#c2906ed844)"><path fill="#190024" d="M 194.066406 277.5 L 174.238281 277.5 C 135.070312 276.464844 93.242188 270.101562 70.753906 233.601562 C 70.589844 233.382812 70.425781 233.328125 70.15625 233.4375 C 67.492188 234.90625 64.070312 237.679688 61.027344 236.210938 C 57.550781 234.582031 58.585938 230.011719 61.734375 228.269531 C 62.660156 227.726562 64.34375 227.128906 66.734375 226.3125 C 66.949219 226.257812 67.003906 226.039062 66.949219 225.878906 C 66.949219 225.878906 66.949219 225.878906 66.949219 225.824219 C 64.558594 220.21875 62.710938 214.398438 61.410156 208.46875 C 61.355469 208.253906 61.191406 208.144531 60.972656 208.144531 C 59.019531 208.308594 57.0625 208.46875 55.160156 208.6875 C 51.957031 209.015625 48.101562 206.785156 49.839844 203.140625 C 51.414062 199.875 55.597656 200.09375 59.453125 200.148438 C 59.726562 200.148438 59.832031 200.039062 59.777344 199.765625 C 57.171875 177.027344 60.214844 155.050781 68.851562 133.945312 C 68.960938 133.675781 68.960938 133.402344 68.90625 133.183594 C 63.257812 109.957031 63.472656 86.730469 69.503906 63.5 C 73.902344 46.800781 85.148438 42.015625 100.46875 50.445312 C 111.765625 56.703125 121.816406 64.753906 130.671875 74.707031 C 131.050781 75.089844 131.433594 75.195312 131.976562 75.035156 C 166.523438 62.03125 201.183594 61.816406 235.894531 74.382812 C 236.382812 74.542969 236.765625 74.4375 237.144531 74.054688 C 246.976562 63.066406 258.441406 54.144531 271.421875 47.292969 C 273.050781 46.421875 275.496094 45.824219 278.757812 45.441406 C 290.707031 43.972656 295.757812 53.980469 298.53125 63.554688 C 304.015625 82.433594 305.429688 101.417969 302.660156 120.457031 C 302.386719 122.359375 301.574219 126.601562 300.324219 133.183594 C 300.269531 133.402344 300.324219 133.621094 300.378906 133.835938 C 309.9375 155.050781 313.359375 177.246094 310.535156 200.472656 C 310.480469 200.800781 310.644531 200.910156 310.96875 200.964844 C 314.230469 200.964844 316.347656 201.234375 317.21875 201.726562 C 320.3125 203.519531 321.019531 207.164062 317.542969 208.90625 C 314.988281 210.15625 312.003906 209.070312 309.394531 209.121094 C 309.125 209.121094 308.90625 209.285156 308.851562 209.558594 C 307.492188 215.324219 305.699219 220.925781 303.363281 226.3125 C 303.257812 226.585938 303.363281 226.964844 303.691406 227.074219 C 303.746094 227.074219 303.800781 227.128906 303.800781 227.128906 C 306.191406 227.617188 310.644531 229.03125 311.1875 231.914062 C 311.621094 234.089844 310.371094 236.105469 308.253906 236.703125 C 305.753906 237.410156 302.332031 235.722656 300.214844 234.089844 C 299.726562 233.710938 299.019531 233.820312 298.640625 234.308594 C 298.640625 234.363281 298.585938 234.363281 298.585938 234.417969 C 276.3125 270.320312 232.308594 276.304688 194.066406 277.5 Z M 194.066406 277.5 " fill-opacity="1" fill-rule="nonzero"/></g><path fill="#8ec0c1" d="M 304.503906 161.90625 C 302.660156 152.714844 299.5625 143.738281 295.269531 135.035156 C 294.945312 134.382812 294.890625 133.835938 295.054688 133.238281 C 299.617188 115.398438 300.378906 97.554688 297.335938 79.601562 C 295.8125 70.792969 293.75 61.761719 289.511719 54.796875 C 279.027344 37.5 245.238281 72.3125 237.960938 79.984375 C 237.796875 80.203125 237.578125 80.203125 237.308594 80.09375 L 233.667969 78.515625 L 215.199219 73.238281 L 205.203125 71.445312 C 198.304688 70.410156 191.460938 69.921875 184.667969 70.082031 L 171.46875 70.464844 C 164.949219 71.117188 158.375 72.257812 151.804688 73.890625 C 144.632812 75.796875 137.679688 78.082031 130.996094 80.746094 C 130.78125 80.855469 130.5625 80.855469 130.289062 80.746094 C 129.695312 80.527344 129.148438 80.148438 128.660156 79.601562 C 119.101562 69.050781 106.171875 57.734375 92.863281 51.96875 C 81.835938 47.183594 76.023438 57.082031 73.6875 66.058594 C 68.035156 87.925781 68.035156 110.121094 73.578125 132.585938 C 73.792969 133.511719 73.792969 134.652344 73.414062 135.578125 C 69.773438 144.28125 67.167969 153.148438 65.644531 162.179688 C 64.234375 170.445312 63.582031 178.441406 63.746094 186.113281 L 64.34375 194.164062 L 64.777344 199.496094 C 64.777344 199.765625 64.941406 199.929688 65.210938 199.929688 C 71.566406 200.417969 77.976562 201.019531 84.332031 201.777344 C 86.777344 202.050781 94.21875 202.8125 95.46875 205.042969 C 95.578125 205.207031 95.632812 205.371094 95.632812 205.585938 C 95.632812 206.238281 95.144531 206.785156 94.4375 206.839844 C 85.039062 207.054688 76.566406 205.96875 66.40625 207.273438 C 66.136719 207.328125 66.082031 207.4375 66.136719 207.707031 L 68.796875 217.226562 L 71.730469 224.300781 C 71.839844 224.515625 72.109375 224.679688 72.328125 224.570312 C 81.34375 221.90625 90.417969 219.730469 99.542969 217.988281 C 101.066406 217.71875 102.042969 218.316406 102.421875 219.785156 C 92.863281 222.613281 83.789062 226.203125 75.261719 230.554688 C 75.261719 230.554688 75.207031 230.554688 75.207031 230.609375 C 74.933594 230.773438 74.882812 231.097656 75.097656 231.371094 L 79.933594 238.335938 C 83.136719 242.46875 86.613281 246.058594 90.253906 248.996094 C 105.898438 261.832031 124.695312 267.546875 144.902344 270.101562 C 171.738281 273.472656 198.140625 273.472656 224.214844 270.046875 C 244.042969 267.4375 264.253906 261.617188 280.058594 248.398438 C 283.265625 245.894531 286.363281 242.6875 289.347656 238.769531 L 294.617188 231.699219 C 294.617188 231.644531 294.671875 231.644531 294.671875 231.589844 C 294.78125 231.316406 294.671875 231.042969 294.402344 230.9375 L 266.589844 219.621094 C 267.675781 218.480469 269.140625 218.097656 271.042969 218.535156 C 282.125 221.035156 291.140625 223.210938 298.148438 225.0625 C 298.421875 225.117188 298.585938 225.0625 298.640625 224.789062 L 301.355469 217.828125 L 303.910156 208.523438 C 303.960938 208.253906 303.910156 208.144531 303.636719 208.089844 C 293.695312 206.621094 284.570312 207.4375 276.476562 207.601562 C 275.933594 207.601562 275.226562 207.492188 274.410156 207.21875 C 274.195312 207.164062 274.03125 207 273.921875 206.785156 C 272.671875 203.902344 279.953125 203.195312 281.636719 202.976562 C 290.328125 201.832031 298.203125 201.019531 305.210938 200.527344 C 305.484375 200.527344 305.59375 200.363281 305.648438 200.148438 L 306.296875 194.21875 L 306.734375 186.058594 C 306.789062 178.496094 306.082031 170.390625 304.503906 161.90625 Z M 304.503906 161.90625 " fill-opacity="1" fill-rule="nonzero"/><path fill="#fea698" d="M 251.214844 88.035156 C 256.210938 78.515625 268.054688 66.765625 278.648438 63.992188 C 279.082031 63.882812 279.515625 64.101562 279.625 64.535156 C 285.222656 80.527344 286.796875 97.011719 284.40625 113.875 C 284.296875 114.636719 283.589844 115.179688 282.832031 115.070312 C 282.503906 115.015625 282.234375 114.90625 282.015625 114.691406 C 272.78125 105.222656 262.730469 96.574219 251.433594 89.230469 C 251.050781 88.90625 250.941406 88.523438 251.214844 88.035156 Z M 251.214844 88.035156 " fill-opacity="1" fill-rule="nonzero"/><path fill="#fea698" d="M 91.777344 65.1875 C 101.335938 69.757812 111.222656 78.132812 117.199219 87.761719 C 117.417969 88.144531 117.308594 88.578125 116.980469 88.851562 C 105.574219 96.847656 94.980469 105.824219 85.203125 115.777344 C 84.875 116.105469 84.386719 116.105469 84.117188 115.777344 C 84.007812 115.667969 83.898438 115.503906 83.898438 115.34375 C 81.074219 98.316406 82.488281 81.671875 88.027344 65.40625 C 88.136719 65.132812 88.300781 64.917969 88.570312 64.863281 C 89.546875 64.480469 90.582031 64.589844 91.777344 65.1875 Z M 91.777344 65.1875 " fill-opacity="1" fill-rule="nonzero"/><path fill="#757483" d="M 184.667969 70.082031 C 191.457031 69.976562 198.304688 70.410156 205.203125 71.445312 C 201.78125 88.359375 196.890625 104.734375 190.480469 120.617188 C 189.9375 121.925781 189.230469 123.339844 188.363281 124.863281 C 188.199219 125.1875 187.765625 125.296875 187.4375 125.078125 C 187.277344 124.96875 187.167969 124.863281 187.113281 124.699219 C 187.003906 124.371094 186.839844 124.046875 186.679688 123.664062 C 186.460938 123.285156 186.351562 122.957031 186.296875 122.578125 C 184.558594 105.171875 184.015625 87.652344 184.667969 70.082031 Z M 184.667969 70.082031 " fill-opacity="1" fill-rule="nonzero"/><path fill="#757483" d="M 171.46875 70.464844 C 172.824219 88.035156 174.457031 105.550781 176.519531 122.957031 C 176.628906 123.71875 176.464844 124.644531 176.140625 125.730469 C 176.03125 126.003906 175.867188 126.058594 175.597656 125.949219 C 171.140625 124.046875 168.207031 118.878906 166.035156 114.796875 C 159.082031 101.960938 154.355469 88.308594 151.855469 73.835938 C 158.375 72.257812 164.949219 71.117188 171.46875 70.464844 Z M 171.46875 70.464844 " fill-opacity="1" fill-rule="nonzero"/><path fill="#757483" d="M 215.199219 73.292969 L 233.667969 78.570312 C 229.757812 96.085938 222.75 116.867188 207.375 127.636719 C 207.105469 127.800781 206.832031 127.960938 206.5625 128.015625 C 206.125 128.125 205.800781 128.125 205.691406 128.015625 C 205.148438 127.691406 204.824219 127.039062 204.929688 126.386719 Z M 215.199219 73.292969 " fill-opacity="1" fill-rule="nonzero"/><path fill="#fefefe" d="M 229.757812 159.347656 C 230.136719 171.535156 230.464844 183.71875 230.84375 195.90625 C 227.257812 217.878906 236.277344 240.402344 258.277344 248.125 C 264.796875 250.410156 272.019531 250.464844 280.058594 248.34375 C 264.253906 261.5625 244.042969 267.4375 224.214844 269.992188 C 198.140625 273.421875 171.738281 273.421875 144.902344 270.046875 C 124.695312 267.492188 105.898438 261.777344 90.253906 248.941406 C 92.425781 249.050781 94.546875 249.214844 96.609375 249.324219 C 114.589844 250.574219 130.671875 238.386719 136.59375 222.070312 C 139.632812 213.636719 140.394531 204.769531 138.929688 195.46875 C 139.742188 183.992188 140.613281 172.460938 141.425781 160.980469 C 152.835938 141.179688 174.890625 130.03125 197.542969 135.632812 C 212.320312 139.332031 220.683594 147.761719 229.757812 159.347656 Z M 229.757812 159.347656 " fill-opacity="1" fill-rule="nonzero"/><path fill="#190024" d="M 141.425781 160.980469 C 154.683594 169.523438 153.542969 189.324219 138.929688 195.46875 C 129.257812 198.570312 118.71875 195.089844 114.644531 185.839844 C 106.984375 168.597656 124.53125 151.789062 141.425781 160.980469 Z M 141.425781 160.980469 " fill-opacity="1" fill-rule="nonzero"/><path fill="#190024" d="M 230.84375 195.90625 C 213.675781 189.648438 214.003906 167.183594 229.757812 159.347656 C 237.199219 157.28125 243.445312 158.316406 248.5 162.558594 C 265.230469 176.484375 251.648438 201.453125 230.84375 195.90625 Z M 230.84375 195.90625 " fill-opacity="1" fill-rule="nonzero"/><path fill="#fefefe" d="M 234.660156 162.078125 C 234.984375 162.128906 235.300781 162.214844 235.609375 162.328125 C 235.914062 162.445312 236.207031 162.589844 236.488281 162.761719 C 236.765625 162.933594 237.027344 163.132812 237.265625 163.355469 C 237.507812 163.578125 237.722656 163.824219 237.914062 164.09375 C 238.105469 164.359375 238.269531 164.640625 238.40625 164.941406 C 238.542969 165.238281 238.648438 165.546875 238.722656 165.867188 C 238.800781 166.1875 238.84375 166.511719 238.855469 166.839844 C 238.867188 167.167969 238.847656 167.496094 238.792969 167.820312 C 238.742188 168.144531 238.65625 168.460938 238.542969 168.769531 C 238.425781 169.074219 238.285156 169.371094 238.113281 169.648438 C 237.9375 169.929688 237.742188 170.1875 237.515625 170.429688 C 237.292969 170.667969 237.046875 170.886719 236.78125 171.078125 C 236.515625 171.269531 236.234375 171.433594 235.933594 171.570312 C 235.636719 171.707031 235.328125 171.8125 235.007812 171.886719 C 234.6875 171.964844 234.363281 172.007812 234.039062 172.019531 C 233.710938 172.03125 233.382812 172.011719 233.058594 171.957031 C 232.734375 171.90625 232.417969 171.820312 232.113281 171.707031 C 231.804688 171.589844 231.511719 171.449219 231.234375 171.273438 C 230.953125 171.101562 230.695312 170.902344 230.453125 170.679688 C 230.214844 170.457031 229.996094 170.210938 229.804688 169.945312 C 229.613281 169.675781 229.449219 169.394531 229.3125 169.097656 C 229.175781 168.796875 229.070312 168.488281 228.996094 168.167969 C 228.921875 167.847656 228.878906 167.523438 228.867188 167.195312 C 228.855469 166.867188 228.875 166.539062 228.925781 166.214844 C 228.980469 165.890625 229.0625 165.574219 229.179688 165.269531 C 229.292969 164.960938 229.4375 164.667969 229.609375 164.386719 C 229.78125 164.105469 229.980469 163.847656 230.203125 163.605469 C 230.425781 163.367188 230.671875 163.148438 230.9375 162.957031 C 231.203125 162.765625 231.488281 162.601562 231.785156 162.464844 C 232.082031 162.328125 232.394531 162.222656 232.710938 162.148438 C 233.03125 162.070312 233.355469 162.027344 233.683594 162.015625 C 234.011719 162.003906 234.335938 162.027344 234.660156 162.078125 Z M 234.660156 162.078125 " fill-opacity="1" fill-rule="nonzero"/><path fill="#fefefe" d="M 133.605469 167.238281 C 133.605469 167.570312 133.574219 167.898438 133.507812 168.222656 C 133.441406 168.550781 133.347656 168.867188 133.21875 169.171875 C 133.09375 169.480469 132.9375 169.769531 132.753906 170.046875 C 132.570312 170.324219 132.359375 170.578125 132.125 170.8125 C 131.890625 171.050781 131.636719 171.257812 131.359375 171.445312 C 131.082031 171.628906 130.792969 171.785156 130.484375 171.910156 C 130.179688 172.039062 129.863281 172.132812 129.539062 172.199219 C 129.210938 172.261719 128.882812 172.296875 128.550781 172.296875 C 128.222656 172.296875 127.890625 172.261719 127.566406 172.199219 C 127.242188 172.132812 126.925781 172.039062 126.621094 171.910156 C 126.3125 171.785156 126.023438 171.628906 125.746094 171.445312 C 125.46875 171.257812 125.214844 171.050781 124.980469 170.8125 C 124.746094 170.578125 124.535156 170.324219 124.351562 170.046875 C 124.167969 169.769531 124.011719 169.480469 123.886719 169.171875 C 123.757812 168.867188 123.664062 168.550781 123.597656 168.222656 C 123.53125 167.898438 123.5 167.570312 123.5 167.238281 C 123.5 166.90625 123.53125 166.574219 123.597656 166.25 C 123.664062 165.925781 123.757812 165.609375 123.886719 165.300781 C 124.011719 164.996094 124.167969 164.703125 124.351562 164.425781 C 124.535156 164.148438 124.746094 163.894531 124.980469 163.660156 C 125.214844 163.425781 125.46875 163.214844 125.746094 163.03125 C 126.023438 162.847656 126.3125 162.691406 126.621094 162.5625 C 126.925781 162.4375 127.242188 162.339844 127.566406 162.273438 C 127.890625 162.210938 128.222656 162.179688 128.550781 162.179688 C 128.882812 162.179688 129.210938 162.210938 129.539062 162.273438 C 129.863281 162.339844 130.179688 162.4375 130.484375 162.5625 C 130.792969 162.691406 131.082031 162.847656 131.359375 163.03125 C 131.636719 163.214844 131.890625 163.425781 132.125 163.660156 C 132.359375 163.894531 132.570312 164.148438 132.753906 164.425781 C 132.9375 164.703125 133.09375 164.996094 133.21875 165.300781 C 133.347656 165.609375 133.441406 165.925781 133.507812 166.25 C 133.574219 166.574219 133.605469 166.90625 133.605469 167.238281 Z M 133.605469 167.238281 " fill-opacity="1" fill-rule="nonzero"/><path fill="#757483" d="M 304.503906 161.90625 C 306.082031 170.390625 306.789062 178.441406 306.625 186.167969 C 293.425781 189.648438 280.277344 190.84375 267.238281 189.648438 C 266.425781 189.59375 265.773438 188.832031 265.882812 187.960938 C 265.882812 187.746094 265.992188 187.527344 266.097656 187.308594 C 267.238281 185.351562 268.816406 183.609375 270.878906 182.25 C 281.636719 174.90625 292.828125 168.109375 304.503906 161.90625 Z M 304.503906 161.90625 " fill-opacity="1" fill-rule="nonzero"/><path fill="#757483" d="M 65.644531 162.179688 C 76.78125 168.054688 87.429688 174.472656 97.695312 181.433594 C 99.980469 182.957031 101.878906 184.808594 103.507812 186.875 C 104 187.472656 103.890625 188.398438 103.238281 188.886719 C 103.074219 188.996094 102.859375 189.105469 102.640625 189.160156 C 90.527344 191.5 75.75 189.484375 63.800781 186.113281 C 63.582031 178.496094 64.234375 170.5 65.644531 162.179688 Z M 65.644531 162.179688 " fill-opacity="1" fill-rule="nonzero"/><path fill="#fea698" d="M 186.679688 203.246094 C 184.722656 203.792969 182.714844 203.847656 180.648438 203.355469 C 173.75 201.671875 167.449219 193.074219 176.898438 188.996094 C 181.464844 187.039062 192.382812 186.929688 194.445312 193.183594 C 196.292969 198.460938 191.242188 202.105469 186.679688 203.246094 Z M 186.679688 203.246094 " fill-opacity="1" fill-rule="nonzero"/><path fill="#757483" d="M 68.796875 217.226562 L 66.136719 207.707031 C 66.082031 207.4375 66.136719 207.328125 66.40625 207.273438 C 76.566406 205.96875 84.984375 207.054688 94.4375 206.839844 C 95.089844 206.839844 95.632812 206.292969 95.632812 205.585938 C 95.632812 205.425781 95.578125 205.207031 95.46875 205.042969 C 94.273438 202.8125 86.777344 202.050781 84.332031 201.777344 C 77.976562 201.019531 71.621094 200.417969 65.210938 199.929688 C 64.941406 199.929688 64.777344 199.765625 64.777344 199.496094 L 64.34375 194.164062 C 75.480469 196.664062 86.5625 199.222656 97.480469 201.777344 C 100.140625 202.433594 104.054688 203.410156 104.703125 206.183594 C 104.757812 206.402344 104.703125 206.621094 104.488281 206.785156 C 103.074219 208.035156 101.445312 208.851562 99.652344 209.285156 C 89.332031 211.734375 79.0625 214.34375 68.796875 217.226562 Z M 68.796875 217.226562 " fill-opacity="1" fill-rule="nonzero"/><path fill="#757483" d="M 306.242188 194.328125 L 305.59375 200.257812 C 305.539062 200.527344 305.429688 200.636719 305.15625 200.636719 C 298.148438 201.125 290.273438 201.941406 281.582031 203.085938 C 279.898438 203.300781 272.617188 204.007812 273.867188 206.890625 C 273.976562 207.109375 274.140625 207.273438 274.355469 207.328125 C 275.171875 207.601562 275.878906 207.707031 276.421875 207.707031 C 284.570312 207.546875 293.640625 206.675781 303.582031 208.199219 C 303.855469 208.253906 303.910156 208.359375 303.855469 208.632812 L 301.300781 217.933594 C 290.980469 215.105469 280.65625 212.386719 270.390625 209.667969 C 268.542969 209.175781 264.632812 207.816406 265.394531 205.207031 C 265.449219 204.933594 265.609375 204.769531 265.882812 204.664062 C 267.132812 204.0625 268.433594 203.355469 269.792969 202.976562 C 281.796875 199.765625 293.914062 196.882812 306.242188 194.328125 Z M 306.242188 194.328125 " fill-opacity="1" fill-rule="nonzero"/><path fill="#190024" d="M 186.679688 203.246094 C 186.570312 208.308594 187.820312 213.691406 192.328125 216.25 C 196.890625 218.859375 201.945312 217.171875 204.714844 212.875 C 206.886719 209.558594 210.742188 211.515625 209.113281 214.671875 C 203.628906 225.386719 189.394531 224.734375 184.070312 214.34375 C 183.960938 214.128906 183.746094 214.074219 183.527344 214.183594 C 183.472656 214.234375 183.363281 214.289062 183.363281 214.34375 C 177.769531 224.84375 163.046875 225.605469 158.160156 213.964844 C 157.289062 211.84375 160.277344 209.992188 162.070312 212.222656 C 171.25 223.539062 180.757812 214.996094 180.703125 203.410156 C 182.714844 203.847656 184.722656 203.792969 186.679688 203.246094 Z M 186.679688 203.246094 " fill-opacity="1" fill-rule="nonzero"/><path fill="#757483" d="M 266.589844 219.621094 L 294.402344 230.9375 C 294.671875 231.042969 294.78125 231.316406 294.671875 231.589844 C 294.671875 231.644531 294.617188 231.644531 294.617188 231.699219 L 289.347656 238.769531 C 284.460938 235.667969 279.679688 232.621094 274.953125 229.46875 C 271.097656 226.910156 268.164062 224.515625 266.152344 222.234375 C 265.285156 221.253906 265.449219 220.4375 266.589844 219.621094 Z M 266.589844 219.621094 " fill-opacity="1" fill-rule="nonzero"/><path fill="#757483" d="M 102.476562 219.785156 C 102.75 221.796875 101.71875 223.648438 99.382812 225.277344 C 94.492188 228.761719 87.972656 233.113281 79.878906 238.28125 L 75.042969 231.316406 C 74.882812 231.042969 74.933594 230.71875 75.152344 230.554688 C 75.152344 230.554688 75.207031 230.5 75.207031 230.5 C 83.789062 226.203125 92.863281 222.613281 102.476562 219.785156 Z M 102.476562 219.785156 " fill-opacity="1" fill-rule="nonzero"/><g fill="#000000" fill-opacity="1"><g transform="translate(41.074308, 297.393755)"><g><path d="M 8.734375 -5.875 C 9.484375 -6.582031 10.109375 -7.210938 10.609375 -7.765625 C 11.117188 -8.316406 11.535156 -8.8125 11.859375 -9.25 C 12.191406 -9.695312 12.46875 -10.09375 12.6875 -10.4375 C 12.90625 -10.789062 13.09375 -11.109375 13.25 -11.390625 C 13.414062 -11.679688 13.597656 -11.957031 13.796875 -12.21875 C 13.992188 -12.488281 14.234375 -12.757812 14.515625 -13.03125 C 14.773438 -13.269531 15.03125 -13.390625 15.28125 -13.390625 C 15.53125 -13.390625 15.765625 -13.320312 15.984375 -13.1875 C 16.203125 -13.0625 16.394531 -12.910156 16.5625 -12.734375 C 16.726562 -12.566406 16.863281 -12.425781 16.96875 -12.3125 L 18.625 -10.53125 C 18.738281 -10.40625 18.882812 -10.234375 19.0625 -10.015625 C 19.25 -9.796875 19.394531 -9.550781 19.5 -9.28125 C 19.601562 -9.019531 19.597656 -8.742188 19.484375 -8.453125 L 19.484375 -8.46875 L 15.953125 1.5 C 16.671875 0.820312 17.269531 0.21875 17.75 -0.3125 C 18.238281 -0.851562 18.640625 -1.335938 18.953125 -1.765625 C 19.265625 -2.191406 19.519531 -2.570312 19.71875 -2.90625 C 19.925781 -3.25 20.113281 -3.5625 20.28125 -3.84375 C 20.457031 -4.132812 20.640625 -4.40625 20.828125 -4.65625 C 21.015625 -4.914062 21.25 -5.179688 21.53125 -5.453125 C 21.789062 -5.691406 22.046875 -5.804688 22.296875 -5.796875 C 22.546875 -5.796875 22.78125 -5.734375 23 -5.609375 C 23.21875 -5.484375 23.410156 -5.332031 23.578125 -5.15625 C 23.742188 -4.976562 23.878906 -4.835938 23.984375 -4.734375 L 25.65625 -2.9375 C 25.757812 -2.820312 25.890625 -2.671875 26.046875 -2.484375 C 26.203125 -2.304688 26.335938 -2.101562 26.453125 -1.875 C 26.566406 -1.644531 26.613281 -1.40625 26.59375 -1.15625 C 26.570312 -0.914062 26.429688 -0.675781 26.171875 -0.4375 C 25.890625 -0.164062 25.601562 0.0507812 25.3125 0.21875 C 25.03125 0.394531 24.742188 0.550781 24.453125 0.6875 C 24.160156 0.832031 23.828125 1 23.453125 1.1875 C 23.085938 1.382812 22.671875 1.625 22.203125 1.90625 C 21.734375 2.195312 21.203125 2.570312 20.609375 3.03125 C 20.023438 3.488281 19.359375 4.070312 18.609375 4.78125 C 17.847656 5.476562 17.210938 6.101562 16.703125 6.65625 C 16.203125 7.207031 15.785156 7.707031 15.453125 8.15625 C 15.128906 8.601562 14.859375 9 14.640625 9.34375 C 14.429688 9.6875 14.238281 10.003906 14.0625 10.296875 C 13.894531 10.585938 13.71875 10.863281 13.53125 11.125 C 13.351562 11.382812 13.117188 11.648438 12.828125 11.921875 C 12.566406 12.160156 12.3125 12.28125 12.0625 12.28125 C 11.8125 12.28125 11.578125 12.210938 11.359375 12.078125 C 11.140625 11.953125 10.945312 11.800781 10.78125 11.625 C 10.613281 11.457031 10.476562 11.316406 10.375 11.203125 L 8.703125 9.40625 C 8.617188 9.3125 8.507812 9.1875 8.375 9.03125 C 8.25 8.882812 8.125 8.71875 8 8.53125 C 7.875 8.351562 7.796875 8.15625 7.765625 7.9375 C 7.734375 7.726562 7.757812 7.519531 7.84375 7.3125 L 11.375 -2.625 C 10.65625 -1.945312 10.050781 -1.335938 9.5625 -0.796875 C 9.082031 -0.265625 8.679688 0.210938 8.359375 0.640625 C 8.046875 1.066406 7.785156 1.453125 7.578125 1.796875 C 7.378906 2.140625 7.195312 2.453125 7.03125 2.734375 C 6.863281 3.015625 6.6875 3.285156 6.5 3.546875 C 6.3125 3.804688 6.078125 4.066406 5.796875 4.328125 C 5.535156 4.566406 5.28125 4.6875 5.03125 4.6875 C 4.78125 4.6875 4.546875 4.617188 4.328125 4.484375 C 4.109375 4.359375 3.910156 4.207031 3.734375 4.03125 C 3.566406 3.851562 3.4375 3.710938 3.34375 3.609375 L 1.6875 1.828125 C 1.582031 1.710938 1.453125 1.5625 1.296875 1.375 C 1.140625 1.195312 1.003906 0.992188 0.890625 0.765625 C 0.773438 0.535156 0.726562 0.296875 0.75 0.046875 C 0.769531 -0.191406 0.910156 -0.429688 1.171875 -0.671875 C 1.460938 -0.941406 1.742188 -1.160156 2.015625 -1.328125 C 2.285156 -1.492188 2.570312 -1.648438 2.875 -1.796875 C 3.175781 -1.941406 3.507812 -2.109375 3.875 -2.296875 C 4.238281 -2.484375 4.65625 -2.722656 5.125 -3.015625 C 5.59375 -3.304688 6.117188 -3.679688 6.703125 -4.140625 C 7.296875 -4.597656 7.972656 -5.175781 8.734375 -5.875 Z M 8.734375 -5.875 "/></g></g></g><g fill="#000000" fill-opacity="1"><g transform="translate(53.633885, 310.881716)"><g><path d="M 6.828125 -7.859375 C 7.597656 -8.722656 8.394531 -9.5 9.21875 -10.1875 C 10.050781 -10.882812 10.898438 -11.4375 11.765625 -11.84375 C 12.628906 -12.25 13.515625 -12.484375 14.421875 -12.546875 C 15.335938 -12.609375 16.273438 -12.445312 17.234375 -12.0625 C 18.203125 -11.6875 19.195312 -11.046875 20.21875 -10.140625 C 21.226562 -9.234375 21.972656 -8.328125 22.453125 -7.421875 C 22.929688 -6.515625 23.195312 -5.597656 23.25 -4.671875 C 23.300781 -3.753906 23.171875 -2.84375 22.859375 -1.9375 C 22.546875 -1.039062 22.097656 -0.144531 21.515625 0.75 C 20.929688 1.65625 20.25 2.546875 19.46875 3.421875 C 18.6875 4.296875 17.878906 5.070312 17.046875 5.75 C 16.222656 6.4375 15.378906 6.988281 14.515625 7.40625 C 13.648438 7.820312 12.757812 8.054688 11.84375 8.109375 C 10.925781 8.160156 9.988281 8 9.03125 7.625 C 8.070312 7.25 7.085938 6.609375 6.078125 5.703125 C 5.054688 4.796875 4.300781 3.882812 3.8125 2.96875 C 3.332031 2.0625 3.066406 1.148438 3.015625 0.234375 C 2.972656 -0.671875 3.109375 -1.578125 3.421875 -2.484375 C 3.734375 -3.398438 4.179688 -4.304688 4.765625 -5.203125 C 5.359375 -6.097656 6.046875 -6.984375 6.828125 -7.859375 Z M 11.03125 -4.109375 C 10.457031 -3.472656 9.941406 -2.847656 9.484375 -2.234375 C 9.035156 -1.628906 8.695312 -1.046875 8.46875 -0.484375 C 8.25 0.0664062 8.164062 0.585938 8.21875 1.078125 C 8.28125 1.566406 8.539062 2.015625 9 2.421875 C 9.445312 2.828125 9.914062 3.03125 10.40625 3.03125 C 10.90625 3.039062 11.414062 2.898438 11.9375 2.609375 C 12.46875 2.328125 13.007812 1.925781 13.5625 1.40625 C 14.125 0.882812 14.691406 0.304688 15.265625 -0.328125 C 15.828125 -0.960938 16.332031 -1.582031 16.78125 -2.1875 C 17.238281 -2.800781 17.582031 -3.390625 17.8125 -3.953125 C 18.039062 -4.515625 18.125 -5.035156 18.0625 -5.515625 C 18 -6.003906 17.742188 -6.453125 17.296875 -6.859375 C 16.835938 -7.265625 16.363281 -7.472656 15.875 -7.484375 C 15.382812 -7.492188 14.875 -7.351562 14.34375 -7.0625 C 13.8125 -6.769531 13.265625 -6.363281 12.703125 -5.84375 C 12.148438 -5.320312 11.59375 -4.742188 11.03125 -4.109375 Z M 11.03125 -4.109375 "/></g></g></g><g fill="#000000" fill-opacity="1"><g transform="translate(66.567632, 322.561221)"><g><path d="M 1 -0.890625 C 1.226562 -1.210938 1.460938 -1.484375 1.703125 -1.703125 C 1.941406 -1.929688 2.191406 -2.144531 2.453125 -2.34375 C 2.722656 -2.539062 3.015625 -2.769531 3.328125 -3.03125 C 3.648438 -3.289062 4.007812 -3.609375 4.40625 -3.984375 C 4.8125 -4.367188 5.253906 -4.84375 5.734375 -5.40625 C 6.222656 -5.976562 6.769531 -6.679688 7.375 -7.515625 C 7.976562 -8.359375 8.46875 -9.097656 8.84375 -9.734375 C 9.226562 -10.378906 9.535156 -10.953125 9.765625 -11.453125 C 10.003906 -11.953125 10.191406 -12.394531 10.328125 -12.78125 C 10.472656 -13.164062 10.59375 -13.515625 10.6875 -13.828125 C 10.789062 -14.148438 10.910156 -14.457031 11.046875 -14.75 C 11.191406 -15.050781 11.375 -15.359375 11.59375 -15.671875 C 11.800781 -15.960938 12.023438 -16.128906 12.265625 -16.171875 C 12.503906 -16.222656 12.742188 -16.207031 12.984375 -16.125 C 13.234375 -16.050781 13.457031 -15.945312 13.65625 -15.8125 C 13.851562 -15.675781 14.015625 -15.5625 14.140625 -15.46875 L 16.46875 -13.8125 C 16.625 -13.695312 16.78125 -13.554688 16.9375 -13.390625 C 17.101562 -13.234375 17.226562 -13.054688 17.3125 -12.859375 C 17.40625 -12.660156 17.425781 -12.441406 17.375 -12.203125 L 17.390625 -12.21875 L 16.0625 -5.4375 C 16.007812 -5.132812 16.039062 -4.9375 16.15625 -4.84375 C 16.289062 -4.75 16.488281 -4.773438 16.75 -4.921875 C 17.34375 -5.242188 17.957031 -5.601562 18.59375 -6 C 19.238281 -6.394531 19.894531 -6.789062 20.5625 -7.1875 C 21.238281 -7.582031 21.921875 -7.953125 22.609375 -8.296875 C 22.816406 -8.472656 23.035156 -8.554688 23.265625 -8.546875 C 23.492188 -8.535156 23.71875 -8.476562 23.9375 -8.375 C 24.15625 -8.269531 24.34375 -8.160156 24.5 -8.046875 L 27.890625 -5.625 C 28.015625 -5.53125 28.171875 -5.410156 28.359375 -5.265625 C 28.546875 -5.117188 28.71875 -4.941406 28.875 -4.734375 C 29.039062 -4.523438 29.140625 -4.300781 29.171875 -4.0625 C 29.203125 -3.820312 29.113281 -3.554688 28.90625 -3.265625 C 28.6875 -2.953125 28.453125 -2.679688 28.203125 -2.453125 C 27.960938 -2.234375 27.710938 -2.019531 27.453125 -1.8125 C 27.191406 -1.613281 26.898438 -1.382812 26.578125 -1.125 C 26.253906 -0.875 25.894531 -0.554688 25.5 -0.171875 C 25.101562 0.203125 24.660156 0.671875 24.171875 1.234375 C 23.691406 1.804688 23.148438 2.515625 22.546875 3.359375 C 21.941406 4.191406 21.445312 4.925781 21.0625 5.5625 C 20.6875 6.207031 20.378906 6.78125 20.140625 7.28125 C 19.898438 7.78125 19.710938 8.222656 19.578125 8.609375 C 19.441406 9.003906 19.320312 9.359375 19.21875 9.671875 C 19.113281 9.984375 18.992188 10.285156 18.859375 10.578125 C 18.722656 10.878906 18.539062 11.191406 18.3125 11.515625 C 18.101562 11.796875 17.878906 11.960938 17.640625 12.015625 C 17.398438 12.078125 17.15625 12.0625 16.90625 11.96875 C 16.664062 11.882812 16.445312 11.773438 16.25 11.640625 C 16.050781 11.503906 15.890625 11.390625 15.765625 11.296875 L 12.734375 9.125 C 12.535156 8.988281 12.335938 8.835938 12.140625 8.671875 C 11.953125 8.503906 11.789062 8.320312 11.65625 8.125 C 11.519531 7.9375 11.445312 7.726562 11.4375 7.5 C 11.4375 7.269531 11.53125 7.03125 11.71875 6.78125 C 11.945312 6.457031 12.171875 6.175781 12.390625 5.9375 C 12.617188 5.707031 12.851562 5.488281 13.09375 5.28125 C 13.34375 5.070312 13.613281 4.832031 13.90625 4.5625 C 14.207031 4.289062 14.546875 3.953125 14.921875 3.546875 C 15.304688 3.148438 15.734375 2.660156 16.203125 2.078125 C 16.679688 1.503906 17.222656 0.800781 17.828125 -0.03125 L 10.6875 3.28125 C 10.550781 3.363281 10.410156 3.398438 10.265625 3.390625 C 10.117188 3.378906 9.988281 3.332031 9.875 3.25 C 9.632812 3.082031 9.539062 2.835938 9.59375 2.515625 L 10.625 -4.859375 C 10.039062 -4.035156 9.566406 -3.3125 9.203125 -2.6875 C 8.835938 -2.070312 8.546875 -1.523438 8.328125 -1.046875 C 8.109375 -0.566406 7.925781 -0.140625 7.78125 0.234375 C 7.644531 0.617188 7.523438 0.960938 7.421875 1.265625 C 7.316406 1.578125 7.195312 1.878906 7.0625 2.171875 C 6.9375 2.460938 6.765625 2.765625 6.546875 3.078125 C 6.359375 3.328125 6.15625 3.488281 5.9375 3.5625 C 5.726562 3.632812 5.507812 3.632812 5.28125 3.5625 C 5.0625 3.5 4.84375 3.398438 4.625 3.265625 C 4.40625 3.140625 4.195312 3.007812 4 2.875 L 2.015625 1.453125 C 1.890625 1.359375 1.734375 1.238281 1.546875 1.09375 C 1.359375 0.945312 1.179688 0.773438 1.015625 0.578125 C 0.859375 0.378906 0.765625 0.15625 0.734375 -0.09375 C 0.703125 -0.34375 0.789062 -0.609375 1 -0.890625 Z M 1 -0.890625 "/></g></g></g><g fill="#000000" fill-opacity="1"><g transform="translate(85.07263, 335.591999)"><g><path d="M 0.890625 -0.96875 C 1.140625 -1.40625 1.398438 -1.78125 1.671875 -2.09375 C 1.941406 -2.40625 2.242188 -2.722656 2.578125 -3.046875 C 2.910156 -3.367188 3.28125 -3.753906 3.6875 -4.203125 C 4.101562 -4.660156 4.554688 -5.226562 5.046875 -5.90625 C 5.546875 -6.59375 6.09375 -7.460938 6.6875 -8.515625 C 7.1875 -9.378906 7.582031 -10.140625 7.875 -10.796875 C 8.175781 -11.460938 8.410156 -12.046875 8.578125 -12.546875 C 8.753906 -13.054688 8.882812 -13.503906 8.96875 -13.890625 C 9.0625 -14.273438 9.144531 -14.628906 9.21875 -14.953125 C 9.289062 -15.285156 9.375 -15.601562 9.46875 -15.90625 C 9.570312 -16.207031 9.71875 -16.519531 9.90625 -16.84375 C 10.070312 -17.144531 10.269531 -17.328125 10.5 -17.390625 C 10.726562 -17.460938 10.96875 -17.46875 11.21875 -17.40625 C 11.46875 -17.351562 11.695312 -17.269531 11.90625 -17.15625 C 12.125 -17.039062 12.300781 -16.945312 12.4375 -16.875 L 19.59375 -12.8125 C 20.457031 -12.3125 21.125 -11.695312 21.59375 -10.96875 C 22.0625 -10.25 22.304688 -9.46875 22.328125 -8.625 C 22.347656 -7.78125 22.125 -6.941406 21.65625 -6.109375 C 21.445312 -5.742188 21.1875 -5.398438 20.875 -5.078125 C 20.570312 -4.765625 20.207031 -4.492188 19.78125 -4.265625 C 19.363281 -4.046875 18.894531 -3.898438 18.375 -3.828125 C 17.851562 -3.765625 17.28125 -3.8125 16.65625 -3.96875 C 16.414062 -4.03125 16.269531 -4.015625 16.21875 -3.921875 C 16.175781 -3.847656 16.21875 -3.726562 16.34375 -3.5625 C 16.476562 -3.394531 16.640625 -3.179688 16.828125 -2.921875 C 17.023438 -2.660156 17.210938 -2.335938 17.390625 -1.953125 C 17.578125 -1.578125 17.703125 -1.148438 17.765625 -0.671875 C 17.835938 -0.203125 17.816406 0.320312 17.703125 0.90625 C 17.597656 1.488281 17.34375 2.140625 16.9375 2.859375 C 16.6875 3.296875 16.367188 3.710938 15.984375 4.109375 C 15.597656 4.515625 15.144531 4.863281 14.625 5.15625 C 14.101562 5.445312 13.523438 5.648438 12.890625 5.765625 C 12.253906 5.890625 11.5625 5.875 10.8125 5.71875 C 10.0625 5.570312 9.265625 5.257812 8.421875 4.78125 L 1.953125 1.109375 C 1.828125 1.035156 1.671875 0.941406 1.484375 0.828125 C 1.296875 0.710938 1.125 0.570312 0.96875 0.40625 C 0.8125 0.238281 0.71875 0.0390625 0.6875 -0.1875 C 0.65625 -0.414062 0.722656 -0.675781 0.890625 -0.96875 Z M 8.71875 -1.0625 C 8.519531 -0.707031 8.453125 -0.425781 8.515625 -0.21875 C 8.578125 -0.0195312 8.726562 0.144531 8.96875 0.28125 C 9.375 0.507812 9.753906 0.617188 10.109375 0.609375 C 10.460938 0.597656 10.78125 0.507812 11.0625 0.34375 C 11.34375 0.1875 11.582031 0 11.78125 -0.21875 C 11.988281 -0.445312 12.15625 -0.664062 12.28125 -0.875 C 12.394531 -1.070312 12.492188 -1.320312 12.578125 -1.625 C 12.671875 -1.925781 12.710938 -2.238281 12.703125 -2.5625 C 12.703125 -2.882812 12.613281 -3.195312 12.4375 -3.5 C 12.269531 -3.8125 11.984375 -4.082031 11.578125 -4.3125 C 11.335938 -4.445312 11.113281 -4.492188 10.90625 -4.453125 C 10.707031 -4.410156 10.503906 -4.207031 10.296875 -3.84375 C 10.253906 -3.757812 10.179688 -3.617188 10.078125 -3.421875 C 9.972656 -3.222656 9.867188 -3.03125 9.765625 -2.84375 C 9.671875 -2.664062 9.597656 -2.53125 9.546875 -2.4375 C 9.492188 -2.34375 9.410156 -2.203125 9.296875 -2.015625 C 9.191406 -1.835938 9.082031 -1.65625 8.96875 -1.46875 C 8.851562 -1.289062 8.769531 -1.15625 8.71875 -1.0625 Z M 12.84375 -8.34375 C 12.707031 -8.082031 12.679688 -7.867188 12.765625 -7.703125 C 12.847656 -7.535156 13.007812 -7.382812 13.25 -7.25 C 13.65625 -7.019531 14.019531 -6.882812 14.34375 -6.84375 C 14.664062 -6.8125 14.945312 -6.84375 15.1875 -6.9375 C 15.4375 -7.039062 15.644531 -7.164062 15.8125 -7.3125 C 15.976562 -7.457031 16.101562 -7.609375 16.1875 -7.765625 C 16.257812 -7.898438 16.320312 -8.082031 16.375 -8.3125 C 16.425781 -8.539062 16.425781 -8.78125 16.375 -9.03125 C 16.332031 -9.28125 16.210938 -9.535156 16.015625 -9.796875 C 15.828125 -10.066406 15.53125 -10.316406 15.125 -10.546875 C 14.882812 -10.679688 14.671875 -10.742188 14.484375 -10.734375 C 14.296875 -10.722656 14.128906 -10.585938 13.984375 -10.328125 Z M 12.84375 -8.34375 "/></g></g></g><g fill="#000000" fill-opacity="1"><g transform="translate(99.759047, 343.929409)"><g><path d="M 0.796875 -1.078125 C 0.960938 -1.429688 1.140625 -1.738281 1.328125 -2 C 1.515625 -2.269531 1.71875 -2.53125 1.9375 -2.78125 C 2.164062 -3.03125 2.410156 -3.3125 2.671875 -3.625 C 2.929688 -3.945312 3.21875 -4.332031 3.53125 -4.78125 C 3.851562 -5.238281 4.195312 -5.789062 4.5625 -6.4375 C 4.925781 -7.09375 5.316406 -7.890625 5.734375 -8.828125 C 6.160156 -9.773438 6.492188 -10.597656 6.734375 -11.296875 C 6.984375 -12.003906 7.171875 -12.625 7.296875 -13.15625 C 7.429688 -13.695312 7.53125 -14.164062 7.59375 -14.5625 C 7.65625 -14.96875 7.703125 -15.335938 7.734375 -15.671875 C 7.773438 -16.003906 7.832031 -16.328125 7.90625 -16.640625 C 7.988281 -16.960938 8.109375 -17.300781 8.265625 -17.65625 C 8.410156 -17.976562 8.597656 -18.1875 8.828125 -18.28125 C 9.054688 -18.382812 9.296875 -18.421875 9.546875 -18.390625 C 9.796875 -18.359375 10.03125 -18.296875 10.25 -18.203125 C 10.46875 -18.109375 10.648438 -18.03125 10.796875 -17.96875 L 16.703125 -15.3125 C 18.222656 -14.625 19.410156 -13.8125 20.265625 -12.875 C 21.117188 -11.945312 21.625 -10.929688 21.78125 -9.828125 C 21.9375 -8.722656 21.742188 -7.566406 21.203125 -6.359375 C 20.960938 -5.828125 20.65625 -5.347656 20.28125 -4.921875 C 19.90625 -4.492188 19.488281 -4.144531 19.03125 -3.875 C 18.582031 -3.601562 18.113281 -3.410156 17.625 -3.296875 C 17.132812 -3.191406 16.65625 -3.195312 16.1875 -3.3125 C 15.988281 -3.351562 15.847656 -3.320312 15.765625 -3.21875 C 15.753906 -3.207031 15.796875 -3.132812 15.890625 -3 C 15.984375 -2.875 16.082031 -2.695312 16.1875 -2.46875 C 16.300781 -2.238281 16.375 -1.976562 16.40625 -1.6875 C 16.425781 -1.320312 16.4375 -0.894531 16.4375 -0.40625 C 16.4375 0.0703125 16.425781 0.570312 16.40625 1.09375 C 16.394531 1.613281 16.375 2.113281 16.34375 2.59375 C 16.320312 3.082031 16.300781 3.5 16.28125 3.84375 C 16.238281 4.25 16.234375 4.570312 16.265625 4.8125 C 16.296875 5.050781 16.328125 5.238281 16.359375 5.375 C 16.398438 5.519531 16.421875 5.660156 16.421875 5.796875 C 16.421875 5.929688 16.378906 6.09375 16.296875 6.28125 C 16.179688 6.539062 15.972656 6.695312 15.671875 6.75 C 15.378906 6.8125 15.054688 6.765625 14.703125 6.609375 L 9.78125 4.390625 C 9.5625 4.296875 9.375 4.160156 9.21875 3.984375 C 9.070312 3.816406 9.035156 3.609375 9.109375 3.359375 C 9.160156 3.097656 9.242188 2.882812 9.359375 2.71875 C 9.472656 2.5625 9.597656 2.40625 9.734375 2.25 C 9.878906 2.101562 10.003906 1.910156 10.109375 1.671875 C 10.210938 1.429688 10.316406 1.097656 10.421875 0.671875 C 10.523438 0.242188 10.609375 -0.207031 10.671875 -0.6875 C 10.734375 -1.175781 10.765625 -1.648438 10.765625 -2.109375 C 10.773438 -2.566406 10.738281 -2.957031 10.65625 -3.28125 C 10.570312 -3.613281 10.429688 -3.820312 10.234375 -3.90625 C 10.066406 -3.976562 9.925781 -3.976562 9.8125 -3.90625 C 9.695312 -3.832031 9.613281 -3.738281 9.5625 -3.625 C 9.320312 -3.082031 9.148438 -2.550781 9.046875 -2.03125 C 8.941406 -1.507812 8.863281 -1 8.8125 -0.5 C 8.769531 -0.0078125 8.707031 0.460938 8.625 0.921875 C 8.539062 1.378906 8.398438 1.820312 8.203125 2.25 C 8.066406 2.570312 7.878906 2.78125 7.640625 2.875 C 7.410156 2.976562 7.171875 3.007812 6.921875 2.96875 C 6.671875 2.9375 6.4375 2.875 6.21875 2.78125 C 6 2.6875 5.816406 2.609375 5.671875 2.546875 L 2.265625 1.015625 C 2.117188 0.953125 1.9375 0.867188 1.71875 0.765625 C 1.5 0.660156 1.296875 0.523438 1.109375 0.359375 C 0.921875 0.191406 0.785156 -0.00390625 0.703125 -0.234375 C 0.628906 -0.472656 0.660156 -0.753906 0.796875 -1.078125 Z M 12.1875 -9.421875 C 12.0625 -9.160156 12.09375 -8.929688 12.28125 -8.734375 C 12.46875 -8.546875 12.695312 -8.382812 12.96875 -8.25 C 13.476562 -8.007812 13.914062 -7.878906 14.28125 -7.859375 C 14.644531 -7.835938 14.953125 -7.878906 15.203125 -7.984375 C 15.453125 -8.097656 15.648438 -8.238281 15.796875 -8.40625 C 15.953125 -8.582031 16.066406 -8.753906 16.140625 -8.921875 C 16.203125 -9.066406 16.242188 -9.242188 16.265625 -9.453125 C 16.296875 -9.671875 16.265625 -9.90625 16.171875 -10.15625 C 16.085938 -10.40625 15.914062 -10.660156 15.65625 -10.921875 C 15.40625 -11.191406 15.03125 -11.453125 14.53125 -11.703125 C 14.257812 -11.847656 13.988281 -11.921875 13.71875 -11.921875 C 13.445312 -11.921875 13.25 -11.789062 13.125 -11.53125 Z M 12.1875 -9.421875 "/></g></g></g><g fill="#000000" fill-opacity="1"><g transform="translate(116.420798, 351.348668)"><g><path d="M 4.984375 -9.609375 C 5.304688 -10.554688 5.554688 -11.382812 5.734375 -12.09375 C 5.910156 -12.800781 6.03125 -13.414062 6.09375 -13.9375 C 6.164062 -14.457031 6.210938 -14.914062 6.234375 -15.3125 C 6.253906 -15.71875 6.265625 -16.082031 6.265625 -16.40625 C 6.273438 -16.738281 6.300781 -17.0625 6.34375 -17.375 C 6.394531 -17.695312 6.476562 -18.035156 6.59375 -18.390625 C 6.707031 -18.710938 6.867188 -18.925781 7.078125 -19.03125 C 7.296875 -19.144531 7.535156 -19.195312 7.796875 -19.1875 C 8.054688 -19.175781 8.296875 -19.132812 8.515625 -19.0625 C 8.742188 -18.988281 8.929688 -18.929688 9.078125 -18.890625 L 20.125 -15.109375 C 20.519531 -14.972656 20.796875 -14.734375 20.953125 -14.390625 C 21.117188 -14.054688 21.132812 -13.6875 21 -13.28125 L 19.671875 -9.375 C 19.585938 -9.144531 19.492188 -8.910156 19.390625 -8.671875 C 19.285156 -8.429688 19.132812 -8.253906 18.9375 -8.140625 C 18.738281 -8.035156 18.476562 -8.039062 18.15625 -8.15625 C 17.832031 -8.257812 17.546875 -8.46875 17.296875 -8.78125 C 17.054688 -9.09375 16.816406 -9.457031 16.578125 -9.875 C 16.347656 -10.289062 16.070312 -10.71875 15.75 -11.15625 C 15.4375 -11.59375 15.054688 -12.003906 14.609375 -12.390625 C 14.171875 -12.773438 13.625 -13.078125 12.96875 -13.296875 C 12.707031 -13.390625 12.488281 -13.375 12.3125 -13.25 C 12.144531 -13.132812 12 -12.9375 11.875 -12.65625 C 11.75 -12.382812 11.625 -12.0625 11.5 -11.6875 C 11.332031 -11.1875 11.234375 -10.765625 11.203125 -10.421875 C 11.179688 -10.078125 11.273438 -9.789062 11.484375 -9.5625 C 11.703125 -9.332031 12.085938 -9.144531 12.640625 -9 C 13.054688 -8.875 13.421875 -8.789062 13.734375 -8.75 C 14.046875 -8.707031 14.34375 -8.671875 14.625 -8.640625 C 14.90625 -8.609375 15.179688 -8.546875 15.453125 -8.453125 C 15.816406 -8.328125 16.03125 -8.117188 16.09375 -7.828125 C 16.15625 -7.535156 16.144531 -7.257812 16.0625 -7 L 15.125 -4.25 C 15.03125 -4 14.867188 -3.773438 14.640625 -3.578125 C 14.410156 -3.390625 14.113281 -3.359375 13.75 -3.484375 C 13.476562 -3.578125 13.222656 -3.695312 12.984375 -3.84375 C 12.742188 -3.988281 12.488281 -4.140625 12.21875 -4.296875 C 11.945312 -4.460938 11.609375 -4.628906 11.203125 -4.796875 C 10.691406 -4.992188 10.28125 -5.070312 9.96875 -5.03125 C 9.664062 -4.988281 9.414062 -4.832031 9.21875 -4.5625 C 9.019531 -4.289062 8.835938 -3.90625 8.671875 -3.40625 C 8.546875 -3.039062 8.445312 -2.707031 8.375 -2.40625 C 8.300781 -2.101562 8.289062 -1.851562 8.34375 -1.65625 C 8.40625 -1.46875 8.566406 -1.328125 8.828125 -1.234375 C 9.484375 -1.015625 10.101562 -0.921875 10.6875 -0.953125 C 11.28125 -0.984375 11.835938 -1.078125 12.359375 -1.234375 C 12.878906 -1.390625 13.359375 -1.554688 13.796875 -1.734375 C 14.234375 -1.910156 14.644531 -2.046875 15.03125 -2.140625 C 15.425781 -2.242188 15.785156 -2.242188 16.109375 -2.140625 C 16.429688 -2.023438 16.632812 -1.863281 16.71875 -1.65625 C 16.800781 -1.445312 16.8125 -1.21875 16.75 -0.96875 C 16.6875 -0.71875 16.613281 -0.46875 16.53125 -0.21875 L 15.203125 3.6875 C 15.066406 4.09375 14.828125 4.375 14.484375 4.53125 C 14.148438 4.695312 13.785156 4.710938 13.390625 4.578125 L 2.125 0.734375 C 1.988281 0.679688 1.816406 0.613281 1.609375 0.53125 C 1.398438 0.457031 1.207031 0.351562 1.03125 0.21875 C 0.851562 0.0820312 0.722656 -0.0859375 0.640625 -0.296875 C 0.566406 -0.515625 0.585938 -0.789062 0.703125 -1.125 C 0.859375 -1.59375 1.039062 -2.003906 1.25 -2.359375 C 1.457031 -2.722656 1.695312 -3.09375 1.96875 -3.46875 C 2.238281 -3.851562 2.53125 -4.300781 2.84375 -4.8125 C 3.164062 -5.332031 3.503906 -5.972656 3.859375 -6.734375 C 4.210938 -7.503906 4.585938 -8.460938 4.984375 -9.609375 Z M 4.984375 -9.609375 "/></g></g></g><g fill="#000000" fill-opacity="1"><g transform="translate(132.021612, 356.505587)"><g/></g></g><g fill="#000000" fill-opacity="1"><g transform="translate(137.688612, 358.221823)"><g><path d="M 2.421875 0.515625 C 2.273438 0.484375 2.082031 0.4375 1.84375 0.375 C 1.613281 0.320312 1.382812 0.234375 1.15625 0.109375 C 0.9375 -0.00390625 0.765625 -0.164062 0.640625 -0.375 C 0.515625 -0.59375 0.492188 -0.875 0.578125 -1.21875 C 0.648438 -1.601562 0.75 -1.945312 0.875 -2.25 C 1 -2.550781 1.144531 -2.847656 1.3125 -3.140625 C 1.476562 -3.429688 1.65625 -3.753906 1.84375 -4.109375 C 2.03125 -4.472656 2.234375 -4.910156 2.453125 -5.421875 C 2.671875 -5.929688 2.882812 -6.539062 3.09375 -7.25 C 3.3125 -7.957031 3.53125 -8.816406 3.75 -9.828125 C 3.96875 -10.835938 4.125 -11.710938 4.21875 -12.453125 C 4.3125 -13.203125 4.359375 -13.851562 4.359375 -14.40625 C 4.367188 -14.957031 4.363281 -15.4375 4.34375 -15.84375 C 4.320312 -16.257812 4.296875 -16.632812 4.265625 -16.96875 C 4.234375 -17.300781 4.222656 -17.628906 4.234375 -17.953125 C 4.242188 -18.273438 4.289062 -18.625 4.375 -19 C 4.445312 -19.351562 4.582031 -19.597656 4.78125 -19.734375 C 4.976562 -19.878906 5.203125 -19.960938 5.453125 -19.984375 C 5.710938 -20.015625 5.957031 -20.003906 6.1875 -19.953125 C 6.425781 -19.910156 6.617188 -19.875 6.765625 -19.84375 L 12.09375 -18.703125 C 13.394531 -18.421875 14.492188 -17.925781 15.390625 -17.21875 C 16.296875 -16.519531 16.988281 -15.648438 17.46875 -14.609375 C 17.945312 -13.566406 18.222656 -12.382812 18.296875 -11.0625 C 18.367188 -9.75 18.242188 -8.335938 17.921875 -6.828125 C 17.597656 -5.328125 17.132812 -3.988281 16.53125 -2.8125 C 15.925781 -1.632812 15.191406 -0.664062 14.328125 0.09375 C 13.460938 0.863281 12.472656 1.382812 11.359375 1.65625 C 10.253906 1.9375 9.050781 1.9375 7.75 1.65625 Z M 10.203125 -13.8125 L 8.03125 -3.609375 C 7.96875 -3.316406 7.960938 -3.09375 8.015625 -2.9375 C 8.078125 -2.789062 8.164062 -2.675781 8.28125 -2.59375 C 8.394531 -2.507812 8.507812 -2.457031 8.625 -2.4375 C 8.988281 -2.363281 9.363281 -2.457031 9.75 -2.71875 C 10.132812 -2.988281 10.5 -3.378906 10.84375 -3.890625 C 11.195312 -4.410156 11.515625 -5.019531 11.796875 -5.71875 C 12.078125 -6.425781 12.300781 -7.179688 12.46875 -7.984375 C 12.644531 -8.796875 12.75 -9.578125 12.78125 -10.328125 C 12.8125 -11.078125 12.769531 -11.765625 12.65625 -12.390625 C 12.550781 -13.015625 12.378906 -13.523438 12.140625 -13.921875 C 11.898438 -14.316406 11.597656 -14.550781 11.234375 -14.625 C 11.117188 -14.644531 10.992188 -14.644531 10.859375 -14.625 C 10.722656 -14.613281 10.59375 -14.546875 10.46875 -14.421875 C 10.351562 -14.296875 10.265625 -14.09375 10.203125 -13.8125 Z M 10.203125 -13.8125 "/></g></g></g><g fill="#000000" fill-opacity="1"><g transform="translate(153.931987, 361.662399)"><g><path d="M 2.890625 -10.421875 C 3.015625 -11.410156 3.085938 -12.269531 3.109375 -13 C 3.140625 -13.726562 3.132812 -14.351562 3.09375 -14.875 C 3.050781 -15.40625 3 -15.867188 2.9375 -16.265625 C 2.882812 -16.671875 2.828125 -17.03125 2.765625 -17.34375 C 2.703125 -17.664062 2.65625 -17.988281 2.625 -18.3125 C 2.601562 -18.632812 2.617188 -18.984375 2.671875 -19.359375 C 2.710938 -19.703125 2.828125 -19.945312 3.015625 -20.09375 C 3.203125 -20.25 3.421875 -20.347656 3.671875 -20.390625 C 3.921875 -20.429688 4.164062 -20.441406 4.40625 -20.421875 C 4.644531 -20.398438 4.84375 -20.378906 5 -20.359375 L 16.578125 -18.9375 C 16.992188 -18.882812 17.316406 -18.710938 17.546875 -18.421875 C 17.773438 -18.128906 17.867188 -17.769531 17.828125 -17.34375 L 17.3125 -13.25 C 17.289062 -13 17.25 -12.742188 17.1875 -12.484375 C 17.125 -12.234375 17.007812 -12.035156 16.84375 -11.890625 C 16.6875 -11.742188 16.4375 -11.691406 16.09375 -11.734375 C 15.75 -11.773438 15.425781 -11.921875 15.125 -12.171875 C 14.820312 -12.421875 14.507812 -12.722656 14.1875 -13.078125 C 13.863281 -13.441406 13.503906 -13.800781 13.109375 -14.15625 C 12.710938 -14.519531 12.253906 -14.84375 11.734375 -15.125 C 11.222656 -15.414062 10.617188 -15.601562 9.921875 -15.6875 C 9.648438 -15.71875 9.445312 -15.65625 9.3125 -15.5 C 9.175781 -15.351562 9.070312 -15.132812 9 -14.84375 C 8.9375 -14.550781 8.882812 -14.207031 8.84375 -13.8125 C 8.78125 -13.28125 8.769531 -12.84375 8.8125 -12.5 C 8.863281 -12.164062 9.015625 -11.90625 9.265625 -11.71875 C 9.515625 -11.539062 9.929688 -11.4375 10.515625 -11.40625 C 10.941406 -11.375 11.316406 -11.367188 11.640625 -11.390625 C 11.960938 -11.410156 12.257812 -11.4375 12.53125 -11.46875 C 12.8125 -11.5 13.09375 -11.5 13.375 -11.46875 C 13.757812 -11.414062 14.015625 -11.25 14.140625 -10.96875 C 14.265625 -10.695312 14.3125 -10.425781 14.28125 -10.15625 L 13.921875 -7.28125 C 13.890625 -7.007812 13.78125 -6.753906 13.59375 -6.515625 C 13.40625 -6.285156 13.117188 -6.195312 12.734375 -6.25 C 12.453125 -6.28125 12.179688 -6.335938 11.921875 -6.421875 C 11.660156 -6.515625 11.375 -6.613281 11.0625 -6.71875 C 10.757812 -6.832031 10.394531 -6.925781 9.96875 -7 C 9.425781 -7.082031 9.003906 -7.070312 8.703125 -6.96875 C 8.410156 -6.875 8.195312 -6.675781 8.0625 -6.375 C 7.9375 -6.070312 7.84375 -5.65625 7.78125 -5.125 C 7.726562 -4.738281 7.695312 -4.390625 7.6875 -4.078125 C 7.6875 -3.773438 7.734375 -3.53125 7.828125 -3.34375 C 7.921875 -3.164062 8.101562 -3.0625 8.375 -3.03125 C 9.070312 -2.945312 9.703125 -2.976562 10.265625 -3.125 C 10.835938 -3.28125 11.359375 -3.488281 11.828125 -3.75 C 12.304688 -4.007812 12.742188 -4.273438 13.140625 -4.546875 C 13.535156 -4.816406 13.910156 -5.039062 14.265625 -5.21875 C 14.617188 -5.394531 14.96875 -5.460938 15.3125 -5.421875 C 15.65625 -5.378906 15.890625 -5.265625 16.015625 -5.078125 C 16.140625 -4.890625 16.195312 -4.664062 16.1875 -4.40625 C 16.1875 -4.144531 16.171875 -3.882812 16.140625 -3.625 L 15.640625 0.46875 C 15.585938 0.882812 15.410156 1.207031 15.109375 1.4375 C 14.816406 1.675781 14.460938 1.769531 14.046875 1.71875 L 2.234375 0.265625 C 2.085938 0.253906 1.90625 0.234375 1.6875 0.203125 C 1.46875 0.171875 1.253906 0.101562 1.046875 0 C 0.847656 -0.09375 0.6875 -0.238281 0.5625 -0.4375 C 0.445312 -0.632812 0.410156 -0.898438 0.453125 -1.234375 C 0.515625 -1.734375 0.609375 -2.175781 0.734375 -2.5625 C 0.867188 -2.957031 1.03125 -3.367188 1.21875 -3.796875 C 1.40625 -4.234375 1.597656 -4.738281 1.796875 -5.3125 C 2.003906 -5.882812 2.203125 -6.578125 2.390625 -7.390625 C 2.578125 -8.210938 2.742188 -9.222656 2.890625 -10.421875 Z M 2.890625 -10.421875 "/></g></g></g><g fill="#000000" fill-opacity="1"><g transform="translate(170.261045, 363.489227)"><g/></g></g><g fill="#000000" fill-opacity="1"><g transform="translate(176.17183, 364.01282)"><g><path d="M 0.3125 -14.9375 L 0.3125 -19.34375 C 0.3125 -19.78125 0.441406 -20.132812 0.703125 -20.40625 C 0.972656 -20.675781 1.332031 -20.8125 1.78125 -20.8125 L 14.8125 -20.796875 C 15.257812 -20.796875 15.617188 -20.660156 15.890625 -20.390625 C 16.160156 -20.117188 16.296875 -19.765625 16.296875 -19.328125 L 16.296875 -14.921875 C 16.296875 -14.703125 16.21875 -14.523438 16.0625 -14.390625 C 15.90625 -14.253906 15.722656 -14.1875 15.515625 -14.1875 C 15.210938 -14.1875 14.929688 -14.242188 14.671875 -14.359375 C 14.421875 -14.472656 14.171875 -14.617188 13.921875 -14.796875 C 13.671875 -14.984375 13.410156 -15.160156 13.140625 -15.328125 C 12.878906 -15.503906 12.585938 -15.648438 12.265625 -15.765625 C 11.941406 -15.878906 11.578125 -15.9375 11.171875 -15.9375 L 10.953125 -15.9375 L 10.953125 -10.390625 C 10.953125 -9.359375 10.976562 -8.46875 11.03125 -7.71875 C 11.09375 -6.976562 11.175781 -6.335938 11.28125 -5.796875 C 11.382812 -5.253906 11.488281 -4.785156 11.59375 -4.390625 C 11.707031 -3.992188 11.8125 -3.632812 11.90625 -3.3125 C 12.007812 -3 12.09375 -2.679688 12.15625 -2.359375 C 12.21875 -2.046875 12.25 -1.691406 12.25 -1.296875 C 12.25 -0.941406 12.164062 -0.671875 12 -0.484375 C 11.832031 -0.304688 11.625 -0.179688 11.375 -0.109375 C 11.132812 -0.0351562 10.894531 0 10.65625 0 C 10.414062 0.0078125 10.21875 0.015625 10.0625 0.015625 L 6.328125 0 C 6.171875 0 5.972656 0 5.734375 0 C 5.492188 -0.0078125 5.25 -0.0507812 5 -0.125 C 4.757812 -0.195312 4.554688 -0.320312 4.390625 -0.5 C 4.222656 -0.6875 4.140625 -0.957031 4.140625 -1.3125 C 4.140625 -1.707031 4.171875 -2.0625 4.234375 -2.375 C 4.296875 -2.695312 4.375 -3.015625 4.46875 -3.328125 C 4.570312 -3.648438 4.675781 -4.007812 4.78125 -4.40625 C 4.894531 -4.800781 5.003906 -5.269531 5.109375 -5.8125 C 5.210938 -6.351562 5.296875 -6.992188 5.359375 -7.734375 C 5.429688 -8.484375 5.46875 -9.375 5.46875 -10.40625 L 5.46875 -15.953125 L 5.421875 -15.953125 C 5.015625 -15.953125 4.648438 -15.894531 4.328125 -15.78125 C 4.003906 -15.664062 3.707031 -15.519531 3.4375 -15.34375 C 3.175781 -15.175781 2.921875 -15 2.671875 -14.8125 C 2.421875 -14.632812 2.164062 -14.488281 1.90625 -14.375 C 1.65625 -14.257812 1.378906 -14.203125 1.078125 -14.203125 C 0.867188 -14.203125 0.6875 -14.269531 0.53125 -14.40625 C 0.382812 -14.539062 0.3125 -14.71875 0.3125 -14.9375 Z M 0.3125 -14.9375 "/></g></g></g><g fill="#000000" fill-opacity="1"><g transform="translate(193.428627, 364.03646)"><g><path d="M -1.5625 -19.4375 C -1.59375 -19.789062 -1.535156 -20.066406 -1.390625 -20.265625 C -1.242188 -20.460938 -1.050781 -20.609375 -0.8125 -20.703125 C -0.570312 -20.796875 -0.332031 -20.859375 -0.09375 -20.890625 C 0.132812 -20.921875 0.328125 -20.941406 0.484375 -20.953125 L 4.203125 -21.3125 C 4.359375 -21.320312 4.554688 -21.335938 4.796875 -21.359375 C 5.035156 -21.378906 5.28125 -21.363281 5.53125 -21.3125 C 5.78125 -21.257812 6 -21.148438 6.1875 -20.984375 C 6.375 -20.816406 6.484375 -20.554688 6.515625 -20.203125 C 6.546875 -19.816406 6.546875 -19.460938 6.515625 -19.140625 C 6.484375 -18.816406 6.429688 -18.488281 6.359375 -18.15625 C 6.296875 -17.832031 6.226562 -17.46875 6.15625 -17.0625 C 6.082031 -16.65625 6.019531 -16.175781 5.96875 -15.625 C 5.914062 -15.082031 5.894531 -14.4375 5.90625 -13.6875 C 5.914062 -12.9375 5.96875 -12.050781 6.0625 -11.03125 C 6.082031 -10.875 6.101562 -10.613281 6.125 -10.25 C 6.144531 -9.882812 6.175781 -9.46875 6.21875 -9 C 6.269531 -8.539062 6.347656 -8.070312 6.453125 -7.59375 C 6.554688 -7.113281 6.703125 -6.671875 6.890625 -6.265625 C 7.085938 -5.867188 7.332031 -5.554688 7.625 -5.328125 C 7.914062 -5.097656 8.269531 -5.003906 8.6875 -5.046875 C 9.113281 -5.085938 9.445312 -5.25 9.6875 -5.53125 C 9.9375 -5.8125 10.113281 -6.164062 10.21875 -6.59375 C 10.332031 -7.019531 10.394531 -7.476562 10.40625 -7.96875 C 10.414062 -8.457031 10.398438 -8.9375 10.359375 -9.40625 C 10.328125 -9.875 10.285156 -10.285156 10.234375 -10.640625 C 10.179688 -11.003906 10.144531 -11.265625 10.125 -11.421875 C 10.03125 -12.441406 9.914062 -13.320312 9.78125 -14.0625 C 9.644531 -14.800781 9.5 -15.429688 9.34375 -15.953125 C 9.195312 -16.484375 9.046875 -16.941406 8.890625 -17.328125 C 8.742188 -17.710938 8.601562 -18.054688 8.46875 -18.359375 C 8.34375 -18.671875 8.234375 -18.984375 8.140625 -19.296875 C 8.046875 -19.609375 7.984375 -19.957031 7.953125 -20.34375 C 7.921875 -20.695312 7.976562 -20.972656 8.125 -21.171875 C 8.269531 -21.367188 8.460938 -21.515625 8.703125 -21.609375 C 8.941406 -21.710938 9.179688 -21.773438 9.421875 -21.796875 C 9.671875 -21.828125 9.863281 -21.851562 10 -21.875 L 13.71875 -22.21875 C 13.875 -22.238281 14.070312 -22.253906 14.3125 -22.265625 C 14.550781 -22.285156 14.796875 -22.269531 15.046875 -22.21875 C 15.296875 -22.175781 15.515625 -22.070312 15.703125 -21.90625 C 15.898438 -21.738281 16.015625 -21.476562 16.046875 -21.125 C 16.078125 -20.738281 16.078125 -20.382812 16.046875 -20.0625 C 16.015625 -19.738281 15.960938 -19.410156 15.890625 -19.078125 C 15.816406 -18.753906 15.742188 -18.390625 15.671875 -17.984375 C 15.597656 -17.578125 15.535156 -17.097656 15.484375 -16.546875 C 15.441406 -16.003906 15.425781 -15.359375 15.4375 -14.609375 C 15.445312 -13.859375 15.5 -12.972656 15.59375 -11.953125 C 15.644531 -11.421875 15.695312 -10.882812 15.75 -10.34375 C 15.800781 -9.8125 15.851562 -9.296875 15.90625 -8.796875 C 16 -7.765625 15.96875 -6.785156 15.8125 -5.859375 C 15.664062 -4.941406 15.34375 -4.117188 14.84375 -3.390625 C 14.34375 -2.660156 13.625 -2.054688 12.6875 -1.578125 C 11.757812 -1.097656 10.566406 -0.789062 9.109375 -0.65625 C 7.648438 -0.507812 6.414062 -0.582031 5.40625 -0.875 C 4.40625 -1.175781 3.585938 -1.632812 2.953125 -2.25 C 2.328125 -2.875 1.851562 -3.625 1.53125 -4.5 C 1.207031 -5.375 1 -6.328125 0.90625 -7.359375 C 0.851562 -7.859375 0.800781 -8.375 0.75 -8.90625 C 0.707031 -9.445312 0.660156 -9.984375 0.609375 -10.515625 C 0.515625 -11.535156 0.398438 -12.414062 0.265625 -13.15625 C 0.128906 -13.894531 -0.015625 -14.523438 -0.171875 -15.046875 C -0.328125 -15.578125 -0.476562 -16.035156 -0.625 -16.421875 C -0.769531 -16.804688 -0.90625 -17.148438 -1.03125 -17.453125 C -1.164062 -17.765625 -1.28125 -18.078125 -1.375 -18.390625 C -1.46875 -18.703125 -1.53125 -19.050781 -1.5625 -19.4375 Z M -1.5625 -19.4375 "/></g></g></g><g fill="#000000" fill-opacity="1"><g transform="translate(212.048634, 362.023455)"><g/></g></g><g fill="#000000" fill-opacity="1"><g transform="translate(218.06232, 361.337239)"><g><path d="M -0.03125 -1.34375 C -0.125 -1.726562 -0.175781 -2.082031 -0.1875 -2.40625 C -0.195312 -2.726562 -0.1875 -3.054688 -0.15625 -3.390625 C -0.132812 -3.722656 -0.117188 -4.09375 -0.109375 -4.5 C -0.0976562 -4.914062 -0.109375 -5.394531 -0.140625 -5.9375 C -0.171875 -6.488281 -0.238281 -7.132812 -0.34375 -7.875 C -0.457031 -8.613281 -0.640625 -9.484375 -0.890625 -10.484375 C -1.128906 -11.492188 -1.367188 -12.351562 -1.609375 -13.0625 C -1.847656 -13.769531 -2.078125 -14.375 -2.296875 -14.875 C -2.523438 -15.382812 -2.738281 -15.816406 -2.9375 -16.171875 C -3.132812 -16.523438 -3.316406 -16.84375 -3.484375 -17.125 C -3.660156 -17.414062 -3.816406 -17.707031 -3.953125 -18 C -4.097656 -18.300781 -4.21875 -18.640625 -4.3125 -19.015625 C -4.394531 -19.359375 -4.375 -19.640625 -4.25 -19.859375 C -4.125 -20.078125 -3.953125 -20.25 -3.734375 -20.375 C -3.515625 -20.507812 -3.285156 -20.609375 -3.046875 -20.671875 C -2.816406 -20.734375 -2.625 -20.78125 -2.46875 -20.8125 L 0.296875 -21.484375 C 0.492188 -21.535156 0.703125 -21.566406 0.921875 -21.578125 C 1.140625 -21.597656 1.351562 -21.570312 1.5625 -21.5 C 1.769531 -21.4375 1.945312 -21.316406 2.09375 -21.140625 L 2.09375 -21.15625 L 6.375 -15.71875 C 6.570312 -15.476562 6.738281 -15.375 6.875 -15.40625 C 7.039062 -15.445312 7.15625 -15.613281 7.21875 -15.90625 C 7.351562 -16.5625 7.476562 -17.257812 7.59375 -18 C 7.707031 -18.738281 7.832031 -19.492188 7.96875 -20.265625 C 8.113281 -21.046875 8.28125 -21.804688 8.46875 -22.546875 C 8.476562 -22.816406 8.5625 -23.035156 8.71875 -23.203125 C 8.875 -23.367188 9.0625 -23.5 9.28125 -23.59375 C 9.507812 -23.695312 9.722656 -23.769531 9.921875 -23.8125 L 13.953125 -24.796875 C 14.109375 -24.828125 14.300781 -24.867188 14.53125 -24.921875 C 14.757812 -24.972656 15.003906 -24.988281 15.265625 -24.96875 C 15.523438 -24.957031 15.753906 -24.882812 15.953125 -24.75 C 16.160156 -24.613281 16.304688 -24.375 16.390625 -24.03125 C 16.484375 -23.65625 16.539062 -23.300781 16.5625 -22.96875 C 16.582031 -22.644531 16.578125 -22.316406 16.546875 -21.984375 C 16.523438 -21.648438 16.503906 -21.28125 16.484375 -20.875 C 16.472656 -20.46875 16.476562 -19.988281 16.5 -19.4375 C 16.53125 -18.882812 16.601562 -18.238281 16.71875 -17.5 C 16.84375 -16.757812 17.023438 -15.882812 17.265625 -14.875 C 17.515625 -13.875 17.753906 -13.019531 17.984375 -12.3125 C 18.210938 -11.601562 18.441406 -11 18.671875 -10.5 C 18.898438 -10 19.113281 -9.566406 19.3125 -9.203125 C 19.519531 -8.847656 19.707031 -8.523438 19.875 -8.234375 C 20.050781 -7.953125 20.203125 -7.664062 20.328125 -7.375 C 20.460938 -7.082031 20.578125 -6.742188 20.671875 -6.359375 C 20.753906 -6.015625 20.734375 -5.734375 20.609375 -5.515625 C 20.492188 -5.296875 20.320312 -5.117188 20.09375 -4.984375 C 19.875 -4.859375 19.648438 -4.765625 19.421875 -4.703125 C 19.191406 -4.640625 19 -4.59375 18.84375 -4.5625 L 15.234375 -3.6875 C 15.003906 -3.625 14.757812 -3.570312 14.5 -3.53125 C 14.25 -3.5 14.003906 -3.492188 13.765625 -3.515625 C 13.535156 -3.535156 13.332031 -3.617188 13.15625 -3.765625 C 12.976562 -3.910156 12.851562 -4.140625 12.78125 -4.453125 C 12.6875 -4.835938 12.625 -5.1875 12.59375 -5.5 C 12.570312 -5.820312 12.5625 -6.144531 12.5625 -6.46875 C 12.5625 -6.789062 12.554688 -7.15625 12.546875 -7.5625 C 12.535156 -7.96875 12.5 -8.441406 12.4375 -8.984375 C 12.382812 -9.535156 12.296875 -10.175781 12.171875 -10.90625 C 12.046875 -11.644531 11.859375 -12.515625 11.609375 -13.515625 L 9.453125 -5.953125 C 9.429688 -5.796875 9.367188 -5.660156 9.265625 -5.546875 C 9.160156 -5.441406 9.039062 -5.375 8.90625 -5.34375 C 8.625 -5.28125 8.378906 -5.375 8.171875 -5.625 L 3.265625 -11.203125 C 3.503906 -10.234375 3.734375 -9.40625 3.953125 -8.71875 C 4.179688 -8.039062 4.40625 -7.460938 4.625 -6.984375 C 4.851562 -6.503906 5.066406 -6.085938 5.265625 -5.734375 C 5.460938 -5.390625 5.644531 -5.078125 5.8125 -4.796875 C 5.976562 -4.515625 6.128906 -4.226562 6.265625 -3.9375 C 6.398438 -3.65625 6.507812 -3.328125 6.59375 -2.953125 C 6.664062 -2.640625 6.660156 -2.378906 6.578125 -2.171875 C 6.492188 -1.960938 6.351562 -1.796875 6.15625 -1.671875 C 5.957031 -1.546875 5.738281 -1.441406 5.5 -1.359375 C 5.257812 -1.273438 5.019531 -1.207031 4.78125 -1.15625 L 2.421875 -0.578125 C 2.265625 -0.546875 2.066406 -0.503906 1.828125 -0.453125 C 1.597656 -0.398438 1.351562 -0.378906 1.09375 -0.390625 C 0.84375 -0.410156 0.613281 -0.488281 0.40625 -0.625 C 0.195312 -0.757812 0.0507812 -1 -0.03125 -1.34375 Z M -0.03125 -1.34375 "/></g></g></g><g fill="#000000" fill-opacity="1"><g transform="translate(240.096914, 355.880496)"><g><path d="M 1.96875 -0.71875 C 1.675781 -0.613281 1.390625 -0.535156 1.109375 -0.484375 C 0.835938 -0.429688 0.597656 -0.445312 0.390625 -0.53125 C 0.179688 -0.613281 0.03125 -0.78125 -0.0625 -1.03125 C -0.15625 -1.289062 -0.195312 -1.515625 -0.1875 -1.703125 C -0.1875 -1.898438 -0.15625 -2.109375 -0.09375 -2.328125 C -0.03125 -2.546875 0.0390625 -2.796875 0.125 -3.078125 C 0.207031 -3.359375 0.269531 -3.6875 0.3125 -4.0625 C 0.351562 -4.445312 0.359375 -4.921875 0.328125 -5.484375 C 0.285156 -6.335938 0.242188 -7.066406 0.203125 -7.671875 C 0.171875 -8.273438 0.132812 -8.804688 0.09375 -9.265625 C 0.0625 -9.734375 0.03125 -10.164062 0 -10.5625 C -0.03125 -10.96875 -0.0625 -11.363281 -0.09375 -11.75 C -0.132812 -12.144531 -0.171875 -12.578125 -0.203125 -13.046875 C -0.242188 -13.515625 -0.289062 -14.050781 -0.34375 -14.65625 C -0.40625 -15.269531 -0.472656 -16 -0.546875 -16.84375 C -0.585938 -17.425781 -0.628906 -17.875 -0.671875 -18.1875 C -0.722656 -18.507812 -0.78125 -18.769531 -0.84375 -18.96875 C -0.914062 -19.164062 -0.992188 -19.359375 -1.078125 -19.546875 C -1.171875 -19.734375 -1.28125 -19.988281 -1.40625 -20.3125 C -1.425781 -20.382812 -1.457031 -20.484375 -1.5 -20.609375 C -1.539062 -20.734375 -1.554688 -20.878906 -1.546875 -21.046875 C -1.535156 -21.210938 -1.46875 -21.367188 -1.34375 -21.515625 C -1.226562 -21.671875 -1.03125 -21.800781 -0.75 -21.90625 L 2.90625 -23.25 C 3.175781 -23.34375 3.414062 -23.421875 3.625 -23.484375 C 3.84375 -23.554688 4.046875 -23.578125 4.234375 -23.546875 C 4.429688 -23.515625 4.644531 -23.40625 4.875 -23.21875 C 5.113281 -23.039062 5.394531 -22.757812 5.71875 -22.375 C 6.039062 -21.988281 6.4375 -21.472656 6.90625 -20.828125 C 7.476562 -20.023438 7.976562 -19.316406 8.40625 -18.703125 C 8.832031 -18.097656 9.21875 -17.554688 9.5625 -17.078125 C 9.90625 -16.597656 10.234375 -16.128906 10.546875 -15.671875 C 10.859375 -15.222656 11.191406 -14.753906 11.546875 -14.265625 C 11.898438 -13.785156 12.296875 -13.253906 12.734375 -12.671875 C 13.179688 -12.085938 13.695312 -11.394531 14.28125 -10.59375 C 14.625 -10.144531 14.9375 -9.789062 15.21875 -9.53125 C 15.5 -9.269531 15.757812 -9.054688 16 -8.890625 C 16.238281 -8.734375 16.453125 -8.59375 16.640625 -8.46875 C 16.835938 -8.34375 17.003906 -8.207031 17.140625 -8.0625 C 17.273438 -7.914062 17.390625 -7.710938 17.484375 -7.453125 C 17.578125 -7.203125 17.566406 -6.976562 17.453125 -6.78125 C 17.347656 -6.582031 17.175781 -6.414062 16.9375 -6.28125 C 16.695312 -6.144531 16.425781 -6.019531 16.125 -5.90625 L 11.140625 -4.078125 C 10.921875 -4.003906 10.695312 -3.957031 10.46875 -3.9375 C 10.25 -3.925781 10.050781 -3.960938 9.875 -4.046875 C 9.695312 -4.128906 9.566406 -4.28125 9.484375 -4.5 C 9.367188 -4.800781 9.300781 -5.050781 9.28125 -5.25 C 9.269531 -5.445312 9.269531 -5.632812 9.28125 -5.8125 C 9.289062 -5.988281 9.273438 -6.203125 9.234375 -6.453125 C 9.191406 -6.703125 9.097656 -7.035156 8.953125 -7.453125 C 8.867188 -7.671875 8.765625 -7.90625 8.640625 -8.15625 L 5.1875 -6.875 C 5.226562 -6.75 5.273438 -6.632812 5.328125 -6.53125 C 5.390625 -6.425781 5.453125 -6.3125 5.515625 -6.1875 C 5.722656 -5.789062 5.90625 -5.488281 6.0625 -5.28125 C 6.226562 -5.082031 6.375 -4.914062 6.5 -4.78125 C 6.625 -4.65625 6.742188 -4.515625 6.859375 -4.359375 C 6.972656 -4.203125 7.085938 -3.972656 7.203125 -3.671875 C 7.285156 -3.453125 7.285156 -3.25 7.203125 -3.0625 C 7.117188 -2.882812 6.984375 -2.726562 6.796875 -2.59375 C 6.617188 -2.457031 6.425781 -2.351562 6.21875 -2.28125 Z M 3.5 -11.515625 L 5.921875 -12.40625 C 5.640625 -12.78125 5.351562 -13.175781 5.0625 -13.59375 C 4.769531 -14.007812 4.445312 -14.457031 4.09375 -14.9375 C 3.882812 -15.207031 3.695312 -15.429688 3.53125 -15.609375 C 3.375 -15.785156 3.242188 -15.84375 3.140625 -15.78125 C 3.066406 -15.738281 3.03125 -15.582031 3.03125 -15.3125 C 3.03125 -15.039062 3.046875 -14.710938 3.078125 -14.328125 C 3.109375 -13.953125 3.148438 -13.566406 3.203125 -13.171875 C 3.265625 -12.773438 3.328125 -12.425781 3.390625 -12.125 C 3.453125 -11.820312 3.488281 -11.617188 3.5 -11.515625 Z M 3.5 -11.515625 "/></g></g></g><g fill="#000000" fill-opacity="1"><g transform="translate(258.792984, 348.898849)"><g><path d="M -2.140625 -4.140625 C -2.441406 -4.753906 -2.578125 -5.351562 -2.546875 -5.9375 C -2.515625 -6.53125 -2.351562 -7.0625 -2.0625 -7.53125 C -1.78125 -8 -1.414062 -8.34375 -0.96875 -8.5625 C -0.601562 -8.75 -0.222656 -8.835938 0.171875 -8.828125 C 0.566406 -8.816406 0.972656 -8.742188 1.390625 -8.609375 C 1.816406 -8.484375 2.242188 -8.332031 2.671875 -8.15625 C 3.097656 -7.988281 3.519531 -7.832031 3.9375 -7.6875 C 4.351562 -7.550781 4.753906 -7.46875 5.140625 -7.4375 C 5.523438 -7.40625 5.882812 -7.46875 6.21875 -7.625 C 6.632812 -7.832031 6.878906 -8.09375 6.953125 -8.40625 C 7.023438 -8.71875 6.988281 -9.03125 6.84375 -9.34375 C 6.664062 -9.71875 6.390625 -9.960938 6.015625 -10.078125 C 5.648438 -10.203125 5.207031 -10.253906 4.6875 -10.234375 C 4.164062 -10.222656 3.59375 -10.175781 2.96875 -10.09375 C 2.34375 -10.007812 1.695312 -9.925781 1.03125 -9.84375 C 0.375 -9.769531 -0.289062 -9.75 -0.96875 -9.78125 C -1.65625 -9.820312 -2.3125 -9.945312 -2.9375 -10.15625 C -3.570312 -10.375 -4.15625 -10.71875 -4.6875 -11.1875 C -5.21875 -11.65625 -5.6875 -12.300781 -6.09375 -13.125 C -6.675781 -14.34375 -6.878906 -15.53125 -6.703125 -16.6875 C -6.523438 -17.851562 -5.988281 -18.953125 -5.09375 -19.984375 C -4.195312 -21.023438 -2.953125 -21.925781 -1.359375 -22.6875 C -0.609375 -23.050781 0.15625 -23.328125 0.9375 -23.515625 C 1.726562 -23.710938 2.5 -23.796875 3.25 -23.765625 C 4.007812 -23.734375 4.6875 -23.550781 5.28125 -23.21875 C 5.875 -22.894531 6.335938 -22.382812 6.671875 -21.6875 C 6.910156 -21.175781 7.019531 -20.660156 7 -20.140625 C 6.988281 -19.628906 6.851562 -19.15625 6.59375 -18.71875 C 6.332031 -18.28125 5.972656 -17.921875 5.515625 -17.640625 C 5.117188 -17.429688 4.703125 -17.328125 4.265625 -17.328125 C 3.828125 -17.335938 3.378906 -17.40625 2.921875 -17.53125 C 2.460938 -17.664062 2.003906 -17.800781 1.546875 -17.9375 C 1.085938 -18.070312 0.640625 -18.160156 0.203125 -18.203125 C -0.222656 -18.242188 -0.625 -18.175781 -1 -18 C -1.300781 -17.84375 -1.519531 -17.660156 -1.65625 -17.453125 C -1.789062 -17.253906 -1.851562 -17.054688 -1.84375 -16.859375 C -1.832031 -16.660156 -1.789062 -16.488281 -1.71875 -16.34375 C -1.550781 -15.988281 -1.273438 -15.75 -0.890625 -15.625 C -0.503906 -15.5 -0.046875 -15.445312 0.484375 -15.46875 C 1.023438 -15.488281 1.613281 -15.539062 2.25 -15.625 C 2.882812 -15.71875 3.550781 -15.796875 4.25 -15.859375 C 4.957031 -15.921875 5.660156 -15.929688 6.359375 -15.890625 C 7.066406 -15.859375 7.742188 -15.726562 8.390625 -15.5 C 9.046875 -15.28125 9.648438 -14.929688 10.203125 -14.453125 C 10.765625 -13.972656 11.25 -13.3125 11.65625 -12.46875 C 12.082031 -11.570312 12.304688 -10.726562 12.328125 -9.9375 C 12.347656 -9.144531 12.21875 -8.40625 11.9375 -7.71875 C 11.664062 -7.039062 11.289062 -6.421875 10.8125 -5.859375 C 10.34375 -5.304688 9.804688 -4.816406 9.203125 -4.390625 C 8.597656 -3.960938 8.003906 -3.609375 7.421875 -3.328125 C 6.734375 -2.992188 6.015625 -2.703125 5.265625 -2.453125 C 4.523438 -2.210938 3.78125 -2.035156 3.03125 -1.921875 C 2.289062 -1.804688 1.585938 -1.796875 0.921875 -1.890625 C 0.265625 -1.984375 -0.328125 -2.210938 -0.859375 -2.578125 C -1.390625 -2.941406 -1.816406 -3.460938 -2.140625 -4.140625 Z M -2.140625 -4.140625 "/></g></g></g><g fill="#000000" fill-opacity="1"><g transform="translate(273.564031, 341.767389)"><g><path d="M 7.515625 -4.234375 C 6.359375 -3.535156 5.257812 -3.085938 4.21875 -2.890625 C 3.1875 -2.691406 2.210938 -2.703125 1.296875 -2.921875 C 0.390625 -3.140625 -0.460938 -3.523438 -1.265625 -4.078125 C -2.066406 -4.628906 -2.816406 -5.3125 -3.515625 -6.125 C -4.210938 -6.945312 -4.859375 -7.859375 -5.453125 -8.859375 C -6.046875 -9.859375 -6.539062 -10.863281 -6.9375 -11.875 C -7.332031 -12.882812 -7.582031 -13.875 -7.6875 -14.84375 C -7.789062 -15.8125 -7.71875 -16.742188 -7.46875 -17.640625 C -7.226562 -18.546875 -6.769531 -19.40625 -6.09375 -20.21875 C -5.425781 -21.03125 -4.515625 -21.785156 -3.359375 -22.484375 C -2.191406 -23.171875 -1.128906 -23.609375 -0.171875 -23.796875 C 0.773438 -23.992188 1.617188 -24.003906 2.359375 -23.828125 C 3.109375 -23.648438 3.75 -23.351562 4.28125 -22.9375 C 4.8125 -22.53125 5.234375 -22.066406 5.546875 -21.546875 C 5.816406 -21.097656 5.972656 -20.632812 6.015625 -20.15625 C 6.054688 -19.675781 6.015625 -19.210938 5.890625 -18.765625 C 5.765625 -18.316406 5.566406 -17.910156 5.296875 -17.546875 C 5.035156 -17.179688 4.734375 -16.894531 4.390625 -16.6875 C 3.941406 -16.425781 3.460938 -16.34375 2.953125 -16.4375 C 2.453125 -16.539062 2.003906 -16.921875 1.609375 -17.578125 C 1.328125 -18.066406 1.0625 -18.4375 0.8125 -18.6875 C 0.5625 -18.9375 0.285156 -19.066406 -0.015625 -19.078125 C -0.316406 -19.085938 -0.679688 -18.96875 -1.109375 -18.71875 C -1.628906 -18.40625 -1.976562 -18.003906 -2.15625 -17.515625 C -2.332031 -17.035156 -2.375 -16.488281 -2.28125 -15.875 C -2.1875 -15.269531 -1.988281 -14.617188 -1.6875 -13.921875 C -1.394531 -13.222656 -1.03125 -12.503906 -0.59375 -11.765625 C -0.15625 -11.035156 0.296875 -10.367188 0.765625 -9.765625 C 1.242188 -9.171875 1.726562 -8.6875 2.21875 -8.3125 C 2.71875 -7.9375 3.21875 -7.710938 3.71875 -7.640625 C 4.226562 -7.566406 4.742188 -7.6875 5.265625 -8 C 5.691406 -8.25 5.972656 -8.507812 6.109375 -8.78125 C 6.242188 -9.050781 6.257812 -9.351562 6.15625 -9.6875 C 6.0625 -10.03125 5.867188 -10.441406 5.578125 -10.921875 C 5.179688 -11.585938 5.054688 -12.164062 5.203125 -12.65625 C 5.359375 -13.144531 5.660156 -13.519531 6.109375 -13.78125 C 6.453125 -13.988281 6.847656 -14.125 7.296875 -14.1875 C 7.753906 -14.25 8.207031 -14.226562 8.65625 -14.125 C 9.101562 -14.03125 9.53125 -13.847656 9.9375 -13.578125 C 10.34375 -13.304688 10.679688 -12.941406 10.953125 -12.484375 C 11.265625 -11.960938 11.472656 -11.367188 11.578125 -10.703125 C 11.679688 -10.046875 11.628906 -9.347656 11.421875 -8.609375 C 11.222656 -7.867188 10.8125 -7.125 10.1875 -6.375 C 9.570312 -5.632812 8.679688 -4.921875 7.515625 -4.234375 Z M 7.515625 -4.234375 "/></g></g></g><g fill="#000000" fill-opacity="1"><g transform="translate(288.057325, 333.109303)"><g><path d="M -6.234375 -8.34375 C -6.910156 -9.28125 -7.5 -10.222656 -8 -11.171875 C -8.5 -12.117188 -8.859375 -13.0625 -9.078125 -14 C -9.296875 -14.945312 -9.335938 -15.867188 -9.203125 -16.765625 C -9.066406 -17.671875 -8.710938 -18.550781 -8.140625 -19.40625 C -7.566406 -20.269531 -6.726562 -21.101562 -5.625 -21.90625 C -4.53125 -22.707031 -3.484375 -23.242188 -2.484375 -23.515625 C -1.492188 -23.796875 -0.546875 -23.863281 0.359375 -23.71875 C 1.265625 -23.570312 2.125 -23.25 2.9375 -22.75 C 3.757812 -22.25 4.546875 -21.617188 5.296875 -20.859375 C 6.054688 -20.097656 6.78125 -19.242188 7.46875 -18.296875 C 8.15625 -17.347656 8.742188 -16.394531 9.234375 -15.4375 C 9.722656 -14.488281 10.078125 -13.546875 10.296875 -12.609375 C 10.523438 -11.679688 10.570312 -10.757812 10.4375 -9.84375 C 10.300781 -8.9375 9.941406 -8.054688 9.359375 -7.203125 C 8.785156 -6.347656 7.953125 -5.519531 6.859375 -4.71875 C 5.753906 -3.914062 4.707031 -3.375 3.71875 -3.09375 C 2.726562 -2.8125 1.78125 -2.75 0.875 -2.90625 C -0.03125 -3.0625 -0.894531 -3.382812 -1.71875 -3.875 C -2.539062 -4.363281 -3.328125 -4.992188 -4.078125 -5.765625 C -4.828125 -6.535156 -5.546875 -7.394531 -6.234375 -8.34375 Z M -1.6875 -11.640625 C -1.175781 -10.941406 -0.671875 -10.304688 -0.171875 -9.734375 C 0.316406 -9.171875 0.8125 -8.71875 1.3125 -8.375 C 1.8125 -8.039062 2.304688 -7.851562 2.796875 -7.8125 C 3.285156 -7.769531 3.773438 -7.925781 4.265625 -8.28125 C 4.753906 -8.632812 5.050781 -9.050781 5.15625 -9.53125 C 5.269531 -10.007812 5.242188 -10.535156 5.078125 -11.109375 C 4.910156 -11.691406 4.632812 -12.304688 4.25 -12.953125 C 3.863281 -13.609375 3.414062 -14.285156 2.90625 -14.984375 C 2.40625 -15.671875 1.90625 -16.296875 1.40625 -16.859375 C 0.90625 -17.429688 0.40625 -17.890625 -0.09375 -18.234375 C -0.601562 -18.578125 -1.097656 -18.769531 -1.578125 -18.8125 C -2.066406 -18.851562 -2.554688 -18.695312 -3.046875 -18.34375 C -3.535156 -17.988281 -3.835938 -17.570312 -3.953125 -17.09375 C -4.066406 -16.613281 -4.035156 -16.082031 -3.859375 -15.5 C -3.691406 -14.914062 -3.410156 -14.296875 -3.015625 -13.640625 C -2.628906 -12.992188 -2.1875 -12.328125 -1.6875 -11.640625 Z M -1.6875 -11.640625 "/></g></g></g><g fill="#000000" fill-opacity="1"><g transform="translate(302.039465, 322.908703)"><g><path d="M -9.640625 -11.421875 L -12.546875 -14.734375 C -12.835938 -15.066406 -12.96875 -15.421875 -12.9375 -15.796875 C -12.914062 -16.171875 -12.738281 -16.507812 -12.40625 -16.8125 L -2.609375 -25.40625 C -2.273438 -25.695312 -1.914062 -25.832031 -1.53125 -25.8125 C -1.15625 -25.789062 -0.820312 -25.613281 -0.53125 -25.28125 L 2.375 -21.96875 C 2.519531 -21.8125 2.578125 -21.628906 2.546875 -21.421875 C 2.515625 -21.210938 2.421875 -21.039062 2.265625 -20.90625 C 2.046875 -20.695312 1.800781 -20.550781 1.53125 -20.46875 C 1.269531 -20.394531 0.984375 -20.34375 0.671875 -20.3125 C 0.367188 -20.28125 0.0625 -20.242188 -0.25 -20.203125 C -0.570312 -20.160156 -0.890625 -20.070312 -1.203125 -19.9375 C -1.523438 -19.8125 -1.835938 -19.613281 -2.140625 -19.34375 L -2.3125 -19.203125 L 1.359375 -15.03125 C 2.035156 -14.257812 2.640625 -13.613281 3.171875 -13.09375 C 3.710938 -12.582031 4.203125 -12.15625 4.640625 -11.8125 C 5.078125 -11.46875 5.46875 -11.179688 5.8125 -10.953125 C 6.15625 -10.734375 6.46875 -10.535156 6.75 -10.359375 C 7.03125 -10.191406 7.300781 -10.007812 7.5625 -9.8125 C 7.820312 -9.613281 8.082031 -9.363281 8.34375 -9.0625 C 8.570312 -8.800781 8.679688 -8.546875 8.671875 -8.296875 C 8.671875 -8.046875 8.601562 -7.8125 8.46875 -7.59375 C 8.332031 -7.382812 8.175781 -7.195312 8 -7.03125 C 7.820312 -6.875 7.675781 -6.742188 7.5625 -6.640625 L 4.75 -4.171875 C 4.632812 -4.066406 4.484375 -3.9375 4.296875 -3.78125 C 4.109375 -3.632812 3.898438 -3.503906 3.671875 -3.390625 C 3.441406 -3.285156 3.203125 -3.25 2.953125 -3.28125 C 2.710938 -3.3125 2.476562 -3.457031 2.25 -3.71875 C 1.988281 -4.019531 1.773438 -4.3125 1.609375 -4.59375 C 1.441406 -4.875 1.289062 -5.160156 1.15625 -5.453125 C 1.019531 -5.753906 0.863281 -6.085938 0.6875 -6.453125 C 0.507812 -6.828125 0.28125 -7.253906 0 -7.734375 C -0.28125 -8.210938 -0.640625 -8.75 -1.078125 -9.34375 C -1.523438 -9.945312 -2.085938 -10.632812 -2.765625 -11.40625 L -6.4375 -15.578125 L -6.46875 -15.546875 C -6.769531 -15.285156 -7.003906 -15.003906 -7.171875 -14.703125 C -7.335938 -14.410156 -7.460938 -14.109375 -7.546875 -13.796875 C -7.628906 -13.492188 -7.703125 -13.191406 -7.765625 -12.890625 C -7.835938 -12.585938 -7.929688 -12.304688 -8.046875 -12.046875 C -8.171875 -11.796875 -8.347656 -11.570312 -8.578125 -11.375 C -8.734375 -11.238281 -8.910156 -11.171875 -9.109375 -11.171875 C -9.316406 -11.179688 -9.492188 -11.265625 -9.640625 -11.421875 Z M -9.640625 -11.421875 "/></g></g></g><g fill="#000000" fill-opacity="1"><g transform="translate(315.043027, 311.529114)"><g><path d="M 1.421875 -1.53125 C 1.210938 -1.300781 0.992188 -1.097656 0.765625 -0.921875 C 0.546875 -0.753906 0.328125 -0.660156 0.109375 -0.640625 C -0.109375 -0.617188 -0.316406 -0.703125 -0.515625 -0.890625 C -0.710938 -1.078125 -0.851562 -1.257812 -0.9375 -1.4375 C -1.019531 -1.613281 -1.082031 -1.8125 -1.125 -2.03125 C -1.175781 -2.257812 -1.222656 -2.515625 -1.265625 -2.796875 C -1.316406 -3.078125 -1.410156 -3.398438 -1.546875 -3.765625 C -1.691406 -4.128906 -1.898438 -4.554688 -2.171875 -5.046875 C -2.585938 -5.785156 -2.953125 -6.414062 -3.265625 -6.9375 C -3.578125 -7.457031 -3.851562 -7.914062 -4.09375 -8.3125 C -4.332031 -8.71875 -4.554688 -9.085938 -4.765625 -9.421875 C -4.972656 -9.765625 -5.179688 -10.101562 -5.390625 -10.4375 C -5.609375 -10.769531 -5.835938 -11.140625 -6.078125 -11.546875 C -6.316406 -11.953125 -6.601562 -12.410156 -6.9375 -12.921875 C -7.269531 -13.441406 -7.65625 -14.066406 -8.09375 -14.796875 C -8.382812 -15.285156 -8.625 -15.660156 -8.8125 -15.921875 C -9.007812 -16.191406 -9.175781 -16.398438 -9.3125 -16.546875 C -9.457031 -16.691406 -9.613281 -16.828125 -9.78125 -16.953125 C -9.957031 -17.085938 -10.171875 -17.265625 -10.421875 -17.484375 C -10.472656 -17.535156 -10.546875 -17.609375 -10.640625 -17.703125 C -10.742188 -17.804688 -10.828125 -17.929688 -10.890625 -18.078125 C -10.953125 -18.234375 -10.960938 -18.40625 -10.921875 -18.59375 C -10.878906 -18.78125 -10.753906 -18.984375 -10.546875 -19.203125 L -7.890625 -22.046875 C -7.691406 -22.265625 -7.515625 -22.445312 -7.359375 -22.59375 C -7.203125 -22.738281 -7.03125 -22.84375 -6.84375 -22.90625 C -6.65625 -22.976562 -6.414062 -22.984375 -6.125 -22.921875 C -5.84375 -22.859375 -5.46875 -22.726562 -5 -22.53125 C -4.539062 -22.34375 -3.953125 -22.0625 -3.234375 -21.6875 C -2.367188 -21.238281 -1.601562 -20.835938 -0.9375 -20.484375 C -0.28125 -20.140625 0.304688 -19.828125 0.828125 -19.546875 C 1.347656 -19.273438 1.847656 -19.007812 2.328125 -18.75 C 2.816406 -18.488281 3.328125 -18.222656 3.859375 -17.953125 C 4.390625 -17.679688 4.984375 -17.382812 5.640625 -17.0625 C 6.304688 -16.738281 7.082031 -16.351562 7.96875 -15.90625 C 8.46875 -15.664062 8.898438 -15.488281 9.265625 -15.375 C 9.640625 -15.257812 9.96875 -15.1875 10.25 -15.15625 C 10.539062 -15.125 10.800781 -15.09375 11.03125 -15.0625 C 11.257812 -15.039062 11.46875 -14.992188 11.65625 -14.921875 C 11.84375 -14.859375 12.035156 -14.734375 12.234375 -14.546875 C 12.429688 -14.359375 12.519531 -14.148438 12.5 -13.921875 C 12.488281 -13.703125 12.410156 -13.476562 12.265625 -13.25 C 12.117188 -13.019531 11.9375 -12.785156 11.71875 -12.546875 L 8.09375 -8.671875 C 7.9375 -8.503906 7.757812 -8.363281 7.5625 -8.25 C 7.375 -8.132812 7.175781 -8.070312 6.96875 -8.0625 C 6.769531 -8.0625 6.585938 -8.140625 6.421875 -8.296875 C 6.179688 -8.515625 6.007812 -8.707031 5.90625 -8.875 C 5.8125 -9.039062 5.722656 -9.207031 5.640625 -9.375 C 5.566406 -9.539062 5.457031 -9.722656 5.3125 -9.921875 C 5.175781 -10.128906 4.945312 -10.382812 4.625 -10.6875 C 4.445312 -10.84375 4.25 -11.003906 4.03125 -11.171875 L 1.515625 -8.46875 C 1.609375 -8.382812 1.707031 -8.304688 1.8125 -8.234375 C 1.925781 -8.160156 2.03125 -8.085938 2.125 -8.015625 C 2.488281 -7.765625 2.785156 -7.582031 3.015625 -7.46875 C 3.253906 -7.363281 3.457031 -7.28125 3.625 -7.21875 C 3.800781 -7.15625 3.972656 -7.078125 4.140625 -6.984375 C 4.316406 -6.890625 4.523438 -6.734375 4.765625 -6.515625 C 4.929688 -6.359375 5.019531 -6.179688 5.03125 -5.984375 C 5.039062 -5.785156 4.992188 -5.582031 4.890625 -5.375 C 4.796875 -5.175781 4.671875 -5 4.515625 -4.84375 Z M -2.078125 -11.859375 L -0.328125 -13.75 C -0.734375 -13.957031 -1.164062 -14.179688 -1.625 -14.421875 C -2.082031 -14.660156 -2.570312 -14.910156 -3.09375 -15.171875 C -3.394531 -15.328125 -3.65625 -15.445312 -3.875 -15.53125 C -4.101562 -15.613281 -4.253906 -15.609375 -4.328125 -15.515625 C -4.378906 -15.429688 -4.34375 -15.269531 -4.21875 -15.03125 C -4.09375 -14.789062 -3.925781 -14.503906 -3.71875 -14.171875 C -3.519531 -13.847656 -3.304688 -13.519531 -3.078125 -13.1875 C -2.847656 -12.863281 -2.640625 -12.582031 -2.453125 -12.34375 C -2.265625 -12.101562 -2.140625 -11.941406 -2.078125 -11.859375 Z M -2.078125 -11.859375 "/></g></g></g></svg>